<?xml version="1.0" encoding="UTF-8"?>
<!DOCTYPE svg PUBLIC "-//W3C//DTD SVG 1.1//EN" "http://www.w3.org/Graphics/SVG/1.1/DTD/svg11.dtd">
<!-- Creator: CorelDRAW 2020 (64-Bit) -->
<svg xmlns="http://www.w3.org/2000/svg" xml:space="preserve" width="80px" height="80px" version="1.1" style="shape-rendering:geometricPrecision; text-rendering:geometricPrecision; image-rendering:optimizeQuality; fill-rule:evenodd; clip-rule:evenodd"
viewBox="0 0 13661 13661"
 xmlns:xlink="http://www.w3.org/1999/xlink"
 xmlns:xodm="http://www.corel.com/coreldraw/odm/2003">
 <defs>
  <style type="text/css">
   <![CDATA[
    .fil1 {fill:#00A796}
    .fil0 {fill:#ECF1F9;fill-rule:nonzero}
   ]]>
  </style>
 </defs>
 <g id="Layer_x0020_1">
  <metadata id="CorelCorpID_0Corel-Layer"/>
  <path class="fil0" d="M6830 0l0 0c3772,0 6831,3059 6831,6830l0 0c0,3772 -3059,6831 -6831,6831l0 0c-3771,0 -6830,-3059 -6830,-6831l0 0c0,-3771 3059,-6830 6830,-6830z"/>
  <polygon class="fil1" points="9136,4525 7644,4525 7644,6108 6039,6108 6039,7622 4525,7622 4525,9136 6039,9136 6039,9136 9135,9136 9135,6288 9136,6288 "/>
 </g>
</svg>
