<svg width="40" height="40" viewBox="0 0 40 40" fill="none" xmlns="http://www.w3.org/2000/svg">
<path d="M22.1494 32.6049L34.1172 8.27463C33.4354 9.67416 32.7536 11.0737 32.0628 12.4642C31.6142 13.3793 31.1656 14.2944 30.7171 15.2095C29.7482 17.1742 28.7793 19.1479 27.8104 21.1126C25.8815 25.042 23.9706 28.9805 22.0149 32.892C21.3061 34.3184 20.095 35.1617 18.4981 35.1886C14.0483 35.2604 5.00523 35.2783 4.84375 35.2694L12.9538 35.2066L18.2469 7.88886C18.8749 6.77642 19.7092 5.93311 21.0191 5.58323C21.3959 5.48454 21.7727 5.43072 22.1674 5.43072C26.4647 5.4038 30.7709 5.37689 35.0682 5.33203C35.1579 5.33203 35.2386 5.33203 35.3014 5.341L27.4156 5.4038L22.1494 32.6049Z" fill="url(#paint0_linear_5239_8784)"/>
<path d="M18.2557 8.03125L17.6367 9.26929C17.7982 8.94633 17.9597 8.62336 18.1212 8.29142C18.166 8.21068 18.2109 8.12096 18.2557 8.03125Z" fill="#8680AE"/>
<path d="M35.5194 5.73828C35.5014 5.77417 35.4835 5.81902 35.4566 5.87285C35.1785 6.42907 34.8914 6.9853 34.6133 7.54152L35.5194 5.73828Z" fill="#8680AE"/>
<path d="M9.36056 14.6791C6.81271 14.6701 4.77621 12.6157 4.78519 10.0499C4.79416 7.51102 6.88448 5.4207 9.42336 5.46555C12.052 5.51041 13.9629 7.50204 13.9987 10.0948C14.0257 12.6336 11.9174 14.6881 9.36056 14.6791Z" fill="url(#paint1_linear_5239_8784)"/>
<path d="M30.9672 35.1982C28.3924 35.1892 26.3739 33.1438 26.3828 30.5421C26.3918 28.048 28.4911 25.9577 30.9941 25.9846C33.515 26.0115 35.6233 28.0839 35.5964 30.6497C35.5785 33.0271 33.5509 35.27 30.9672 35.1982Z" fill="url(#paint2_linear_5239_8784)"/>
<path d="M18.3466 7.88281L12.8562 35.1646H4.74609C5.4638 33.7202 6.14562 32.3476 6.83641 30.975C10.4249 23.7531 14.0314 16.5491 17.611 9.33617L17.6379 9.27337L18.2569 8.03533V8.02635C18.2928 7.9815 18.3197 7.92767 18.3466 7.88281Z" fill="url(#paint3_linear_5239_8784)"/>
<path d="M4.66406 35.1515L17.6097 9.33203C14.0301 16.545 10.4237 23.749 6.82615 30.9619C6.14433 32.3345 5.45354 33.7071 4.73583 35.1515H4.66406Z" fill="#69559F"/>
<path d="M18.3598 7.84375L18.3508 7.87084C18.3237 7.92502 18.2966 7.97018 18.2695 8.02436L18.3598 7.84375Z" fill="#69559F"/>
<path d="M35.5246 5.73905L34.6185 7.54229L34.1968 8.37662L22.0586 32.6261L27.5311 5.46094H35.4169C35.5604 5.48785 35.5963 5.55962 35.5246 5.73905Z" fill="url(#paint4_linear_5239_8784)"/>
<path d="M35.5229 5.73905C35.5946 5.55065 35.5588 5.47888 35.4062 5.46094H35.6574L35.5229 5.73905Z" fill="#69559F"/>
<defs>
<linearGradient id="paint0_linear_5239_8784" x1="27.4383" y1="7.04455" x2="16.1709" y2="27.6531" gradientUnits="userSpaceOnUse">
<stop stop-color="#67519F"/>
<stop offset="1" stop-color="#ACA7D1"/>
</linearGradient>
<linearGradient id="paint1_linear_5239_8784" x1="4.78085" y1="10.0728" x2="13.9907" y2="10.0728" gradientUnits="userSpaceOnUse">
<stop stop-color="#67519F"/>
<stop offset="1" stop-color="#ACA7D1"/>
</linearGradient>
<linearGradient id="paint2_linear_5239_8784" x1="26.3858" y1="30.5931" x2="35.6024" y2="30.5931" gradientUnits="userSpaceOnUse">
<stop stop-color="#67519F"/>
<stop offset="1" stop-color="#ACA7D1"/>
</linearGradient>
<linearGradient id="paint3_linear_5239_8784" x1="20.5614" y1="12.0143" x2="7.82564" y2="36.4035" gradientUnits="userSpaceOnUse">
<stop stop-color="#67519F"/>
<stop offset="1" stop-color="#ACA7D1"/>
</linearGradient>
<linearGradient id="paint4_linear_5239_8784" x1="32.1159" y1="4.03417" x2="22.6785" y2="29.1093" gradientUnits="userSpaceOnUse">
<stop stop-color="#67519F"/>
<stop offset="1" stop-color="#ACA7D1"/>
</linearGradient>
</defs>
</svg>
