<svg width="40" height="40" viewBox="0 0 40 40" fill="none" xmlns="http://www.w3.org/2000/svg">
<path fill-rule="evenodd" clip-rule="evenodd" d="M19.021 5.04655L12.1646 9.08469C10.3979 9.79978 10.7764 11.7347 10.7764 11.7347L10.7344 26.4151L14.3939 24.3119C12.5011 17.1189 19.021 15.8991 19.021 15.8991V10.1363C19.1472 8.32754 20.4091 9.46327 20.4091 9.46327L29.4529 14.6372L29.4108 11.8189C29.4529 9.46327 28.0648 9.12676 28.0648 9.12676L21.1242 5.04655C20.7456 4.7521 20.4091 4.66797 20.0726 4.66797C19.4416 4.66797 19.021 5.04655 19.021 5.04655Z" fill="url(#paint0_radial_5239_8639)"/>
<path fill-rule="evenodd" clip-rule="evenodd" d="M10.7344 26.4143L10.7764 11.734C10.7764 11.734 10.3979 9.79902 12.1646 9.08393L19.021 5.04578C19.021 5.04578 20.0305 4.2045 21.1663 5.04578L28.1068 9.16806C28.1068 9.16806 29.4949 9.54663 29.4529 11.8602L29.4949 14.6784L20.4091 9.4625C20.4091 9.4625 19.1051 8.32677 19.021 10.1355V15.8983C19.021 15.8983 12.5011 17.1182 14.3939 24.3111L10.7344 26.4143Z" stroke="#AA1F00" stroke-width="1.18"/>
<path fill-rule="evenodd" clip-rule="evenodd" d="M20.8711 11.8164L33.7427 19.2617C33.7427 19.2617 35.6356 19.9348 35.3832 21.8277L35.5094 29.7357C35.5094 29.7357 35.7197 31.0397 34.4578 31.5445L27.4331 35.4564C27.4331 35.4564 26.4235 36.4659 24.4045 35.2461L21.9227 33.858L30.9665 28.6841C30.9665 28.6841 32.607 28.1373 31.0506 27.1277L26.0029 24.2253C26.0029 24.2253 28.1482 17.9998 20.9132 16.0228L20.8711 11.8164Z" fill="#D12236"/>
<path fill-rule="evenodd" clip-rule="evenodd" d="M20.8711 11.8164L33.7427 19.2617C33.7427 19.2617 35.6356 19.9348 35.3832 21.8277L35.5094 29.7357C35.5094 29.7357 35.7197 31.0397 34.4578 31.5444L27.4331 35.4564C27.4331 35.4564 26.4235 36.4659 24.4045 35.2461L21.9227 33.858L30.9665 28.6841C30.9665 28.6841 32.607 28.1373 31.0506 27.1277L26.0029 24.2253C26.0029 24.2253 28.1482 17.9998 20.9132 16.0228L20.8711 11.8164Z" stroke="#AA1F00" stroke-width="1.18"/>
<path fill-rule="evenodd" clip-rule="evenodd" d="M28.6183 27.9668L15.6626 35.2859C15.6626 35.2859 14.1483 36.5478 12.634 35.4121L5.7355 31.5001C5.7355 31.5001 4.51565 31.0374 4.6839 29.6493L4.89422 21.6151C4.89422 21.6151 4.51565 20.227 6.61885 19.1333L9.05856 17.7031L8.93237 28.0929C8.93237 28.0929 8.59586 29.7755 10.2364 28.9763L15.284 26.1159C15.284 26.1159 19.5746 31.1216 24.9588 25.9056L28.6183 27.9668Z" fill="#D12236"/>
<path fill-rule="evenodd" clip-rule="evenodd" d="M28.6183 27.9668L15.6626 35.2859C15.6626 35.2859 14.1483 36.5478 12.634 35.4121L5.7355 31.5001C5.7355 31.5001 4.51565 31.0374 4.6839 29.6493L4.89422 21.6151C4.89422 21.6151 4.51565 20.227 6.61885 19.1333L9.05856 17.7031L8.93237 28.0929C8.93237 28.0929 8.59586 29.7755 10.2364 28.9763L15.284 26.1159C15.284 26.1159 19.5746 31.1216 24.9588 25.9056L28.6183 27.9668Z" stroke="#AA1F00" stroke-width="1.18"/>
<path fill-rule="evenodd" clip-rule="evenodd" d="M15.6602 22.1214C15.6602 24.5191 17.6372 26.4961 20.0348 26.4961C22.4745 26.4961 24.4095 24.5191 24.4095 22.1214C24.4095 19.6817 22.4325 17.7468 20.0348 17.7468C17.6372 17.7047 15.6602 19.6817 15.6602 22.1214Z" fill="url(#paint1_linear_5239_8639)"/>
<path fill-rule="evenodd" clip-rule="evenodd" d="M24.4492 22.1247C24.4492 19.6849 22.4722 17.75 20.0745 17.75C17.6348 17.75 15.6999 19.727 15.6999 22.1247C15.6578 24.5223 17.6348 26.4993 20.0325 26.4993C22.4722 26.4993 24.4492 24.5223 24.4492 22.1247Z" stroke="#FF9F00" stroke-width="2.5481"/>
<defs>
<radialGradient id="paint0_radial_5239_8639" cx="0" cy="0" r="1" gradientUnits="userSpaceOnUse" gradientTransform="translate(13.7212 7.93029) scale(7.66962)">
<stop stop-color="white"/>
<stop offset="0.0142346" stop-color="#FEFBFB"/>
<stop offset="0.2907" stop-color="#EEAEB0"/>
<stop offset="0.5372" stop-color="#E27175"/>
<stop offset="0.7449" stop-color="#D9454A"/>
<stop offset="0.9056" stop-color="#D32A30"/>
<stop offset="1" stop-color="#D12026"/>
</radialGradient>
<linearGradient id="paint1_linear_5239_8639" x1="24.539" y1="26.7515" x2="15.0324" y2="16.9072" gradientUnits="userSpaceOnUse">
<stop stop-color="#FFD886"/>
<stop offset="0.08" stop-color="#FFD886"/>
<stop offset="0.49" stop-color="#FFD454"/>
<stop offset="1" stop-color="#FFD20B"/>
</linearGradient>
</defs>
</svg>
