<svg width="40" height="40" viewBox="0 0 40 40" fill="none" xmlns="http://www.w3.org/2000/svg">
<path fill-rule="evenodd" clip-rule="evenodd" d="M31.948 8.04297C32.0201 8.08622 32.2943 8.24481 32.3665 8.27365C33.8097 9.03777 34.6611 10.1479 34.6611 11.7338V36.647L23.087 36.6614L20.2152 36.647V26.3818C20.2007 22.691 20.6625 19.548 21.8026 17.2412C21.8026 17.2412 22.986 18.4523 23.4623 20.6149C23.9241 19.3606 24.79 18.3658 26.0888 17.6305C26.9403 22.5757 24.9487 24.9834 21.6583 26.2521V35.3206L33.2324 35.3062V13.017C33.218 11.3445 32.2799 10.2056 30.7213 9.44145L31.948 8.04297Z" fill="#D43E33"/>
<path fill-rule="evenodd" clip-rule="evenodd" d="M7.68969 8.04297C7.61753 8.08622 7.34333 8.24481 7.27117 8.27365C5.82802 9.03777 4.97656 10.1479 4.97656 11.7338V36.647L16.5506 36.6614L19.4225 36.647V26.3818C19.4369 22.691 18.9751 19.548 17.835 17.2412C17.835 17.2412 16.6517 18.4523 16.1754 20.6149C15.7136 19.3606 14.8477 18.3658 13.5489 17.6305C12.6974 22.5757 14.689 24.9834 17.9794 26.2521V35.3206L6.40528 35.3062V13.017C6.41971 11.3445 7.35776 10.2056 8.91637 9.44145L7.68969 8.04297Z" fill="#D43E33"/>
<path fill-rule="evenodd" clip-rule="evenodd" d="M33.3899 5.91016C30.1717 8.56295 28.0647 11.8213 27.7472 16.3051C27.6173 18.064 27.2998 19.102 26.8525 19.9959L26.5927 16.5357C25.8711 16.7808 25.3516 17.1557 24.9331 17.5882C24.4713 16.5646 23.3312 16.3483 21.7148 16.6799C24.3558 10.1489 28.1657 6.37151 33.3899 5.91016Z" fill="#1A1A18"/>
<path fill-rule="evenodd" clip-rule="evenodd" d="M23.1478 12.2533C23.9127 11.0278 24.793 9.93206 25.8753 9.02377C25.4135 7.36577 25.1971 5.62127 25.1393 3.80469C24.4322 5.93846 23.3354 7.72621 21.6758 8.99493C21.9933 10.1627 22.4839 11.244 23.1478 12.2533Z" fill="#D43E33"/>
<path fill-rule="evenodd" clip-rule="evenodd" d="M26.4242 8.51871C25.9191 7.27881 25.6449 5.96684 25.8758 4.49627C26.2077 2.80944 31.1721 4.07816 29.5847 6.05334L26.4242 8.51871Z" fill="#1A1A18"/>
<path fill-rule="evenodd" clip-rule="evenodd" d="M21.4188 8.3478C22.6022 7.2665 23.5258 5.98336 24.1031 4.4407C24.7092 2.79712 20.4519 2.07625 20.4375 4.08027C20.4375 5.56525 20.755 6.99257 21.4188 8.3478Z" fill="#1A1A18"/>
<path fill-rule="evenodd" clip-rule="evenodd" d="M5.98828 5.91016C9.20651 8.56295 11.3135 11.8213 11.631 16.3051C11.7609 18.064 12.0784 19.102 12.5258 19.9959L12.7855 16.5357C13.5071 16.7808 14.0266 17.1557 14.4451 17.5882C14.907 16.5646 16.047 16.3483 17.6634 16.6799C15.0368 10.1489 11.2269 6.37151 5.98828 5.91016Z" fill="#1A1A18"/>
<path fill-rule="evenodd" clip-rule="evenodd" d="M16.2471 12.2533C15.4822 11.0278 14.6019 9.93206 13.5195 9.02377C13.9813 7.36577 14.1978 5.62127 14.2555 3.80469C14.9627 5.93846 16.0595 7.72621 17.7191 8.99493C17.4016 10.1627 16.8965 11.244 16.2471 12.2533Z" fill="#D43E33"/>
<path fill-rule="evenodd" clip-rule="evenodd" d="M12.9572 8.51871C13.4623 7.27881 13.7365 5.96684 13.5056 4.49627C13.1736 2.80944 8.2092 4.07816 9.79667 6.05334L12.9572 8.51871Z" fill="#1A1A18"/>
<path fill-rule="evenodd" clip-rule="evenodd" d="M17.9765 8.34605C16.7931 7.26474 15.8695 5.9816 15.2923 4.43894C14.6717 2.79536 18.929 2.06008 18.9434 4.07851C18.9579 5.5635 18.6259 6.99081 17.9765 8.34605Z" fill="#1A1A18"/>
<path fill-rule="evenodd" clip-rule="evenodd" d="M19.6559 16.2623C20.2765 16.5074 20.6662 16.7957 20.9259 17.1273C21.3877 15.7 21.9361 14.2727 22.701 12.8742C21.1568 10.1061 20.3054 7.10726 19.6415 4.05078C18.9777 7.10726 18.1262 10.1061 16.582 12.8742C17.3613 14.2727 17.8953 15.7 18.3571 17.1273C18.6457 16.7957 19.0354 16.5074 19.6559 16.2623Z" fill="#1A1A18"/>
</svg>
