<svg width="40" height="40" viewBox="0 0 40 40" fill="none" xmlns="http://www.w3.org/2000/svg">
<path d="M26.3205 19.1902C26.0391 18.7916 26.4318 18.0989 26.9422 18.1969C26.8506 18.3733 26.6019 18.3145 26.4907 18.4583C26.399 18.5694 26.4187 18.7458 26.4972 18.8635C26.5888 18.955 26.7262 18.9746 26.8375 19.0203C26.7001 19.1445 26.5168 19.3209 26.3205 19.1902ZM26.6477 18.5432C26.6739 18.4714 26.7655 18.4583 26.8244 18.4125C26.8244 18.5302 26.8244 18.6413 26.8309 18.7589C27.0011 18.7589 27.06 18.5955 27.1189 18.4648C27.2956 18.4452 27.4788 18.4518 27.6555 18.4975C27.4133 18.6217 27.1778 18.7654 26.9226 18.8635C26.7786 18.8569 26.5692 18.7132 26.6477 18.5432Z" fill="white"/>
<path d="M8.20997 3.65078C11.4426 3.62464 14.6753 3.64425 17.9014 3.63771C19.6486 3.64425 21.3958 3.62464 23.143 3.65078C23.1169 3.82723 23.0776 3.99714 23.0449 4.17358C18.1304 4.18012 13.216 4.18012 8.30159 4.17358C8.26887 3.99714 8.23615 3.82723 8.20997 3.65078ZM8.35394 4.44806C8.70076 4.42845 9.04759 4.43499 9.39441 4.43499C13.6021 4.43499 17.8163 4.43499 22.024 4.43499C22.3512 4.43499 22.6719 4.42845 22.9991 4.44806C22.7504 5.97726 22.5148 7.50646 22.2727 9.03567C21.7296 9.01606 21.3369 8.49326 21.2846 7.99006C21.4285 7.7744 21.6314 7.59795 21.7034 7.34309C21.7688 7.08822 21.7885 6.82028 21.8473 6.56541C21.9128 6.2648 22.0829 6.0034 22.1615 5.70932C22.0568 5.74853 21.9586 5.79428 21.8735 5.86616C21.5921 6.10796 21.3238 6.36936 21.1013 6.66998C20.7676 6.31055 20.4273 5.93805 20.0282 5.65051C20.0085 5.90537 20.1983 6.10796 20.2637 6.34322C20.4077 6.69612 20.3619 7.10129 20.5189 7.45418C20.604 7.65023 20.7676 7.80054 20.8723 7.99006C20.8461 8.43444 20.5386 8.86575 20.1132 9.00952C19.701 9.10755 19.2102 9.06834 18.9026 8.74812C18.6736 8.54554 18.6736 8.18611 18.4118 8.0162C18.3202 8.46712 18.6278 8.88536 18.9942 9.12062C19.6224 9.51272 20.5648 9.3036 20.9116 8.63049C21.0883 8.40177 21.0294 8.10115 21.0425 7.83322C21.0948 7.8855 21.1602 7.92471 21.1995 7.99006C21.1799 8.18611 21.1144 8.40176 21.2388 8.57821C21.4285 8.97031 21.8212 9.21211 22.2269 9.32321C22.2073 9.45391 22.1876 9.57807 22.1745 9.70878C18.811 9.72838 15.4475 9.70878 12.0839 9.71531C11.122 9.70878 10.16 9.73492 9.19155 9.70224C9.17192 9.57154 9.15229 9.44084 9.13266 9.3036C9.46639 9.1533 9.80013 8.95724 9.97027 8.62396C10.1077 8.42791 10.075 8.17304 10.0226 7.95085C10.0815 7.91817 10.1339 7.8855 10.1928 7.84629C10.1862 8.08155 10.1404 8.32988 10.2713 8.54554C10.4807 9.00953 10.978 9.32974 11.4884 9.31014C12.169 9.35588 12.8823 8.74812 12.8234 8.04234C12.7841 8.05541 12.6991 8.08808 12.6532 8.10115C12.542 8.49979 12.2868 8.89189 11.868 9.01606C11.5342 9.08141 11.1416 9.09448 10.8537 8.87882C10.533 8.66317 10.3629 8.29067 10.3236 7.91164C10.4807 7.794 10.6312 7.65023 10.7032 7.45418C10.8537 7.11436 10.8144 6.73533 10.9388 6.38897C11.0173 6.14064 11.1612 5.91844 11.2267 5.66358C11.1285 5.70279 11.0369 5.742 10.9584 5.81388C10.6574 6.08182 10.3825 6.36283 10.1142 6.66344C9.81976 6.29748 9.49911 5.92498 9.08031 5.69625C9.13266 5.99687 9.29625 6.25827 9.37478 6.55234C9.44676 6.82682 9.45331 7.11436 9.53183 7.3823C9.60381 7.61756 9.80667 7.78093 9.93755 7.98352C9.89174 8.46058 9.55146 8.89843 9.08031 9.03567C8.84473 7.513 8.58297 5.98379 8.35394 4.44806ZM10.0488 4.97086C9.9899 5.2388 10.0423 5.51327 10.0292 5.78774C9.93755 5.60476 9.91792 5.38257 9.7805 5.23226C9.7216 5.22573 9.61036 5.21919 9.55801 5.21919C9.55146 5.53288 9.78704 5.7616 9.97027 5.98379C10.0423 5.95112 10.1077 5.91844 10.1797 5.87923C10.2255 5.6309 10.3105 5.38257 10.2975 5.12117C10.2975 4.98393 10.1404 5.00354 10.0488 4.97086ZM12.7187 5.11463C12.7252 5.38257 12.7972 5.64397 12.7841 5.91191C12.8234 5.91191 12.9019 5.91844 12.9477 5.91844C12.9412 5.65051 12.9935 5.38257 13.0066 5.11463C13.0066 4.94472 12.7252 4.94472 12.7187 5.11463ZM15.4802 4.98393C15.3951 5.27801 15.4867 5.58516 15.5456 5.8727C15.6176 5.90537 15.6896 5.93151 15.7616 5.96419C15.9579 5.75507 16.1804 5.51981 16.1738 5.21919C16.1149 5.21919 15.9906 5.21266 15.9317 5.21266C15.8466 5.42178 15.7747 5.6309 15.6896 5.84002C15.6961 5.55902 15.7223 5.28454 15.7158 5.00354C15.6438 5.00354 15.5587 4.997 15.4802 4.98393ZM18.2417 4.9774C18.137 5.28454 18.2875 5.59823 18.2875 5.90537C18.3922 5.89884 18.5362 5.99033 18.6147 5.87923C18.7717 5.69625 18.9092 5.48713 18.9681 5.25187C18.9092 5.2388 18.7914 5.20612 18.7325 5.19305C18.6016 5.39564 18.5427 5.6309 18.4511 5.85309C18.4315 5.60476 18.4904 5.36296 18.5034 5.12117C18.4838 4.98393 18.3398 5.00354 18.2417 4.9774ZM20.9378 5.01007C20.9181 5.30415 20.9901 5.59169 21.049 5.87923C21.121 5.91844 21.1864 5.95765 21.2584 5.99033C21.4482 5.77467 21.6314 5.53941 21.7034 5.2584C21.6314 5.23226 21.5594 5.19959 21.4874 5.17345C21.3435 5.35643 21.2977 5.58516 21.193 5.79428C21.1668 5.51981 21.2388 5.24533 21.1799 4.9774C21.1079 4.99047 21.0228 4.997 20.9378 5.01007ZM10.2778 5.95112C10.5396 5.80735 10.6966 5.51981 10.7359 5.23226C10.677 5.22573 10.5527 5.20612 10.4938 5.19959C10.3825 5.43485 10.2778 5.68318 10.2778 5.95112ZM12.2606 5.24533C12.3457 5.52634 12.4831 5.83349 12.7579 5.97072C12.7187 5.69625 12.6532 5.42178 12.4962 5.18652C12.4373 5.20612 12.3195 5.23226 12.2606 5.24533ZM13.1768 5.29108C13.0655 5.5002 13.0132 5.742 12.9739 5.97726C13.2487 5.82695 13.4123 5.52634 13.4712 5.22573C13.3796 5.23226 13.2226 5.16691 13.1768 5.29108ZM15.0025 5.23226C15.0548 5.51327 15.2053 5.80081 15.4606 5.94458C15.4736 5.67665 15.3624 5.42832 15.2446 5.19959C15.1792 5.21266 15.0614 5.22573 15.0025 5.23226ZM17.7509 5.21919C17.8163 5.49367 17.9407 5.85963 18.2417 5.93151C18.1959 5.70932 18.1501 5.48713 18.0454 5.29108C17.9996 5.17345 17.8425 5.2388 17.7509 5.21919ZM20.4862 5.23226C20.5386 5.51981 20.6891 5.80735 20.9508 5.95112C20.9508 5.68318 20.8592 5.43485 20.7349 5.19959C20.676 5.20612 20.5517 5.22573 20.4862 5.23226ZM9.28317 5.34336C9.23736 5.41525 9.19155 5.49367 9.15229 5.56555C9.36169 5.80081 9.59727 6.00994 9.87866 6.15371C9.74778 5.84656 9.57109 5.53941 9.28317 5.34336ZM10.8668 5.39564C10.6966 5.63744 10.5003 5.86616 10.4283 6.15371C10.6639 5.99687 10.906 5.83349 11.0893 5.60476C11.0958 5.53288 11.0958 5.45446 11.0958 5.38257C11.0173 5.3891 10.9388 5.38911 10.8668 5.39564ZM11.9007 5.38257C11.9007 5.50674 11.9269 5.62437 11.9858 5.72893C11.9203 5.72893 11.8549 5.72893 11.7829 5.72893C11.8942 6.00994 12.0381 6.27787 12.1101 6.57195C12.169 6.83335 12.1755 7.10129 12.2541 7.35616C12.3195 7.59795 12.4962 7.78093 12.6598 7.96392C12.7907 7.93778 12.9215 7.93124 13.0459 7.95738C13.1768 7.83322 13.3207 7.70251 13.3992 7.5326C13.5498 7.23853 13.5367 6.8987 13.6152 6.57849C13.6872 6.27787 13.8508 6.0034 13.9358 5.70932C13.4843 5.90537 13.2029 6.33015 12.8626 6.66998C12.6009 6.34322 12.2475 6.08836 11.9989 5.74853C12.1821 5.85309 12.3391 5.99686 12.5093 6.12757C12.5093 6.08836 12.5093 6.00994 12.5158 5.97726C12.4046 5.77467 12.2737 5.57209 12.1101 5.40218C12.0447 5.39564 11.9727 5.3891 11.9007 5.38257ZM13.6086 5.3891C13.432 5.6113 13.2618 5.83349 13.1571 6.10143C13.4058 6.00994 13.6152 5.83349 13.7853 5.63744C13.8573 5.56555 13.7919 5.46753 13.7788 5.38257C13.7395 5.38257 13.6479 5.3891 13.6086 5.3891ZM14.6491 5.38257C14.6426 5.42832 14.6229 5.51327 14.6164 5.55902C14.6622 5.62437 14.708 5.68972 14.7604 5.7616C14.6688 5.742 14.5771 5.72239 14.4921 5.70279C14.6229 6.02954 14.7996 6.34976 14.8716 6.69612C14.924 6.93138 14.9043 7.18624 15.009 7.40844C15.1006 7.6437 15.2904 7.81361 15.382 8.04887C15.3231 8.47365 15.0287 8.85922 14.6229 9.00952C14.2565 9.09448 13.8246 9.08795 13.5236 8.82654C13.2422 8.62396 13.1637 8.26453 12.9935 7.97699C12.9412 8.10115 12.8823 8.23185 12.9281 8.36255C13.059 8.79387 13.4254 9.14676 13.8573 9.27093C14.2499 9.34935 14.6818 9.31667 15.009 9.07488C15.297 8.90496 15.4278 8.57821 15.598 8.30374C15.7485 8.59782 15.9055 8.91803 16.2 9.08795C16.5207 9.31014 16.9329 9.33628 17.3059 9.27746C17.7444 9.1729 18.1174 8.83961 18.2679 8.41483C18.3137 8.23185 18.281 8.04887 18.2744 7.85936C18.3791 7.89857 18.51 8.0162 18.5951 7.8855C18.9353 7.61756 19.0139 7.17318 19.0597 6.768C19.0989 6.38897 19.2887 6.05568 19.4261 5.70932C19.3541 5.71586 19.2822 5.72239 19.2167 5.73546C19.2494 5.65704 19.2887 5.57862 19.3214 5.5002C19.3018 5.46753 19.2691 5.40871 19.2494 5.38257C19.2102 5.38257 19.1317 5.37603 19.0989 5.37603C18.9157 5.59169 18.739 5.82042 18.654 6.09489C18.8503 6.0034 19.0139 5.86616 19.1971 5.74853C19.1513 5.88577 19.0335 5.97072 18.9353 6.06875C18.7259 6.25173 18.5362 6.46085 18.3595 6.66998C18.1239 6.3955 17.8425 6.16678 17.6266 5.87923C17.7771 5.97072 17.921 6.06875 18.0715 6.15371C17.9865 5.85963 17.7836 5.63744 17.6135 5.3891C17.535 5.3891 17.463 5.38257 17.3844 5.38257C17.391 5.51981 17.4303 5.65051 17.4891 5.76814C17.4041 5.72893 17.319 5.68318 17.2339 5.64397C17.3256 5.93151 17.4826 6.19292 17.5677 6.48046C17.6724 6.80721 17.6397 7.17317 17.7967 7.49339C17.8818 7.68291 18.0519 7.81361 18.137 8.00313C18.0846 8.49979 17.6986 8.98992 17.1816 9.0422C16.8937 9.06834 16.5796 9.06181 16.3309 8.89189C16.0233 8.71545 15.8597 8.37563 15.7812 8.04234C15.755 7.91164 15.899 7.83975 15.971 7.74826C16.2131 7.49993 16.2524 7.1405 16.3047 6.81375C16.344 6.42164 16.5337 6.07529 16.6777 5.71586C16.6057 5.72239 16.5337 5.72893 16.4683 5.742C16.5076 5.65704 16.5468 5.57862 16.5861 5.49367C16.5141 5.45446 16.4487 5.35643 16.3571 5.39564C16.1215 5.59169 15.971 5.86616 15.8597 6.14717C16.0495 6.02301 16.2327 5.88577 16.416 5.74853C16.416 5.77467 16.4225 5.82695 16.4225 5.85309C16.1084 6.08182 15.827 6.34976 15.6045 6.66998C15.3428 6.35629 15.0221 6.09489 14.7604 5.78121C14.9567 5.8923 15.1268 6.03608 15.31 6.16024C15.2315 5.86616 15.0221 5.64397 14.852 5.39564C14.7931 5.38911 14.7211 5.3891 14.6491 5.38257ZM20.1329 5.38257C20.1329 5.46099 20.1329 5.53288 20.1329 5.60476C20.3161 5.82695 20.5582 5.99687 20.8003 6.15371C20.7349 5.85963 20.5124 5.63744 20.3554 5.3891C20.2834 5.3891 20.2114 5.3891 20.1329 5.38257ZM21.3566 6.15371C21.6249 5.99687 21.867 5.80081 22.0698 5.57209C22.024 5.5002 21.9782 5.42178 21.939 5.34989C21.6576 5.53288 21.494 5.84656 21.3566 6.15371ZM9.87211 6.14717C9.93755 6.29094 10.0423 6.40857 10.1666 6.50006C10.2386 6.40857 10.3236 6.32362 10.376 6.21906C10.3498 6.14064 10.3171 6.05568 10.2451 6.0034C10.0946 5.96419 9.98336 6.08182 9.87211 6.14717ZM12.7252 5.98379C12.7056 6.08182 12.6271 6.17331 12.6532 6.27787C12.7121 6.36936 12.7907 6.44125 12.8626 6.5262C12.9412 6.40857 13.0917 6.31055 13.0851 6.16024C13.0328 5.99687 12.8692 5.99687 12.7252 5.98379ZM15.3297 6.21252C15.4082 6.30401 15.4867 6.3955 15.5653 6.49353C15.67 6.40857 15.7616 6.31708 15.8597 6.22559C15.7747 6.1341 15.7158 5.95765 15.5587 6.00994C15.4409 6.00994 15.4017 6.14717 15.3297 6.21252ZM18.1959 6.05568C18.0257 6.19945 18.2155 6.38243 18.3071 6.5066C18.4118 6.41511 18.51 6.32362 18.6016 6.22559C18.5296 6.07529 18.3529 5.89884 18.1959 6.05568ZM20.9116 6.08836C20.7742 6.2452 20.9705 6.38243 21.0621 6.50006C21.1602 6.40857 21.2584 6.31055 21.35 6.21906C21.2584 6.06875 21.049 5.87923 20.9116 6.08836ZM9.28317 10.0094C9.4075 10.0029 9.53183 9.98978 9.66271 9.98978C13.3076 9.98978 16.946 9.98978 20.5909 9.98978C21.0883 10.0029 21.5856 9.96364 22.0829 10.0159C22.0895 10.0617 22.1026 10.1532 22.1026 10.1989C17.8229 10.2054 13.5367 10.2054 9.25699 10.1989C9.26353 10.1532 9.27662 10.0551 9.28317 10.0094ZM9.28971 10.3623C13.5498 10.3623 17.8098 10.3557 22.0698 10.3623C21.5529 13.5449 21.0686 16.734 20.5648 19.9165C20.3161 21.1124 20.2114 22.3868 20.6171 23.5631C20.8592 24.3212 21.4351 24.9812 22.1811 25.2687C22.7569 25.4909 23.3001 25.8242 23.6927 26.3013C23.9087 26.5692 24.0723 26.896 24.0395 27.2489C24.033 27.5756 23.7712 27.8632 23.4637 27.9481C23.1496 28.0069 22.8093 28.0135 22.5083 27.8762C21.7623 27.6018 20.8854 27.458 20.1525 27.8501C19.6813 28.0788 19.3541 28.6016 19.4327 29.131C19.557 29.9544 20.2899 30.621 21.1079 30.7255C24.6743 30.732 28.2472 30.719 31.8202 30.732C31.8202 30.9412 31.8202 31.1568 31.8202 31.3659C30.6292 31.4052 29.4382 31.3725 28.2472 31.379C21.3238 31.3725 14.4005 31.3856 7.48361 31.3725C7.47706 31.1568 7.47706 30.9412 7.49015 30.7255C10.4872 30.7255 13.4778 30.7255 16.4683 30.7255C16.8086 30.719 17.1554 30.7517 17.4957 30.6863C17.4303 30.6471 17.3648 30.6209 17.2994 30.6013C15.7747 30.4249 14.3808 29.5819 13.4254 28.4056C12.3588 27.1051 11.7895 25.4779 11.4688 23.8441C10.7294 19.3545 10.0292 14.8584 9.28971 10.3623ZM14.9043 14.0546C14.8978 14.6362 14.8782 15.2244 14.8912 15.806C15.1661 15.7472 15.4475 15.708 15.7289 15.6883C15.9121 15.2048 16.0691 14.7146 16.2524 14.2376C16.3113 14.0938 16.344 13.9043 16.2196 13.7866C16.0037 13.5906 15.6896 13.6298 15.4213 13.6298C15.1726 13.6298 14.8782 13.7801 14.9043 14.0546ZM13.4058 14.3291C13.288 14.4728 13.3338 14.6689 13.4123 14.8127C13.6283 15.244 13.8377 15.6883 14.0536 16.1197C14.3023 16.0347 14.5313 15.9105 14.7669 15.7994C14.7407 15.2244 14.7669 14.6493 14.7276 14.0742C14.6884 13.8193 14.3808 13.8781 14.1976 13.8977C13.9031 13.9762 13.5956 14.0938 13.4058 14.3291ZM16.6712 13.9304C16.5076 14.0023 16.4683 14.1853 16.4094 14.3356C16.2524 14.7865 16.0626 15.2244 15.9252 15.6818C16.1738 15.7406 16.4225 15.7994 16.6712 15.8452C16.9656 15.538 17.1947 15.1786 17.4761 14.8584C17.6069 14.7016 17.7771 14.5055 17.6855 14.2833C17.5022 13.937 17.0245 13.767 16.6712 13.9304ZM17.7378 14.8061C17.4172 15.1525 17.1489 15.538 16.8544 15.8975C17.018 16.0543 17.175 16.2242 17.319 16.4007C17.692 16.2112 18.0585 16.0151 18.4249 15.8125C18.6278 15.7014 18.8175 15.4858 18.7914 15.2374C18.7194 14.9891 18.5427 14.7604 18.3202 14.6297C18.1043 14.5513 17.8752 14.6493 17.7378 14.8061ZM12.542 14.976C12.3064 15.1852 12.2344 15.4988 12.2214 15.7994C12.6074 16.1654 13.0328 16.4791 13.4123 16.8516C13.5825 16.6621 13.7461 16.4595 13.9162 16.27C13.7395 15.7472 13.4516 15.2766 13.2291 14.78C12.9935 14.793 12.7383 14.8257 12.542 14.976ZM11.4492 16.7732C11.6193 16.9496 11.8614 17.0215 12.0774 17.1326C12.4242 17.2829 12.7449 17.4986 13.1113 17.5966C13.1964 17.4005 13.2684 17.2045 13.3403 17.0019C13.0459 16.7209 12.7252 16.4726 12.4242 16.2046C12.2802 16.0935 12.1428 15.9367 11.9531 15.9171C11.5146 15.8452 11.2529 16.4399 11.4492 16.7732ZM14.6949 16.1458C14.4463 16.2634 14.4724 16.5967 14.564 16.8058C14.7146 17.1587 14.9698 17.4855 15.297 17.6881C15.4998 17.6685 15.6765 17.5574 15.8728 17.492C15.8532 17.1457 15.6896 16.8254 15.7027 16.4791C15.7027 16.3092 15.6961 16.1458 15.6765 15.9759C15.3428 15.9824 15.0025 16.0151 14.6949 16.1458ZM15.9186 16.0608C15.8859 16.5314 15.827 17.0803 16.1411 17.4724C16.3571 17.5116 16.5861 17.4855 16.802 17.479C16.8217 17.1457 16.9264 16.8254 17.0834 16.5379C16.8348 16.1589 16.3571 16.0216 15.9186 16.0608ZM13.4843 17.2241C13.4058 17.4593 13.6348 17.6489 13.7984 17.773C14.1256 17.9822 14.4855 18.2043 14.8912 18.2043C15.0025 18.0932 15.0876 17.9625 15.1792 17.8384C14.9763 17.6227 14.7473 17.4397 14.5837 17.1914C14.4332 16.9692 14.3154 16.7274 14.178 16.4987C13.8246 16.5837 13.6152 16.9104 13.4843 17.2241ZM11.3248 17.1587C11.1285 17.2829 11.0762 17.5247 11.0565 17.7404C11.0369 17.8841 11.05 18.0671 11.194 18.1521C11.5866 18.3089 12.0185 18.2893 12.4242 18.3808C12.6271 18.4265 12.8299 18.4527 13.0328 18.4854C13.0393 18.2566 13.0524 18.0279 13.059 17.7992C12.6532 17.6031 12.241 17.4267 11.8287 17.2502C11.6651 17.1914 11.495 17.1065 11.3248 17.1587ZM13.3731 17.6423C13.2487 17.9952 13.2684 18.3808 13.3469 18.7402C13.3927 18.9101 13.4647 19.0931 13.6217 19.1846C14.0471 19.2303 14.4659 19.1127 14.8912 19.0996C14.8847 18.8579 14.8782 18.6095 14.8847 18.3677C14.3285 18.2566 13.7657 18.0736 13.3731 17.6423ZM15.4671 17.9691C15.1726 18.1978 15.081 18.603 15.1595 18.9559C15.2119 19.1977 15.3755 19.3807 15.5391 19.5571C15.8336 19.8708 16.1084 20.2106 16.4029 20.5243C17.5088 21.6745 18.5951 22.9031 19.2036 24.393C19.6421 25.5105 19.7468 26.7261 19.7337 27.9154C19.9496 27.7651 20.1721 27.6083 20.4339 27.5495C20.7938 27.4384 21.1733 27.4645 21.5398 27.5103C21.2911 26.9482 21.193 26.347 21.0228 25.7654C20.6498 24.5564 20.2179 23.3474 19.5832 22.243C18.8306 21.0536 17.8752 19.9949 17.1816 18.7598C16.9918 18.4331 16.8871 18.0606 16.802 17.6946C16.3571 17.6423 15.8532 17.6881 15.4671 17.9691ZM11.3903 18.5964C11.194 18.786 11.2071 19.0866 11.2463 19.3349C11.3118 19.544 11.567 19.531 11.7437 19.5375C12.2933 19.5114 12.843 19.5179 13.3927 19.5179C13.2618 19.2369 13.1113 18.9624 13.0262 18.6683C12.6467 18.5964 12.2606 18.5768 11.8745 18.5442C11.7175 18.5376 11.5408 18.5115 11.3903 18.5964ZM13.8508 19.3611C13.6152 19.6486 13.9751 20.1257 14.3219 20.0407C14.6884 20.0015 15.0417 19.8839 15.4082 19.8316C15.2512 19.6355 15.1072 19.4329 14.9305 19.25C14.564 19.2042 14.2107 19.348 13.8508 19.3611ZM12.4046 19.7335C12.1428 19.7597 11.868 19.7466 11.6259 19.8708C11.5081 19.9035 11.5212 20.0407 11.5408 20.1322C11.5931 20.3348 11.7371 20.5112 11.9138 20.6223C12.5747 20.57 13.2226 20.3871 13.8573 20.2041C13.7003 20.0211 13.5759 19.812 13.4385 19.6094C13.0851 19.6028 12.7514 19.7074 12.4046 19.7335ZM14.4659 20.1779C14.3612 20.2106 14.2238 20.2694 14.2434 20.4001C14.2565 20.6942 14.564 20.9817 14.8651 20.8837C15.2577 20.7792 15.6569 20.7007 16.0364 20.5439C15.8924 20.3413 15.7289 20.1518 15.5587 19.9753C15.1857 20.0146 14.8258 20.106 14.4659 20.1779ZM12.6467 20.7138C12.4766 20.7726 12.2541 20.7726 12.1494 20.9425C12.1101 21.1582 12.2475 21.3804 12.4308 21.4849C12.5878 21.6026 12.7776 21.4849 12.9412 21.4523C13.4123 21.2954 13.89 21.1713 14.3677 21.034C14.1649 20.8772 14.0078 20.6681 13.9358 20.4132C13.4974 20.472 13.0786 20.6223 12.6467 20.7138ZM15.2446 20.9425C15.1137 20.9883 14.9109 21.034 14.9174 21.2105C14.8782 21.4261 15.0614 21.6156 15.2512 21.6875C15.4409 21.6941 15.6176 21.6026 15.8008 21.5634C16.1149 21.4653 16.4421 21.4196 16.7431 21.2758C16.5599 21.0994 16.429 20.8576 16.2 20.7334C15.8663 20.753 15.5587 20.8641 15.2446 20.9425ZM13.3534 21.5242C13.1768 21.5764 12.9608 21.583 12.8299 21.7398C12.7252 22.0208 13.0001 22.3868 13.3011 22.2953C13.8639 22.1384 14.4332 21.9816 14.9894 21.7986C14.7538 21.6745 14.6491 21.4327 14.6099 21.1778C14.1845 21.2693 13.7722 21.4065 13.3534 21.5242ZM15.6634 21.7529C15.4606 21.9032 15.5522 22.243 15.7419 22.3672C15.9252 22.4391 16.128 22.3868 16.3178 22.341C16.6581 22.2365 17.0049 22.1319 17.3517 22.0339C17.2143 21.8117 17.0376 21.6156 16.8413 21.4392C16.4487 21.5503 16.056 21.6483 15.6634 21.7529ZM13.661 22.3672C13.3927 22.4064 13.4123 22.7527 13.5432 22.9227C13.6675 23.1056 13.9162 23.0599 14.0994 23.0141C14.5902 22.8704 15.081 22.7266 15.5718 22.5828C15.4017 22.4064 15.2839 22.1907 15.1988 21.962C14.6818 22.0404 14.178 22.2299 13.661 22.3672ZM16.2 22.5567C16.0822 22.7593 16.1607 23.073 16.3898 23.1579C16.5534 23.2167 16.7235 23.1448 16.8806 23.1056C17.2339 22.988 17.6004 22.9096 17.9472 22.7658C17.7967 22.5632 17.6266 22.3672 17.4499 22.1842C17.0245 22.2822 16.5992 22.3933 16.2 22.5567ZM14.0798 23.1841C14.0733 23.354 14.0144 23.5566 14.1452 23.6938C14.2696 23.8637 14.5052 23.8114 14.6818 23.7787C15.1857 23.6415 15.683 23.4716 16.1869 23.3409C15.9906 23.1645 15.8663 22.9357 15.755 22.707C15.1923 22.8442 14.636 23.0207 14.0798 23.1841ZM16.7366 23.3017C16.6777 23.5173 16.6777 23.7722 16.8806 23.916C17.0834 23.9879 17.2994 23.9356 17.4957 23.8572C17.8098 23.7395 18.1501 23.6873 18.4511 23.537C18.3398 23.3148 18.209 23.1056 18.065 22.903C17.62 23.0272 17.1816 23.1841 16.7366 23.3017ZM14.6557 23.9552C14.5444 24.1709 14.6164 24.4715 14.8454 24.576C15.0679 24.6283 15.2773 24.5172 15.4867 24.4649C15.8859 24.3342 16.2982 24.2493 16.6908 24.0924C16.5141 23.9094 16.416 23.6742 16.429 23.4193C15.8466 23.6088 15.2381 23.7395 14.6557 23.9552ZM17.2797 24.0859C17.0311 24.2166 17.1554 24.563 17.3386 24.7002C17.5415 24.7917 17.764 24.7198 17.9603 24.6479C18.2286 24.5499 18.51 24.4845 18.7783 24.3996C18.7914 24.38 18.8241 24.3342 18.8372 24.3146C18.7783 24.0859 18.6474 23.8898 18.5427 23.6873C18.1239 23.831 17.692 23.9291 17.2797 24.0859ZM15.3689 24.6544C15.2642 24.6937 15.1203 24.7133 15.0679 24.8309C14.9829 25.0139 15.1006 25.223 15.2446 25.3341C15.382 25.419 15.5522 25.3668 15.7027 25.3341C16.1869 25.1838 16.6777 25.0465 17.1685 24.9093C16.9918 24.7133 16.8609 24.478 16.874 24.2035C16.3898 24.3734 15.8794 24.5041 15.3689 24.6544ZM17.8425 24.844C17.7116 24.8832 17.5219 24.9355 17.535 25.1054C17.4891 25.3929 17.8033 25.687 18.0846 25.5628C18.438 25.4452 18.7914 25.3341 19.1447 25.223C19.112 24.9812 19.04 24.7525 18.9419 24.5303C18.5623 24.6022 18.209 24.7459 17.8425 24.844ZM15.6307 25.5105C15.3428 25.5824 15.4082 26.0268 15.6242 26.151C15.8008 26.2359 16.0037 26.1771 16.1804 26.1314C16.6515 25.9876 17.1292 25.8504 17.6069 25.7131C17.5088 25.6282 17.391 25.5497 17.319 25.4321C17.2667 25.3145 17.2667 25.1838 17.2405 25.0531C16.6973 25.1838 16.1738 25.3733 15.6307 25.5105ZM17.8818 25.7981C17.6986 26.0399 17.908 26.4908 18.2351 26.4254C18.6212 26.3797 18.9681 26.1967 19.3476 26.1183C19.3149 25.87 19.256 25.6282 19.2102 25.3798C18.7652 25.5367 18.3137 25.6347 17.8818 25.7981ZM16.0168 26.347C15.9055 26.3928 15.7419 26.4058 15.7289 26.5496C15.6765 26.7718 15.8205 27.079 16.0757 27.0724C16.2982 27.0659 16.5141 26.9744 16.7301 26.9221C17.09 26.8045 17.463 26.7261 17.8163 26.5758C17.6462 26.3928 17.535 26.1575 17.5415 25.9026C17.0311 26.0595 16.5272 26.2033 16.0168 26.347ZM18.281 26.5954C18.1828 26.6411 18.0323 26.6738 18.0388 26.811C17.9668 27.092 18.2548 27.3992 18.5427 27.3011C18.8503 27.2162 19.1447 27.0986 19.4458 27.0071C19.4196 26.7587 19.3803 26.5169 19.3411 26.2751C18.9942 26.3993 18.6343 26.4908 18.281 26.5954ZM16.272 27.2097C16.1411 27.2554 15.9252 27.2815 15.9383 27.4645C15.899 27.6736 16.0495 27.8697 16.2262 27.9612C16.3832 27.9808 16.5272 27.9154 16.6777 27.8762C17.1423 27.7259 17.62 27.6083 18.0846 27.4514C17.8621 27.3011 17.7509 27.0593 17.7444 26.7979C17.247 26.9025 16.7693 27.092 16.272 27.2097ZM18.3137 27.5364C17.9276 27.6606 18.1959 28.3075 18.5623 28.2422C18.8699 28.1768 19.1513 28.0396 19.4523 27.9546C19.4588 27.6998 19.4654 27.4449 19.4588 27.1966C19.0728 27.3011 18.6867 27.3992 18.3137 27.5364ZM16.7562 28.0069C16.5076 28.0788 16.2524 28.1246 16.0233 28.2618C16.043 28.4121 16.0037 28.5951 16.1149 28.7192C16.2131 28.8173 16.3505 28.9088 16.4879 28.8565C17.0638 28.6931 17.6397 28.5232 18.2155 28.3468C18.1174 28.2814 18.0127 28.2291 17.9341 28.1376C17.8621 28.0069 17.8556 27.8501 17.8294 27.7129C17.4695 27.7847 17.1161 27.9154 16.7562 28.0069ZM18.3333 28.4709C18.0323 28.6016 18.2024 29.046 18.4511 29.1375C18.6605 29.1898 18.8699 29.0852 19.0662 29.0199C19.1513 28.9806 19.2691 28.9545 19.2887 28.8434C19.3411 28.6016 19.3803 28.3598 19.4654 28.1311C19.0989 28.2618 18.6998 28.3206 18.3333 28.4709ZM16.2524 29.0852C15.899 29.229 16.1411 29.7779 16.4618 29.7779C16.5796 29.7779 16.6908 29.7322 16.802 29.6995C17.2732 29.5427 17.764 29.4512 18.2221 29.2551C17.9865 29.1244 17.8949 28.8826 17.8818 28.6278C17.3386 28.7585 16.802 28.9414 16.2524 29.0852ZM23.8301 17.296C24.3929 16.93 25.0866 16.832 25.7409 16.9104C25.9831 16.9431 26.2186 17.0346 26.4215 17.1718C26.2317 17.2764 26.1008 17.4528 25.9831 17.6358C25.7344 17.6815 25.7082 17.3156 25.4857 17.2698C25.1913 17.2241 24.8968 17.3221 24.635 17.4463C24.4387 17.5443 24.2359 17.7273 24.2686 17.9625C24.3209 18.2828 24.5238 18.5768 24.8117 18.7337C24.8902 18.7729 25.0146 18.8709 24.8968 18.9428C24.5827 19.2369 24.2882 19.6486 24.4191 20.0995C24.478 20.3086 24.7266 20.276 24.8968 20.3152C24.8902 20.3674 24.8837 20.4197 24.8771 20.472C24.7332 20.5439 24.5958 20.6288 24.4649 20.7138C24.5303 20.9817 24.7594 21.1386 24.9818 21.2758C24.8379 21.2889 24.6874 21.302 24.5434 21.315C24.563 21.4653 24.5565 21.6287 24.6743 21.7398C24.8052 21.9163 25.0342 21.9555 25.2371 21.9881C25.1324 22.0731 24.9491 22.1188 24.9557 22.2822C25.0931 22.5894 25.4857 22.4979 25.754 22.524C25.6886 22.622 25.6231 22.7266 25.5643 22.8312C25.8129 22.9031 26.0681 22.9161 26.3233 22.9488C26.5 24.4061 26.5916 25.8634 26.7618 27.3207C26.7945 27.7586 26.8141 28.1964 26.9123 28.6212C26.5131 28.4709 26.1008 28.3598 25.669 28.3337C25.2305 28.2357 24.779 28.2291 24.334 28.216C24.478 27.7521 24.563 27.2489 24.4191 26.7718C24.2751 26.2817 23.9283 25.87 23.4964 25.6086C22.7635 25.1511 21.8343 25.0073 21.2322 24.3473C20.8331 23.9487 20.7153 23.3605 20.7087 22.8181C20.7414 21.5568 21.2191 20.3348 21.9128 19.2892C22.4167 18.518 23.0449 17.8057 23.8301 17.296ZM26.5589 17.4005C26.7291 17.3025 26.9515 17.3679 27.0824 17.5051C27.4292 17.8318 27.9462 17.9952 28.1294 18.4657C27.8415 18.2697 27.5536 18.0867 27.2526 17.9103C27.0432 17.7404 26.7421 17.7077 26.4869 17.7926C26.1467 17.9952 25.9896 18.3873 25.6951 18.6422C25.5054 18.7468 25.2567 18.7337 25.0538 18.6618C24.7659 18.505 24.5434 18.1913 24.5172 17.8645C24.6808 17.6489 24.936 17.4724 25.224 17.5116C25.5054 17.5051 25.669 17.773 25.8326 17.956C26.1205 17.8318 26.3037 17.5704 26.5589 17.4005ZM26.0289 18.9624C26.0354 18.5246 26.3691 17.9756 26.8665 18.0344C27.0235 18.0214 27.0955 18.1782 27.1806 18.2762C27.4947 18.2828 27.835 18.3547 27.9986 18.6553C27.7368 18.6879 27.4489 18.6945 27.2264 18.8644C26.9843 19.0147 26.8599 19.2892 26.6178 19.4395C26.3299 19.544 25.9831 19.2761 26.0289 18.9624ZM26.3233 19.1911C26.5197 19.3218 26.7029 19.1519 26.8403 19.0212C26.7225 18.9755 26.5916 18.9493 26.5 18.8644C26.4215 18.7468 26.4019 18.5768 26.4935 18.4592C26.6113 18.3154 26.8599 18.3743 26.945 18.1978C26.4346 18.0998 26.042 18.786 26.3233 19.1911ZM26.6505 18.5442C26.572 18.7141 26.7814 18.8579 26.9254 18.8644C27.1806 18.7664 27.4162 18.6226 27.6583 18.4984C27.4816 18.4592 27.2984 18.4461 27.1217 18.4657C27.0628 18.5964 27.0039 18.7598 26.8338 18.7598C26.8272 18.6422 26.8272 18.5311 26.8272 18.4135C26.7683 18.4592 26.6833 18.4723 26.6505 18.5442ZM24.7855 19.4199C25.008 19.0996 25.3745 18.9101 25.7409 18.8121C25.5643 19.727 25.7082 20.7203 26.2252 21.5045C26.4215 21.8117 26.7094 22.0404 26.9646 22.2888C26.788 22.5371 26.5131 22.6874 26.2121 22.7135C26.1859 22.6939 26.1336 22.6547 26.1074 22.6351C26.1597 22.4783 26.2252 22.3345 26.2841 22.1842C25.9961 22.2299 25.7213 22.3018 25.4268 22.3149C25.5708 22.0862 25.7933 21.8836 25.7737 21.596C25.525 21.6941 25.2567 21.7398 24.9949 21.6614C25.1913 21.4653 25.4726 21.315 25.5054 21.0144C25.2763 20.9883 25.0473 20.9556 24.8183 20.9099C25.0146 20.6485 25.2894 20.4001 25.2763 20.0407C25.0669 20.0472 24.8575 20.0472 24.6547 20.0015C24.6743 19.8054 24.6612 19.5898 24.7855 19.4199ZM27.4816 18.9232C27.7041 18.8121 27.9593 18.8448 28.1949 18.8579C27.9331 18.9428 27.619 18.8971 27.4031 19.0996C27.0955 19.3611 27.2068 19.8446 26.9254 20.1257C26.7683 20.3152 26.5066 20.3021 26.2906 20.2629C26.2972 20.1126 26.2448 19.9361 26.3626 19.8185C26.5262 19.6355 26.7552 19.5114 26.9385 19.3545C27.1151 19.2107 27.2722 19.0278 27.4816 18.9232ZM27.8873 19.0474C28.3454 18.8644 28.7773 19.1977 29.2288 19.2369C29.2092 19.446 29.1634 19.6486 29.0914 19.8381C28.8754 19.6943 28.7904 19.4264 28.5875 19.2696C28.3912 19.1062 28.1229 19.1062 27.8873 19.0474ZM27.7237 19.4852C27.9528 19.3022 28.3388 19.2761 28.5417 19.5179C28.6988 19.6878 28.7576 19.9165 28.8035 20.1387C28.5155 20.2041 28.2341 20.2825 27.9528 20.3674C27.6321 20.4655 27.2853 20.4393 26.9581 20.4589C27.2526 20.1649 27.3834 19.7401 27.7237 19.4852ZM28.0247 20.5766C28.3388 20.5374 28.6071 20.3609 28.9016 20.2694C28.7969 20.5766 28.6202 20.8576 28.3977 21.0928C28.2799 20.9752 28.1883 20.7857 27.992 20.8053C27.5994 20.7922 27.1544 20.7596 26.8141 20.9948C26.5589 21.2039 26.6898 21.6353 26.9974 21.7137C27.2329 21.7594 27.4881 21.7725 27.7303 21.7071C27.9462 21.5764 28.0836 21.3542 28.3127 21.2301C28.1949 21.4849 27.9855 21.7006 27.9266 21.9816C27.8808 22.1188 27.8742 22.2888 27.7695 22.3999C27.6256 22.5763 27.3638 22.5436 27.174 22.4717C27.0824 22.341 27.0759 22.1777 27.0039 22.0339C26.8272 21.8836 26.6047 21.7725 26.5 21.5634C26.3561 21.3281 26.3953 20.9687 26.6505 20.8314C27.0628 20.5831 27.5667 20.6811 28.0247 20.5766ZM26.9712 21.1124C27.2591 20.9491 27.6059 20.9687 27.9135 21.0536C28.0444 21.0732 27.9658 21.2366 27.9724 21.3216C27.6648 21.1713 27.318 21.132 26.9712 21.1124ZM20.7938 28.2487C21.3696 27.9481 22.0502 28.105 22.6392 28.2879C22.986 28.4186 23.3655 28.3664 23.7254 28.4252C24.2489 28.5297 24.7855 28.4971 25.309 28.6082C25.826 28.6343 26.3364 28.7062 26.8272 28.8696C27.2002 29.0068 27.5994 29.0264 27.992 29.0133C28.2996 29.0264 28.5286 28.7519 28.8362 28.7389C29.0325 28.7062 29.1961 28.8761 29.3989 28.8565C29.5298 28.863 29.6803 28.8238 29.785 28.9284C29.8897 29.0721 29.9486 29.2486 30.0533 29.3924C30.23 29.5231 30.4852 29.5492 30.6161 29.7453C30.7666 29.9674 30.8844 30.2027 30.9695 30.4576C30.9106 30.4641 30.7993 30.4641 30.7404 30.4706C30.4329 30.1243 30.1188 29.7845 29.8308 29.4185C29.7523 29.3205 29.6607 29.229 29.556 29.1506C29.5756 29.3139 29.628 29.4642 29.6869 29.6211C29.5036 29.4577 29.3466 29.2747 29.1634 29.1048C29.0783 29.0003 28.9278 29.0395 28.81 29.0264C28.7707 29.3466 29.1372 29.5165 29.1241 29.8302C28.8035 29.8106 28.5548 29.5819 28.2603 29.4839C27.9004 29.3597 27.5143 29.327 27.1282 29.327C26.8534 29.3335 26.6178 29.1702 26.3561 29.0983C25.8064 28.948 25.2436 28.8892 24.6743 28.863C24.0526 28.765 23.4244 28.8173 22.8028 28.7846C22.3578 28.7715 21.9455 28.5624 21.5005 28.5493C21.2584 28.582 20.9966 28.6343 20.8134 28.8107C20.5648 29.0852 20.6302 29.5296 20.8592 29.791C21.0752 30.0328 21.4024 30.1243 21.7099 30.1766C22.3316 30.2354 22.9598 30.17 23.588 30.1896C24.2228 30.2027 24.851 30.0916 25.4857 30.1047C25.9373 30.0785 26.3822 30.1047 26.8338 30.1243C26.8141 30.0916 26.7814 30.0197 26.7618 29.987C26.4215 29.8367 26.0485 29.8171 25.682 29.8106C24.6612 29.791 23.6338 29.791 22.613 29.7975C22.2662 29.8041 21.8473 29.889 21.5791 29.608C21.4285 29.4839 21.3827 29.2159 21.5398 29.0787C21.9651 28.9349 22.4232 29.046 22.8551 29.0917C23.5095 29.229 24.19 29.1375 24.851 29.2682C25.4203 29.327 25.9896 29.425 26.5458 29.5623C27.2787 29.7191 28.1164 29.608 28.738 30.1112C28.9147 30.2811 29.1437 30.3661 29.3924 30.3465C29.3989 30.17 29.412 30.0001 29.4317 29.8237C29.6476 29.876 29.8505 29.9544 30.0599 30.0263C30.3151 30.1178 30.4525 30.3661 30.5507 30.5948C27.6452 30.634 24.7332 30.5948 21.8212 30.5883C21.35 30.536 20.8396 30.4576 20.4731 30.1308C20.1329 29.8433 20.0085 29.3401 20.1329 28.9153C20.231 28.5885 20.5059 28.3794 20.7938 28.2487ZM7.46398 31.7058C7.4967 31.5359 7.69955 31.5751 7.83043 31.5555C15.2446 31.5555 22.6653 31.5555 30.0795 31.5555C30.6619 31.5685 31.2443 31.5163 31.8202 31.5947C31.8202 31.6339 31.8267 31.7123 31.8267 31.7515C23.804 31.7646 15.7812 31.7515 7.76499 31.758C7.66029 31.745 7.53596 31.7777 7.46398 31.7058ZM28.5024 32.2874C28.5875 32.2939 28.6726 32.3005 28.7577 32.3135C28.8035 32.4377 28.81 32.5684 28.7773 32.6991C28.6595 32.6926 28.5417 32.6926 28.4239 32.686C28.3781 32.5423 28.4174 32.405 28.5024 32.2874ZM9.49257 32.4573C9.71506 32.4508 9.93755 32.4508 10.16 32.4508C10.1797 32.9801 10.1208 33.5094 10.1993 34.0322C10.5592 34.0911 10.9322 34.0845 11.2987 34.0584C12.1428 34.078 12.9935 34.1041 13.8377 34.0519C13.8377 34.0061 13.8311 33.9212 13.8246 33.8754C13.7068 33.8166 13.5956 33.7382 13.4581 33.7512C12.7383 33.7447 12.0185 33.7578 11.2921 33.7512C11.0958 33.7382 10.8537 33.7578 10.7359 33.5683C10.5788 33.3395 10.677 33.0455 10.6835 32.7906C10.6312 32.8298 10.5985 32.8886 10.5985 32.954C10.5854 33.1892 10.6181 33.4245 10.6574 33.6532C10.147 33.5094 10.2386 32.771 10.6247 32.5357C10.8471 32.3462 11.1416 32.4834 11.3968 32.503C11.3445 32.6207 11.2856 32.7448 11.2725 32.8755C11.3314 32.9866 11.4295 33.0847 11.5604 33.0716C12.3064 33.0912 13.0459 33.0585 13.7919 33.0847C14.0733 33.0912 14.335 33.2676 14.4724 33.5029C14.5902 33.8427 14.5313 34.2087 14.5444 34.5551C14.3612 34.5747 14.1714 34.6008 13.9816 34.5943C12.9346 34.5877 11.8876 34.5943 10.8406 34.5943C10.448 34.5943 10.0488 34.6204 9.66925 34.5028C9.51874 34.444 9.47948 34.2675 9.49257 34.1237C9.49257 33.5683 9.48602 33.0128 9.49257 32.4573ZM29.6411 32.4508C29.8636 32.4508 30.0926 32.4508 30.3151 32.4508C30.3282 32.967 30.3085 33.4833 30.3216 33.9996C30.6488 34.0976 30.9891 34.0845 31.3228 34.0388C31.349 33.7186 31.3425 33.4049 31.3359 33.0847C31.5519 33.0781 31.7744 33.0781 31.9903 33.0781C31.9969 33.5748 32.0165 34.0715 31.9772 34.5681C31.5584 34.6204 31.1396 34.5943 30.7273 34.6008C30.4394 34.6073 30.1449 34.5877 29.8636 34.5224C29.6476 34.4897 29.6411 34.2283 29.6084 34.0649C29.5953 33.5225 29.5887 32.9866 29.6411 32.4508ZM15.8597 32.4638C16.0888 32.4508 16.3178 32.4508 16.5468 32.4638C16.573 32.9866 16.5403 33.5029 16.5665 34.0257C16.7039 34.0453 16.8413 34.0584 16.9853 34.0715C17.018 33.7382 17.018 33.4049 16.9787 33.0781C17.1947 33.0781 17.4172 33.0781 17.6331 33.0912C17.7378 33.3983 17.7247 33.7251 17.7247 34.0453C17.8294 34.0519 17.9276 34.0519 18.0323 34.0649C18.0716 33.7382 18.065 33.4049 17.9996 33.0781C18.2286 33.0781 18.4511 33.0781 18.6801 33.0977C18.7521 33.4049 18.7259 33.7186 18.7325 34.0322C18.8503 34.0322 18.9681 34.0322 19.0858 34.0322C19.0858 33.712 19.0989 33.3918 19.0531 33.0781C19.2691 33.0847 19.4981 33.052 19.7075 33.1173C19.7991 33.235 19.7795 33.3918 19.786 33.5356C19.786 33.8754 19.7795 34.2218 19.786 34.5616C19.3803 34.6204 18.9746 34.6008 18.5689 34.6008C17.8883 34.5943 17.2143 34.6139 16.5337 34.5943C16.2916 34.5616 15.9186 34.5747 15.8794 34.2544C15.8205 33.6597 15.8532 33.0585 15.8597 32.4638ZM20.002 32.4638C20.2245 32.4508 20.4535 32.4508 20.676 32.4638C20.6956 32.9736 20.6825 33.4833 20.6825 33.9996C21.1144 34.078 21.5529 34.0322 21.9848 34.0322C21.9913 33.7186 21.9913 33.4049 21.9848 33.0912C22.2073 33.0781 22.4298 33.0781 22.6522 33.0847C22.6457 33.5748 22.6457 34.0715 22.6457 34.5616C22.2203 34.6269 21.7885 34.5943 21.3631 34.6008C20.9705 34.6008 20.5713 34.6269 20.1918 34.5093C20.0216 34.4374 19.9889 34.2283 19.9889 34.0649C19.9954 33.529 19.9954 32.9932 20.002 32.4638ZM24.3013 32.673C24.4453 32.503 24.6808 32.5226 24.8771 32.4704C24.7724 32.6599 24.6874 32.8755 24.851 33.0585C25.6362 33.0912 26.415 33.052 27.2002 33.0716C27.5012 33.0651 27.7957 33.235 27.9397 33.4964C28.0117 33.6597 27.9986 33.8427 28.0182 34.0126C28.2538 34.0257 28.4828 34.0257 28.7184 34.0126C28.7249 33.699 28.7249 33.3853 28.7184 33.0716C28.9474 33.0651 29.1699 33.0651 29.3989 33.0716C29.3924 33.5617 29.3989 34.0584 29.3924 34.5485C29.0521 34.5877 28.7053 34.6139 28.365 34.5681C28.2407 34.5551 28.1425 34.4636 28.0444 34.3917C27.9658 34.4962 27.8611 34.6008 27.7172 34.5877C26.6898 34.5943 25.6624 34.5812 24.6416 34.5943C24.4256 34.5943 24.2097 34.5812 23.9937 34.5551C23.9937 34.3917 23.9937 34.2283 23.9937 34.0649C24.6677 34.0715 25.3418 34.0519 26.0158 34.0649C26.4477 34.0388 26.8796 34.078 27.3115 34.0192C27.3115 33.98 27.3049 33.9015 27.3049 33.8623C27.1871 33.8035 27.0759 33.7251 26.9385 33.7316C26.2186 33.7251 25.4923 33.7316 24.7724 33.7316C24.5761 33.7316 24.3536 33.7186 24.2293 33.5487C23.9806 33.3134 24.0919 32.9082 24.3013 32.673ZM7.71919 33.0912C8.0791 33.0585 8.44555 33.0455 8.80546 33.0781C9.04104 33.0912 9.21773 33.3199 9.23736 33.5487C9.26353 33.8885 9.2439 34.2218 9.2439 34.5616C8.81855 34.6204 8.38666 34.6008 7.95476 34.5943C7.79117 34.5747 7.60794 34.5747 7.47706 34.4701C7.37891 34.3133 7.40508 34.1237 7.37891 33.9538C7.78462 34.0715 8.21652 34.0388 8.63532 34.0126C8.60915 33.9146 8.57643 33.8101 8.46518 33.7774C8.21652 33.7186 7.95476 33.7643 7.71264 33.8231C7.71264 33.5813 7.71264 33.333 7.71919 33.0912ZM14.9829 33.0716C15.1988 33.0585 15.4147 33.0585 15.6307 33.0651C15.6438 33.5487 15.6438 34.0322 15.6372 34.5158C15.6503 34.7838 15.4278 34.9798 15.2053 35.0909C14.9829 35.2151 14.7146 35.1759 14.479 35.1171C14.6099 35.0125 14.7473 34.9275 14.8585 34.8034C14.9829 34.6465 14.9894 34.444 14.9894 34.2544C14.9894 33.8623 14.9894 33.4702 14.9829 33.0716ZM21.0555 34.7772C21.2126 34.7511 21.3696 34.7772 21.5005 34.8818C21.6118 34.7903 21.8081 34.6792 21.9062 34.8361C22.0044 34.9537 21.8997 35.0713 21.8212 35.1563C21.7034 35.1824 21.5987 35.104 21.5005 35.0517C21.3696 35.1301 21.2257 35.1628 21.0752 35.1563C21.0621 35.0321 21.0555 34.9014 21.0555 34.7772ZM22.0829 34.7642C22.1811 34.7642 22.2792 34.7642 22.3774 34.7707C22.4101 34.9014 22.4101 35.0321 22.3578 35.1628C22.2727 35.1628 22.1811 35.1693 22.096 35.1759C21.9979 35.0386 21.9913 34.8949 22.0829 34.7642ZM30.9956 34.7838C31.12 34.7772 31.2509 34.7772 31.3752 34.7838C31.3752 34.9079 31.3686 35.0321 31.3621 35.1563C31.2443 35.1432 31.0676 35.2216 31.0153 35.0779C30.9629 34.9864 31.0022 34.8753 30.9956 34.7838ZM7.46398 35.8555C15.5849 35.849 23.6993 35.8555 31.8136 35.8555C31.8136 35.9209 31.8136 35.9862 31.8136 36.0581C23.6927 36.0581 15.5783 36.0647 7.45743 36.0581C7.46398 35.9862 7.46398 35.9209 7.46398 35.8555Z" fill="#F0C239"/>
</svg>
