<svg width="40" height="40" viewBox="0 0 40 40" fill="none" xmlns="http://www.w3.org/2000/svg">
<path d="M5.33203 5.33755C8.51283 5.33755 11.6936 5.33755 14.8744 5.33755C14.8744 9.846 14.879 14.359 14.8698 18.8675C15.0266 18.2636 15.2663 17.6781 15.6166 17.1618C16.179 16.3275 16.9811 15.6498 17.9123 15.258C19.4751 14.5803 21.3697 14.7509 22.7803 15.7051C23.8913 16.4335 24.7073 17.5998 24.9885 18.8998C25.0023 16.3321 24.9885 13.7598 24.9931 11.1921C24.9839 10.8371 25.0069 10.4822 24.9839 10.1272C24.7718 9.32508 24.3984 8.54602 23.8222 7.94212C23.1445 7.21838 22.1811 6.82193 21.2084 6.71129C20.5169 6.6237 19.8208 6.67902 19.1339 6.75278C20.7751 5.94605 22.5821 5.50812 24.403 5.37443C25.1821 5.30528 25.9658 5.34677 26.7448 5.33294C28.7593 5.30067 30.7646 6.12584 32.1937 7.54107C33.4614 8.76729 34.2866 10.4407 34.4756 12.197C34.5309 12.6257 34.5124 13.0637 34.517 13.497C34.517 20.4902 34.517 27.4787 34.517 34.4719C31.3455 34.4719 28.1693 34.4719 24.9977 34.4719C24.9977 31.8581 24.9977 29.2489 24.9977 26.6351C24.9931 24.8142 25.0115 22.9933 24.9885 21.1724C24.6197 22.9288 23.2459 24.4224 21.5357 24.9617C20.1251 25.4227 18.5162 25.2475 17.2531 24.4639C16.0638 23.7447 15.1879 22.5369 14.879 21.1816C14.879 23.7816 14.879 26.3862 14.879 28.9861C14.8837 29.2212 14.8652 29.4609 14.8883 29.696C15.0773 30.3875 15.3815 31.0513 15.8287 31.6137C16.345 32.273 17.0918 32.7293 17.8985 32.946C18.7467 33.1765 19.6456 33.1811 20.5123 33.0658C20.54 33.0843 20.5676 33.1073 20.5999 33.1258C19.9361 33.4162 19.263 33.6974 18.5577 33.8864C17.4882 34.1907 16.3819 34.3797 15.2709 34.4442C14.5794 34.4949 13.8879 34.4626 13.1964 34.4719C11.4263 34.5087 9.65608 33.9048 8.27773 32.7985C7.12527 31.8765 6.22173 30.6318 5.75614 29.2258C5.55791 28.6588 5.43345 28.0642 5.37813 27.4649C5.3182 26.6351 5.33664 25.8053 5.33664 24.9756C5.33203 18.4249 5.33203 11.8789 5.33203 5.33755ZM20.6598 33.0566C20.669 33.0705 20.669 33.0705 20.6598 33.0566V33.0566Z" fill="#29166F"/>
</svg>
