<svg width="40" height="40" viewBox="0 0 40 40" fill="none" xmlns="http://www.w3.org/2000/svg">
<path d="M11.3874 8.33203C10.607 10.0698 9.95895 11.8342 9.66797 13.4128C10.1177 13.4261 10.5541 13.5057 10.9509 13.6649C11.6387 13.9434 12.2735 14.3414 12.8423 14.819C13.0936 13.8506 13.4507 12.8291 13.9268 11.7413C14.2178 11.078 14.6013 10.4148 15.051 9.76473C14.0194 8.90246 12.6703 8.49122 11.3874 8.33203Z" fill="#92D2F4"/>
<path d="M16.191 29.7148C15.9132 30.3914 15.5561 31.0282 15.1196 31.6251C14.8683 31.97 14.5509 32.2619 14.207 32.5139C15.0271 33.4691 16.191 34.3446 17.4078 35.1007C18.3336 34.3181 19.2462 33.3231 19.7753 32.169C19.1933 31.9435 18.6643 31.6782 18.2013 31.3731C17.421 30.8557 16.7597 30.2985 16.191 29.7148Z" fill="#92D2F4"/>
<path d="M7.62176 13.7699C7.21175 13.9025 6.81496 14.075 6.4314 14.2607C6.39172 15.6536 6.47108 17.0598 6.76206 18.2272C7.11916 18.0282 7.4895 17.869 7.85983 17.7894C8.50791 17.6567 9.15599 17.6037 9.79085 17.6567C9.63213 16.8873 9.53955 16.0516 9.52632 15.1362C9.5131 14.5924 9.57923 14.0087 9.68504 13.3984C8.99728 13.3984 8.29629 13.5444 7.62176 13.7699Z" fill="#92D2F4"/>
<path d="M20.1212 28.125C20.2667 28.9475 20.2932 29.823 20.2006 30.6853C20.1477 31.1894 20.0022 31.6935 19.7773 32.1578C20.7032 32.516 21.7613 32.768 22.8855 32.9537C23.6262 33.0731 24.3801 33.166 25.1604 33.2323C25.6365 31.7731 25.9143 30.1281 25.6365 28.576C24.8298 28.6822 24.0494 28.722 23.322 28.6556C22.1448 28.576 21.0735 28.3903 20.1212 28.125Z" fill="#92D2F4"/>
<path d="M6.76168 18.2305C5.90198 18.7213 5.13486 19.5172 4.5 20.3265C4.91001 21.3214 5.41261 22.3163 6.04746 23.0592C6.27231 22.7408 6.51038 22.449 6.80136 22.1969C7.29072 21.7857 7.80654 21.4408 8.34882 21.1622C7.93881 20.6846 7.55525 20.1275 7.22459 19.4907C7.0262 19.106 6.88071 18.6948 6.76168 18.2305Z" fill="#92D2F4"/>
<path d="M29.3539 21.5977C28.5604 22.1681 27.7536 22.6589 26.9203 23.0304C25.5977 23.6406 24.3412 24.0783 23.1641 24.3835C23.8651 25.0865 24.4999 25.8958 25.0025 26.8111C25.3067 27.355 25.5051 27.9519 25.6241 28.5754C27.7932 28.2969 30.2401 27.4876 32.6737 26.4529C31.9595 24.6753 30.9014 22.8844 29.3539 21.5977Z" fill="#92D2F4"/>
<path d="M6.05062 23.043C5.50835 23.8389 5.13802 24.8338 4.88672 25.7757C5.56125 26.3992 6.35483 26.9829 7.17485 27.3013C7.24098 26.9166 7.34679 26.5451 7.50551 26.2002C7.77003 25.6165 8.08746 25.0726 8.45779 24.5818C7.91552 24.3961 7.38647 24.1308 6.88387 23.7991C6.57967 23.5869 6.30192 23.3348 6.05062 23.043Z" fill="#92D2F4"/>
<path d="M28.1227 13.7852C27.7259 14.6607 27.2498 15.4832 26.6811 16.2393C25.7685 17.4598 24.803 18.521 23.8242 19.4231C24.9881 19.6088 26.1785 19.9272 27.3688 20.418C28.0963 20.7231 28.7576 21.1211 29.3528 21.6252C31.4954 20.0731 33.5322 17.8975 35.331 15.5628C33.0693 14.5546 30.5828 13.825 28.1227 13.7852Z" fill="#92D2F4"/>
<path d="M12.5951 29.3164C12.1057 29.7144 11.5634 30.0593 10.9815 30.3246C10.6508 30.4838 10.2937 30.5767 9.91016 30.6165C10.1747 31.6512 10.717 32.7124 11.3121 33.6808C12.2909 33.4819 13.349 33.1237 14.1954 32.5135C13.878 32.142 13.6003 31.7573 13.3886 31.3461C13.0448 30.6695 12.7802 29.9797 12.5951 29.3164Z" fill="#92D2F4"/>
<path d="M9.92234 27.4373C9.35361 27.5435 8.77166 27.5833 8.18971 27.5435C7.84583 27.5169 7.50194 27.4373 7.17129 27.3047C6.99935 28.2598 7.05225 29.3476 7.18451 30.3425C7.51517 30.4354 7.85905 30.515 8.20293 30.5681C8.77166 30.6609 9.36684 30.6875 9.92234 30.6211C9.81653 30.2099 9.7504 29.7986 9.7504 29.4007C9.73718 28.7241 9.79008 28.0608 9.92234 27.4373Z" fill="#92D2F4"/>
<path d="M19.8122 4.55078C17.9605 6.22227 16.2544 7.99988 15.0508 9.76422C15.474 10.1091 15.8311 10.5204 16.1089 11.0245C16.585 11.8602 16.9289 12.7623 17.1537 13.6909C17.9209 12.7623 18.8467 11.8204 19.9312 10.9051C20.6058 10.3214 21.3464 9.80402 22.1665 9.33972C21.8226 7.45598 20.8835 5.83756 19.8122 4.55078Z" fill="#92D2F4"/>
<path d="M26.5756 7.38799C25.0016 7.91862 23.4939 8.55538 22.1712 9.32479C22.3035 10.0544 22.3432 10.8106 22.2506 11.5932C22.1183 12.8667 21.8406 14.1005 21.457 15.2546C22.6342 14.7505 23.9568 14.3392 25.3984 14.0209C26.2846 13.8351 27.2104 13.7555 28.123 13.7688C29.1679 11.4606 29.6308 8.88702 29.7631 6.47266C28.6785 6.73797 27.6072 7.04308 26.5756 7.38799Z" fill="#92D2F4"/>
<path d="M16.7929 26.6133C16.8193 27.6347 16.621 28.696 16.2109 29.7175C16.7664 30.3012 17.441 30.8583 18.2081 31.3624C18.671 31.6808 19.2133 31.9329 19.782 32.1584C19.9936 31.6808 20.1391 31.19 20.2053 30.6859C20.2978 29.8236 20.2714 28.9481 20.1259 28.1256C18.7901 27.7674 17.6658 27.2368 16.7929 26.6133Z" fill="#00A3E2"/>
<path d="M9.67992 13.4102C9.57411 14.0204 9.50798 14.5908 9.52121 15.148C9.53443 16.0633 9.62702 16.899 9.78573 17.6685C10.7512 17.7481 11.6506 18.0399 12.4178 18.5307C12.3516 17.4429 12.4839 16.196 12.841 14.8296C12.2855 14.352 11.6506 13.9541 10.9496 13.6755C10.5661 13.4898 10.1296 13.4102 9.67992 13.4102Z" fill="#00A3E2"/>
<path d="M7.8634 17.7957C7.49307 17.8753 7.12273 18.0345 6.76562 18.2335C6.88466 18.6978 7.03015 19.1223 7.22854 19.4937C7.5592 20.1305 7.92953 20.6877 8.35277 21.1652C9.01408 20.8336 9.71506 20.6213 10.3896 20.5417C10.5615 20.5152 10.7335 20.5019 10.9054 20.5019C10.416 19.7325 10.0325 18.7774 9.79442 17.6631C9.15956 17.61 8.51148 17.6498 7.8634 17.7957Z" fill="#00A3E2"/>
<path d="M23.1672 24.3984C21.871 24.7301 20.6675 24.8893 19.5961 24.8893C19.3448 24.8893 19.0935 24.876 18.8555 24.8627C19.4771 25.7781 19.9136 26.9057 20.112 28.1261C21.0642 28.3914 22.1356 28.5771 23.3127 28.6567C24.0401 28.7098 24.8205 28.6833 25.6273 28.5771C25.5215 27.9537 25.3098 27.37 25.0056 26.8128C24.503 25.9107 23.8682 25.0883 23.1672 24.3984Z" fill="#00A3E2"/>
<path d="M8.35604 21.1641C7.81377 21.4294 7.28472 21.7743 6.80858 22.1988C6.53083 22.4376 6.27953 22.7294 6.05469 23.0611C6.30598 23.3529 6.58373 23.605 6.87471 23.8039C7.3773 24.1489 7.90635 24.4009 8.44862 24.5866C9.00412 23.8437 9.66543 23.2335 10.3929 22.7825C9.66543 22.4243 8.96445 21.8804 8.35604 21.1641Z" fill="#00A3E2"/>
<path d="M23.8429 19.4102C22.507 20.6439 21.1447 21.5857 19.875 22.196C21.0389 22.647 22.1764 23.3899 23.1815 24.3981C24.3455 24.093 25.6152 23.6552 26.9378 23.045C27.771 22.6603 28.5778 22.1827 29.3714 21.6123C28.7762 21.1214 28.1149 20.7102 27.3875 20.4051C26.1971 19.9143 24.9935 19.5959 23.8429 19.4102Z" fill="#00A3E2"/>
<path d="M14.4174 27.1172C13.981 27.9397 13.3594 28.6958 12.6055 29.3193C12.7906 29.9826 13.0552 30.6724 13.4123 31.349C13.6239 31.7602 13.9016 32.1449 14.2191 32.5164C14.5629 32.2643 14.8804 31.9725 15.1317 31.6275C15.5814 31.0306 15.9385 30.3938 16.203 29.7173C15.4094 28.8948 14.801 28.006 14.4174 27.1172Z" fill="#00A3E2"/>
<path d="M12.3215 26.4531C11.6072 26.944 10.7872 27.2756 9.92751 27.4481C9.80848 28.0715 9.74235 28.7348 9.75558 29.4114C9.75558 29.8094 9.8217 30.2206 9.92751 30.6318C10.2978 30.5788 10.655 30.4859 10.9988 30.34C11.5808 30.0747 12.1231 29.7298 12.6124 29.3318C12.3347 28.3236 12.2421 27.3552 12.3215 26.4531Z" fill="#00A3E2"/>
<path d="M8.45091 24.582C8.08058 25.0729 7.76315 25.6168 7.49862 26.2005C7.35314 26.5454 7.24733 26.9168 7.16797 27.3015C7.49862 27.4342 7.8425 27.5138 8.18639 27.5403C8.76834 27.5801 9.36352 27.5536 9.91902 27.4342C10.1042 26.4923 10.4481 25.63 10.8978 24.8871C10.739 24.9004 10.5671 24.9137 10.4084 24.9137C9.77353 24.9137 9.09899 24.8075 8.45091 24.582Z" fill="#00A3E2"/>
<path d="M15.0564 9.76562C14.6067 10.4289 14.2364 11.0922 13.9322 11.7422C13.4561 12.8167 13.099 13.8515 12.8477 14.8199C13.6809 15.5362 14.3422 16.425 14.7655 17.4067C15.2813 16.226 16.0749 14.9658 17.1462 13.679C16.9213 12.7504 16.5775 11.8483 16.1013 11.0126C15.8368 10.5218 15.4797 10.1105 15.0564 9.76562Z" fill="#00A3E2"/>
<path d="M22.1768 9.32812C21.37 9.79243 20.6161 10.3098 19.9416 10.8935C18.857 11.8221 17.9312 12.764 17.1641 13.6793C17.4815 15.0324 17.5476 16.3988 17.3625 17.6723C18.447 16.7702 19.8225 15.9345 21.4493 15.2447C21.8329 14.0905 22.1106 12.8568 22.2429 11.5833C22.3355 10.8139 22.309 10.0577 22.1768 9.32812Z" fill="#00A3E2"/>
<path d="M25.3911 14.023C23.9627 14.3281 22.6401 14.7526 21.4497 15.2567C20.9075 16.8751 20.1668 18.3078 19.3203 19.4619C19.5848 19.4089 19.8494 19.3691 20.1139 19.3293C21.2646 19.1834 22.521 19.2099 23.8304 19.4089C24.796 18.5068 25.7747 17.4456 26.6873 16.2251C27.256 15.469 27.7322 14.6465 28.129 13.7709C27.2031 13.7577 26.2905 13.8373 25.3911 14.023Z" fill="#00A3E2"/>
<path d="M9.79297 17.6602C10.031 18.7745 10.4014 19.7296 10.904 20.499C11.6579 20.4725 12.3721 20.6052 13.0069 20.9103C12.6763 20.2337 12.4911 19.4245 12.4382 18.5224C11.6579 18.0449 10.7585 17.7398 9.79297 17.6602Z" fill="#0067B2"/>
<path d="M16.2461 24.1992C16.59 24.9156 16.7751 25.738 16.7884 26.6136C17.6613 27.2371 18.7855 27.7544 20.1214 28.1259C19.9097 26.9054 19.4733 25.7778 18.8649 24.8625C17.8465 24.7962 16.9603 24.5707 16.2461 24.1992Z" fill="#0067B2"/>
<path d="M10.3884 20.5359C9.70063 20.6155 9.01287 20.8277 8.35156 21.1594C8.95997 21.8757 9.66096 22.4196 10.4016 22.7778C11.0497 22.3798 11.7375 22.1278 12.412 22.0482C11.8301 21.69 11.3275 21.1594 10.9042 20.4961C10.7323 20.4961 10.5603 20.5094 10.3884 20.5359Z" fill="#0067B2"/>
<path d="M19.8716 22.1953C18.8532 22.6861 17.8744 22.9647 16.9883 23.0443C17.7025 23.4688 18.3374 24.0923 18.8664 24.8617C19.1045 24.875 19.3558 24.8883 19.6071 24.8883C20.6784 24.8883 21.882 24.7291 23.1781 24.3974C22.1597 23.3892 21.0223 22.6463 19.8716 22.1953Z" fill="#0067B2"/>
<path d="M15.1111 24.8477C15.045 25.6171 14.8069 26.3865 14.4102 27.1294C14.7937 28.0182 15.4021 28.907 16.1957 29.7295C16.6057 28.708 16.8041 27.6467 16.7776 26.6253C16.0634 26.0946 15.4947 25.4977 15.1111 24.8477Z" fill="#0067B2"/>
<path d="M13.9076 24.8477C13.4976 25.4711 12.9553 26.015 12.3204 26.4528C12.2411 27.3549 12.3337 28.3365 12.5982 29.3182C13.3521 28.6947 13.9605 27.9518 14.4102 27.1161C14.0795 26.36 13.9076 25.5905 13.9076 24.8477Z" fill="#0067B2"/>
<path d="M12.9281 24.2656C12.3065 24.6238 11.6187 24.8228 10.9045 24.8891C10.4416 25.632 10.1109 26.4943 9.92578 27.4361C10.7855 27.2637 11.6055 26.932 12.3197 26.4412C12.3859 25.6585 12.5975 24.9156 12.9281 24.2656Z" fill="#0067B2"/>
<path d="M10.3857 22.7773C9.65822 23.2151 8.99691 23.8386 8.44141 24.5815C9.08949 24.807 9.76403 24.9131 10.4121 24.9131C10.5708 24.9131 10.7428 24.8999 10.9015 24.8866C11.3115 24.2366 11.8141 23.6661 12.3828 23.2549C11.7083 23.2549 11.0337 23.0825 10.3857 22.7773Z" fill="#0067B2"/>
<path d="M12.8489 14.8203C12.5051 16.1867 12.3596 17.4337 12.4257 18.5215C13.1002 18.946 13.6557 19.4899 14.0393 20.1399C14.0922 19.2909 14.3435 18.3755 14.7667 17.4071C14.3435 16.4255 13.6954 15.5367 12.8489 14.8203Z" fill="#0067B2"/>
<path d="M17.1581 13.6797C16.0867 14.9532 15.2932 16.2267 14.7773 17.4074C15.1477 18.2431 15.3328 19.1186 15.3196 19.9942C15.7958 19.1982 16.4968 18.4156 17.3565 17.6859C17.5416 16.4124 17.4755 15.0328 17.1581 13.6797Z" fill="#0067B2"/>
<path d="M21.4565 15.2578C19.8297 15.9476 18.4542 16.7834 17.3696 17.6854C17.2242 18.7467 16.9067 19.7151 16.457 20.5508C17.2638 20.0467 18.2426 19.6886 19.3271 19.4631C20.1736 18.3089 20.9143 16.8762 21.4565 15.2578Z" fill="#0067B2"/>
<path d="M20.1241 19.3309C19.8463 19.3707 19.5818 19.4105 19.3305 19.4635C18.6427 20.4054 17.8756 21.1483 17.082 21.6922C17.9814 21.6524 18.9337 21.8248 19.8728 22.1963C21.1425 21.5861 22.5048 20.6575 23.8406 19.4105C22.5312 19.2115 21.2747 19.185 20.1241 19.3309Z" fill="#0067B2"/>
</svg>
