<svg width="40" height="40" viewBox="0 0 40 40" fill="none" xmlns="http://www.w3.org/2000/svg">
<path d="M16.5999 3.03478C17.7043 2.78504 18.8359 2.67577 19.9636 2.66797C20.8924 2.71089 21.825 2.79284 22.7381 2.98795C23.4913 3.15575 24.2483 3.32745 24.978 3.58109C25.6492 3.80352 26.2892 4.10009 26.9252 4.40446C27.932 4.93516 28.8763 5.57903 29.7621 6.29704C30.7299 7.08529 31.5884 7.99841 32.3181 9.00909C32.7317 9.58272 33.1415 10.1602 33.4692 10.7885C34.1248 11.9787 34.6009 13.2664 34.8975 14.5932C35.2057 15.8224 35.3501 17.0906 35.3501 18.3588C35.2994 19.4124 35.1745 20.4621 34.917 21.4845C34.6594 22.663 34.2653 23.8141 33.7229 24.8951C33.1766 25.9916 32.4742 27.0023 31.7015 27.9466C31.9045 28.0988 32.1308 28.2276 32.2908 28.4266C32.5483 28.7583 32.8098 29.1095 32.8917 29.5309C32.919 29.7065 33.0166 29.886 32.962 30.0655C32.9112 30.2489 32.8956 30.444 32.802 30.6118C32.0879 31.9308 31.4947 33.3122 30.847 34.6662C30.5972 35.2086 30.2928 35.7276 29.9104 36.1881C29.7504 36.3715 29.5436 36.5003 29.3446 36.6369C28.6422 36.9998 27.8696 37.1832 27.1008 37.3393C26.6989 37.4017 26.2813 37.4797 25.8755 37.3744C25.4111 37.2573 24.9117 37.1949 24.5097 36.9139C24.3029 36.7617 24.0727 36.6251 23.9166 36.4144C23.7761 36.2232 23.6239 36.0359 23.5342 35.8174C23.1049 35.6535 22.6718 35.5052 22.2269 35.3959C20.8729 35.1072 19.4564 35.1111 18.0984 35.3959C17.5599 35.5325 17.0331 35.712 16.518 35.9227C16.4048 36.1179 16.2682 36.3013 16.1317 36.4847C15.9561 36.7188 15.7063 36.8749 15.4722 37.0427C15.2654 37.1871 15.0234 37.2729 14.7776 37.3236C14.3483 37.4173 13.9152 37.5578 13.4703 37.4836C12.8694 37.4056 12.2763 37.2612 11.6948 37.0895C11.41 36.9842 11.0978 36.9178 10.8519 36.7227C10.6334 36.5666 10.4188 36.3988 10.2276 36.2076C9.8959 35.8252 9.69298 35.3608 9.43933 34.9277C8.70181 33.6087 7.96429 32.2898 7.22677 30.9708C7.14482 30.803 7.12922 30.6118 7.07849 30.4323C7.03556 30.2879 7.08239 30.1396 7.11361 29.9992C7.16824 29.7767 7.20726 29.5465 7.30482 29.3319C7.40627 29.086 7.57797 28.8831 7.73016 28.6724C7.84723 28.5124 8.00722 28.3993 8.16721 28.2861C7.74577 27.8256 7.36725 27.33 7.00825 26.8228C5.89221 25.2736 5.09616 23.4981 4.67862 21.6367C4.45619 20.7275 4.3001 19.7987 4.25327 18.8622C4.16352 18.0662 4.24937 17.2701 4.32351 16.478C4.40936 15.6546 4.60057 14.8468 4.79959 14.0469C5.15079 12.6967 5.701 11.3973 6.43072 10.2071C7.08629 9.16127 7.83162 8.16621 8.70572 7.28821C9.47055 6.50776 10.3407 5.84048 11.2461 5.22783C12.4128 4.44738 13.7006 3.84254 15.0429 3.4289C15.5541 3.27281 16.077 3.15575 16.5999 3.03478ZM18.5588 3.35086C17.4857 3.43671 16.4282 3.65913 15.3941 3.95961C14.0518 4.36154 12.764 4.95858 11.5934 5.73122C10.6139 6.37899 9.69298 7.12431 8.88912 7.9828C8.08526 8.83739 7.38286 9.78953 6.78972 10.8002C6.08342 12.0216 5.56833 13.3523 5.25225 14.7259C5.08445 15.4165 4.96348 16.1228 4.90495 16.8292C4.85032 17.4925 4.78788 18.1637 4.86983 18.831C4.92446 19.9743 5.14298 21.1099 5.45516 22.2103C6.13415 24.5907 7.47261 26.7564 9.21691 28.5046C8.95546 28.5514 8.69791 28.6334 8.49109 28.8051C8.01112 29.1485 7.73796 29.7221 7.67553 30.2996C7.69114 30.4752 7.73796 30.6508 7.83552 30.803C8.6745 32.3054 9.51738 33.8038 10.3525 35.3062C10.4656 35.5208 10.5944 35.7315 10.7817 35.8876C10.9651 36.0437 11.1446 36.2076 11.3592 36.3169C12.0772 36.6056 12.8304 36.7968 13.5991 36.8827C13.9815 36.91 14.3522 36.8046 14.719 36.7149C15.3005 36.5315 15.7687 36.071 16.0185 35.5208C16.0419 35.4272 16.1473 35.4116 16.2253 35.3725C16.955 35.0799 17.7082 34.8301 18.4847 34.7014C19.8037 34.475 21.1655 34.5179 22.4689 34.8301C23.0035 34.9667 23.5264 35.1423 24.0337 35.353C24.1663 35.8993 24.6112 36.3169 25.1146 36.5393C25.3799 36.6525 25.6648 36.7071 25.9458 36.7695C26.2931 36.8515 26.6482 36.789 26.9916 36.7383C27.6822 36.6173 28.3612 36.4261 28.9934 36.1257C29.2236 36.0047 29.4265 35.833 29.5787 35.6223C29.8597 35.2594 30.0743 34.8535 30.2733 34.4399C30.8782 33.1834 31.4323 31.9035 32.0762 30.6664C32.1893 30.4362 32.3532 30.2177 32.3649 29.9484C32.3415 29.7611 32.283 29.5777 32.201 29.406C31.9981 28.9807 31.6742 28.5944 31.2372 28.4032C31.0265 28.329 30.804 28.2822 30.5816 28.2627C31.0967 27.7359 31.5611 27.1622 31.9903 26.5613C32.6849 25.5975 33.2585 24.5439 33.6956 23.4356C34.1131 22.3664 34.3941 21.2426 34.5658 20.1109C34.6516 19.5685 34.6789 19.0183 34.7258 18.4759C34.7336 17.235 34.6087 15.9863 34.316 14.7766C34.0234 13.481 33.5512 12.2284 32.9112 11.0656C32.7942 10.8158 32.6381 10.5895 32.4937 10.3554C31.7523 9.18859 30.8743 8.10767 29.848 7.18675C28.9778 6.4102 28.0256 5.71951 26.9994 5.15759C26.7847 5.00931 26.5389 4.91565 26.3048 4.80249C25.0326 4.17033 23.6551 3.7684 22.2582 3.51865C21.5245 3.38598 20.7831 3.33525 20.0417 3.29233C19.5461 3.27281 19.0544 3.31574 18.5588 3.35086Z" fill="#E8651D"/>
<path d="M16.8995 4.12653C17.8048 3.93922 18.7257 3.86118 19.6506 3.82216C20.0798 3.81045 20.5091 3.85728 20.9383 3.88459C23.2367 4.06019 25.4844 4.80942 27.4394 6.03082C29.4256 7.27172 31.1075 9.00041 32.2782 11.0335C32.8713 12.0559 33.3318 13.1524 33.6518 14.2918C34.0264 15.6225 34.1903 17.0117 34.1864 18.3892C34.1395 19.0799 34.0927 19.7745 33.9678 20.4573C33.562 22.8377 32.524 25.101 30.9982 26.9702C30.1671 27.9925 29.1915 28.9018 28.1145 29.6666C27.9428 29.7915 27.7516 29.8968 27.5955 30.0412C27.9818 30.0334 28.3525 29.9242 28.7232 29.8383C29.0393 29.7525 29.3554 29.6549 29.6637 29.5495C29.7573 29.3622 29.8432 29.1749 29.9407 28.9876C29.9642 28.933 30.0305 28.9174 30.0812 28.8979C30.4012 28.7769 30.7797 28.7574 31.088 28.9252C31.4197 29.0969 31.6343 29.4247 31.7709 29.7642C31.8021 29.85 31.8567 29.9476 31.7982 30.0334C31.1465 31.2431 30.5885 32.4996 30.0071 33.7405C29.812 34.1425 29.6325 34.5483 29.4022 34.9307C29.2305 35.2039 29.0432 35.4965 28.7467 35.6448C28.0599 35.9648 27.3223 36.1833 26.5653 36.2536C26.1556 36.3043 25.7419 36.2067 25.3634 36.0585C24.9888 35.9063 24.6454 35.6097 24.5479 35.2039C24.5127 35.1024 24.5245 34.958 24.3996 34.9229C23.2913 34.4507 22.109 34.1386 20.9071 34.0488C19.1043 33.9044 17.2897 34.3064 15.643 35.0361C15.5259 35.3326 15.3815 35.6331 15.1435 35.8516C14.7689 36.2145 14.2304 36.3355 13.727 36.3472C13.0129 36.3082 12.3144 36.1131 11.651 35.8555C11.4442 35.7736 11.292 35.6097 11.1242 35.4692C10.9681 35.3404 10.8862 35.1531 10.7886 34.9814C10.0355 33.6313 9.27845 32.2811 8.52532 30.927C8.42777 30.728 8.28729 30.5485 8.21705 30.3378C8.22095 30.0685 8.34192 29.811 8.4824 29.5847C8.68531 29.2608 9.04432 29.0305 9.43064 29.0149C9.61794 29.0032 9.79745 29.0579 9.97305 29.1164C10.0238 29.2842 10.0823 29.452 10.1408 29.6198C10.6247 29.7915 11.1086 29.9554 11.5925 30.1271C11.7056 30.1661 11.8188 30.2129 11.9359 30.2363C12.0139 30.2207 12.0842 30.1778 12.1544 30.1427C10.1799 28.9057 8.49801 27.1965 7.32344 25.1829C6.23081 23.3372 5.57524 21.2378 5.42305 19.0955C5.41525 18.9082 5.39964 18.7248 5.38013 18.5375C5.35281 17.9872 5.39183 17.4409 5.43866 16.8946C5.63377 14.5026 6.46495 12.169 7.81121 10.1828C9.07554 8.30972 10.7886 6.74883 12.7631 5.6523C14.0548 4.93819 15.4557 4.4192 16.8995 4.12653ZM17.8165 4.43871C15.6235 4.74308 13.5124 5.58596 11.7056 6.86199C10.176 7.93901 8.86872 9.3282 7.88536 10.9203C6.69908 12.8324 6.00058 15.0489 5.87181 17.2965C5.87181 17.6985 5.81718 18.1004 5.8562 18.5062C5.90302 20.0905 6.23471 21.667 6.82395 23.1382C7.74488 25.4405 9.30967 27.4775 11.2803 28.9798C11.7095 29.3154 12.17 29.6003 12.6266 29.9007C12.6851 29.8812 12.7475 29.8617 12.8061 29.8422C12.8022 29.8071 12.7983 29.7759 12.7983 29.7407C12.3807 29.5144 11.9983 29.2374 11.612 28.9564C10.5389 28.1564 9.58282 27.2004 8.78677 26.1234C7.19466 23.9811 6.25032 21.3471 6.16057 18.6662C6.14496 18.3658 6.12935 18.0653 6.15667 17.7648C6.19959 15.8683 6.66396 13.9875 7.49513 12.2861C8.54093 10.1282 10.1721 8.26289 12.1622 6.92833C14.1992 5.55474 16.6107 4.74308 19.0652 4.62211C19.4281 4.61431 19.791 4.57138 20.154 4.61041C21.4807 4.63382 22.8036 4.86405 24.064 5.27769C27.4277 6.36251 30.3232 8.8092 31.9465 11.9466C33.3942 14.6977 33.8274 17.9599 33.1562 20.992C32.8908 22.2212 32.4499 23.4074 31.8489 24.5118C30.7368 26.576 29.0744 28.3359 27.0882 29.5847C27.1311 29.6276 27.1741 29.6705 27.2209 29.7134C28.0989 29.1632 28.9184 28.5115 29.652 27.7779C31.3026 26.1429 32.5279 24.0786 33.1718 21.8465C33.5269 20.5978 33.7064 19.3023 33.7064 18.0068C33.6791 17.5385 33.683 17.0663 33.6205 16.6019C33.3864 14.4479 32.6255 12.3563 31.4275 10.5535C30.1124 8.56336 28.2745 6.92833 26.1517 5.83961C23.6074 4.52846 20.6534 4.03288 17.8165 4.43871ZM15.9513 5.21135C13.6802 5.87473 11.5925 7.15076 9.95744 8.85993C8.20144 10.6862 6.96443 13.0119 6.47275 15.5015C6.10984 17.3083 6.11765 19.193 6.51958 20.9959C6.80444 22.2797 7.27271 23.5167 7.91657 24.6639C9.08334 26.7438 10.8081 28.4998 12.8568 29.7134C12.927 29.7603 13.0168 29.7603 13.0987 29.772C13.1065 29.6822 13.169 29.5808 13.1065 29.5027C13.0168 29.3856 12.8763 29.331 12.7475 29.2725C12.4861 29.1632 12.2637 28.9837 12.0373 28.8159C11.6549 28.5311 11.2608 28.2579 10.8745 27.9808C10.8979 27.9106 10.9174 27.8365 10.9369 27.7623C10.6676 27.6101 10.4023 27.4501 10.1565 27.2589C9.87159 27.0365 9.67648 26.7165 9.5477 26.3848C9.48527 26.2248 9.3565 26.1078 9.23943 25.9868C8.97798 25.7254 8.69702 25.4795 8.45898 25.1947C8.53703 25.1517 8.61507 25.101 8.70092 25.0854C8.79848 25.062 8.91554 25.0737 8.98578 24.9917C8.6658 24.7381 8.39265 24.4298 8.17802 24.0825C7.77219 23.4426 7.54586 22.7128 7.22198 22.0299C7.14393 21.8582 7.04247 21.7022 6.96833 21.5266C7.11662 21.5149 7.2688 21.5188 7.41709 21.5227C7.31953 21.3275 7.17515 21.1597 7.07759 20.9607C6.95272 20.6564 6.87078 20.3403 6.80834 20.0203C6.64445 19.2047 6.69127 18.3658 6.68737 17.5385C6.742 17.5541 6.79273 17.5736 6.84736 17.5892C6.90199 17.1522 6.87468 16.7112 6.85517 16.2742C6.85127 16.1142 6.83566 15.9503 6.88639 15.7981C7.03077 15.3298 7.21808 14.8616 7.33514 14.3738C7.39758 14.167 7.33514 13.9211 7.49904 13.7533C7.56147 13.7689 7.62781 13.7806 7.69024 13.7962C7.72927 13.3319 7.7917 12.8558 7.98291 12.4227C8.16632 12.009 8.45508 11.6539 8.74775 11.3144C8.8336 11.2208 8.88433 11.1037 8.94676 10.9905C9.06383 10.9944 9.1809 10.9905 9.29796 10.9788C9.29406 10.9242 9.29016 10.8735 9.28626 10.8188C9.32918 10.7915 9.38771 10.7681 9.39162 10.7096C9.45405 10.4716 9.55161 10.2374 9.68818 10.0306C10.0862 9.41795 10.6911 8.977 11.0774 8.35654C11.1515 8.36045 11.2257 8.36435 11.2998 8.36825C11.3739 8.59068 11.4403 8.8131 11.5183 9.03553C11.6939 8.89115 11.8422 8.71555 12.0217 8.57507C12.2949 8.34874 12.6188 8.15363 12.9817 8.15753C13.0363 8.47361 12.8958 8.78189 12.6929 9.01602C12.5602 9.18772 12.3651 9.3282 12.3222 9.55062C12.5524 9.55453 12.7944 9.54672 12.9973 9.6755C12.8334 9.82768 12.6071 9.90183 12.4783 10.093C12.0959 10.6237 11.6705 11.1271 11.1983 11.5798C11.0618 11.689 11.0813 11.8803 11.0149 12.0246C10.855 12.4227 10.6208 12.7895 10.375 13.1407C10.1018 13.5231 9.82086 13.9016 9.49307 14.2372C9.50868 14.2957 9.52819 14.3543 9.55161 14.4128C9.33698 15.0059 9.21602 15.6264 9.07944 16.239C9.00139 16.6332 8.90384 17.0273 8.8453 17.4253C8.87652 17.4292 8.94286 17.4409 8.97408 17.4487C8.85701 17.9677 8.88433 18.5062 8.93896 19.033C9.00139 19.6301 9.05602 20.231 9.0209 20.832C9.07554 20.8593 9.16919 20.8476 9.17699 20.9295C9.52819 22.2485 10.0199 23.5518 10.8471 24.6522C11.0266 24.9098 11.2608 25.1283 11.4169 25.4054C11.6042 25.7176 11.7876 26.0414 12.0607 26.2912C12.5134 26.6892 13.0753 26.9546 13.4851 27.3994C13.9533 27.8599 14.3396 28.4023 14.6245 28.9954C15.1006 28.9057 15.5415 28.6871 16.0176 28.5779C17.2975 28.2852 18.6048 28.0979 19.9198 28.094C21.3832 28.0706 22.8387 28.2618 24.2669 28.5623C24.5791 28.055 25.0669 27.6999 25.4259 27.2316C25.6015 27.2043 25.7888 27.177 25.9332 27.0638C26.097 26.9468 26.1907 26.7633 26.2805 26.5916C26.3819 26.6112 26.4834 26.6463 26.5887 26.6385C26.8502 26.4785 26.9516 26.1624 27.1741 25.9595C27.2872 25.8463 27.4355 25.7878 27.5838 25.7488C27.6384 25.3039 28.0404 24.9995 28.0911 24.5508C28.1496 24.5508 28.2082 24.5547 28.2667 24.5586C28.2706 24.5859 28.2784 24.6405 28.2784 24.6679C28.2979 24.6835 28.333 24.7147 28.3525 24.7264C28.5594 24.4962 28.7115 24.2191 28.774 23.9147C28.8325 23.8874 28.934 23.903 28.9457 23.8211C29.0784 23.4426 29.2735 23.0875 29.3281 22.6855C29.4217 22.6075 29.5076 22.5216 29.5622 22.4085C29.7183 22.1041 29.8198 21.7724 29.9173 21.4446C30.1163 20.7266 30.2802 19.9969 30.3622 19.2555C30.3934 19.2516 30.4636 19.2438 30.4949 19.2399C30.5027 18.9355 30.4324 18.6389 30.3856 18.3384C30.448 18.3267 30.5066 18.3111 30.569 18.2994C30.5495 17.8585 30.4207 17.4253 30.4949 16.9844C30.448 16.4146 30.3076 15.8527 30.1007 15.322C30.1515 15.3025 30.2022 15.2869 30.2529 15.2674C30.2529 14.9903 30.0617 14.7757 29.8939 14.5767C29.9681 14.5572 30.0422 14.5377 30.1163 14.5182C29.8393 13.8158 29.41 13.1914 29.0276 12.5475C29.0549 12.4929 29.0862 12.4344 29.1135 12.3797C28.8286 12.1573 28.5945 11.8803 28.3799 11.5915C28.4072 11.5564 28.4345 11.5212 28.4618 11.4822C28.1847 11.1193 27.7945 10.8696 27.4277 10.612C27.4043 10.5028 27.3965 10.3779 27.3145 10.292C27.1858 10.1477 27.0063 10.0696 26.8541 9.95646C26.8502 9.87061 26.8775 9.76915 26.8151 9.69891C26.616 9.41405 26.2961 9.25406 26.0034 9.09016C26.019 9.07065 26.0463 9.02773 26.0619 9.00431C25.8707 8.77798 25.5937 8.66092 25.3205 8.56336C25.3205 8.52824 25.3205 8.48922 25.3205 8.4541C25.4376 8.37996 25.5546 8.30191 25.6678 8.21997C25.582 7.88828 25.2347 7.70877 25.1683 7.36928C25.4688 7.35367 25.7537 7.45513 26.0424 7.51756C26.0073 7.33416 25.9761 7.15076 25.9605 6.96345C26.2922 7.02198 26.5419 7.26002 26.819 7.42781C26.8736 7.33806 26.9243 7.24831 26.9711 7.15466C27.0687 7.20929 27.1624 7.27172 27.2443 7.34977C27.654 7.73609 28.0091 8.17314 28.376 8.59848C28.4462 8.70384 28.5789 8.67262 28.6881 8.67653C28.8403 9.02382 29.0666 9.38673 29.453 9.5077C29.5817 9.8589 29.7808 10.175 29.9681 10.4989C30.0422 10.5145 30.1163 10.5301 30.1905 10.5418C30.2997 10.9008 30.3934 11.3456 30.7797 11.5056C30.8383 11.8685 30.9748 12.2158 31.1504 12.5397C31.2246 12.5436 31.2948 12.5475 31.369 12.5514C31.486 12.8675 31.6109 13.1797 31.6772 13.5114C31.7475 13.5153 31.8138 13.5192 31.8841 13.5231C31.8841 13.9133 31.9075 14.3035 31.9855 14.686C32.0401 14.6899 32.0987 14.6977 32.1533 14.7016C32.2001 15.0957 32.2314 15.4937 32.2587 15.8917C32.3172 15.8956 32.3796 15.8995 32.4382 15.8995C32.4382 16.3093 32.4382 16.719 32.4382 17.1248C32.5045 17.1366 32.5747 17.1483 32.645 17.16C32.6099 17.6126 32.5318 18.0614 32.4967 18.514C32.5474 18.5257 32.5982 18.5375 32.6489 18.5492C32.5747 18.9316 32.4733 19.3062 32.4226 19.6925C32.4499 19.7042 32.5006 19.7237 32.5279 19.7315C32.4928 19.8798 32.4382 20.0242 32.3913 20.1725C32.2899 20.4613 32.2235 20.7617 32.1533 21.0583C32.2001 21.0739 32.2509 21.0895 32.3016 21.1051C32.2235 21.4797 32.0558 21.8348 31.8567 22.1626C31.7475 22.3148 31.8216 22.5099 31.7592 22.6777C31.5914 23.1733 31.2909 23.6103 31.0178 24.0513C30.8148 24.3674 30.5963 24.6835 30.4871 25.0503C30.5105 25.0659 30.5573 25.0971 30.5807 25.1166C30.0734 25.7839 29.5583 26.4473 28.9535 27.0287C28.8871 27.0794 28.9496 27.1614 28.9535 27.2238C28.7115 27.5438 28.372 27.7701 28.0052 27.9223C28.0326 27.9925 28.0677 28.0628 28.095 28.133C27.8335 28.3203 27.5292 28.4335 27.2677 28.6169C27.217 28.7028 27.2404 28.8159 27.2248 28.9135C26.9907 29.0735 26.7487 29.2218 26.4912 29.3388C26.5341 29.3856 26.577 29.4364 26.6317 29.4754C26.7682 29.4871 26.9165 29.4286 27.0414 29.5144C28.5476 28.5857 29.8549 27.3409 30.889 25.9088C32.4148 23.7938 33.3045 21.2183 33.3903 18.6116C33.4449 17.1717 33.2615 15.72 32.8518 14.3348C32.1455 11.9271 30.7329 9.73793 28.8559 8.07558C26.9868 6.41323 24.6532 5.28159 22.187 4.84844C20.1227 4.50114 17.9687 4.61431 15.9513 5.21135ZM26.1673 7.13905C26.179 7.36538 26.2141 7.63073 26.4443 7.73999C26.4834 7.68536 26.46 7.54098 26.5497 7.54488C26.659 7.65414 26.737 7.79072 26.8619 7.88047C26.8424 7.50196 26.5107 7.2249 26.1673 7.13905ZM25.3673 7.50976C25.4766 7.82974 25.738 8.07168 26.0346 8.22387C26.0931 8.26289 26.1634 8.23948 26.2258 8.23557C26.0541 8.04827 25.8239 7.91949 25.6483 7.73609C25.8941 7.7556 26.1127 7.88437 26.3429 7.96632C26.4092 7.99364 26.4834 7.99754 26.5575 7.98583C26.2726 7.63073 25.8005 7.50196 25.3673 7.50976ZM27.0336 7.49415C27.0375 7.72438 27.0843 7.95852 27.1819 8.16924C27.2014 8.23167 27.2638 8.25509 27.3106 8.29021C27.2794 8.14192 27.2365 7.99754 27.217 7.84925C27.3575 7.98193 27.4355 8.18485 27.6267 8.26289C27.6228 8.17314 27.6345 8.07558 27.5916 7.99364C27.4745 7.76731 27.256 7.61512 27.0336 7.49415ZM26.4834 8.16533C26.4678 8.59848 26.8502 8.89895 27.1936 9.09016C27.1038 8.84432 26.9594 8.6219 26.8346 8.38776C27.0102 8.48142 27.1897 8.59848 27.3965 8.57507C27.295 8.40337 27.135 8.26289 26.9438 8.20436C26.7916 8.17314 26.6356 8.17314 26.4834 8.16533ZM27.8335 8.29801C27.8257 8.52434 27.814 8.74677 27.8218 8.9731C27.8765 8.9809 27.935 8.9887 27.9935 8.99651C27.9896 8.87164 27.9857 8.74677 27.9857 8.6219C28.1613 8.74286 28.2277 8.977 28.4228 9.07065C28.372 8.75847 28.1379 8.52824 27.9467 8.29801C27.9077 8.29411 27.8726 8.29411 27.8335 8.29801ZM25.6132 8.43459C25.6132 8.48922 25.6132 8.54775 25.6132 8.60238C25.7537 8.68043 25.8707 8.84822 26.0502 8.81701C26.1283 8.8131 26.2024 8.78969 26.2766 8.77018C26.1634 8.69213 26.0268 8.66092 25.9058 8.59848C26.0385 8.54775 26.1712 8.50873 26.3039 8.4619C26.097 8.31752 25.8239 8.29021 25.6132 8.43459ZM11.9944 8.89115C12.1622 8.81701 12.3261 8.72726 12.5017 8.66872C12.4236 8.87944 12.2832 9.05894 12.1973 9.26966C12.5641 9.13309 12.7319 8.74286 12.8178 8.38776C12.5134 8.49312 12.1427 8.57117 11.9944 8.89115ZM10.8901 8.89115C10.5077 9.31649 10.0823 9.71062 9.77794 10.1945C9.66087 10.3779 9.57502 10.5847 9.52429 10.7993C9.5438 10.7993 9.57892 10.8032 9.59843 10.8071C9.61794 10.7252 9.63355 10.6432 9.65306 10.5613C9.7233 10.5691 9.78964 10.573 9.85988 10.5808C10.0277 10.3779 10.2033 10.1789 10.375 9.98377C10.6403 9.6872 10.9564 9.44136 11.3115 9.26186C11.3037 9.04334 11.3271 8.78969 11.1788 8.61409C11.0579 8.67262 10.9837 8.79359 10.8901 8.89115ZM26.3312 8.9887C26.3195 9.02382 26.3 9.09016 26.2922 9.12528C26.5497 9.34381 26.7877 9.60526 27.1194 9.71452C27.2443 9.76135 27.3809 9.74183 27.4979 9.6794C27.3028 9.4999 27.0492 9.41014 26.8229 9.27747C26.9399 9.25796 27.0609 9.24625 27.178 9.21503C27.0492 9.11358 26.9087 9.01602 26.7448 8.9731C26.6082 8.93407 26.4678 8.96529 26.3312 8.9887ZM27.4511 8.99261C27.4979 9.13309 27.5565 9.26966 27.6267 9.40234C27.6931 9.53502 27.7828 9.6794 27.9506 9.6872C27.896 9.53892 27.7906 9.42185 27.7009 9.29308C27.8843 9.40234 28.0365 9.55063 28.2121 9.6755C28.2823 9.73403 28.376 9.73403 28.4618 9.74964C28.4501 9.60916 28.3916 9.46868 28.2745 9.37893C28.0404 9.18382 27.7516 9.05114 27.4511 8.99261ZM28.5945 9.72232C28.6218 9.79647 28.7076 9.81598 28.7701 9.855C28.7584 9.71842 28.735 9.58574 28.7037 9.45697C28.7506 9.46087 28.7935 9.46087 28.8403 9.46478C28.9574 9.66379 29.012 9.90963 29.1954 10.0618C29.2071 9.74964 29.0627 9.44917 28.8793 9.20333C28.8169 9.11358 28.7193 9.05894 28.6218 9.01212C28.5828 9.24235 28.493 9.49209 28.5945 9.72232ZM10.9603 9.66379C10.6169 9.96816 10.2852 10.2999 10.0394 10.6901C9.95354 10.8228 9.895 10.971 9.86379 11.1232C9.99256 11.0725 10.1213 11.014 10.2306 10.9281C10.6091 10.6354 10.8081 10.1789 11.1866 9.88622C11.2452 9.83549 11.3271 9.8589 11.3974 9.84719C11.2335 10.0852 11.0071 10.2686 10.8159 10.4872C10.5272 10.8071 10.2228 11.1583 10.1565 11.5993C10.375 11.5173 10.5701 11.3808 10.7496 11.2364C10.9564 11.0764 11.0657 10.8306 11.253 10.6511C11.5183 10.413 11.6588 10.0774 11.7876 9.75354C11.8617 9.55063 11.932 9.34381 11.9359 9.12528C11.5574 9.18382 11.2452 9.42966 10.9603 9.66379ZM12.01 9.73013C11.8812 9.97207 11.729 10.2062 11.5808 10.4364C11.4169 10.7018 11.2374 10.971 11.171 11.2793C11.2413 11.2364 11.3076 11.1857 11.37 11.1271C11.7564 10.7681 12.0685 10.3428 12.408 9.94085C12.4627 9.87451 12.5056 9.80037 12.5368 9.72232C12.3612 9.71062 12.1856 9.71842 12.01 9.73013ZM27.0921 9.90573C27.2014 10.175 27.4589 10.3506 27.7282 10.4403C27.814 10.4794 27.8921 10.4208 27.9623 10.374C27.8101 10.2491 27.6267 10.1672 27.4511 10.0852C27.6306 10.0735 27.8101 10.0852 27.9896 10.0891C27.9272 9.99158 27.8491 9.90963 27.7711 9.82378C27.5409 9.83939 27.3184 9.87841 27.0921 9.90573ZM28.2628 9.90963C28.3057 10.2569 28.5164 10.5496 28.7467 10.7993C28.8247 10.5613 28.6023 10.3896 28.5164 10.1945C28.7193 10.2569 28.852 10.4208 28.9847 10.5769C29.0276 10.5769 29.0744 10.5769 29.1174 10.5769C29.0432 10.4208 28.9652 10.2608 28.8286 10.1477C28.6686 10.0111 28.4618 9.96426 28.2628 9.90963ZM29.3944 9.93695C29.3788 10.136 29.3866 10.335 29.41 10.534C29.4413 10.5262 29.4959 10.5106 29.5271 10.5028C29.6832 10.6003 29.7144 10.7993 29.8315 10.9281C29.851 10.854 29.8744 10.7759 29.851 10.7018C29.8003 10.4559 29.6715 10.2296 29.5388 10.0189C29.5154 9.96036 29.4452 9.95646 29.3944 9.93695ZM27.8062 10.6276C27.9506 11.0179 28.3213 11.2442 28.6452 11.4705C28.7271 11.5408 28.8403 11.5134 28.9379 11.5134C28.7506 11.3183 28.493 11.2052 28.294 11.0257C28.5086 11.0374 28.6959 11.1466 28.8793 11.2364C28.8832 11.1622 28.9418 11.0647 28.8715 11.0062C28.5789 10.7525 28.1964 10.5964 27.8062 10.6276ZM29.0823 10.8501C29.1174 11.0764 29.1837 11.3066 29.3281 11.4861C29.3593 11.533 29.4178 11.5486 29.4647 11.572C29.4217 11.412 29.332 11.2676 29.2657 11.1154C29.4413 11.2091 29.5388 11.4081 29.7417 11.4549C29.7261 11.1115 29.3905 10.9125 29.0823 10.8501ZM30.0461 10.9281C29.9642 11.2169 29.9173 11.5447 30.0773 11.8178C30.1124 11.7164 30.1359 11.6149 30.1515 11.5095C30.1749 11.5095 30.2217 11.5095 30.249 11.5095C30.2685 11.6266 30.2997 11.7437 30.3973 11.8217C30.4207 11.4978 30.3388 11.1115 30.0461 10.9281ZM8.41606 11.9583C8.16241 12.4578 7.9634 12.9885 7.88536 13.5465C7.9712 13.5387 8.05705 13.5348 8.1429 13.527C8.33411 12.9456 8.74385 12.4734 9.00139 11.9193C9.11456 11.6851 9.14968 11.4237 9.13407 11.1661C8.78287 11.3066 8.58776 11.6461 8.41606 11.9583ZM9.66087 11.5681C9.22772 11.9739 8.8453 12.4422 8.54873 12.9573C8.40045 13.2343 8.24046 13.5465 8.29509 13.8704C8.3146 13.9289 8.3185 14.0265 8.40045 14.0304C8.81018 13.4372 8.98969 12.7192 9.38771 12.1183C9.41893 12.0715 9.46186 12.0363 9.50478 12.0012C9.55941 12.2588 9.47356 12.5163 9.34479 12.7387C9.11846 13.1329 8.86481 13.5114 8.73994 13.9523C8.72433 14.0928 8.74385 14.2372 8.77116 14.3777C9.00139 14.2411 9.12236 13.9992 9.24333 13.7728C9.5438 13.1875 9.75843 12.5592 9.93403 11.9271C9.99256 11.7203 10.0316 11.5056 10.0433 11.291C9.91061 11.3613 9.77794 11.4549 9.66087 11.5681ZM28.653 11.65C28.7584 11.9388 28.9886 12.1534 29.2227 12.3368C29.293 12.3993 29.3905 12.3993 29.4764 12.4032C29.3125 12.208 29.0862 12.0754 28.9223 11.8803C29.1603 11.9388 29.3203 12.1651 29.5739 12.1729C29.5817 12.0481 29.5466 11.9193 29.4413 11.8451C29.2188 11.6695 28.9223 11.6695 28.653 11.65ZM29.7339 11.7164C29.7222 12.0363 29.8081 12.3563 29.9798 12.6256C30.011 12.6802 30.0656 12.7192 30.1124 12.7583C30.1359 12.528 30.0227 12.3212 29.929 12.1183C30.1515 12.1612 30.1866 12.4617 30.3934 12.5202C30.2763 12.1885 30.0539 11.8764 29.7339 11.7164ZM30.6275 11.8998C30.5768 12.2432 30.6041 12.5944 30.6236 12.9417C30.6588 12.9534 30.7251 12.9807 30.7602 12.9963C30.7563 12.8675 30.7524 12.7387 30.7485 12.6139C30.7953 12.6139 30.8422 12.6139 30.8929 12.6139C30.9085 12.7465 30.9241 12.8792 30.9514 13.008C30.9709 12.9573 31.0021 12.9104 30.9982 12.8519C30.9904 12.5905 30.8734 12.3485 30.7758 12.1105C30.7407 12.0285 30.6822 11.9622 30.6275 11.8998ZM10.1447 12.0871C9.95744 12.2783 10.0082 12.5749 9.8833 12.7973C9.7233 13.086 9.5477 13.3787 9.51649 13.7143C9.57892 13.7338 9.64136 13.7533 9.69989 13.7728C10.1408 13.2187 10.453 12.5749 10.7418 11.931C10.5389 11.9661 10.3125 11.9622 10.1447 12.0871ZM29.2696 12.6061C29.3281 12.8792 29.5037 13.1095 29.73 13.2733C29.8783 13.3748 30.0266 13.5036 30.2178 13.5075C30.132 13.2577 29.8861 13.129 29.7183 12.9456C29.8471 12.9573 29.9798 12.9807 30.1085 12.9963C30.0188 12.8597 29.8861 12.7544 29.7456 12.6724C29.6012 12.5788 29.4296 12.5983 29.2696 12.6061ZM30.3934 12.9143C30.3856 13.2343 30.448 13.566 30.6197 13.8392C30.6744 13.6245 30.5729 13.4138 30.5495 13.2031C30.5885 13.1719 30.6314 13.1407 30.6705 13.1056C30.5885 13.0314 30.4949 12.9651 30.3934 12.9143ZM31.2051 12.9026C31.1504 13.168 31.1114 13.4411 31.1504 13.7104C31.2207 13.6558 31.2948 13.6011 31.369 13.5465C31.3729 13.6792 31.3729 13.808 31.3807 13.9406C31.408 13.925 31.4626 13.8938 31.4899 13.8782C31.5524 13.5504 31.4431 13.2226 31.3299 12.9182C31.2987 12.9143 31.2363 12.9065 31.2051 12.9026ZM30.6822 13.2382C30.6939 13.3085 30.7056 13.3748 30.7212 13.445C30.7758 13.4294 30.8305 13.4177 30.8851 13.4021C30.8187 13.3436 30.7485 13.289 30.6822 13.2382ZM29.8588 13.566C29.9603 13.9914 30.2061 14.4401 30.6353 14.604C30.6509 14.2801 30.3271 14.1123 30.1437 13.8938C30.2529 13.925 30.3544 13.9679 30.4558 14.0187C30.4753 14.0109 30.5144 13.9914 30.5339 13.9836C30.4441 13.847 30.37 13.6831 30.2139 13.6128C30.0968 13.5816 29.9759 13.5777 29.8588 13.566ZM7.57708 13.9875C7.48733 14.7562 7.14784 15.4664 7.01516 16.2273C6.94102 16.6917 6.94492 17.2029 7.19076 17.6204C7.24149 17.1639 7.19856 16.7034 7.21417 16.2468C7.21417 16.1064 7.29222 15.9815 7.35075 15.8566C7.56928 15.4118 7.79951 14.9552 7.84633 14.4557C7.87365 14.2567 7.77219 14.0499 7.57708 13.9875ZM31.4587 14.7562C31.4977 14.7406 31.5719 14.7133 31.607 14.6977C31.6538 14.764 31.7006 14.8264 31.7592 14.885C31.7982 14.5923 31.7475 14.2996 31.6577 14.0226C31.4821 14.2255 31.4431 14.4986 31.4587 14.7562ZM30.85 14.085C30.8305 14.4089 30.8305 14.7406 30.9163 15.0567C30.9514 15.0567 31.0217 15.0528 31.0529 15.0528C31.0412 14.8498 31.01 14.6508 30.9982 14.4518C31.0529 14.4284 31.1075 14.4089 31.1621 14.3855C31.1192 14.2333 31.0021 14.124 30.85 14.085ZM7.9634 14.7796C7.70976 15.1893 7.56928 15.6576 7.49123 16.1298C7.41319 16.6488 7.37026 17.1834 7.47172 17.7024C7.52245 17.6829 7.56928 17.6634 7.62 17.6438C7.63171 16.8049 7.88145 15.9932 8.09998 15.1932C8.10388 15.1152 8.18973 15.1035 8.24436 15.0723C8.27948 15.4508 8.18193 15.8215 8.10778 16.1883C8.01023 16.6605 7.90877 17.1405 7.92828 17.6243C8.18583 17.5307 8.28338 17.2497 8.36143 17.0156C8.53313 16.4107 8.56434 15.7747 8.58385 15.1464C8.60727 14.8342 8.60727 14.5221 8.61117 14.2099C8.33411 14.3113 8.11949 14.5338 7.9634 14.7796ZM30.1671 14.6352C30.1983 14.7133 30.2139 14.8069 30.2841 14.8616C30.409 14.9513 30.5612 15.002 30.7056 15.0528C30.6861 14.9162 30.6744 14.7562 30.5534 14.6703C30.4324 14.6118 30.2958 14.6391 30.1671 14.6352ZM31.166 14.6625C31.1973 14.7796 31.2051 14.9162 31.3104 14.9981C31.3065 14.885 31.2909 14.7757 31.2714 14.6664C31.2441 14.6664 31.1934 14.6664 31.166 14.6625ZM8.96237 14.7679C8.89213 14.8147 8.79848 14.8577 8.80628 14.9552C8.75165 15.4664 8.68921 15.9776 8.63068 16.4888C8.60337 16.7424 8.56434 16.9961 8.57605 17.2497C8.63849 17.2029 8.70482 17.1522 8.73214 17.0741C8.86481 16.758 8.93115 16.4185 9.0053 16.0869C9.10675 15.6108 9.1926 15.1308 9.26674 14.6508C9.16138 14.6821 9.05602 14.7094 8.96237 14.7679ZM30.4129 15.1425C30.4324 15.1932 30.448 15.2479 30.4753 15.2947C30.5105 15.3766 30.6119 15.3493 30.6822 15.3649C30.6314 15.2947 30.5768 15.2284 30.5261 15.162C30.4949 15.1581 30.4402 15.1503 30.4129 15.1425ZM31.728 15.9347C31.7748 15.8722 31.8216 15.8098 31.8684 15.7474C31.9075 15.7552 31.9465 15.763 31.9855 15.7669C31.9855 15.8722 31.9855 15.9776 31.9972 16.083C32.0284 16.04 32.0636 15.9932 32.0558 15.9386C32.0597 15.6576 32.0675 15.3727 31.9894 15.0996C31.8099 15.3298 31.6382 15.6303 31.728 15.9347ZM30.3778 15.4898C30.3895 15.7747 30.4793 16.0517 30.6197 16.2976C30.6549 16.2937 30.729 16.2898 30.7641 16.2859C30.7056 16.1259 30.6275 15.9776 30.5378 15.8371C30.5768 15.8371 30.6509 15.8371 30.69 15.8371C30.7407 15.9152 30.7836 15.9932 30.8461 16.0634C30.9358 16.0361 30.9553 15.9425 30.9787 15.8644C30.8265 15.6771 30.6041 15.5679 30.3778 15.4898ZM31.1387 16.5902C31.1738 16.5551 31.2285 16.5278 31.2324 16.4732C31.2831 16.2468 31.2714 16.0166 31.2792 15.7864C31.3065 15.7981 31.3573 15.8215 31.3807 15.8332C31.4626 16.001 31.5055 16.1883 31.5719 16.3639C31.5953 16.36 31.6421 16.3522 31.6655 16.3483C31.6694 16.2898 31.6928 16.2312 31.6733 16.1727C31.607 15.8956 31.4275 15.6576 31.2168 15.4703C31.1153 15.8293 31.0295 16.2156 31.1387 16.5902ZM31.8177 17.1327C31.8606 17.1483 31.9075 17.1678 31.9504 17.1834C31.9621 17.1444 31.9777 17.1053 31.9894 17.0702C32.0323 17.0819 32.0714 17.0975 32.1143 17.1092C32.1104 17.2107 32.1104 17.3161 32.1143 17.4175C32.3367 17.0975 32.286 16.6956 32.2704 16.3327C31.9543 16.4615 31.8528 16.8283 31.8177 17.1327ZM31.2792 17.5814C31.4158 17.4409 31.4743 17.2536 31.4899 17.0624C31.5407 17.0468 31.5914 17.0273 31.646 17.0117C31.6148 16.8283 31.5797 16.6098 31.3885 16.52C31.3377 16.8751 31.2987 17.2263 31.2792 17.5814ZM30.647 16.598C30.6549 16.7034 30.6392 16.8166 30.6822 16.9141C30.8226 16.9492 30.9553 17.0117 31.0763 17.0897C31.0763 17.0195 31.0763 16.9531 31.0763 16.8829C30.9436 16.7736 30.807 16.6683 30.647 16.598ZM30.7017 16.9727C30.7407 17.1287 30.768 17.32 30.9202 17.4058C30.9358 17.2341 30.8812 17.0273 30.7017 16.9727ZM30.6822 17.4682C30.7017 17.7141 30.729 17.9599 30.7719 18.2019C30.7797 18.2682 30.8109 18.3306 30.8461 18.3892C30.8851 18.2292 30.8695 18.0614 30.8578 17.9014C31.01 17.9287 31.0373 18.1004 31.1192 18.2058C31.1543 18.1706 31.1856 18.1316 31.2207 18.0965C31.1817 17.7999 30.9592 17.5619 30.6822 17.4682ZM31.9426 17.9638C31.8645 18.077 31.8372 18.2253 31.9153 18.3423C31.9699 18.2604 32.0167 18.1745 32.0675 18.0887C32.1182 18.0809 32.1728 18.077 32.2235 18.0731C32.2001 18.2448 32.1767 18.4204 32.1806 18.596C32.364 18.2877 32.4187 17.9131 32.3367 17.5658C32.165 17.6556 32.0479 17.8116 31.9426 17.9638ZM6.82785 17.7687C6.81615 18.2487 6.84346 18.7326 6.86297 19.2125C6.9059 19.8759 7.04638 20.5432 7.34685 21.1402C7.37026 21.1441 7.41709 21.148 7.4405 21.1519C7.38587 20.91 7.32734 20.672 7.29222 20.4261C7.19076 19.8018 7.24929 19.1657 7.35075 18.5414C7.36246 18.4555 7.38197 18.3619 7.34685 18.276C7.2571 18.0497 7.10491 17.7882 6.82785 17.7687ZM7.74488 17.7921C7.60049 18.4555 7.38197 19.1111 7.39758 19.7979C7.38977 20.3325 7.56147 20.8515 7.78 21.3314C7.7956 21.3939 7.86584 21.3939 7.91267 21.4173C8.08437 20.5393 7.73317 19.673 7.74878 18.795C7.78 18.795 7.83853 18.795 7.86584 18.795C7.93218 19.3881 7.90487 19.9891 7.98291 20.5822C8.00632 20.7578 8.06486 20.9295 8.15461 21.0817C8.28338 20.949 8.29899 20.7539 8.33021 20.5822C8.38094 20.0749 8.3146 19.5676 8.22485 19.0682C8.15071 18.635 8.04925 18.2058 7.88145 17.8038C7.85024 17.796 7.78 17.7921 7.74488 17.7921ZM8.58385 17.8663C8.47849 18.0536 8.40045 18.2565 8.36533 18.4711C8.28338 18.9628 8.29509 19.474 8.43947 19.954C8.49801 20.1101 8.53703 20.3013 8.69702 20.3871C8.658 20.6603 8.62288 20.9373 8.60337 21.2144C8.63068 21.2105 8.68141 21.2027 8.70482 21.1988C8.80628 20.871 8.86091 20.5315 8.86872 20.1881C8.89603 19.4037 8.72043 18.6311 8.70092 17.8468C8.6619 17.8546 8.62288 17.8624 8.58385 17.8663ZM31.4782 17.8312C31.4353 17.9404 31.4002 18.0575 31.3885 18.1745C31.4548 18.2097 31.525 18.2448 31.5914 18.2799C31.6187 18.5023 31.6538 18.7287 31.7006 18.9472C31.8216 18.873 31.8411 18.7365 31.8567 18.6077C31.8411 18.596 31.806 18.5687 31.7865 18.557C31.7358 18.2994 31.7006 18.0068 31.4782 17.8312ZM31.3533 18.3384C31.3104 18.4789 31.3104 18.6272 31.3104 18.7716C31.3299 18.756 31.3729 18.7287 31.3924 18.717C31.4236 18.5765 31.4197 18.4282 31.4275 18.2838C31.408 18.2994 31.3729 18.3267 31.3533 18.3384ZM30.6158 18.4984C30.6431 18.8145 30.6783 19.1345 30.7485 19.4428C30.7563 19.513 30.807 19.5598 30.8578 19.6067C30.8578 19.435 30.8305 19.2633 30.8148 19.0916C30.8617 19.0955 30.9085 19.0955 30.9514 19.0994C31.0021 19.2203 31.049 19.3452 31.1075 19.4623C31.1738 19.3803 31.2558 19.2828 31.209 19.1735C31.1036 18.8887 30.8773 18.6506 30.6158 18.4984ZM31.7748 19.5598C31.9543 19.4779 32.0479 19.2984 32.126 19.1306C32.1572 19.1345 32.2235 19.1384 32.2587 19.1423C32.1884 19.4037 32.0206 19.6262 31.9777 19.8993C32.0792 19.8252 32.1728 19.7354 32.2196 19.6145C32.3172 19.3803 32.3679 19.1267 32.3952 18.8769C32.0714 18.9433 31.7787 19.2086 31.7748 19.5598ZM31.3377 19.634C31.3846 19.6535 31.4314 19.6691 31.4782 19.6886C31.4938 19.872 31.4782 20.0515 31.4977 20.2349C31.5602 20.1608 31.6343 20.0905 31.6538 19.993C31.7046 19.712 31.6343 19.4272 31.5992 19.1462C31.5524 19.1345 31.5094 19.1189 31.4626 19.1072C31.3612 19.2633 31.3377 19.4506 31.3377 19.634ZM30.6431 19.6574C30.5066 20.0047 30.3505 20.3832 30.4792 20.7578C30.4988 20.7539 30.5417 20.75 30.5612 20.75C30.5729 20.5627 30.5573 20.3793 30.5261 20.192C30.5885 20.1803 30.647 20.1686 30.7095 20.1569C30.7446 20.3247 30.7524 20.5042 30.8422 20.6564C30.8851 20.6095 30.9436 20.5705 30.9709 20.5081C30.9748 20.1959 30.85 19.8915 30.6431 19.6574ZM31.6148 20.5237C31.5563 20.5861 31.5797 20.672 31.5836 20.75C31.6733 20.6095 31.8138 20.512 31.9738 20.4613C31.9348 20.6759 31.8489 20.8827 31.8177 21.1012C32.0284 20.7968 32.1494 20.4417 32.2079 20.0788C31.9231 20.0632 31.7553 20.3169 31.6148 20.5237ZM31.2597 20.3832C31.0412 20.7071 30.8461 21.0583 30.7797 21.4485C30.9709 21.3002 31.0919 21.0895 31.209 20.8827C31.2831 20.8827 31.3573 20.8788 31.4275 20.8788C31.4002 20.7773 31.3573 20.6798 31.3299 20.5783C31.3494 20.5276 31.3807 20.4847 31.408 20.4417C31.3612 20.4183 31.3104 20.4027 31.2597 20.3832ZM30.1749 20.8281C30.1671 21.2105 30.1749 21.6046 30.3076 21.9675C30.4168 21.7607 30.3583 21.5227 30.2958 21.308C30.3271 21.308 30.3895 21.308 30.4207 21.308C30.4636 21.3939 30.5027 21.4836 30.5456 21.5695C30.5846 21.5422 30.6197 21.511 30.6588 21.4836C30.6197 21.3041 30.5885 21.109 30.4558 20.9724C30.3856 20.8866 30.2763 20.8554 30.1749 20.8281ZM31.248 21.0115C31.2363 21.1402 31.2207 21.2729 31.2129 21.4017C31.3885 21.3314 31.3573 21.1129 31.4197 20.9685C31.3651 20.9841 31.3065 20.9959 31.248 21.0115ZM8.81409 21.3314C8.77116 21.468 8.79067 21.6163 8.82189 21.7529C8.98578 22.3187 9.3682 22.787 9.55551 23.3411C9.60234 23.3372 9.64526 23.3294 9.69209 23.3294C9.81696 23.4269 9.82866 23.5986 9.90671 23.7274C9.79745 22.8143 9.20821 22.0456 9.04432 21.1441C8.95847 21.191 8.84921 21.2261 8.81409 21.3314ZM31.3963 21.6592C31.1504 21.6475 30.9007 21.6514 30.6549 21.6475C30.5651 21.6475 30.4793 21.6319 30.3934 21.6592C30.7251 21.6592 31.0568 21.6436 31.3885 21.6631C31.287 21.8075 31.2051 21.9675 31.1934 22.147C31.2909 22.069 31.3729 21.9753 31.4587 21.8856C31.5094 21.8309 31.5953 21.8543 31.6577 21.8387C31.5953 21.9675 31.5211 22.0885 31.4548 22.2134C31.4743 22.2368 31.5094 22.2836 31.5289 22.3109C31.6031 22.2407 31.6733 22.1665 31.7124 22.0729C31.8255 21.8192 31.9192 21.5578 31.9738 21.2846C31.7553 21.3627 31.5602 21.4953 31.3963 21.6592ZM8.139 21.4719C8.11949 21.7841 8.12729 22.1002 8.15851 22.4124C8.20924 23.0367 8.39655 23.6767 8.80628 24.1606C8.94676 24.3167 9.09114 24.4844 9.29016 24.5742C9.29016 24.4923 9.30577 24.4064 9.26284 24.3323C8.97798 23.7859 8.68921 23.2396 8.52532 22.6465C8.47069 22.4475 8.46289 22.2407 8.4863 22.0338C8.57605 22.2446 8.64629 22.4631 8.73214 22.6777C8.95066 23.2474 9.21992 23.7977 9.46966 24.3557C9.50088 24.3596 9.56331 24.3713 9.59063 24.3752C9.62185 23.8133 9.41893 23.2748 9.16529 22.787C8.89213 22.268 8.56434 21.7841 8.21705 21.3119C8.17022 21.3549 8.1312 21.4056 8.139 21.4719ZM7.2571 21.6748C7.29222 21.8192 7.33514 21.9597 7.38977 22.0963C7.66293 22.7909 8.00242 23.4582 8.34972 24.1176C8.37704 24.1215 8.42777 24.1293 8.45508 24.1332C8.22485 23.5479 8.20924 22.9079 7.99852 22.3187C7.88926 21.9909 7.59659 21.7412 7.2571 21.6748ZM30.8617 21.7919C30.5768 22.1353 30.2724 22.5255 30.288 22.9977C30.3856 22.9236 30.4714 22.8377 30.5456 22.7402C30.5378 22.5997 30.6041 22.4709 30.6705 22.3538C30.7212 22.346 30.768 22.3382 30.8187 22.3343C30.8031 22.4943 30.7875 22.6543 30.7953 22.8143C31.0646 22.545 31.0217 22.1392 31.0217 21.7958C30.967 21.788 30.9163 21.7919 30.8617 21.7919ZM29.9876 21.909C29.8978 22.3304 29.7495 22.748 29.7495 23.1811C29.8198 23.0172 29.8432 22.8416 29.8822 22.6699C29.9603 22.6855 30.0383 22.7011 30.1163 22.7089C30.37 22.5138 30.2412 22.1587 30.1241 21.9207C30.0773 21.9207 30.0344 21.9129 29.9876 21.909ZM30.7251 23.3489C30.8422 23.3216 30.9553 23.2865 31.0685 23.2513C31.0021 23.4387 30.9046 23.6103 30.8617 23.8016C31.2129 23.4972 31.3768 23.0445 31.5172 22.6153C31.1465 22.7011 30.8539 22.9938 30.7251 23.3489ZM29.1135 23.9889C29.2227 23.8796 29.3749 23.8445 29.5193 23.8094C29.5505 23.5713 29.5583 23.3294 29.5466 23.0914C29.5193 23.0835 29.4647 23.064 29.4413 23.0562C29.3125 23.3567 29.1369 23.6494 29.1135 23.9889ZM29.9798 23.5752C29.8822 23.7196 29.73 23.8484 29.73 24.0357C29.8237 23.9889 29.9173 23.9381 29.9837 23.8523C30.0695 23.7547 30.128 23.6143 30.2724 23.5869C30.2724 23.704 30.2646 23.8211 30.2724 23.9381C30.3115 23.8991 30.3661 23.8679 30.3856 23.8133C30.4714 23.5947 30.5144 23.3645 30.5339 23.1304C30.2997 23.2084 30.1202 23.3801 29.9798 23.5752ZM30.3544 24.1801C30.1788 24.301 30.0461 24.4844 30.0149 24.6952C30.1515 24.5937 30.2802 24.4766 30.4519 24.4376C30.3622 24.6288 30.2217 24.7966 30.1749 25.0112C30.2685 24.9566 30.3622 24.8942 30.4363 24.8122C30.6783 24.5547 30.8773 24.2542 30.9982 23.9186C30.7641 23.9459 30.5417 24.0396 30.3544 24.1801ZM10.2696 24.2308C10.2618 24.4571 10.254 24.6913 10.3242 24.9098C10.3906 25.14 10.5389 25.3312 10.695 25.5107C10.9096 25.7566 11.1281 26.0024 11.3037 26.2756C11.3271 26.2756 11.3778 26.2756 11.4052 26.2795C11.3622 26.1858 11.3349 26.0883 11.3193 25.9868C11.4052 26.0727 11.4754 26.1741 11.5378 26.2795C11.2803 25.6746 10.9993 25.0737 10.6169 24.5352C10.5311 24.4064 10.4101 24.2971 10.2696 24.2308ZM29.1798 25.0659C29.3125 24.8786 29.4335 24.66 29.6637 24.5859C29.5544 24.8239 29.4217 25.0542 29.4061 25.3234C29.6949 25.0503 29.8744 24.6679 29.89 24.2659C29.5427 24.3947 29.2032 24.6718 29.1798 25.0659ZM28.4033 25.1751C28.4618 25.1751 28.5164 25.1712 28.575 25.1712C28.5945 25.062 28.614 24.9527 28.6335 24.8435C28.6842 24.8356 28.7389 24.8278 28.7896 24.8239C28.7506 24.98 28.7115 25.1322 28.6998 25.2922C28.852 25.2727 28.8949 25.1088 28.934 24.9878C29.0003 24.7771 28.9535 24.543 28.8208 24.3674C28.6842 24.6366 28.532 24.902 28.4033 25.1751ZM8.78287 24.4727C8.87652 24.5625 8.97798 24.6483 9.07944 24.7303C9.11456 24.703 9.14968 24.6718 9.1848 24.6444C9.05602 24.582 8.92335 24.5157 8.78287 24.4727ZM9.52819 24.7459C9.61014 25.2532 9.75842 25.7644 10.055 26.1897C10.3477 26.619 10.7574 26.9468 11.1671 27.2628C11.2374 27.3292 11.3388 27.3253 11.4325 27.3331C11.011 26.7985 10.5584 26.2873 10.1408 25.7488C10.1018 25.6941 10.0784 25.6317 10.0511 25.5693C10.133 25.6122 10.215 25.659 10.2813 25.7254C10.7574 26.1897 11.1047 26.7672 11.5925 27.216C11.6159 27.1536 11.651 27.0872 11.6315 27.017C11.5769 26.8024 11.4403 26.6268 11.3154 26.4512C10.9525 25.9751 10.535 25.542 10.094 25.1439C9.91451 24.9995 9.74672 24.8317 9.52819 24.7459ZM28.0599 25.2064C27.9779 25.3234 27.9545 25.4678 27.9428 25.6083C27.9896 25.6785 28.0208 25.7566 28.0287 25.8424C28.095 25.7527 28.1769 25.6707 28.2277 25.5732C28.294 25.4249 28.2823 25.2571 28.2862 25.0971C28.2121 25.1283 28.1067 25.1244 28.0599 25.2064ZM8.67751 25.2298C8.90384 25.5693 9.28626 25.7644 9.5321 26.0844C9.69989 26.3419 9.80915 26.6307 9.98085 26.8843C10.133 27.1184 10.336 27.3175 10.574 27.4618C10.7184 27.5477 10.8667 27.6413 11.0384 27.6453C10.8276 27.4384 10.5701 27.2901 10.3789 27.0638C10.5974 27.1458 10.7262 27.3643 10.9447 27.454C11.0462 27.5009 11.1593 27.5087 11.2725 27.5126C11.1788 27.3331 10.9837 27.2472 10.8276 27.1302C10.6481 27.0014 10.4452 26.896 10.3008 26.7204C9.94573 26.2795 9.69599 25.7527 9.27845 25.3664C9.12236 25.2259 8.88042 25.0971 8.67751 25.2298ZM29.1408 25.8619C29.3008 25.7917 29.4647 25.7293 29.6403 25.7176C29.492 25.8463 29.3047 25.9517 29.2579 26.1585C29.7105 25.9946 29.9642 25.5615 30.2802 25.2298C29.8276 25.1595 29.25 25.3664 29.1408 25.8619ZM28.333 25.8697C28.2511 25.9322 28.216 26.0336 28.1886 26.1273C28.3018 26.1195 28.4189 26.1078 28.5164 26.0492C28.7662 25.9049 28.9847 25.6824 29.051 25.3937C28.7896 25.5224 28.5476 25.6824 28.333 25.8697ZM28.7818 25.8814C28.6998 26.0063 28.6335 26.1429 28.6062 26.2912C28.7467 26.1936 28.8598 26.0609 28.9145 25.8971C28.8793 25.8932 28.813 25.8853 28.7818 25.8814ZM27.2638 26.1234C26.9868 26.3887 26.7097 26.7165 26.7058 27.1184C26.8619 26.9663 26.9711 26.7751 27.0609 26.5799C27.1038 26.5643 27.1467 26.5487 27.1858 26.537C27.1467 26.7009 27.1077 26.8609 27.0882 27.0287C27.135 27.0092 27.1858 26.9897 27.2326 26.9741C27.4043 26.7048 27.4745 26.3848 27.4667 26.0688C27.4004 26.0844 27.3145 26.0648 27.2638 26.1234ZM28.5086 26.5565C28.5086 26.5877 28.5047 26.6463 28.5008 26.6775C28.6491 26.619 28.8052 26.576 28.9652 26.5643C28.8052 26.7438 28.575 26.8687 28.493 27.1067C28.8793 26.9546 29.1408 26.6112 29.4217 26.3185C29.094 26.2717 28.7857 26.3965 28.5086 26.5565ZM27.537 26.7946C27.5721 26.818 27.6072 26.8453 27.6423 26.8687C27.7282 26.7594 27.8218 26.6385 27.9818 26.6502C27.8999 26.8531 27.7672 27.0326 27.7048 27.2433C28.0638 27.0911 28.294 26.736 28.3642 26.3614C28.0443 26.3965 27.7867 26.6073 27.537 26.7946ZM12.1427 26.5487C12.17 26.8804 12.2402 27.255 12.5251 27.4657C12.8022 27.6687 13.1456 27.7545 13.446 27.9106C13.5514 27.9808 13.6646 27.9106 13.766 27.8677C13.4851 27.575 13.1807 27.3019 12.8724 27.0365C12.65 26.8453 12.4197 26.658 12.1427 26.5487ZM25.8005 27.7155C25.8746 27.6335 25.9371 27.5477 25.9917 27.454C26.0385 27.4462 26.0853 27.4384 26.1322 27.4345C26.1361 27.5048 26.14 27.575 26.1439 27.6453C26.2492 27.5906 26.3546 27.5282 26.4248 27.4306C26.4561 27.2823 26.3936 27.1302 26.3546 26.9897C25.9956 27.0209 25.8161 27.3955 25.8005 27.7155ZM28.1145 27.2589C27.9077 27.3175 27.7087 27.3994 27.494 27.4306C27.494 27.454 27.494 27.5048 27.494 27.5282C27.7048 27.5126 27.9116 27.4697 28.1223 27.454C27.935 27.5828 27.7204 27.6687 27.5175 27.7701C27.5292 27.813 27.5448 27.8599 27.5565 27.9028C27.8179 27.8365 28.095 27.7779 28.3135 27.6101C28.4423 27.5048 28.6062 27.3994 28.6257 27.2199C28.4618 27.2121 28.2823 27.2082 28.1145 27.2589ZM26.538 27.5828C26.4717 27.657 26.3702 27.7194 26.3624 27.8287C26.4912 27.8716 26.5887 27.7545 26.6785 27.6882C26.7682 27.6062 26.8814 27.5555 26.9985 27.5243C26.8892 27.7311 26.7448 27.9184 26.6395 28.1291C26.7643 28.0901 26.8658 28.0082 26.9165 27.8833C27.018 27.8169 27.1311 27.7623 27.217 27.6687C27.2521 27.6062 27.2443 27.5282 27.2677 27.4618C27.3067 27.4111 27.3497 27.3682 27.3965 27.3214C27.295 27.2706 27.1819 27.2199 27.0687 27.2511C26.858 27.3058 26.6941 27.4501 26.538 27.5828ZM11.6822 27.3682C11.7993 27.813 12.1154 28.1681 12.4315 28.4842C12.0412 28.2462 11.6315 28.0238 11.1749 27.9574C11.1749 27.9925 11.1749 28.0589 11.1749 28.094C11.7447 28.4647 12.2754 28.9018 12.8841 29.21C13.0207 29.2764 13.1612 29.37 13.3212 29.331C13.2587 29.2022 13.1651 29.093 13.0714 28.9837C13.2392 29.0891 13.407 29.1983 13.5826 29.292C13.7543 29.3739 13.9533 29.3154 14.125 29.2647C14.1016 29.21 14.0977 29.1398 14.0353 29.1086C13.4968 28.7613 12.9543 28.4101 12.4549 28.0043C12.5485 28.0277 12.6461 28.0589 12.7241 28.1135C13.0402 28.3242 13.329 28.5818 13.645 28.7925C13.8441 28.9213 14.0665 29.0735 14.3162 29.0071C13.8167 28.453 13.2938 27.8677 12.5836 27.5906C12.2949 27.4931 11.9944 27.3877 11.6822 27.3682ZM25.02 28.3281C25.0825 28.2579 25.1254 28.1721 25.1644 28.0862C25.2503 28.0862 25.3205 28.1135 25.3439 28.2072C25.422 28.1681 25.5039 28.1213 25.5781 28.0784C25.6015 27.9067 25.6132 27.7311 25.5898 27.5555C25.2269 27.6062 25.0513 28.0004 25.02 28.3281ZM26.8736 28.1564C26.7721 28.2228 26.6434 28.2735 26.5965 28.3984C26.737 28.3867 26.8853 28.332 27.018 28.4101C26.9126 28.4569 26.7995 28.492 26.6863 28.5233C26.6824 28.5506 26.6785 28.6052 26.6746 28.6325C27.1077 28.5935 27.4862 28.3437 27.7867 28.0433C27.615 28.0004 27.4355 27.9496 27.2599 27.9769C27.1155 27.9965 26.9946 28.0823 26.8736 28.1564ZM25.4649 28.3008C25.2659 28.3984 25.141 28.6013 25.0786 28.8081C25.34 28.7418 25.5078 28.4998 25.7732 28.4413C25.699 28.6364 25.5351 28.7847 25.4883 28.9915C25.6639 28.9642 25.8551 28.9174 25.98 28.7769C26.1283 28.6013 26.1868 28.3711 26.2297 28.1486C25.9683 28.1681 25.699 28.1877 25.4649 28.3008ZM24.6532 28.3242C24.6259 28.3789 24.5986 28.4335 24.5713 28.492C24.5401 28.492 24.4815 28.4842 24.4542 28.4842C24.4503 28.5233 24.4464 28.5623 24.4425 28.6052C24.4815 28.5896 24.5245 28.574 24.5674 28.5584C24.6454 28.4647 24.7781 28.4413 24.8405 28.3359C24.7742 28.3242 24.7118 28.3242 24.6532 28.3242ZM16.6498 28.9096C15.3698 29.21 14.1211 29.6549 12.9661 30.2832C12.5719 30.5095 12.17 30.7319 11.8227 31.0246C11.85 31.3407 12.0178 31.6255 12.1388 31.9143C12.7007 33.0772 13.3602 34.1854 14.004 35.3014C14.1875 35.2429 14.3357 35.1141 14.4996 35.0244C15.6976 34.3376 17.04 33.9239 18.4019 33.7093C19.8613 33.4908 21.3636 33.4947 22.8114 33.8108C23.8025 34.0293 24.7703 34.4078 25.6015 34.997C25.7146 35.0712 25.8122 35.1687 25.9332 35.2312C26.0502 35.239 26.1517 35.1609 26.2258 35.079C26.2726 34.9853 26.2766 34.8761 26.3117 34.7785C26.4053 34.4898 26.577 34.24 26.7448 33.9903C26.8112 33.8966 26.8385 33.7835 26.8775 33.6781C26.8814 33.6079 26.8853 33.5337 26.9282 33.4791C27.0375 33.3191 27.1507 33.1669 27.2287 32.9913C27.2131 32.9601 27.2014 32.9289 27.1858 32.8976C27.4355 32.6908 27.494 32.3513 27.6579 32.086C27.6579 32.0587 27.6618 32.0079 27.6618 31.9806C27.6814 31.9767 27.7243 31.9728 27.7438 31.9689C27.8765 31.7075 27.9467 31.4148 28.1184 31.1729C27.3536 30.2988 26.3468 29.6588 25.2737 29.2335C24.1772 28.8003 23.0065 28.5701 21.8319 28.4764C20.0954 28.3477 18.3433 28.5076 16.6498 28.9096ZM26.0307 28.8432C26.0307 28.8784 26.0346 28.9486 26.0346 28.9837C26.1634 28.9603 26.2922 28.9447 26.4248 28.933C26.339 28.9954 26.2492 29.054 26.1634 29.1125C26.1634 29.1476 26.1595 29.2139 26.1556 29.2491C26.5185 29.21 26.9321 29.0969 27.1077 28.7457C26.7448 28.734 26.3858 28.7808 26.0307 28.8432ZM28.376 34.4507C28.6296 34.4898 28.8325 34.6654 29.0784 34.7239C29.8003 33.1474 30.5339 31.5748 31.2558 29.9983C31.3455 29.8071 31.326 29.5417 31.1426 29.413C30.9007 29.2452 30.5963 29.2257 30.3154 29.1749C29.6715 30.9348 29.0081 32.6869 28.376 34.4507ZM8.61117 30.2207C8.67751 30.4002 8.78677 30.5602 8.87262 30.7319C9.59843 32.0782 10.3164 33.4284 11.0462 34.7707C11.2764 34.638 11.5105 34.4976 11.7759 34.4468C11.7173 34.2712 11.6315 34.1034 11.5574 33.9356C10.8862 32.4606 10.2072 30.9895 9.5399 29.5105C9.11066 29.5144 8.77897 29.8578 8.61117 30.2207ZM29.211 30.1778C29.0705 30.3534 28.9964 30.568 28.8988 30.767C28.1262 32.4489 27.3341 34.1229 26.5692 35.8126C26.7331 35.9102 26.9243 35.875 27.1038 35.8555C27.5214 35.797 27.9155 35.6448 28.3135 35.5121C28.3213 35.4848 28.3369 35.4302 28.3447 35.4029C28.1106 35.278 27.8452 35.1375 27.7516 34.8722C27.6931 34.6576 27.8335 34.4585 27.9077 34.2673C28.216 33.5025 28.5047 32.7299 28.8052 31.9611C28.9847 31.5982 29.0862 31.2002 29.2227 30.8217C29.2969 30.5797 29.4022 30.3495 29.4413 30.0998C29.3632 30.1115 29.2618 30.0958 29.211 30.1778ZM10.3789 30.1388C10.4413 30.3456 10.535 30.5407 10.6169 30.7436C11.1788 32.0587 11.7915 33.3542 12.3534 34.6693C12.4432 34.8332 12.3534 35.0205 12.2676 35.1687C12.1427 35.3678 11.9164 35.4653 11.7017 35.5356C11.7447 35.5902 11.7915 35.6448 11.8578 35.6682C12.209 35.8087 12.568 35.9297 12.9387 36.0038C13.1456 36.0467 13.3602 35.9687 13.5202 35.8399C12.6695 34.1151 11.8266 32.3865 10.9798 30.6617C10.8628 30.408 10.6559 30.1934 10.3789 30.1388ZM11.2725 35.1024C11.2764 35.1805 11.2764 35.2585 11.2803 35.3365C11.4832 35.3131 11.6978 35.2819 11.8695 35.157C11.9983 35.0556 11.9866 34.8722 11.9944 34.7278C11.7095 34.7395 11.4559 34.8917 11.2725 35.1024ZM28.1808 34.7551C28.1808 34.8214 28.1808 34.8917 28.1808 34.958C28.2745 35.0361 28.3642 35.1219 28.4852 35.1531C28.6296 35.1844 28.7857 35.1609 28.9223 35.1024C28.8715 34.9736 28.8091 34.8371 28.6803 34.7707C28.5242 34.6927 28.3408 34.7278 28.1808 34.7551ZM17.4614 9.95646C17.5043 9.8628 17.6175 9.89012 17.6956 9.90963C17.719 10.1008 17.7853 10.2959 17.9336 10.4286C18.2653 10.7564 18.8545 10.7681 19.194 10.4481C19.2838 10.3701 19.3501 10.253 19.475 10.2218C19.6584 10.4442 19.8886 10.6784 20.1969 10.6784C20.431 10.6979 20.6495 10.5769 20.8173 10.4247C21.0007 10.2686 21.1373 10.0696 21.2856 9.88622C21.3324 9.88622 21.3832 9.88622 21.4339 9.89012C21.5236 10.3272 21.4768 10.8579 21.1178 11.1622C20.7861 11.4237 20.3218 11.3652 19.951 11.2208C19.7832 11.1583 19.6857 10.9437 19.4906 10.9593C19.3384 11.053 19.2447 11.2247 19.0808 11.3066C18.7804 11.4627 18.4058 11.4276 18.117 11.2598C17.8321 11.1076 17.5473 10.8813 17.4575 10.5535C17.4107 10.3623 17.4068 10.1516 17.4614 9.95646ZM19.354 11.4237C19.4164 11.3847 19.4906 11.3066 19.5608 11.3769C19.8379 11.572 20.1071 11.771 20.3764 11.97C20.4661 12.0207 20.4817 12.1339 20.4817 12.2276C20.4778 15.4001 20.47 18.5726 20.4778 21.7451C21.4651 20.8515 22.3353 19.8096 22.9011 18.596C23.506 17.3044 23.7323 15.7981 23.3499 14.4089C23.2445 13.9757 23.0026 13.5972 22.8153 13.1953C22.5109 12.5788 22.1909 11.9739 21.9022 11.3496C22.948 12.2393 23.8025 13.3865 24.2513 14.6899C24.7313 16.0517 24.743 17.5736 24.2708 18.9394C23.8494 20.192 23.0533 21.3002 22.0582 22.1626C21.7578 22.4241 21.4378 22.6621 21.11 22.8884C21.2661 23.0835 21.5275 23.1226 21.7578 23.1694C22.2338 23.2474 22.7177 23.267 23.1977 23.2865C23.5216 23.3021 23.8494 23.2748 24.1733 23.3177C23.5138 23.665 22.7645 23.7899 22.027 23.8094C21.4729 23.8484 20.9149 23.7859 20.3608 23.7664C20.2008 24.0435 20.0369 24.3167 19.8769 24.5937C19.8457 24.6796 19.7052 24.6991 19.6584 24.621C19.4555 24.3362 19.2955 24.024 19.0886 23.743C18.8974 23.7313 18.7101 23.782 18.5189 23.7859C17.8087 23.8562 17.0829 23.8406 16.3883 23.6689C16.0566 23.5869 15.7288 23.4777 15.4128 23.3411C16.1659 23.3957 16.9307 23.3996 17.6721 23.2474C17.8868 23.2045 18.1092 23.1343 18.277 22.986C17.7268 22.6777 17.2195 22.2875 16.7707 21.8426C16.7122 21.7841 16.6615 21.7217 16.6107 21.6553C17.2195 21.6202 17.8282 21.6553 18.437 21.6397C17.8204 21.6436 17.2039 21.6241 16.5912 21.6514C15.6586 20.6329 15.0069 19.353 14.7455 17.995C14.484 16.6527 14.6245 15.2245 15.2098 13.9836C15.6703 12.9963 16.4039 12.1495 17.2702 11.4978C16.6029 12.6139 16.1034 13.8509 15.9708 15.1503C15.8147 16.6059 16.1386 18.1043 16.8566 19.3764C17.3678 20.2974 18.0546 21.109 18.8233 21.8192C18.8311 21.1793 18.7843 20.5432 18.7765 19.9032C18.7374 19.4233 18.7648 18.9394 18.7257 18.4594C18.714 17.3902 18.6516 16.3249 18.6399 15.2557C18.5814 14.1709 18.5814 13.086 18.5267 12.0012C18.796 11.8022 19.0808 11.6227 19.354 11.4237ZM22.5109 11.4393C23.826 11.6656 25.0513 12.3602 25.9175 13.3748C26.6863 14.2723 27.1585 15.4196 27.2521 16.598C27.3302 17.4917 27.1975 18.397 26.8931 19.2399C26.7877 19.5442 26.659 19.8486 26.4717 20.114C26.1283 20.6369 25.7341 21.1324 25.2659 21.5539C24.942 21.8387 24.5869 22.1002 24.1811 22.2641C24.1772 22.2329 24.1733 22.1665 24.1693 22.1353C24.9849 21.1051 25.539 19.8603 25.7068 18.5531C25.9175 17.039 25.6171 15.4625 24.8913 14.1162C24.3293 13.0509 23.4982 12.1339 22.5109 11.4393ZM15.92 11.6578C16.1191 11.5876 16.3259 11.4861 16.5444 11.5369C16.4937 11.6032 16.439 11.6656 16.3727 11.7203C15.4791 12.4929 14.7025 13.4216 14.1914 14.4947C13.8167 15.2752 13.5943 16.1259 13.5397 16.9883C13.4343 18.6155 13.9416 20.2271 14.7299 21.6358C14.8586 21.8895 15.085 22.0807 15.1981 22.346C14.6557 22.1392 14.1796 21.788 13.7738 21.3783C13.2626 20.8671 12.8568 20.2544 12.5407 19.6067C12.4041 19.3296 12.2754 19.0486 12.2012 18.7482C12.0295 18.0224 11.971 17.2653 12.0373 16.52C12.131 15.4781 12.5212 14.4596 13.1612 13.6285C13.8636 12.7192 14.8469 12.052 15.92 11.6578ZM19.514 30.2012C20.0135 29.85 20.4544 29.4247 20.8915 29.0032C20.95 29.0071 21.0124 29.011 21.071 29.0149C21.0437 29.171 21.0437 29.3739 20.8837 29.4637C20.6066 29.6315 20.3803 29.8695 20.1423 30.088C19.7052 30.5017 19.2447 30.9036 18.7257 31.2119C18.1287 31.567 17.4497 31.8011 16.7551 31.8362C16.2712 31.8519 15.7913 31.8362 15.3074 31.8362C15.2372 32.0118 15.1708 32.2187 14.9952 32.3162C14.8313 32.4138 14.6362 32.3826 14.4528 32.3943C14.3474 32.3943 14.2616 32.4684 14.1796 32.523C14.1523 32.4957 14.1211 32.4684 14.0938 32.445C14.164 32.2031 14.2616 31.9377 14.4918 31.8089C14.6557 31.7075 14.8547 31.766 15.0303 31.7231C15.2332 31.6333 15.3503 31.4343 15.4479 31.247C16.1854 31.2626 16.9463 31.3133 17.6604 31.0948C18.3199 30.888 18.956 30.6031 19.514 30.2012ZM24.423 30.5797C24.8444 30.2754 25.3517 30.0763 25.8746 30.0451C25.4493 30.369 24.903 30.4744 24.4737 30.7904C24.1342 31.048 24.0133 31.4811 23.9547 31.8831C24.0718 31.8909 24.1889 31.8948 24.3059 31.8987C24.2903 32.0587 24.2279 32.2226 24.0913 32.3162C23.9742 32.4138 23.8221 32.4255 23.6738 32.4333C23.5918 32.363 23.4748 32.2889 23.4904 32.164C23.506 31.965 23.6386 31.8011 23.6933 31.6138C23.4006 31.7192 23.0884 31.7816 22.7763 31.7972C22.1831 31.8245 21.5822 31.7933 21.0124 31.6138C20.7393 31.5241 20.4388 31.3797 20.3218 31.1026C20.2242 30.8685 20.3686 30.6305 20.4935 30.4353C20.5559 30.4353 20.6222 30.4353 20.6886 30.4314C20.7198 30.7319 20.9656 30.9426 21.2271 31.0519C21.8592 31.3211 22.5616 31.3641 23.2367 31.3446C23.4279 31.329 23.6465 31.3368 23.7947 31.1963C24.0094 31.0012 24.1811 30.7553 24.423 30.5797ZM22.1792 30.3651C22.2612 30.2597 22.4094 30.3222 22.5187 30.3378C22.468 30.4588 22.4055 30.5797 22.347 30.6968C22.2104 30.7163 22.07 30.7319 21.9295 30.7319C21.9646 30.5836 22.0856 30.4783 22.1792 30.3651ZM24.583 30.9973C24.7196 30.8841 24.8717 30.7241 25.0708 30.767C25.1605 30.8295 25.1683 30.9465 25.1995 31.0441C25.0786 31.126 24.9576 31.2431 24.7976 31.2314C24.7079 31.1729 24.6454 31.0831 24.583 30.9973ZM25.3283 31.606C25.5078 31.3641 25.7107 31.1221 25.9956 31.0051C25.8551 31.3407 25.5976 31.6099 25.4727 31.9494C25.4103 32.1016 25.3907 32.2655 25.3868 32.4255C25.5 32.4255 25.6132 32.4255 25.7302 32.4255C25.621 32.6713 25.4415 32.8976 25.1878 32.9991C25.0903 33.0381 24.9966 32.9601 24.9459 32.8859C24.8639 32.7611 24.8717 32.6011 24.903 32.4645C24.9732 32.1484 25.141 31.8636 25.3283 31.606ZM15.4323 32.7533C15.4947 32.6557 15.5493 32.5464 15.6313 32.4645C15.7796 32.445 15.9513 32.523 15.9942 32.6752C15.963 32.8001 15.8888 32.9094 15.8303 33.0225C15.6898 33.0342 15.5532 33.0069 15.4167 32.9718C15.4128 33.0108 15.4049 33.0498 15.401 33.0928C15.5337 33.1318 15.6664 33.163 15.7991 33.1903C15.7874 33.3386 15.7835 33.4908 15.7132 33.6274C15.7015 33.6742 15.6703 33.6898 15.6235 33.682C15.5298 33.6703 15.4401 33.6274 15.3503 33.5961C15.3698 33.5025 15.3893 33.4088 15.4128 33.3152C15.2489 33.2879 15.0889 33.2449 14.9328 33.1864C14.9523 33.0147 15.0303 32.8586 15.1162 32.7103C15.2254 32.722 15.3269 32.7377 15.4323 32.7533ZM24.6961 33.2606C24.7664 33.2684 24.8366 33.2723 24.9069 33.2801C24.9459 33.3971 24.9693 33.5181 24.9732 33.6391C24.8483 33.6976 24.7157 33.7522 24.583 33.7952C24.4893 33.7093 24.4035 33.6118 24.3645 33.4908C24.4854 33.4284 24.5947 33.3542 24.6961 33.2606Z" fill="#4F4F4F"/>
</svg>
