<svg width="40" height="40" viewBox="0 0 40 40" fill="none" xmlns="http://www.w3.org/2000/svg">
<path d="M19.1972 4H19.5232C19.6295 7.1877 19.7287 10.3825 19.8492 13.5702C20.0335 13.5986 20.1185 13.343 20.239 13.2365C20.3737 13.0164 20.6855 12.8815 20.6784 12.5905C20.6784 9.72934 20.6784 6.86112 20.6784 4H20.9761C21.4368 4.0568 21.8975 4.08519 22.3581 4.14199C22.2589 6.32155 22.1455 8.50112 22.0463 10.6807C21.9967 11.3054 22.0179 11.9373 21.9329 12.555C22.266 12.3917 22.6416 12.342 23.0031 12.4059C23.2795 9.72934 23.5488 7.05991 23.8181 4.38338C24.3284 4.51827 24.8246 4.67446 25.3349 4.81645C24.9309 7.62077 24.4985 10.418 24.0875 13.2152C24.4206 13.1797 24.7608 13.1371 25.0939 13.2294C25.6113 10.5955 26.1216 7.95445 26.6531 5.32052C27.1634 5.5832 27.6666 5.85298 28.1769 6.12987C27.5886 8.52242 27.0004 10.915 26.405 13.3004C26.3483 13.5418 26.2704 13.7761 26.242 14.0175C26.2562 14.0388 26.2846 14.0814 26.2987 14.1098C26.5397 14.2234 26.7949 14.2944 27.0217 14.4363C27.7871 11.8805 28.5454 9.32467 29.318 6.77593C29.7432 7.08831 30.1543 7.41489 30.5866 7.72727C29.3109 11.4971 27.9997 15.2528 26.7169 19.0227C26.6673 19.2002 26.7311 19.3776 26.7452 19.5551C26.8019 19.8746 26.8019 20.2083 26.8657 20.5278C26.887 20.542 26.9295 20.5775 26.9508 20.5917C27.1067 20.3077 27.2059 20.0024 27.3264 19.7042C28.7864 16.0479 30.2535 12.3917 31.7135 8.7354C32.0891 9.11878 32.4506 9.52345 32.8333 9.90683C31.1678 13.5489 29.4739 17.1768 27.8013 20.8188C27.9572 21.0176 28.1698 21.2732 28.0422 21.543C27.8367 21.8696 27.4327 22.04 27.2626 22.395C27.1705 22.6576 27.2555 22.9345 27.3335 23.183C27.3973 23.0765 27.4682 22.97 27.5249 22.8635C29.566 18.9091 31.6143 14.9546 33.6555 11.0002C33.9673 11.4687 34.2295 11.9728 34.5343 12.4556C32.3159 16.2964 30.0834 20.1302 27.8509 23.964C27.9785 24.0633 28.0777 24.2053 28.2407 24.2479C28.347 24.2692 28.4108 24.1698 28.4604 24.0988C30.6929 20.6627 32.9255 17.2336 35.1651 13.8045C35.3423 14.2944 35.562 14.7771 35.6825 15.2812C35.5124 15.5723 35.2926 15.835 35.1013 16.1118C33.1168 18.8807 31.1323 21.6495 29.1408 24.4183C28.9353 24.7023 28.6447 24.9934 28.7439 25.3768C28.7581 25.5968 29.0345 25.5401 29.1195 25.3981C31.4442 22.4588 33.7334 19.4983 36.0652 16.5733C36.1644 17.1484 36.2778 17.7163 36.377 18.2914C33.5562 21.5359 30.7284 24.7733 27.9076 28.0178C27.8367 28.1243 27.6808 28.2734 27.8296 28.387C27.9359 28.4012 28.0564 28.4083 28.1273 28.3089C30.8843 25.4762 33.6413 22.6434 36.4054 19.8107C36.4054 20.2438 36.4054 20.6769 36.4054 21.117C36.3912 21.2164 36.4266 21.3371 36.3416 21.4081C33.7263 23.8788 31.1111 26.3494 28.5029 28.82C28.2903 29.1537 27.943 29.3383 27.6808 29.6294C26.6885 30.5949 25.7034 31.5747 24.7253 32.5544C24.8316 32.5544 24.938 32.5473 25.0443 32.5473C27.8296 30.0767 30.6291 27.6202 33.4216 25.1567C34.3571 24.3473 35.2643 23.5025 36.2211 22.7144C36.136 23.2185 36.0368 23.7297 35.9376 24.2337C35.9022 24.4609 35.6683 24.5603 35.5124 24.6952C32.2167 27.322 28.9069 29.9205 25.6254 32.5544C25.753 32.5331 25.8948 32.5686 26.0152 32.4976C29.162 30.24 32.2876 27.9397 35.4486 25.6962C35.3139 26.0725 35.1509 26.4417 35.0091 26.818C34.9383 26.9742 34.8958 27.1659 34.7327 27.2581C33.131 28.3231 31.5222 29.3809 29.9133 30.4387C28.8573 31.1487 27.78 31.8232 26.7382 32.5473C26.8586 32.5331 26.9862 32.5047 27.0925 32.4337C28.3966 31.6528 29.7149 30.9002 31.0189 30.1264C32.0891 29.5158 33.1381 28.8555 34.2224 28.2663C33.6838 29.2744 32.968 30.1832 32.1813 31.0067C31.9474 31.2694 31.6497 31.4682 31.43 31.7451C31.5718 32.0077 31.8482 32.1568 32.0112 32.3982C32.0395 33.8181 32.0112 35.238 32.0254 36.658C24.2717 36.658 16.511 36.658 8.75742 36.658C8.75742 35.309 8.75033 33.9672 8.75742 32.6183C8.94169 32.4479 9.12596 32.2704 9.31024 32.0929C8.4881 31.3262 7.7014 30.5097 7.00683 29.6223C6.7446 29.2886 6.50362 28.9407 6.29809 28.5645C8.8212 29.8495 11.3301 31.1771 13.8462 32.4763C13.9383 32.5118 14.0304 32.5402 14.1297 32.5544C13.8178 32.313 13.4635 32.1355 13.1374 31.9226C10.7135 30.4458 8.28965 28.9691 5.86576 27.4924C5.75945 27.4285 5.66022 27.3504 5.6177 27.2368C5.43343 26.8251 5.24915 26.4133 5.07197 25.9944C6.41149 26.8464 7.72975 27.748 9.06218 28.6142C10.9829 29.8921 12.9106 31.1487 14.8242 32.4337C14.9305 32.5118 15.0652 32.5331 15.1928 32.5544C14.9022 32.2988 14.5762 32.0858 14.2643 31.8516C11.0466 29.4945 7.83606 27.1375 4.61838 24.7804C4.46954 24.1911 4.30653 23.6019 4.20731 22.9984C8.04868 26.1506 11.8759 29.317 15.7102 32.4692C15.8236 32.5615 15.9795 32.526 16.1141 32.5473C13.506 30.1264 10.8695 27.7267 8.24713 25.3129C6.81547 24.0349 5.41925 22.7286 4.00177 21.4578C4.00177 20.9679 3.99468 20.4852 4.00886 19.9953C4.61838 20.5562 5.17828 21.1667 5.77362 21.7418C9.36693 25.3484 12.9602 28.9407 16.5536 32.5473C16.6032 32.5473 16.7024 32.5402 16.752 32.5402C13.2721 28.742 9.79927 24.9366 6.31935 21.1383C5.58226 20.3219 4.81682 19.5196 4.09391 18.689C4.15061 18.0926 4.27818 17.4963 4.39158 16.907C8.62984 22.111 12.8752 27.322 17.1135 32.5402C17.1772 32.5402 17.2977 32.5402 17.3544 32.5402C13.1233 26.8819 8.88499 21.2377 4.64673 15.5865C4.83809 15.0895 5.02944 14.5925 5.21372 14.0956C6.64537 16.1615 8.02742 18.263 9.43781 20.3432C12.1806 24.4112 14.9235 28.4793 17.6663 32.5473C17.723 32.5473 17.8293 32.5473 17.8789 32.5402C13.8391 25.9589 9.79927 19.3776 5.75236 12.8034C6.06421 12.2852 6.36896 11.7669 6.68081 11.2486C8.9346 15.3735 11.1813 19.4983 13.428 23.6303C13.5769 23.5025 13.7469 23.396 13.9312 23.325C13.3501 22.2033 12.8114 21.0531 12.2444 19.9243C12.0389 19.8462 11.8121 19.7681 11.6633 19.5977C11.5002 19.4344 11.4577 19.2002 11.4152 18.9872C11.3585 18.7174 11.1317 18.5257 11.0466 18.2701C11.0112 17.9293 11.1884 17.546 10.9687 17.2407C9.78509 14.9049 8.64402 12.5479 7.48169 10.1979C7.84314 9.77904 8.17625 9.34597 8.55188 8.94129C8.85664 9.65125 9.1614 10.3541 9.45907 11.0641C9.55829 10.8653 9.65043 10.631 9.87014 10.5458C10.0261 10.5174 10.2245 10.5032 10.3308 10.6452C10.586 10.9576 10.8057 11.2983 11.0608 11.6107C10.5789 10.3754 10.1111 9.14008 9.62917 7.90476C10.0544 7.57108 10.4726 7.2303 10.9049 6.89662C11.4223 8.40882 11.9467 9.92103 12.45 11.4403C12.5279 11.277 12.5846 11.0996 12.6909 10.9576C12.8185 10.7872 13.0382 10.7375 13.2296 10.6594C12.8256 9.16848 12.4287 7.67757 12.0176 6.19376C12.5421 5.92398 13.0736 5.64 13.6052 5.38441C13.9596 7.1735 14.3139 8.96259 14.6612 10.7517C14.7108 11.0925 15.0794 11.3196 15.0439 11.6817C15.0439 11.8663 14.8668 11.9657 14.7534 12.0793C14.6967 12.058 14.5833 12.0083 14.5266 11.987C14.5762 12.4485 14.5762 12.9099 14.6258 13.3714C14.7463 13.6625 15.1148 13.6838 15.3841 13.7264C15.7739 13.7619 16.1425 13.9252 16.4331 14.1879C16.6315 14.3441 16.7874 14.557 17.0284 14.6564C17.1702 14.6209 17.3048 14.5499 17.4537 14.5215C17.6308 14.557 17.7868 14.6564 17.9427 14.7345C18.2971 14.6422 18.6231 14.4789 18.9633 14.337C19.1688 14.2234 19.2326 14.5215 19.3318 14.6422C19.3885 14.5641 19.4877 14.5002 19.4665 14.3867C19.4523 13.9323 19.2822 13.4921 19.3035 13.0306C19.2822 12.6047 19.3602 12.1787 19.4807 11.774C19.3035 11.8379 19.0908 12.1077 18.9066 11.9373C18.6514 11.6107 18.4884 11.206 18.5026 10.7872C18.375 10.773 18.2404 10.7517 18.1128 10.7375C18.4601 10.2121 18.2545 9.57315 18.2049 8.99809C18.0915 7.37939 17.9852 5.76069 17.8718 4.13489C18.3183 4.08519 18.7577 4.0497 19.1972 4ZM9.82762 11.1564C9.74257 11.6746 9.8914 12.1858 9.97645 12.697C10.0332 13.0803 10.3025 13.3785 10.4088 13.7477C10.5718 14.1382 10.5364 14.5925 10.7702 14.9546C10.9616 15.2741 11.2309 15.5368 11.4719 15.8066C11.6207 15.9699 11.6278 16.2041 11.6207 16.4171C11.6207 16.978 11.3727 17.5034 11.3018 18.05C11.238 18.4476 11.72 18.6109 11.7341 18.9872C11.7625 19.1221 11.7837 19.2711 11.9042 19.3634C12.131 19.5551 12.45 19.5409 12.7122 19.6332C13.0878 19.761 13.4918 19.974 13.6548 20.3574C13.6973 20.6272 13.6335 20.8969 13.6902 21.1667C13.7753 21.3371 13.8887 21.4933 13.9525 21.6779C14.0588 21.9974 14.0092 22.3382 14.0801 22.6647C14.1155 22.7996 14.1864 22.9629 14.3423 22.9771C14.6541 22.8777 14.6896 22.4021 15.051 22.3879C15.2707 22.3595 15.2353 22.6789 15.4125 22.7286C15.6889 22.7996 16.022 22.7428 16.2417 22.9629C16.3835 23.0836 16.4189 23.2753 16.4685 23.4457C16.6457 24.1414 17.0213 24.7875 17.5174 25.3058C17.6734 25.4833 17.9214 25.5117 18.127 25.6252C18.3892 25.7459 18.5806 26.0015 18.8782 26.0512C19.509 26.2145 19.9626 26.889 20.6572 26.7896C21.2454 26.6121 21.7061 26.0867 22.3511 26.0796C22.6346 26.0512 22.911 26.2003 23.0881 26.4204C23.3929 26.7612 23.485 27.2297 23.7827 27.5705C23.8819 27.6983 24.0449 27.7125 24.1938 27.7054C24.9309 27.6983 25.6609 27.8403 26.3909 27.9681C26.7452 28.0249 27.0571 28.2095 27.4044 28.2734C27.5886 27.6486 27.5674 26.9387 28.0139 26.4204C28.269 26.0796 28.6943 25.966 29.0983 25.9376C28.8927 25.8524 28.6376 25.8453 28.4958 25.6607C28.3328 25.3271 28.5667 24.8443 28.2407 24.5887C27.9359 24.3828 27.6028 24.1982 27.3618 23.9072C26.9153 23.4457 26.7949 22.7499 26.9366 22.1394C27.128 21.8341 27.5319 21.7418 27.7375 21.4436C27.8154 21.3229 27.7942 21.1099 27.6453 21.0602C27.3193 20.9253 26.8941 21.0744 26.6177 20.8118C26.3483 20.471 26.5184 20.0095 26.4192 19.619C26.3483 19.335 26.3838 19.044 26.398 18.76C26.3838 18.4121 25.9231 18.2772 25.9585 17.908C25.9585 17.2265 26.6602 16.8431 26.7878 16.2041C26.7949 16.0124 26.7098 15.835 26.7027 15.6504C26.6673 15.3806 26.7382 15.125 26.809 14.8694C26.8657 14.7345 26.7523 14.6067 26.6318 14.557C26.3625 14.4292 26.0719 14.3228 25.9018 14.0601C25.7955 14.053 25.6821 14.0743 25.5758 14.0459C25.3703 13.8968 25.2002 13.6838 24.9734 13.5702C24.6545 13.5347 24.3284 13.6625 24.0166 13.5631C23.5488 13.4211 23.2015 13.0519 22.8826 12.697C22.6912 12.7041 22.4928 12.7041 22.3014 12.7041C21.9471 12.988 21.4439 13.0448 21.0399 12.8176C20.7351 13.1797 20.4091 13.5276 20.0689 13.8542C19.9768 13.9607 19.835 13.9252 19.7075 13.9323C19.7783 14.1098 19.835 14.3086 19.7783 14.5002C19.6578 14.7345 19.4452 14.8978 19.2184 15.0185C19.1405 14.9191 19.0625 14.8197 18.9987 14.7061C18.6302 14.6777 18.3041 14.8836 17.9569 14.9404C17.7868 14.9901 17.6308 14.8836 17.4678 14.8552C17.2198 14.9049 16.9363 15.0114 16.7237 14.8197C16.4189 14.5357 16.1212 14.195 15.6818 14.1311C15.2495 14.053 14.7675 13.982 14.4628 13.627C14.2147 13.3288 14.4415 12.917 14.2856 12.5834C14.0375 12.5621 13.6902 12.6828 13.5202 12.4272C13.3926 12.0225 13.5414 11.5823 13.4776 11.1706C13.4705 11.0854 13.4068 10.915 13.2863 11.0002C12.9602 11.0712 12.8823 11.4261 12.6484 11.6107C12.3366 11.8663 11.9751 12.058 11.5782 12.1432C11.3514 12.1929 11.0608 12.1716 10.9333 11.9515C10.671 11.5397 10.4513 11.057 10.0048 10.8156C9.91975 10.915 9.84179 11.0286 9.82762 11.1564ZM14.9872 22.7925C14.8668 23.0268 14.7108 23.2682 14.4203 23.2966C14.399 23.396 14.4273 23.5806 14.2785 23.5877C14.0659 23.609 13.7966 23.6516 13.7257 23.9001C13.754 24.1769 14.0375 24.3331 14.1013 24.5958C14.1368 24.752 14.1651 24.9153 14.2856 25.0218C14.7888 25.5614 15.455 25.9021 16.1 26.25C16.1283 26.6618 16.426 26.9813 16.5181 27.3717C16.5748 27.5563 16.3905 27.6912 16.4047 27.8687C16.4472 28.0036 16.5819 28.0746 16.674 28.1598C16.7024 28.3515 16.7662 28.5361 16.8583 28.7065C16.8371 28.4864 16.8512 28.2166 17.0639 28.0888C17.2623 28.0462 17.4182 28.2237 17.5529 28.3444C17.7088 28.5148 17.9073 28.6781 17.964 28.9123C17.8931 29.0685 17.7868 29.2034 17.7017 29.3525C18.5239 29.2673 19.3531 29.2957 20.1752 29.3028C20.4942 29.0756 20.7706 28.7917 20.9974 28.4651C21.0966 28.2805 21.3234 28.3302 21.5006 28.2947C21.5147 27.9468 21.8478 27.7551 21.9116 27.4285C21.9612 27.2226 22.0959 27.031 22.2944 26.9458C22.4361 26.8961 22.5566 26.9884 22.6771 27.0523C22.6771 27.4356 22.6771 27.8261 22.6771 28.2095C22.6842 28.3444 22.6204 28.4651 22.5779 28.5858C22.7834 28.7704 23.0669 28.8342 23.2795 29.0046C23.4142 29.0969 23.5347 29.2389 23.7118 29.2034C25.0797 29.1608 26.4547 29.1892 27.8225 29.1466C28.0989 29.1892 28.347 28.9549 28.269 28.671C27.9997 28.6639 27.7162 28.7065 27.4682 28.5787C27.2414 28.4651 26.972 28.5148 26.7382 28.4367C25.9231 28.0746 25.0088 28.1456 24.1371 28.0746C23.6906 28.0462 23.4071 27.6486 23.2228 27.2794C23.0527 26.96 22.918 26.5127 22.507 26.4417C22.025 26.4417 21.5927 26.7115 21.2029 26.9742C20.7706 27.18 20.2532 27.1588 19.8138 26.9884C19.5515 26.8038 19.3531 26.5269 19.0342 26.4275C18.8641 26.3849 18.6514 26.4559 18.538 26.2926C18.2404 25.966 17.8222 25.8098 17.4395 25.6181C17.1347 25.3555 16.8867 25.0289 16.6811 24.6881C16.3905 24.2195 16.2417 23.68 16.0574 23.1617C15.8519 23.112 15.6393 23.1191 15.4338 23.0836C15.2282 23.0552 15.1077 22.9132 14.9872 22.7925ZM14.5549 25.7104C15.696 27.8616 16.8371 30.0199 17.971 32.1781C18.0703 32.3343 18.1128 32.5899 18.3467 32.5615C17.3473 30.4245 16.3268 28.2947 15.3133 26.1648C15.1219 25.9447 14.8101 25.8595 14.5549 25.7104ZM21.8904 28.2095C21.6919 29.6649 21.4722 31.1203 21.2809 32.5757C21.3092 32.5544 21.3659 32.5189 21.4013 32.4976C21.7274 30.7653 22.0321 29.0259 22.344 27.2865C22.0888 27.5279 21.9187 27.8616 21.8904 28.2095ZM17.1631 28.3799C17.0709 28.6568 17.0993 28.962 17.2198 29.2318C17.6734 30.2968 18.1128 31.3617 18.5593 32.4266C18.5876 32.5118 18.6514 32.5544 18.7507 32.5615C18.4175 31.596 18.0774 30.6304 17.723 29.672C17.5671 29.6152 17.4537 29.5087 17.3899 29.3596C17.4395 29.1892 17.4891 29.0188 17.4678 28.8413C17.4324 28.6568 17.2906 28.5148 17.1631 28.3799ZM21.0186 28.8413C20.9548 30.0767 20.8981 31.312 20.8202 32.5473C20.8698 32.5473 20.9619 32.5402 21.0044 32.5402C21.0895 31.2197 21.2454 29.9063 21.3234 28.5858C21.1958 28.6284 20.9974 28.6639 21.0186 28.8413ZM22.5708 28.9762C22.2731 30.1761 21.94 31.3688 21.6636 32.5757C21.699 32.5544 21.777 32.5189 21.8124 32.4976C22.1455 31.3759 22.4574 30.2471 22.7905 29.1182C22.7196 29.0756 22.6487 29.0259 22.5708 28.9762ZM23.1732 29.4022C22.8188 30.4529 22.4432 31.4966 22.0746 32.5473C22.1172 32.5473 22.2093 32.5402 22.2589 32.5402C22.6204 31.5463 22.9818 30.5594 23.3575 29.5726C23.2937 29.5158 23.2299 29.459 23.1732 29.4022ZM20.2248 29.6223C20.2319 30.5949 20.2532 31.5605 20.239 32.5331C20.3382 32.5331 20.4304 32.5402 20.5296 32.5402C20.5367 31.4966 20.5225 30.4529 20.5367 29.4093C20.4375 29.4874 20.3241 29.5442 20.2248 29.6223ZM24.6261 29.4945C24.0308 30.5097 23.4354 31.525 22.8613 32.5544C22.911 32.5473 23.0031 32.5331 23.0456 32.526C23.6977 31.5321 24.3001 30.5026 24.938 29.5016C24.8387 29.4945 24.7324 29.4945 24.6261 29.4945ZM25.4057 29.4945C24.7112 30.5026 24.0379 31.525 23.3433 32.5331C23.4354 32.5331 23.5205 32.5331 23.6126 32.5402C24.3781 31.5179 25.1577 30.5097 25.9231 29.4945C25.753 29.4945 25.5829 29.4945 25.4057 29.4945ZM24.0024 32.5402C24.0662 32.5402 24.1867 32.5402 24.2505 32.5402C25.2073 31.5179 26.1641 30.4884 27.1209 29.4661C26.9437 29.459 26.7665 29.459 26.5964 29.4519C25.7317 30.4813 24.8671 31.5108 24.0024 32.5402ZM23.7898 29.5584C23.3433 30.5523 22.8897 31.5463 22.4361 32.5402C22.4857 32.5402 22.5779 32.5402 22.6204 32.5402C23.1236 31.5392 23.6268 30.5452 24.1371 29.5513C24.0237 29.5513 23.9032 29.5513 23.7898 29.5584ZM18.8074 29.6152C19.0129 30.5168 19.1972 31.4185 19.3814 32.3272C19.4098 32.4195 19.4098 32.5686 19.5586 32.5686C19.424 31.5818 19.2397 30.602 19.0908 29.6152C18.9916 29.6223 18.8995 29.6152 18.8074 29.6152ZM19.5019 29.6223C19.6082 30.5949 19.6933 31.5676 19.7996 32.5402C19.8421 32.5402 19.9201 32.5402 19.9626 32.5402C19.9201 31.5676 19.835 30.5949 19.7925 29.6223C19.7004 29.6294 19.6011 29.6223 19.5019 29.6223ZM18.1482 29.6933C18.4246 30.6375 18.7152 31.5818 18.9775 32.5331C19.0271 32.5402 19.1192 32.5473 19.1688 32.5544C18.9066 31.6031 18.6514 30.6517 18.3963 29.7004C18.3325 29.6933 18.212 29.6933 18.1482 29.6933ZM9.26062 33.0514C9.26771 34.0879 9.26771 35.1245 9.26062 36.161C16.6882 36.1752 24.1158 36.1681 31.5505 36.1681C31.5434 35.1316 31.5505 34.0879 31.5505 33.0514C24.1158 33.0443 16.6882 33.0443 9.26062 33.0514ZM14.9518 4.91584C15.4338 4.75965 15.9086 4.58926 16.3905 4.44017C16.6457 6.45645 16.9079 8.47272 17.1489 10.489C16.7166 10.489 16.2772 10.4961 15.8448 10.4819C15.5471 8.62891 15.2424 6.76883 14.9518 4.91584ZM17.6238 16.5804C18.2687 15.9344 19.1972 15.6362 20.0902 15.6504C21.3872 15.6433 22.6416 16.3106 23.4354 17.333C23.726 17.695 23.9599 18.1068 24.0591 18.5612C24.2505 19.4202 24.208 20.3077 24.1725 21.1809C24.1654 21.3513 24.1654 21.5359 24.2717 21.6779C24.5552 22.0968 25.0301 22.3311 25.4766 22.544C25.2923 22.8777 25.0868 23.1972 24.8883 23.5309C24.5056 23.3747 24.13 23.183 23.8323 22.899C23.4 22.4517 23.1378 21.8625 23.0527 21.2519C22.9393 21.1738 22.833 21.0886 22.7196 21.0105C22.833 20.755 22.911 20.4852 22.9535 20.2083C23.0881 20.187 23.2228 20.1586 23.3504 20.1373C23.3646 19.6616 23.3291 19.186 23.1945 18.7316C23.074 18.7742 22.9535 18.8168 22.833 18.8594C22.7338 18.5683 22.5779 18.2985 22.3865 18.0571C22.4574 17.9861 22.5282 17.908 22.5991 17.837C22.3085 17.4466 21.9258 17.1271 21.5077 16.8857C21.4297 16.9922 21.3446 17.0987 21.2667 17.2052C21.0399 17.0987 20.7918 17.0703 20.5509 17.0064C20.5225 16.8786 20.5154 16.7508 20.5083 16.623C20.0335 16.6088 19.5586 16.5946 19.0908 16.694C19.105 16.8431 19.1192 16.9922 19.1405 17.1484C18.8782 17.2904 18.6018 17.4253 18.3325 17.5602C18.1057 17.2336 17.8506 16.9141 17.6238 16.5804ZM14.7037 17.1058C14.8809 16.765 15.0723 16.4313 15.2637 16.0976C15.6889 16.2325 16.0504 16.5094 16.4047 16.7863C16.8867 17.1981 17.0426 17.8583 17.0284 18.4689C17.1418 18.5257 17.2481 18.5754 17.3615 18.6322C17.2906 18.9091 17.234 19.186 17.1843 19.4628C17.0639 19.4628 16.9363 19.4628 16.8158 19.4628C16.7733 19.974 16.83 20.4852 16.9717 20.975C17.0851 20.9395 17.2056 20.9111 17.319 20.8827C17.4395 21.117 17.5812 21.3442 17.7513 21.543C17.6379 21.6353 17.5316 21.7276 17.4253 21.8199C17.7017 22.2459 18.1128 22.5582 18.5593 22.7712C18.6373 22.6789 18.7152 22.5795 18.7932 22.4872C19.0341 22.5795 19.2751 22.6647 19.5161 22.7499C19.5303 22.8777 19.5444 23.0055 19.5586 23.1333C20.0476 23.1972 20.5509 23.1759 21.0257 23.041C20.9974 22.9061 20.969 22.7712 20.9407 22.6363C21.2171 22.5227 21.4935 22.3949 21.7699 22.2743C21.9825 22.5866 22.1951 22.9061 22.4219 23.2114C21.5006 23.8859 20.2744 24.1059 19.1688 23.8433C18.3396 23.6445 17.56 23.2256 16.9505 22.6292C16.1638 21.7773 15.937 20.5491 15.9653 19.4202C15.9511 18.9446 16.0574 18.4263 15.8519 17.979C15.5755 17.5602 15.1148 17.3401 14.7037 17.1058ZM19.3106 17.0135C19.6224 17.0064 19.9342 16.9993 20.239 16.9922C20.239 17.12 20.2461 17.2478 20.2461 17.3685C20.5721 17.404 20.884 17.5105 21.1958 17.6098C21.2738 17.5105 21.3517 17.4111 21.4297 17.3117C21.6919 17.475 21.94 17.6524 22.1668 17.8583C22.0676 17.9506 21.9683 18.0429 21.8691 18.1352C22.1668 18.4121 22.3936 18.7529 22.4928 19.1505C22.6275 19.1363 22.7621 19.1221 22.8968 19.115C22.918 19.4131 22.918 19.7113 22.918 20.0166C22.8046 20.0308 22.6983 20.0379 22.5849 20.0521C22.5637 20.4142 22.4645 20.7621 22.3227 21.0957C22.4148 21.1667 22.507 21.2306 22.5991 21.3016C22.3794 21.5217 22.1739 21.7631 21.9471 21.9761C21.8762 21.9051 21.7982 21.8341 21.7274 21.756C21.4439 22.0258 21.0966 22.2317 20.721 22.3382C20.7422 22.4304 20.7706 22.5227 20.7918 22.615C20.4871 22.7144 20.161 22.7073 19.8421 22.6647C19.8421 22.6079 19.8421 22.5014 19.8492 22.4446C19.4594 22.3807 19.0908 22.2388 18.7507 22.0329C18.694 22.1181 18.6373 22.2033 18.5806 22.2885C18.3467 22.1323 18.127 21.9477 17.9285 21.7489C17.9923 21.6566 18.0561 21.5714 18.1199 21.4791C17.8718 21.2164 17.7372 20.8827 17.6167 20.5491C17.5033 20.4781 17.3403 20.5278 17.2127 20.5136C17.2127 20.2296 17.2127 19.9456 17.2127 19.6616C17.3332 19.6545 17.4537 19.6545 17.5671 19.6545C17.5883 19.3208 17.6875 19.0014 17.8506 18.7103C17.7513 18.6109 17.6592 18.5044 17.56 18.405C17.7301 18.1707 17.9356 17.9506 18.1482 17.7518C18.2616 17.8086 18.3821 17.8583 18.4955 17.9151C18.7365 17.6879 19.0412 17.546 19.346 17.4111C19.3389 17.2833 19.3247 17.1484 19.3106 17.0135ZM20.0689 18.1494C20.0476 18.263 20.0264 18.3766 20.0051 18.4902C19.8846 18.4192 19.7642 18.3553 19.6437 18.2985C19.6862 18.4831 19.8209 18.618 19.9768 18.7174C19.9768 18.9091 19.9697 19.0937 19.9555 19.2853C19.7216 19.2001 19.5303 19.0227 19.3247 18.8878C19.3318 19.2498 19.6295 19.4841 19.9201 19.6474C19.9201 19.8107 19.9201 19.9669 19.9272 20.1302C19.6224 20.045 19.3602 19.8533 19.105 19.6687C19.1263 19.8817 19.1475 20.116 19.2822 20.2935C19.424 20.4923 19.6437 20.6059 19.8634 20.7124C19.8705 20.8685 19.8705 21.0247 19.8705 21.1809C19.4381 21.0744 19.1263 20.7408 18.8003 20.4497C18.8711 20.8756 19.0767 21.2945 19.431 21.5501C19.7145 21.7489 20.0973 21.8483 20.4304 21.7134C20.9761 21.543 21.3021 20.9892 21.3872 20.4497C21.0682 20.7337 20.7493 21.0602 20.3241 21.1809C20.317 21.0247 20.317 20.8685 20.3241 20.7053C20.5438 20.5988 20.7635 20.4852 20.9123 20.2864C21.047 20.1089 21.0682 19.8746 21.0966 19.6616C20.8414 19.8533 20.5792 20.0379 20.2674 20.1231C20.2674 19.9598 20.2744 19.7965 20.2815 19.6332C20.5721 19.4699 20.8698 19.2427 20.8769 18.8736C20.6572 19.0014 20.4729 19.1789 20.239 19.264C20.2248 19.0724 20.2177 18.8878 20.2248 18.6961C20.3808 18.5967 20.5083 18.4618 20.5579 18.2772C20.4375 18.3411 20.3099 18.405 20.1894 18.476C20.1681 18.3624 20.1469 18.2488 20.1327 18.1352C20.0973 18.1494 20.076 18.1494 20.0689 18.1494ZM29.5802 33.6051C29.5802 33.5058 29.6936 33.4561 29.7432 33.3851C29.807 33.449 29.8708 33.5129 29.9346 33.5768C29.8779 33.6406 29.8141 33.7045 29.7574 33.7755C29.7007 33.7187 29.6369 33.6619 29.5802 33.6051ZM26.5681 33.449C26.6531 33.5058 26.7382 33.5626 26.8232 33.6194C26.8586 33.5697 26.9366 33.4632 26.972 33.4135C27.0358 33.4987 27.1634 33.5484 27.1705 33.6619C27.1067 33.7329 27.0358 33.7968 26.972 33.8607C26.9366 33.811 26.8586 33.7045 26.8232 33.6548C26.7452 33.7187 26.6602 33.7755 26.5822 33.8394C26.5114 33.7755 26.4476 33.7045 26.3838 33.6406C26.4405 33.5768 26.5043 33.5129 26.5681 33.449ZM28.9849 33.811C29.0628 33.74 29.1337 33.669 29.2117 33.5981C29.2471 33.9814 29.2258 34.3719 29.2187 34.7553C29.4314 34.8618 29.6723 34.8547 29.9062 34.8192C29.8283 34.7198 29.7503 34.6204 29.6582 34.5352C29.722 34.4074 29.7928 34.2867 29.8637 34.166C30.0338 34.4074 30.133 34.7411 29.9913 35.0251C29.9133 35.2167 29.7149 35.3445 29.5093 35.3232C29.3109 35.3658 29.2187 35.1529 29.1266 35.0251C28.9849 35.3942 28.5596 35.3232 28.2407 35.3232C28.021 35.3161 27.702 35.3658 27.617 35.0961C27.5886 34.8831 27.5249 34.5991 27.7091 34.4429C27.7517 34.5707 27.7162 34.7837 27.8863 34.8263C28.2407 34.8689 28.6021 34.8476 28.9565 34.8263C28.999 34.4855 29.0486 34.1447 28.9849 33.811ZM28.1131 34.1021C28.1273 33.8891 28.3541 33.7968 28.5242 33.7258C28.5384 33.8465 28.4746 33.9388 28.3966 34.0169C28.4462 34.0879 28.588 34.1305 28.5525 34.2441C28.5596 34.4287 28.3683 34.5139 28.2123 34.5423C28.2478 34.45 28.2832 34.3648 28.3186 34.2725C28.2407 34.2228 28.1698 34.166 28.1131 34.1021ZM14.0517 33.8252C14.2998 33.8323 14.562 33.7897 14.803 33.8607C15.1077 34.0098 15.1006 34.4287 14.9093 34.6701C15.0439 34.9044 14.9943 35.1813 15.0439 35.4439C14.9447 35.4439 14.8455 35.4439 14.7534 35.4439C14.7179 35.2451 14.7463 35.0322 14.6683 34.8405C14.5549 34.8192 14.4415 34.8192 14.3281 34.8121C14.3281 35.018 14.3281 35.2239 14.321 35.4297C14.2289 35.4297 14.1368 35.4297 14.0517 35.4368C14.0517 34.9044 14.0517 34.3648 14.0517 33.8252ZM14.3281 34.1376C14.3281 34.2654 14.3281 34.4003 14.3281 34.5281C14.4911 34.5139 14.7888 34.5707 14.7746 34.308C14.7534 34.0808 14.484 34.1589 14.3281 34.1376ZM15.6676 33.8607C15.7598 33.8465 15.8519 33.8394 15.944 33.8394C16.0858 34.3577 16.2063 34.8902 16.3409 35.4084C16.2488 35.4084 16.1496 35.4084 16.0574 35.4084C16.0291 35.3019 16.0078 35.1954 15.9795 35.089C15.859 35.089 15.7456 35.089 15.6251 35.089C15.6038 35.1954 15.5755 35.2948 15.5542 35.4013C15.4834 35.4013 15.3487 35.4084 15.2849 35.4155C15.4054 34.8973 15.5259 34.379 15.6676 33.8607ZM15.7952 34.308C15.7598 34.4784 15.7243 34.6488 15.6889 34.8121C15.7456 34.8121 15.859 34.805 15.9157 34.805C15.8803 34.6346 15.8377 34.4713 15.7952 34.308ZM16.348 33.8465C16.6599 33.8394 16.9717 33.8394 17.2836 33.8536C17.2765 33.953 17.2694 34.0524 17.2623 34.1518C17.156 34.1518 17.0497 34.1518 16.9434 34.1518C16.9434 34.5778 16.9575 34.9967 16.9363 35.4226C16.8725 35.4155 16.7449 35.4084 16.6811 35.4084C16.6811 34.9896 16.674 34.5707 16.6882 34.1589C16.5748 34.1589 16.4685 34.1518 16.3551 34.1518C16.348 34.0453 16.348 33.9459 16.348 33.8465ZM21.1533 33.8252C21.2383 33.8323 21.3234 33.8323 21.4084 33.8323C21.4084 34.0169 21.4084 34.2086 21.4155 34.3932C21.5431 34.2086 21.6636 34.0169 21.7911 33.8252C21.8904 33.8252 21.9967 33.8323 22.103 33.8323C21.9683 34.0666 21.8124 34.2796 21.6707 34.5139C21.8266 34.8192 21.9825 35.1245 22.1313 35.4368C22.025 35.4368 21.9116 35.4368 21.8053 35.4368C21.6848 35.2167 21.614 34.9612 21.4368 34.7766C21.4084 34.9967 21.4084 35.2167 21.4155 35.4297C21.3305 35.4297 21.2383 35.4368 21.1533 35.4368C21.1533 34.9044 21.1462 34.3648 21.1533 33.8252ZM24.7749 34.0382C24.86 33.953 24.9521 33.8749 25.0443 33.7968C25.0726 34.1234 25.0443 34.4571 25.0868 34.7837C25.3561 34.8902 25.6892 34.8405 25.9727 34.7695C25.8097 34.6204 25.6113 34.6488 25.4482 34.7908C25.4766 34.6062 25.4695 34.3506 25.6821 34.2725C25.9444 34.3151 26.1924 34.3932 26.4476 34.4642C26.4192 34.5707 26.398 34.6772 26.3696 34.7837C26.3413 34.7979 26.2846 34.8334 26.2491 34.8476C26.4476 34.8334 26.6389 34.8334 26.8374 34.805C26.7594 34.7056 26.6815 34.6133 26.5964 34.521C26.6602 34.4003 26.7169 34.2867 26.7807 34.166C27.0429 34.4287 27.0784 34.8831 26.8232 35.16C26.5822 35.4297 26.0294 35.3161 26.0082 34.9186C25.8593 35.0748 25.7176 35.309 25.4695 35.3019C25.264 35.3019 24.9734 35.3516 24.8671 35.1174C24.7749 34.7766 24.7962 34.4003 24.7749 34.0382ZM30.2181 34.0311C30.3031 33.953 30.3953 33.8678 30.4874 33.7968C30.5157 34.1163 30.4732 34.4358 30.5228 34.7482C30.5441 34.876 30.6929 34.8263 30.7851 34.8405C30.9126 34.8405 31.0402 34.8263 31.1678 34.8121C31.0898 34.7127 31.0119 34.6133 30.9197 34.5281C30.9835 34.4003 31.0544 34.2796 31.1323 34.1589C31.3804 34.4855 31.4229 35.0393 31.026 35.2664C30.7921 35.3445 30.4023 35.38 30.296 35.0961C30.211 34.7482 30.2535 34.3861 30.2181 34.0311ZM9.59373 33.9033C9.89849 33.9033 10.2032 33.9033 10.5009 33.9033C10.508 34.0098 10.5151 34.1092 10.5222 34.2157C10.4088 34.2228 10.2954 34.2228 10.182 34.2299C10.182 34.6417 10.182 35.0606 10.182 35.4723C10.1111 35.4723 9.97645 35.4723 9.91266 35.4723C9.90558 35.0535 9.91266 34.6417 9.90558 34.2228C9.80635 34.2228 9.70004 34.2299 9.60082 34.2299C9.60082 34.1163 9.60082 34.0098 9.59373 33.9033ZM10.7632 33.9033C11.0537 33.8962 11.3443 33.8962 11.642 33.9033C11.6491 34.0027 11.6491 34.1092 11.6562 34.2086C11.4506 34.2157 11.2451 34.2228 11.0396 34.2157C11.0396 34.308 11.0396 34.4003 11.0396 34.4997C11.2238 34.4997 11.4081 34.4997 11.5995 34.4997C11.5995 34.5707 11.5995 34.7198 11.5995 34.7979C11.4152 34.7979 11.2309 34.7908 11.0537 34.8121C11.0466 34.9257 11.0466 35.0393 11.0466 35.1529C11.2593 35.1529 11.4719 35.1529 11.6845 35.1529C11.6845 35.2522 11.6845 35.3587 11.6845 35.4581C11.3798 35.4581 11.075 35.4652 10.7773 35.451C10.7632 34.9328 10.7561 34.4216 10.7632 33.9033ZM12.2799 35.1529C12.3578 34.7269 12.2799 34.2938 12.3224 33.8607C12.3933 33.8607 12.5279 33.8678 12.5988 33.8749C12.5917 34.308 12.6342 34.7411 12.5775 35.1742C12.535 35.4581 12.1452 35.5646 11.9397 35.38C11.7979 35.2309 11.8121 35.0109 11.7908 34.8263C11.883 34.8263 11.968 34.8192 12.0601 34.8192C12.0672 34.9399 12.0672 35.2735 12.2799 35.1529ZM13.2012 33.9033C13.2934 33.9033 13.3855 33.9033 13.4705 33.9033C13.6052 34.4216 13.7399 34.9399 13.8603 35.4652C13.7682 35.4652 13.6761 35.4581 13.5839 35.4581C13.5556 35.3587 13.5343 35.2593 13.506 35.16C13.3855 35.16 13.265 35.16 13.1516 35.16C13.1303 35.2593 13.102 35.3587 13.0736 35.4581C13.0028 35.4581 12.8681 35.4581 12.8043 35.4581C12.939 34.947 13.0595 34.4216 13.2012 33.9033ZM13.3288 34.379C13.2934 34.5352 13.2579 34.6914 13.2225 34.8476C13.2792 34.8476 13.3784 34.8547 13.4351 34.8547C13.4068 34.6985 13.3713 34.5352 13.3288 34.379ZM17.7584 33.882C17.9852 33.882 18.2191 33.8536 18.4459 33.9104C18.7081 34.0453 18.6656 34.379 18.5806 34.6133C18.7152 34.8689 18.7507 35.2806 18.4459 35.4297C18.2191 35.4652 17.9923 35.4439 17.7655 35.4439C17.7584 34.9257 17.7513 34.4003 17.7584 33.882ZM18.0207 34.4713C18.1482 34.4997 18.2758 34.4713 18.3963 34.4642C18.3679 34.379 18.4175 34.237 18.3183 34.1944C18.2191 34.1802 18.1199 34.1731 18.0207 34.1873C18.0136 34.2796 18.0136 34.379 18.0207 34.4713ZM18.0136 34.7908C18.0136 34.9115 18.0136 35.0393 18.0136 35.16C18.134 35.1529 18.2616 35.1671 18.375 35.1174C18.4317 35.018 18.4105 34.9044 18.3892 34.7979C18.2687 34.7979 18.1411 34.7908 18.0136 34.7908ZM19.1901 33.8891C19.2893 33.8891 19.3885 33.8962 19.4877 33.9033C19.5941 34.4216 19.7429 34.9328 19.8563 35.451C19.7854 35.451 19.6508 35.451 19.5799 35.451C19.5586 35.3516 19.5374 35.2522 19.5161 35.1458C19.3956 35.1458 19.2751 35.1458 19.1546 35.1458C19.1263 35.2451 19.105 35.3445 19.0767 35.4439C18.9845 35.4439 18.8995 35.4439 18.8074 35.4439C18.9278 34.9257 19.0625 34.4145 19.1901 33.8891ZM19.3389 34.3648C19.2964 34.521 19.2539 34.6772 19.2113 34.8334C19.2893 34.8405 19.3602 34.8476 19.4381 34.8547C19.4027 34.6914 19.3743 34.5281 19.3389 34.3648ZM19.9626 33.9033C20.0547 33.8962 20.1469 33.8891 20.239 33.882C20.3808 34.1944 20.5012 34.5068 20.6288 34.8263C20.6643 34.5139 20.6501 34.2015 20.6572 33.8891C20.7422 33.8962 20.8273 33.8962 20.9052 33.9033C20.8981 34.4145 20.9052 34.9257 20.9052 35.4368C20.8202 35.4368 20.7422 35.4368 20.6572 35.4297C20.48 35.1174 20.3808 34.7695 20.2248 34.45C20.2107 34.7766 20.2248 35.1103 20.2177 35.4368C20.1327 35.4297 20.0476 35.4297 19.9697 35.4297C19.9626 34.9257 19.9697 34.4145 19.9626 33.9033ZM22.7125 34.1092C22.7834 34.0382 22.8543 33.9743 22.9251 33.9104C22.9889 33.9672 23.0527 34.024 23.1165 34.0879C23.1803 34.0311 23.2512 33.9743 23.3149 33.9175C23.3646 33.9956 23.485 34.0453 23.4779 34.1447C23.4213 34.2086 23.3575 34.2725 23.2937 34.3293C23.2299 34.2654 23.1732 34.1944 23.1165 34.1305C23.0527 34.1944 22.9889 34.2583 22.9251 34.3222C22.8472 34.2512 22.7834 34.1802 22.7125 34.1092ZM23.6693 34.3222C24.0095 34.521 23.889 35.0819 23.5488 35.2238C23.2299 35.3516 22.8613 35.3303 22.5282 35.2735C22.2235 35.1103 22.2802 34.6914 22.3723 34.4145C22.5282 34.4997 22.4361 34.7624 22.6346 34.7979C22.9747 34.876 23.3291 34.8121 23.6764 34.805C23.6197 34.7411 23.563 34.6701 23.5063 34.5991C23.5559 34.5068 23.6055 34.4145 23.6693 34.3222ZM24.371 34.5352C24.4773 34.5352 24.4844 34.663 24.5269 34.734C24.6332 35.0535 24.6828 35.4368 24.4844 35.735C24.3214 35.9338 24.0379 35.8344 23.8323 35.7634C24.0449 35.5788 24.2717 35.4084 24.4489 35.1884C24.3639 35.089 24.2788 34.9825 24.1867 34.8831C24.2576 34.7624 24.3072 34.6488 24.371 34.5352ZM25.6821 35.7563C25.753 35.6853 25.831 35.6143 25.9018 35.5504C25.9727 35.6214 26.0507 35.6995 26.1216 35.7705C26.0507 35.8415 25.9727 35.9054 25.9018 35.9764C25.8239 35.9054 25.753 35.8273 25.6821 35.7563ZM30.7992 35.6001C30.8701 35.664 30.941 35.7208 31.0119 35.7847C30.941 35.8486 30.8701 35.9196 30.7992 35.9835C30.7425 35.9196 30.6929 35.8557 30.6433 35.7989C30.6929 35.7279 30.7496 35.664 30.7992 35.6001Z" fill="#2E428D"/>
</svg>
