<svg width="20" height="16" viewBox="0 0 20 16" fill="none" xmlns="http://www.w3.org/2000/svg">
<path d="M7.262 16C7.04095 16 6.84 15.8729 6.74957 15.6775L4.37831 10.4681L1.01233 14.8858C0.83147 15.1301 0.4798 15.179 0.228608 15.0031C-0.0225849 14.8272 -0.0728236 14.4851 0.108035 14.2407L4.04673 9.07045C4.16731 8.91407 4.35821 8.83588 4.55917 8.85543C4.76012 8.87498 4.93093 9.00203 5.01131 9.17796L7.19166 13.9573L11.8538 0.371861C11.9342 0.137292 12.1552 -0.00931344 12.4165 0.000460251C12.6677 0.0102339 12.8787 0.186161 12.939 0.430503L15.5212 11.5627L18.9374 5.34667C19.0881 5.08278 19.4197 4.98504 19.7011 5.12188C19.9723 5.26848 20.0829 5.59101 19.9321 5.86468L15.8126 13.3806C15.7021 13.5859 15.481 13.6934 15.2399 13.6641C15.0088 13.6348 14.8179 13.4686 14.7676 13.2438L12.2758 2.56117L7.79453 15.6286C7.72419 15.8436 7.52324 15.9902 7.29214 16C7.28209 16 7.27205 16 7.262 16Z" fill="#5BC4BF"/>
</svg>
