<svg width="80" height="80" viewBox="0 0 80 80" fill="none" xmlns="http://www.w3.org/2000/svg">
<rect width="80" height="80" rx="40" fill="#ECF1F9"/>
<path d="M33.7963 33.3408L21 46L22.4218 47.4066L35.2181 34.7474L33.7963 33.3408Z" fill="#00A796"/>
<path d="M56.7961 33.3406L44 46L45.4218 47.4066L58.2179 34.7472L56.7961 33.3406Z" fill="#00A796"/>
<path d="M34.4218 33.5934L33 35L45.7963 47.6592L47.2181 46.2526L34.4218 33.5934Z" fill="#00A796"/>
<path d="M23 49C24.6596 49 26 47.656 26 45.992C26 44.328 24.6436 43 23 43C21.3564 43 20 44.344 20 46.008C20 47.672 21.3404 49 23 49Z" fill="#00A796"/>
<path d="M34 38C35.6596 38 37 36.656 37 34.992C37 33.328 35.6436 32 34 32C32.3564 32 31 33.344 31 34.992C31 36.64 32.3404 38 34 38Z" fill="#00A796"/>
<path d="M57 38C58.6596 38 60 36.6596 60 35C60 33.3404 58.6596 32 57 32C55.3404 32 54 33.3404 54 35C54 36.6596 55.3564 38 57 38Z" fill="#00A796"/>
<path d="M45 49C46.6596 49 48 47.6596 48 46C48 44.3404 46.6596 43 45 43C43.3404 43 42 44.3404 42 46C42 47.6596 43.3564 49 45 49Z" fill="#00A796"/>
</svg>
