<svg width="80" height="80" viewBox="0 0 80 80" fill="none" xmlns="http://www.w3.org/2000/svg">
<rect width="80" height="80" rx="40" fill="#ECF1F9"/>
<path fill-rule="evenodd" clip-rule="evenodd" d="M31.5 37.0709C32.9199 37.0709 34.0709 35.9199 34.0709 34.5C34.0709 33.0801 32.9199 31.9291 31.5 31.9291C30.0801 31.9291 28.9291 33.0801 28.9291 34.5C28.9291 35.9199 30.0801 37.0709 31.5 37.0709ZM31.5 40C34.5376 40 37 37.5376 37 34.5C37 31.4624 34.5376 29 31.5 29C28.4624 29 26 31.4624 26 34.5C26 37.5376 28.4624 40 31.5 40Z" fill="#00A796"/>
<path fill-rule="evenodd" clip-rule="evenodd" d="M48.5 49.0709C49.9199 49.0709 51.0709 47.9199 51.0709 46.5C51.0709 45.0801 49.9199 43.9291 48.5 43.9291C47.0801 43.9291 45.9291 45.0801 45.9291 46.5C45.9291 47.9199 47.0801 49.0709 48.5 49.0709ZM48.5 52C51.5376 52 54 49.5376 54 46.5C54 43.4624 51.5376 41 48.5 41C45.4624 41 43 43.4624 43 46.5C43 49.5376 45.4624 52 48.5 52Z" fill="#00A796"/>
<path d="M46.0415 27H50L35.0906 54H31L46.0415 27Z" fill="#00A796"/>
</svg>
