<svg width="80" height="80" viewBox="0 0 80 80" fill="none" xmlns="http://www.w3.org/2000/svg">
<rect width="80" height="80" rx="40" fill="#ECF1F9"/>
<path d="M28.5888 46.5185L25 50L32.1103 57.0316L35.6991 53.5501L28.5888 46.5185Z" fill="#004C6A"/>
<path d="M54.3866 40.3984C53.1534 39.3641 52.371 40.6705 52.371 40.6705L46.828 45.8282L38.593 45.6377L43.6454 44.0319C43.6454 44.0319 44.6797 43.6508 44.5869 42.5621C44.4808 41.4734 43.0752 41.5687 43.0752 41.5687L32.3604 43.61L30 46.5495L36.2326 53H45.9793L54.6121 42.5077C54.6121 42.5213 55.6199 41.4462 54.3866 40.3984Z" fill="#00A796"/>
<path d="M40.5 32C42.4413 32 44 30.4271 44 28.5C44 26.5587 42.4271 25 40.5 25C38.5729 25 37 26.5729 37 28.5C37 30.4271 38.5729 32 40.5 32Z" fill="#00A796"/>
<path d="M40.4931 32C36.8965 32 34 34.6892 34 38H47C47 34.6892 44.0898 32 40.4931 32Z" fill="#00A796"/>
</svg>
