<svg width="80" height="80" viewBox="0 0 80 80" fill="none" xmlns="http://www.w3.org/2000/svg">
<rect width="80" height="80" rx="40" fill="#ECF1F9"/>
<path d="M48.943 43.6453H41.4468V39.9787H48.943V43.6453ZM48.943 50.1133H41.4468V46.4467H48.943V50.1133ZM38.5382 43.6453H31.042V39.9787H38.5382V43.6453ZM38.5382 50.1133H31.042V46.4467H38.5382V50.1133ZM25 32V47.224C25 50.964 28.1034 54 31.9265 54H48.0735C51.8966 54 55 50.964 55 47.224V32H25Z" fill="#00A796"/>
<path d="M33.8835 26.2277L31 29L40.3713 38.01L43.2547 35.2377L33.8835 26.2277Z" fill="#004C6A"/>
<path d="M46.3713 25.9901L37 35L39.8835 37.7723L49.2548 28.7624L46.3713 25.9901Z" fill="#004C6A"/>
</svg>
