<svg xmlns="http://www.w3.org/2000/svg" viewBox="0 0 647.03 71.72"><defs><style>.cls-1{fill:#06bab5;}.cls-2{fill:#004C6A;}</style></defs><g id="Layer_2" data-name="Layer 2"><g id="modiriat"><path class="cls-1" d="M165.47,19c-6.77,0-14.8,0-17-.34a24,24,0,0,1-2.07,7c1.59-.1,3.43-.12,8.4-.12a147.8,147.8,0,0,1-11.49,16.87c-2.87,3.79-9.87,3.67-14.12,3.67h-1.76c2.61-2.78,3.83-4.87,3.83-13,0-9.07-4-14.12-12.85-14.12h-7.57c-9.53,9.76-11.71,13.66-11.71,19.85A12.06,12.06,0,0,0,101.34,46H97c-9.29,0-11.59-1.72-11.59-9,0-10.44,0-14.23.12-16.29A27.12,27.12,0,0,1,78,22.51c.22,2.93.43,11,.46,19C74.74,44.31,68.2,45.73,58,46L44.63,46c-10.9,0-13-2.87-13.08-9.52C31.32,26,30.75,20.44,30.18,17a23.73,23.73,0,0,1-7.58,3.21c.68,2.81,1.79,8.35,2.8,20.69C21.59,44.32,15.62,46,9.87,46c-3.1,0-4.82-.92-4.82-2.64V38a14.63,14.63,0,0,1-5,1.72c.11,1.49.11,4.7.11,7.34C.23,52,2.18,55.21,8.38,55.21c6,0,13.54-2.3,15.37-5.39.8-1.4,1.77-3,2.46-4.29.8,6.38,4.59,9.68,17.5,9.68l12.91-.09c9.92-.31,17.06-1.75,19.47-4.73.93-1.24,2.14-3,3.38-4.54.75,6,4.86,9.36,16.47,9.36h31c10.32,0,15-2,17.44-5.39,1.26-1.72,2.52-3.67,4.24-6.2,0,7.11,5.51,11.59,14.12,11.59,3.32,0,6.19-.23,9.75-.34,3.33-6.2,7.69-8.27,7.69-21.23C180.16,24.8,174.42,19,165.47,19ZM122.1,46.37c-11.7-.11-15.83-3.78-15.83-11,0-2.87.68-5.51,3.32-9.41h6.31c6.2,0,8.15,3.56,8.15,9.52C124.05,41.9,123.59,44.08,122.1,46.37Zm50.37-.8a50.2,50.2,0,0,1-8.26.46c-6.77,0-9.76-2.64-9.76-6.65,0-2.67.65-5,5.3-13.43h3.31c6.54,0,9.87,5.39,9.87,11.48C172.93,42.24,172.81,43.85,172.47,45.57Z"/><path class="cls-1" d="M122.67,11.72a39.12,39.12,0,0,1,0-7.34h-8.49a38.93,38.93,0,0,1,0,7.34Z"/><path class="cls-1" d="M57.92,63.68a38.94,38.94,0,0,1,0,7.34h8.49a39.12,39.12,0,0,1,0-7.34Z"/><path class="cls-1" d="M69.49,63.68a38.94,38.94,0,0,1,0,7.34H78a39.12,39.12,0,0,1,0-7.34Z"/><path class="cls-2" d="M330.43,55.63a26.17,26.17,0,0,1,6.17-2.17c.11-44,.23-51.52.34-53.46a23.22,23.22,0,0,1-8.57,2.63C329.17,8.57,330.2,25,330.43,55.63Z"/><path class="cls-2" d="M290.08,53.83a26.17,26.17,0,0,1,6.17-2.17c.12-44,.23-49.72.35-51.66A23.28,23.28,0,0,1,288,2.63C288.83,8.57,289.86,23.22,290.08,53.83Z"/><path class="cls-2" d="M309.14,22.05c1.15,6.63,2.29,19.76,2.63,27-1.83,4.68-9.25,8.79-14.28,11.08a37.4,37.4,0,0,1,6.17,6.62A41.66,41.66,0,0,0,310.17,62c5.26-4.91,7.54-11.76,7.54-20.67,0-7-.46-16.57-.57-21.59A27.43,27.43,0,0,1,309.14,22.05Z"/><path class="cls-2" d="M547.35,17.75a26,26,0,0,1-7.54,3.2c1.73,7.87,2.86,22.36,2.86,22.36-6.3,2.5-13.81,2.77-16.08,2.79h-.19c-10.28,0-14.06-1.94-14.52-9.7-.34-5-.57-9.62-.68-15.22a27.46,27.46,0,0,1-8,2.29c1.14,6.62,2.29,18.41,2.63,25.6-1.83,4.69-9.25,8.8-14.28,11.08a38.23,38.23,0,0,1,6.17,6.63,43,43,0,0,0,6.51-4.68A22.86,22.86,0,0,0,510.9,50c2,3.62,8.8,5.47,16.32,5a46,46,0,0,0,16.95-4.58c2.23-4.4,4.73-6.75,4.51-14.29C548.47,28.92,547.35,17.75,547.35,17.75Z"/><path class="cls-2" d="M493.39,36.11c-.21-7.19-1.34-18.36-1.34-18.36a26,26,0,0,1-7.54,3.2c1.74,7.86,2.86,22.36,2.86,22.36a46.17,46.17,0,0,1-15.81,2.79c-10.85,0-14.86-2.87-15-9.49-.16-7.12-.47-11.48-.83-14.91A33.13,33.13,0,0,1,448.52,25s1.29,8.05,1.94,16a15.28,15.28,0,0,1-1.39,1.1c-3.15,2-12.53,5.86-36.74,4.29-18.05-1.16-18.52-4.89-17.76-16.61.24-3.69.48-5.69.48-5.69a37.6,37.6,0,0,1-6.34-.95,72.76,72.76,0,0,0-1.21,14.26c0,9.7,3.12,16.74,18.35,18.2a127.45,127.45,0,0,0,29.36-.73,28,28,0,0,0,7.63-2A19.24,19.24,0,0,0,448,49.75c1.27-1.12,3.4-2.71,4.09-3.94.8,6.35,7.43,9.69,20.28,9.42,6.72-.13,13.23-2.32,16-4.41C491.31,46.2,493.6,43.65,493.39,36.11Z"/><path class="cls-2" d="M360.65,16.54a23.23,23.23,0,0,1-3.06,9s13,5.53,16.91,17.23a76.47,76.47,0,0,1-16.62,3.94c-7.13.65-7.62-4.1-7.08-10.64a15.58,15.58,0,0,1-4.43.77s-.82,6.76-.15,10.66,2.4,7.76,8.47,7.76c7.33,0,18.16-4.26,20.73-5.65,0,0,2-3.76,2.54-5.32.92-2.65-.15-9.62-2.28-13.49C373.34,26.54,369.93,22.38,360.65,16.54Z"/><path class="cls-2" d="M632.41,19.13c-6.73,0-14.73,0-16.9-.34a24.35,24.35,0,0,1-2,7c1.57-.09,3.41-.11,8.35-.11a146.82,146.82,0,0,1-11.44,16.79h0v0l-.09.11-.08.1c-.53.6-2.23,2.17-6,2.95h0a24.13,24.13,0,0,1-4.81.45c-4.95,0-8.29-.55-10.27-2.41-1.43-1.33-2.17-3.34-2.31-6.31,0-.12,0-.23,0-.35s0-.26,0-.4c-.23-10.5-.8-16-1.37-19.41a23.79,23.79,0,0,1-7.54,3.19c.67,2.79,1.77,8.31,2.78,20.6-3.8,3.4-9.73,5.1-15.46,5.1-3.09,0-4.8-.91-4.8-2.62V38.09a14.51,14.51,0,0,1-5,1.71c.12,1.48.12,4.69.12,7.31.11,4.91,2.05,8.11,8.22,8.11,5.94,0,13.48-2.28,15.31-5.37.79-1.39,1.75-3,2.45-4.26,1,5.18,4.46,9.64,14.28,9.63h.09c10.66.17,15.35-5,15.62-5.35l0,0c1.25-1.71,2.51-3.65,4.22-6.16,0,7.07,5.49,11.53,14,11.53,3.32,0,6.17-.23,9.71-.34,3.31-6.17,7.65-8.22,7.65-21.13C647,25,641.32,19.13,632.41,19.13Zm7,26.5a51,51,0,0,1-8.22.45c-6.74,0-9.71-2.62-9.71-6.62,0-2.66.65-5,5.27-13.36H630c6.5,0,9.82,5.37,9.82,11.42C639.84,42.31,639.72,43.91,639.38,45.63Z"/><path class="cls-2" d="M277.85,17.75a26,26,0,0,1-7.54,3.2c1.74,7.86,2.86,22.36,2.86,22.36A44.89,44.89,0,0,1,256.58,46c-7.73-.11-10.23-5.6-11.7-12.91-1.22-6.1-5.62-11-13.55-10.9h-.83a76.91,76.91,0,0,0-8.18.44c-3.88,5.14-11.3,11.3-11.3,20,0,7,4.46,10.73,13,10.73h8.26c-.8,6.51-7.09,8.68-16.11,8.68h-4.6c-9.36,0-13-4.45-13-11.08a154.2,154.2,0,0,1,1.67-16.3,18.38,18.38,0,0,1-5.6,1.48c-.11,3.77-1.55,14-1.55,19.05,0,9.71,5.25,15.53,16.45,15.53h5.51c16.46,0,23.19-10,23.19-19.78a6,6,0,0,0-6-6H227c-6.17,0-9.25-1.49-9.25-6.05,0-2.52,2.27-6.63,3.75-8.8,1.6-.23,1.87-.34,9.41-.34,4.7.05,8.21,3.54,9.51,9.64l.84,3a16.42,16.42,0,0,0,16.89,12.31,45.39,45.39,0,0,0,16.52-4.27c2.55-4.94,4.72-6.75,4.5-14.29C279,28.92,277.85,17.75,277.85,17.75Z"/><path class="cls-2" d="M521.14,64.41a38.62,38.62,0,0,1,0,7.31h8.45a40.56,40.56,0,0,1,0-7.31Z"/><path class="cls-2" d="M532.66,64.41a38.62,38.62,0,0,1,0,7.31h8.45a38.8,38.8,0,0,1,0-7.31Z"/><path class="cls-2" d="M463.51,64.41a38.62,38.62,0,0,1,0,7.31H472a38.8,38.8,0,0,1,0-7.31Z"/><path class="cls-2" d="M475,64.41a38.62,38.62,0,0,1,0,7.31h8.46a38.8,38.8,0,0,1,0-7.31Z"/><path class="cls-2" d="M253.91,63.06a38.62,38.62,0,0,1,0,7.31h8.45a38.8,38.8,0,0,1,0-7.31Z"/><path class="cls-2" d="M265.43,63.06a40.37,40.37,0,0,1,0,7.31h8.45a38.8,38.8,0,0,1,0-7.31Z"/><path class="cls-2" d="M419.72,24.5a38.8,38.8,0,0,1,0-7.31h-8.45a38.62,38.62,0,0,1,0,7.31Z"/><path class="cls-2" d="M431.24,24.5a38.8,38.8,0,0,1,0-7.31h-8.45a38.62,38.62,0,0,1,0,7.31Z"/></g></g></svg>