<svg width="24" height="24" viewBox="0 0 24 24" fill="none" xmlns="http://www.w3.org/2000/svg">
<path d="M13.6538 10.3862L11.66 13.3306L8.71152 16.2643C7.61497 14.8707 6.41755 13.5206 5.6875 11.8878L7.27675 9.45317L9.71426 7.10156C8.89959 8.10839 8.96042 9.5892 9.89678 10.5256C10.8985 11.5273 12.5223 11.5273 13.5241 10.5256C13.5692 10.4804 13.6128 10.4338 13.6538 10.3862Z" fill="#ECB72B"/>
<path d="M13.7012 10.3306C14.523 9.32324 14.4647 7.83733 13.5253 6.89846C12.5235 5.89669 10.8997 5.89669 9.89799 6.89846C9.85592 6.94052 9.81584 6.98364 9.77734 7.02773L11.4589 4.29415L13.7402 2.3125C15.4441 2.85188 16.8534 4.05287 17.6671 5.61383L16.0028 8.29746L13.7012 10.3306Z" fill="#5085F7"/>
<path d="M9.71572 7.10166L5.68884 11.8879C5.28947 10.9955 5.02983 10.0185 5.00304 8.90361C5.00101 8.84023 5 8.77636 5 8.71249C5 7.07198 5.58858 5.56832 6.56651 4.40234L9.71572 7.10166Z" fill="#DA2F2A"/>
<path d="M9.71572 7.10147L6.56641 4.40197C7.79782 2.93381 9.6457 2 11.712 2C12.4192 2 13.1008 2.10942 13.7408 2.31221L9.71572 7.10147Z" fill="#4274EB"/>
<path d="M18.426 8.71322C18.426 7.59576 18.1528 6.54206 17.6698 5.61523L8.71484 16.2658C9.73226 17.5599 10.6619 18.892 11.0483 20.5231C11.0606 20.5754 11.074 20.6364 11.0881 20.705C11.2282 21.3837 12.2 21.3837 12.3401 20.705C12.3543 20.6364 12.3676 20.5754 12.38 20.5231C13.41 16.1743 18.3017 13.9518 18.4231 8.90474C18.4248 8.8411 18.426 8.77727 18.426 8.71322Z" fill="#60A850"/>
</svg>
