<svg width="33" height="32" viewBox="0 0 33 32" fill="none" xmlns="http://www.w3.org/2000/svg">
<path d="M22.0937 21.7583C21.2923 20.9607 20.3572 20.9607 19.5557 21.7583C18.8878 22.423 18.3535 22.9547 17.6856 23.6193C17.552 23.7523 17.4185 23.8852 17.1513 23.7523C16.7506 23.4864 16.3498 23.3535 15.9491 23.0876C14.2125 22.0242 12.7432 20.5619 11.4074 18.9668C10.7395 18.1692 10.2052 17.3716 9.80443 16.4411C9.67085 16.3082 9.80443 16.1752 9.93801 15.9094C10.6059 15.3776 11.1402 14.713 11.6745 14.1813C12.476 13.3837 12.476 12.3202 11.6745 11.5227C11.2738 10.9909 10.7395 10.4592 10.3387 10.0604C9.80443 9.5287 9.40369 8.99698 8.86937 8.59819C8.0679 7.8006 7.13284 7.8006 6.33137 8.59819C5.66347 9.12991 5.12915 9.79456 4.46126 10.3263C3.92694 10.858 3.5262 11.5227 3.5262 12.3202C3.39262 13.5166 3.79336 14.713 4.1941 15.9094C5.12915 18.3021 6.46495 20.429 8.0679 22.423C10.3387 25.0816 13.0103 27.2085 16.0827 28.6707C17.552 29.3353 18.8878 29.8671 20.4908 30C21.5594 30 22.4945 29.7341 23.2959 28.9366C23.8303 28.4048 24.3646 27.8731 24.8989 27.3414C25.7004 26.5438 25.7004 25.4804 24.8989 24.6828C24.0974 23.6193 23.0288 22.6888 22.0937 21.7583Z" fill="#00A796"/>
<path d="M26.5681 1.86922C23.7876 0.136254 20.1223 1.06939 18.3528 4.00211C16.9626 6.4016 17.3417 9.46762 18.9848 11.4672L17.5945 14L21.1334 13.0669C23.7876 14.2666 27.0737 13.3335 28.5904 10.5341C30.3598 7.46804 29.4751 3.60219 26.5681 1.86922Z" fill="#0A4356"/>
</svg>
