<svg width="110" height="110" viewBox="0 0 110 110" fill="none" xmlns="http://www.w3.org/2000/svg">
<path d="M55 110C85.3205 110 110 85.3205 110 55C110 24.6795 85.3205 0 55 0C24.6795 0 0 24.6795 0 55C0 85.3205 24.6795 110 55 110Z" fill="#EDF7F5"/>
<path d="M83.2032 38.7822H26.793V74.7438H83.2032V38.7822Z" fill="#5BC4BF"/>
<path d="M42.4828 42.1313H30.6719V46.1858H42.4828V42.1313Z" fill="#004C6A"/>
<path d="M42.4828 47.9487H30.6719V52.0032H42.4828V47.9487Z" fill="#004C6A"/>
<path d="M42.4828 53.9424H30.6719V57.9969H42.4828V53.9424Z" fill="#004C6A"/>
<path d="M61.3464 42.1313H45.3047V68.5737H61.3464V42.1313Z" fill="#00AAA6"/>
<path d="M80.0339 42.1313H63.9922V54.6474H80.0339V42.1313Z" fill="#004C6A"/>
<path d="M80.0339 57.2915H63.9922V68.221H80.0339V57.2915Z" fill="#004C6A"/>
<path d="M83.2032 35.2563H26.793V38.782H83.2032V35.2563Z" fill="#004C6A"/>
</svg>
