<svg width="110" height="110" viewBox="0 0 110 110" fill="none" xmlns="http://www.w3.org/2000/svg">
<path d="M55 110C65.878 110 76.5117 106.774 85.5564 100.731C94.6011 94.6874 101.651 86.0975 105.813 76.0476C109.976 65.9977 111.065 54.939 108.943 44.2701C106.821 33.6011 101.583 23.801 93.8909 16.1092C86.199 8.41726 76.3989 3.17902 65.73 1.05683C55.061 -1.06535 44.0023 0.023831 33.9524 4.18665C23.9025 8.34947 15.3126 15.399 9.26917 24.4437C3.22569 33.4884 0 44.1221 0 55C0 69.5869 5.79463 83.5764 16.1091 93.8909C26.4236 104.205 40.4131 110 55 110Z" fill="#EDF7F5"/>
<path d="M75.0025 34.9966H34.9961V75.003H75.0025V34.9966Z" fill="#5BC4BF"/>
<path d="M65.0032 52.4951H45V57.4871H65.0032V52.4951Z" fill="#004C6A"/>
</svg>
