<svg width="110" height="110" viewBox="0 0 110 110" fill="none" xmlns="http://www.w3.org/2000/svg">
<path d="M55 110C85.3205 110 110 85.3205 110 55C110 24.6795 85.3205 0 55 0C24.6795 0 0 24.6795 0 55C0 85.3205 24.6795 110 55 110Z" fill="#EDF7F5"/>
<path d="M77.3894 49.3589H32.4375V74.2147H77.3894V49.3589Z" fill="#5BC4BF"/>
<path d="M77.3894 42.1313H32.4375V55.5288H77.3894V42.1313Z" fill="#004C6A"/>
<path d="M72.6265 61.8749L68.9246 58.5256L65.2227 61.8749V42.1313H72.6265V61.8749Z" fill="#00AAA6"/>
<path d="M61.6974 35.2563H45.832V38.782H61.6974V35.2563Z" fill="#004C6A"/>
<path d="M49.3577 37.019H45.832V44.0703H49.3577V37.019Z" fill="#004C6A"/>
<path d="M61.6975 38.7822H58.1719V43.1893H61.6975V38.7822Z" fill="#004C6A"/>
</svg>
