<svg width="110" height="110" viewBox="0 0 110 110" fill="none" xmlns="http://www.w3.org/2000/svg">
<path d="M55 110C85.3205 110 110 85.3205 110 55C110 24.6795 85.3205 0 55 0C24.6795 0 0 24.6795 0 55C0 85.3205 24.6795 110 55 110Z" fill="#EDF7F5"/>
<path d="M63.636 42.3078C63.636 47.0674 59.7578 51.1219 54.8219 51.1219C50.0623 51.1219 46.0078 47.2437 46.0078 42.3078C46.0078 37.5481 49.886 33.4937 54.8219 33.4937C59.7578 33.6699 63.636 37.5481 63.636 42.3078Z" fill="#004C6A"/>
<path d="M55.0007 51.6509C45.834 51.6509 38.2539 59.231 38.2539 68.3977V76.3304H71.7475V68.3977C71.7475 59.0547 64.1674 51.6509 55.0007 51.6509Z" fill="#5BC4BF"/>
<path d="M65.3996 59.0547H55.3516V65.5771H65.3996V59.0547Z" fill="#004C6A"/>
</svg>
