<svg width="110" height="110" viewBox="0 0 110 110" fill="none" xmlns="http://www.w3.org/2000/svg">
<path d="M55 110C65.878 110 76.5117 106.774 85.5564 100.731C94.6011 94.6874 101.651 86.0975 105.813 76.0476C109.976 65.9977 111.065 54.939 108.943 44.2701C106.821 33.6011 101.583 23.801 93.8909 16.1092C86.199 8.41726 76.3989 3.17902 65.73 1.05683C55.061 -1.06535 44.0023 0.023831 33.9524 4.18665C23.9025 8.34947 15.3126 15.399 9.26917 24.4437C3.22569 33.4884 0 44.1221 0 55C0 69.5869 5.79463 83.5764 16.1091 93.8909C26.4236 104.205 40.4131 110 55 110Z" fill="#EDF7F5"/>
<path d="M73.0101 27.9941H37.0078V81.9887H73.0101V27.9941Z" fill="#5BC4BF"/>
<path d="M51.4532 32.8975H42.457V41.0116H51.4532V32.8975Z" fill="#BFE5E2"/>
<path d="M67.4727 32.8975H58.4766V41.0116H67.4727V32.8975Z" fill="#BFE5E2"/>
<path d="M51.4532 44.9985H42.457V53.1127H51.4532V44.9985Z" fill="#BFE5E2"/>
<path d="M67.4727 44.9985H58.4766V53.1127H67.4727V44.9985Z" fill="#BFE5E2"/>
<path d="M51.4532 57.0815H42.457V65.1957H51.4532V57.0815Z" fill="#BFE5E2"/>
<path d="M67.4727 57.0815H58.4766V65.1957H67.4727V57.0815Z" fill="#BFE5E2"/>
<path d="M59.2876 70.4521H50.7148V81.9884H59.2876V70.4521Z" fill="#004C6A"/>
</svg>
