<svg width="800" height="800" viewBox="0 0 800 800" fill="none" xmlns="http://www.w3.org/2000/svg">
<rect width="800" height="800" fill="#DCDCDC"/>
<path d="M320 560V624V560ZM224 176H416C424.487 176 432.626 179.371 438.627 185.373C444.629 191.374 448 199.513 448 208V620C448 621.061 447.579 622.078 446.828 622.828C446.078 623.579 445.061 624 444 624H192V208C192 199.513 195.371 191.374 201.373 185.373C207.374 179.371 215.513 176 224 176V176ZM464 336H576C584.487 336 592.626 339.371 598.627 345.373C604.629 351.374 608 359.513 608 368V624H448V352C448 347.757 449.686 343.687 452.686 340.686C455.687 337.686 459.757 336 464 336Z" stroke="#004C6A" stroke-width="32" stroke-linecap="round" stroke-linejoin="round"/>
<path d="M242.08 575.87C238.766 576.303 235.4 575.688 232.454 574.111C229.507 572.534 227.129 570.074 225.652 567.076C224.175 564.078 223.674 560.693 224.219 557.395C224.764 554.098 226.328 551.055 228.691 548.691C231.054 546.328 234.098 544.764 237.395 544.219C240.693 543.674 244.078 544.175 247.076 545.652C250.074 547.129 252.534 549.507 254.111 552.454C255.688 555.4 256.303 558.766 255.87 562.08C255.413 565.577 253.813 568.825 251.319 571.319C248.825 573.813 245.577 575.413 242.08 575.87V575.87ZM242.08 495.87C238.766 496.303 235.4 495.688 232.454 494.111C229.507 492.534 227.129 490.074 225.652 487.076C224.175 484.078 223.674 480.693 224.219 477.395C224.764 474.098 226.328 471.055 228.691 468.691C231.054 466.328 234.098 464.764 237.395 464.219C240.693 463.674 244.078 464.175 247.076 465.652C250.074 467.129 252.534 469.507 254.111 472.454C255.688 475.4 256.303 478.766 255.87 482.08C255.413 485.577 253.813 488.825 251.319 491.319C248.825 493.813 245.577 495.413 242.08 495.87V495.87ZM242.08 415.87C238.766 416.303 235.4 415.688 232.454 414.111C229.507 412.534 227.129 410.074 225.652 407.076C224.175 404.078 223.674 400.693 224.219 397.395C224.764 394.098 226.328 391.055 228.691 388.691C231.054 386.328 234.098 384.764 237.395 384.219C240.693 383.674 244.078 384.175 247.076 385.652C250.074 387.129 252.534 389.507 254.111 392.454C255.688 395.4 256.303 398.766 255.87 402.08C255.413 405.577 253.813 408.825 251.319 411.319C248.825 413.813 245.577 415.413 242.08 415.87V415.87ZM242.08 335.87C238.766 336.303 235.4 335.688 232.454 334.111C229.507 332.534 227.129 330.074 225.652 327.076C224.175 324.078 223.674 320.693 224.219 317.395C224.764 314.098 226.328 311.055 228.691 308.691C231.054 306.328 234.098 304.764 237.395 304.219C240.693 303.674 244.078 304.175 247.076 305.652C250.074 307.129 252.534 309.507 254.111 312.454C255.688 315.4 256.303 318.766 255.87 322.08C255.413 325.577 253.813 328.825 251.319 331.319C248.825 333.813 245.577 335.413 242.08 335.87V335.87ZM242.08 255.87C238.766 256.303 235.4 255.688 232.454 254.111C229.507 252.534 227.129 250.074 225.652 247.076C224.175 244.078 223.674 240.693 224.219 237.395C224.764 234.098 226.328 231.054 228.691 228.691C231.054 226.328 234.098 224.764 237.395 224.219C240.693 223.674 244.078 224.175 247.076 225.652C250.074 227.129 252.534 229.507 254.111 232.454C255.688 235.4 256.303 238.766 255.87 242.08C255.413 245.577 253.813 248.825 251.319 251.319C248.825 253.813 245.577 255.413 242.08 255.87V255.87ZM322.08 495.87C318.766 496.303 315.4 495.688 312.454 494.111C309.507 492.534 307.129 490.074 305.652 487.076C304.175 484.078 303.674 480.693 304.219 477.395C304.764 474.098 306.328 471.055 308.691 468.691C311.055 466.328 314.098 464.764 317.395 464.219C320.693 463.674 324.078 464.175 327.076 465.652C330.074 467.129 332.534 469.507 334.111 472.454C335.688 475.4 336.303 478.766 335.87 482.08C335.413 485.577 333.813 488.825 331.319 491.319C328.825 493.813 325.577 495.413 322.08 495.87V495.87ZM322.08 415.87C318.766 416.303 315.4 415.688 312.454 414.111C309.507 412.534 307.129 410.074 305.652 407.076C304.175 404.078 303.674 400.693 304.219 397.395C304.764 394.098 306.328 391.055 308.691 388.691C311.055 386.328 314.098 384.764 317.395 384.219C320.693 383.674 324.078 384.175 327.076 385.652C330.074 387.129 332.534 389.507 334.111 392.454C335.688 395.4 336.303 398.766 335.87 402.08C335.413 405.577 333.813 408.825 331.319 411.319C328.825 413.813 325.577 415.413 322.08 415.87V415.87ZM322.08 335.87C318.766 336.303 315.4 335.688 312.454 334.111C309.507 332.534 307.129 330.074 305.652 327.076C304.175 324.078 303.674 320.693 304.219 317.395C304.764 314.098 306.328 311.055 308.691 308.691C311.055 306.328 314.098 304.764 317.395 304.219C320.693 303.674 324.078 304.175 327.076 305.652C330.074 307.129 332.534 309.507 334.111 312.454C335.688 315.4 336.303 318.766 335.87 322.08C335.413 325.577 333.813 328.825 331.319 331.319C328.825 333.813 325.577 335.413 322.08 335.87V335.87ZM322.08 255.87C318.766 256.303 315.4 255.688 312.454 254.111C309.507 252.534 307.129 250.074 305.652 247.076C304.175 244.078 303.674 240.693 304.219 237.395C304.764 234.098 306.328 231.054 308.691 228.691C311.055 226.328 314.098 224.764 317.395 224.219C320.693 223.674 324.078 224.175 327.076 225.652C330.074 227.129 332.534 229.507 334.111 232.454C335.688 235.4 336.303 238.766 335.87 242.08C335.413 245.577 333.813 248.825 331.319 251.319C328.825 253.813 325.577 255.413 322.08 255.87V255.87ZM402.08 575.87C398.766 576.303 395.4 575.688 392.454 574.111C389.507 572.534 387.129 570.074 385.652 567.076C384.175 564.078 383.674 560.693 384.219 557.395C384.764 554.098 386.328 551.055 388.691 548.691C391.055 546.328 394.098 544.764 397.395 544.219C400.693 543.674 404.078 544.175 407.076 545.652C410.074 547.129 412.534 549.507 414.111 552.454C415.688 555.4 416.303 558.766 415.87 562.08C415.413 565.577 413.813 568.825 411.319 571.319C408.825 573.813 405.577 575.413 402.08 575.87V575.87ZM402.08 495.87C398.766 496.303 395.4 495.688 392.454 494.111C389.507 492.534 387.129 490.074 385.652 487.076C384.175 484.078 383.674 480.693 384.219 477.395C384.764 474.098 386.328 471.055 388.691 468.691C391.055 466.328 394.098 464.764 397.395 464.219C400.693 463.674 404.078 464.175 407.076 465.652C410.074 467.129 412.534 469.507 414.111 472.454C415.688 475.4 416.303 478.766 415.87 482.08C415.413 485.577 413.813 488.825 411.319 491.319C408.825 493.813 405.577 495.413 402.08 495.87V495.87ZM402.08 415.87C398.766 416.303 395.4 415.688 392.454 414.111C389.507 412.534 387.129 410.074 385.652 407.076C384.175 404.078 383.674 400.693 384.219 397.395C384.764 394.098 386.328 391.055 388.691 388.691C391.055 386.328 394.098 384.764 397.395 384.219C400.693 383.674 404.078 384.175 407.076 385.652C410.074 387.129 412.534 389.507 414.111 392.454C415.688 395.4 416.303 398.766 415.87 402.08C415.413 405.577 413.813 408.825 411.319 411.319C408.825 413.813 405.577 415.413 402.08 415.87V415.87Z" fill="#004C6A"/>
<path d="M411.335 331.327C417.564 325.098 417.538 314.973 411.278 308.713C405.018 302.453 394.894 302.428 388.665 308.657C382.436 314.886 382.461 325.01 388.722 331.27C394.982 337.53 405.106 337.556 411.335 331.327Z" fill="#004C6A"/>
<path d="M402.08 255.87C398.766 256.303 395.4 255.688 392.454 254.111C389.507 252.534 387.129 250.074 385.652 247.076C384.175 244.078 383.674 240.693 384.219 237.395C384.764 234.098 386.328 231.054 388.691 228.691C391.055 226.328 394.098 224.764 397.395 224.219C400.693 223.674 404.078 224.175 407.076 225.652C410.074 227.129 412.534 229.507 414.111 232.454C415.688 235.4 416.303 238.766 415.87 242.08C415.413 245.577 413.813 248.825 411.319 251.319C408.825 253.813 405.577 255.413 402.08 255.87V255.87ZM544 544C540.835 544 537.742 544.938 535.111 546.696C532.48 548.455 530.429 550.953 529.218 553.877C528.007 556.801 527.69 560.018 528.307 563.121C528.925 566.225 530.449 569.076 532.686 571.314C534.924 573.551 537.775 575.075 540.879 575.693C543.982 576.31 547.199 575.993 550.123 574.782C553.047 573.571 555.545 571.52 557.304 568.889C559.062 566.258 560 563.164 560 560C560 555.757 558.314 551.687 555.314 548.686C552.313 545.686 548.243 544 544 544ZM544 464C540.835 464 537.742 464.938 535.111 466.696C532.48 468.455 530.429 470.953 529.218 473.877C528.007 476.801 527.69 480.018 528.307 483.121C528.925 486.225 530.449 489.076 532.686 491.314C534.924 493.551 537.775 495.075 540.879 495.693C543.982 496.31 547.199 495.993 550.123 494.782C553.047 493.571 555.545 491.52 557.304 488.889C559.062 486.258 560 483.164 560 480C560 475.757 558.314 471.687 555.314 468.686C552.313 465.686 548.243 464 544 464ZM544 384C540.835 384 537.742 384.938 535.111 386.696C532.48 388.455 530.429 390.953 529.218 393.877C528.007 396.801 527.69 400.018 528.307 403.121C528.925 406.225 530.449 409.076 532.686 411.314C534.924 413.551 537.775 415.075 540.879 415.693C543.982 416.31 547.199 415.993 550.123 414.782C553.047 413.571 555.545 411.52 557.304 408.889C559.062 406.258 560 403.164 560 400C560 395.757 558.314 391.687 555.314 388.686C552.313 385.686 548.243 384 544 384ZM480 544C476.835 544 473.742 544.938 471.111 546.696C468.48 548.455 466.429 550.953 465.218 553.877C464.007 556.801 463.69 560.018 464.307 563.121C464.925 566.225 466.449 569.076 468.686 571.314C470.924 573.551 473.775 575.075 476.879 575.693C479.982 576.31 483.199 575.993 486.123 574.782C489.047 573.571 491.545 571.52 493.304 568.889C495.062 566.258 496 563.164 496 560C496 555.757 494.314 551.687 491.314 548.686C488.313 545.686 484.243 544 480 544ZM480 464C476.835 464 473.742 464.938 471.111 466.696C468.48 468.455 466.429 470.953 465.218 473.877C464.007 476.801 463.69 480.018 464.307 483.121C464.925 486.225 466.449 489.076 468.686 491.314C470.924 493.551 473.775 495.075 476.879 495.693C479.982 496.31 483.199 495.993 486.123 494.782C489.047 493.571 491.545 491.52 493.304 488.889C495.062 486.258 496 483.164 496 480C496 475.757 494.314 471.687 491.314 468.686C488.313 465.686 484.243 464 480 464ZM480 384C476.835 384 473.742 384.938 471.111 386.696C468.48 388.455 466.429 390.953 465.218 393.877C464.007 396.801 463.69 400.018 464.307 403.121C464.925 406.225 466.449 409.076 468.686 411.314C470.924 413.551 473.775 415.075 476.879 415.693C479.982 416.31 483.199 415.993 486.123 414.782C489.047 413.571 491.545 411.52 493.304 408.889C495.062 406.258 496 403.164 496 400C496 395.757 494.314 391.687 491.314 388.686C488.313 385.686 484.243 384 480 384Z" fill="#004C6A"/>
</svg>
