<?xml version="1.0" encoding="UTF-8"?>
<!DOCTYPE svg PUBLIC "-//W3C//DTD SVG 1.1//EN" "http://www.w3.org/Graphics/SVG/1.1/DTD/svg11.dtd">
<!-- Creator: CorelDRAW 2018 (64-Bit Evaluation Version) -->
<svg xmlns="http://www.w3.org/2000/svg" xml:space="preserve" width="347px" height="147px" version="1.1" style="shape-rendering:geometricPrecision; text-rendering:geometricPrecision; image-rendering:optimizeQuality; fill-rule:evenodd; clip-rule:evenodd"
viewBox="0 0 312.74 132.42"
 xmlns:xlink="http://www.w3.org/1999/xlink">
 <defs>
  <style type="text/css">
   <![CDATA[
    .fil0 {fill:#004C6A}
   ]]>
  </style>
 </defs>
 <g id="Layer_x0020_1">
  <metadata id="CorelCorpID_0Corel-Layer"/>
  <path class="fil0" d="M132.42 67.62c0,-3.19 -2.45,-5.64 -5.63,-5.64 -3.19,0 -5.64,2.45 -5.64,5.64 0,3.18 2.45,5.63 5.64,5.63 3.18,0 5.63,-2.45 5.63,-5.63z"/>
  <path class="fil0" d="M121.15 126.79c0,3.11 2.52,5.63 5.64,5.63 3.11,0 5.63,-2.52 5.63,-5.63 0,-3.12 -2.52,-5.64 -5.63,-5.64 -3.12,0 -5.64,2.52 -5.64,5.64z"/>
  <path class="fil0" d="M73.25 67.62c0,-3.19 -2.45,-5.64 -5.63,-5.64 -3.19,0 -5.64,2.45 -5.64,5.64 0,3.18 2.45,5.63 5.64,5.63 2.94,0 5.63,-2.45 5.63,-5.63z"/>
  <path class="fil0" d="M73.25 126.79c0,-3.19 -2.45,-5.64 -5.63,-5.64 -3.19,0 -5.64,2.45 -5.64,5.64 0,3.18 2.45,5.63 5.64,5.63 2.94,0 5.63,-2.45 5.63,-5.63z"/>
  <path class="fil0" d="M11.27 67.62c0,-3.19 -2.45,-5.64 -5.63,-5.64 -3.19,0 -5.64,2.45 -5.64,5.64 0,3.18 2.45,5.63 5.64,5.63 3.18,0 5.63,-2.45 5.63,-5.63z"/>
  <path class="fil0" d="M11.27 126.79c0,-3.19 -2.45,-5.64 -5.63,-5.64 -3.19,0 -5.64,2.45 -5.64,5.64 0,3.18 2.45,5.63 5.64,5.63 3.18,0 5.63,-2.45 5.63,-5.63z"/>
  <path class="fil0" d="M191.59 67.62c0,-3.19 -2.45,-5.64 -5.64,-5.64 -3.18,0 -5.63,2.45 -5.63,5.64 0,3.18 2.45,5.63 5.63,5.63 3.19,0 5.64,-2.45 5.64,-5.63z"/>
  <path class="fil0" d="M180.32 126.79c0,3.11 2.52,5.63 5.63,5.63 3.12,0 5.64,-2.52 5.64,-5.63 0,-3.12 -2.52,-5.64 -5.64,-5.64 -3.11,0 -5.63,2.52 -5.63,5.64z"/>
  <path class="fil0" d="M253.57 67.62c0,-3.19 -2.45,-5.64 -5.63,-5.64 -3.19,0 -5.64,2.45 -5.64,5.64 0,3.18 2.45,5.63 5.64,5.63 3.18,0 5.63,-2.45 5.63,-5.63z"/>
  <path class="fil0" d="M242.3 126.79c0,3.11 2.52,5.63 5.64,5.63 3.11,0 5.63,-2.52 5.63,-5.63 0,-3.12 -2.52,-5.64 -5.63,-5.64 -3.12,0 -5.64,2.52 -5.64,5.64z"/>
  <path class="fil0" d="M132.42 5.64c0,-3.19 -2.45,-5.64 -5.63,-5.64 -3.19,0 -5.64,2.45 -5.64,5.64 0,3.18 2.45,5.63 5.64,5.63 3.18,-0.25 5.63,-2.7 5.63,-5.63z"/>
  <path class="fil0" d="M73.25 5.64c0,-3.19 -2.45,-5.64 -5.63,-5.64 -3.19,0 -5.64,2.45 -5.64,5.64 0,3.18 2.45,5.63 5.64,5.63 2.94,-0.25 5.63,-2.7 5.63,-5.63z"/>
  <path class="fil0" d="M11.27 5.64c0,-3.19 -2.45,-5.64 -5.63,-5.64 -3.19,0 -5.64,2.45 -5.64,5.64 0,3.18 2.45,5.63 5.64,5.63 3.18,-0.25 5.63,-2.7 5.63,-5.63z"/>
  <path class="fil0" d="M191.59 5.64c0,-3.19 -2.45,-5.64 -5.64,-5.64 -3.18,0 -5.63,2.45 -5.63,5.64 0,3.18 2.45,5.63 5.63,5.63 3.19,-0.25 5.64,-2.7 5.64,-5.63z"/>
  <path class="fil0" d="M253.57 5.64c0,-3.19 -2.45,-5.64 -5.63,-5.64 -3.19,0 -5.64,2.45 -5.64,5.64 0,3.18 2.45,5.63 5.64,5.63 3.18,-0.25 5.63,-2.7 5.63,-5.63z"/>
  <path class="fil0" d="M312.74 67.62c0,-3.19 -2.45,-5.64 -5.64,-5.64 -3.18,0 -5.63,2.45 -5.63,5.64 0,3.18 2.45,5.63 5.63,5.63 3.19,0 5.64,-2.45 5.64,-5.63z"/>
  <path class="fil0" d="M301.47 126.79c0,3.11 2.52,5.63 5.63,5.63 3.12,0 5.64,-2.52 5.64,-5.63 0,-3.12 -2.52,-5.64 -5.64,-5.64 -3.11,0 -5.63,2.52 -5.63,5.64z"/>
  <path class="fil0" d="M312.74 5.64c0,-3.19 -2.45,-5.64 -5.64,-5.64 -3.18,0 -5.63,2.45 -5.63,5.64 0,3.18 2.45,5.63 5.63,5.63 3.19,-0.25 5.64,-2.7 5.64,-5.63z"/>
 </g>
</svg>
