<svg width="112" height="47" viewBox="0 0 112 47" fill="none" xmlns="http://www.w3.org/2000/svg">
<path d="M47.5 24C47.5 22.8696 46.6304 22 45.5 22C44.3696 22 43.5 22.8696 43.5 24C43.5 25.1304 44.3696 26 45.5 26C46.6304 26 47.5 25.1304 47.5 24Z" fill="#004C6A"/>
<path d="M43.5 45C43.5 46.1046 44.3954 47 45.5 47C46.6046 47 47.5 46.1046 47.5 45C47.5 43.8954 46.6046 43 45.5 43C44.3954 43 43.5 43.8954 43.5 45Z" fill="#004C6A"/>
<path d="M26.5 24C26.5 22.8696 25.6304 22 24.5 22C23.3696 22 22.5 22.8696 22.5 24C22.5 25.1304 23.3696 26 24.5 26C25.5435 26 26.5 25.1304 26.5 24Z" fill="#004C6A"/>
<path d="M26.5 45C26.5 43.8696 25.6304 43 24.5 43C23.3696 43 22.5 43.8696 22.5 45C22.5 46.1304 23.3696 47 24.5 47C25.5435 47 26.5 46.1304 26.5 45Z" fill="#004C6A"/>
<path d="M4.5 24C4.5 22.8696 3.63043 22 2.49999 22C1.36956 22 0.5 22.8696 0.5 24C0.499999 25.1304 1.36956 26 2.49999 26C3.63043 26 4.5 25.1304 4.5 24Z" fill="#004C6A"/>
<path d="M4.5 45C4.5 43.8696 3.63043 43 2.49999 43C1.36956 43 0.5 43.8696 0.5 45C0.499999 46.1304 1.36956 47 2.49999 47C3.63043 47 4.5 46.1304 4.5 45Z" fill="#004C6A"/>
<path d="M68.5 24C68.5 22.8696 67.6304 22 66.5 22C65.3696 22 64.5 22.8696 64.5 24C64.5 25.1304 65.3696 26 66.5 26C67.6304 26 68.5 25.1304 68.5 24Z" fill="#004C6A"/>
<path d="M64.5 45C64.5 46.1046 65.3954 47 66.5 47C67.6046 47 68.5 46.1046 68.5 45C68.5 43.8954 67.6046 43 66.5 43C65.3954 43 64.5 43.8954 64.5 45Z" fill="#004C6A"/>
<path d="M90.5 24C90.5 22.8696 89.6304 22 88.5 22C87.3696 22 86.5 22.8696 86.5 24C86.5 25.1304 87.3696 26 88.5 26C89.6304 26 90.5 25.1304 90.5 24Z" fill="#004C6A"/>
<path d="M86.5 45C86.5 46.1046 87.3954 47 88.5 47C89.6046 47 90.5 46.1046 90.5 45C90.5 43.8954 89.6046 43 88.5 43C87.3954 43 86.5 43.8954 86.5 45Z" fill="#004C6A"/>
<path d="M47.5 2C47.5 0.869565 46.6304 -2.00311e-07 45.5 -4.60716e-07C44.3696 -7.21121e-07 43.5 0.869564 43.5 2C43.5 3.13043 44.3696 4 45.5 4C46.6304 3.91304 47.5 3.04348 47.5 2Z" fill="#004C6A"/>
<path d="M26.5 2C26.5 0.869565 25.6304 -2.00313e-07 24.5 -4.6072e-07C23.3696 -7.21126e-07 22.5 0.869564 22.5 2C22.5 3.13043 23.3696 4 24.5 4C25.5435 3.91304 26.5 3.04348 26.5 2Z" fill="#004C6A"/>
<path d="M4.5 2C4.5 0.869565 3.63043 -2.00312e-07 2.49999 -4.60718e-07C1.36956 -7.21123e-07 0.5 0.869564 0.5 2C0.499999 3.13043 1.36956 4 2.49999 4C3.63043 3.91304 4.5 3.04348 4.5 2Z" fill="#004C6A"/>
<path d="M68.5 2C68.5 0.869565 67.6304 -2.00313e-07 66.5 -4.6072e-07C65.3696 -7.21126e-07 64.5 0.869564 64.5 2C64.5 3.13043 65.3696 4 66.5 4C67.6304 3.91304 68.5 3.04348 68.5 2Z" fill="#004C6A"/>
<path d="M90.5 2C90.5 0.869565 89.6304 -2.00312e-07 88.5 -4.60719e-07C87.3696 -7.21125e-07 86.5 0.869564 86.5 2C86.5 3.13043 87.3696 4 88.5 4C89.6304 3.91304 90.5 3.04348 90.5 2Z" fill="#004C6A"/>
<path d="M111.5 24C111.5 22.8696 110.63 22 109.5 22C108.37 22 107.5 22.8696 107.5 24C107.5 25.1304 108.37 26 109.5 26C110.63 26 111.5 25.1304 111.5 24Z" fill="#004C6A"/>
<path d="M107.5 45C107.5 46.1046 108.395 47 109.5 47C110.605 47 111.5 46.1046 111.5 45C111.5 43.8954 110.605 43 109.5 43C108.395 43 107.5 43.8954 107.5 45Z" fill="#004C6A"/>
<path d="M111.5 2C111.5 0.869565 110.63 -2.00312e-07 109.5 -4.60719e-07C108.37 -7.21125e-07 107.5 0.869564 107.5 2C107.5 3.13043 108.37 4 109.5 4C110.63 3.91304 111.5 3.04348 111.5 2Z" fill="#004C6A"/>
<path d="M26.857 19.2867L24.5 21.6437L22.143 19.2867L19.786 21.6437L22.143 24.0008L19.786 26.3578L22.143 28.7148L24.5 26.3578L26.857 28.7148L29.214 26.3578L26.857 24.0008L29.214 21.6437L26.857 19.2867Z" fill="#004C6A"/>
</svg>
