<svg width="47" height="26" viewBox="0 0 47 26" fill="none" xmlns="http://www.w3.org/2000/svg">
<path d="M23.5 4C24.6304 4 25.5 3.13044 25.5 2C25.5 0.869565 24.6304 -2.18423e-07 23.5 -5.02372e-07C22.3696 -7.86322e-07 21.5 0.869564 21.5 2C21.5 3.13043 22.3696 4 23.5 4Z" fill="#004C6A"/>
<path d="M2.5 0.999999C1.39543 0.999999 0.500001 1.89543 0.500001 3C0.5 4.10457 1.39543 5 2.5 5C3.60457 5 4.5 4.10457 4.5 3C4.5 1.89543 3.60457 1 2.5 0.999999Z" fill="#004C6A"/>
<path d="M44.5 4C45.6304 4 46.5 3.13044 46.5 2C46.5 0.869565 45.6304 -2.18427e-07 44.5 -5.02382e-07C43.3696 -7.86337e-07 42.5 0.869564 42.5 2C42.587 3.13043 43.4565 4 44.5 4Z" fill="#004C6A"/>
<path d="M23.5 26C24.6304 26 25.5 25.1304 25.5 24C25.5 22.8696 24.6304 22 23.5 22C22.3696 22 21.5 22.8696 21.5 24C21.5 25.1304 22.3696 26 23.5 26Z" fill="#004C6A"/>
<path d="M2.5 22C1.39543 22 0.500001 22.8954 0.500001 24C0.5 25.1046 1.39543 26 2.5 26C3.60457 26 4.5 25.1046 4.5 24C4.5 22.8954 3.60457 22 2.5 22Z" fill="#004C6A"/>
<path d="M44.5 26C45.6304 26 46.5 25.1304 46.5 24C46.5 22.8696 45.6304 22 44.5 22C43.3696 22 42.5 22.8696 42.5 24C42.587 25.1304 43.4565 26 44.5 26Z" fill="#004C6A"/>
</svg>
