<svg width="194" height="68" viewBox="0 0 194 68" fill="none" xmlns="http://www.w3.org/2000/svg">
<path d="M75 36.9102V19H87.8486L86.8575 21.6901H78.1856V26.5039H86.5744L85.5833 29.1585H78.1856V34.2201H87.8486L86.8575 36.9102H75Z" fill="#004258"/>
<path d="M100.414 26.9999V32.9817C100.414 33.9374 100.732 34.5037 101.547 34.5037H101.936V36.6983C101.476 36.9814 100.98 37.0522 100.485 37.0522C99.1042 37.0522 98.3255 36.3443 97.9008 35.424H97.7946C97.1928 36.1673 96.131 37.123 93.9364 37.123C91.211 37.123 89.7598 35.247 89.7598 33.2295C89.7598 30.0085 92.7684 28.4865 97.4406 28.6635V27.3892C97.4406 25.5133 96.4849 24.9823 95.0337 24.9823C93.4763 24.9823 92.6976 25.8672 92.3082 26.6105L90.0429 24.9115C90.5739 24.1682 91.9543 22.3984 95.0337 22.3984C98.4671 22.4692 100.414 23.7435 100.414 26.9999ZM97.4406 30.9288C94.609 30.7872 92.8392 31.4243 92.8392 33.0171C92.8392 33.9728 93.5117 34.7161 94.7151 34.7161C95.9186 34.7161 96.9097 34.1144 97.4406 33.3711V30.9288Z" fill="#004258"/>
<path d="M103.458 26.6811C103.458 24.4511 105.334 22.4336 108.591 22.4336C110.856 22.4336 112.449 23.2123 113.369 24.2388L111.352 26.2917C110.75 25.6546 109.723 25.0175 108.52 25.0175C107.246 25.0175 106.573 25.6546 106.573 26.5041C106.573 29.0526 113.475 28.0969 113.475 32.8753C113.475 34.7867 111.918 37.1936 108.06 37.1936C105.193 37.1936 103.352 36.0255 102.538 35.176L104.414 32.9461C105.122 33.7248 106.502 34.6451 108.201 34.6451C109.688 34.6451 110.325 33.9372 110.325 33.0523C110.325 30.5392 103.458 31.4595 103.458 26.6811Z" fill="#004258"/>
<path d="M115.315 39.3172C115.705 39.4942 116.236 39.6358 116.802 39.6358C118.324 39.6358 119.138 38.7863 119.492 37.0873L113.864 21.8672H117.687L119.563 28.3446C120.2 30.2913 120.731 32.1673 120.943 33.3708H121.05C121.262 32.1673 121.58 30.6099 122.253 28.3446L124.2 21.8672H127.173L122.324 37.7598C121.474 40.3083 120.058 42.3612 116.908 42.3612C116.023 42.3612 115.209 42.1135 114.82 41.9719L115.315 39.3172Z" fill="#004258"/>
<path d="M129.403 19.0352L128.907 20.3802H135.101V36.8745H136.553V20.3802H143.384V19.0352H129.403Z" fill="#004258"/>
<path d="M160.728 35.8486C159.737 35.8486 159.242 35.0345 159.242 33.4771V27.0351C159.242 24.4158 157.72 23 154.817 23C152.906 23 151.348 23.7433 150.357 25.1237L151.384 25.9732C152.163 24.8406 153.26 24.2742 154.746 24.2742C157.012 24.2742 157.967 25.2299 157.967 27.4952V29.1588H157.684C154.534 29.1588 152.198 29.796 150.959 31.0348C150.251 31.7073 149.933 32.5922 149.933 33.5833C149.933 35.884 151.95 37.1582 153.862 37.1582C156.375 37.1582 157.472 35.9194 158.074 35.2469H158.215V35.2823C158.569 36.3441 159.454 36.9813 160.693 36.9813C160.834 36.9813 160.976 36.9459 161.047 36.9459V35.884H160.728V35.8486ZM157.932 33.8311C157.295 34.8221 155.914 35.9902 154.074 35.9902C152.41 35.9902 151.313 34.9991 151.313 33.5125C151.313 32.84 151.561 32.2736 152.021 31.8135C153.047 30.8224 155.136 30.3269 157.897 30.3977H157.932V33.8311Z" fill="#004258"/>
<path d="M185.08 30.5749C185.151 29.7254 185.222 28.8759 185.222 28.2742C185.222 24.9116 183.452 22.9648 180.408 22.9648C176.267 22.9648 174.78 26.5752 174.78 29.9378C174.78 34.8224 176.585 37.0169 180.656 37.0169C182.213 37.0169 183.735 36.5922 184.726 35.8842L184.089 34.7162C183.452 35.1763 182.213 35.7073 180.868 35.7073C177.824 35.7073 176.408 34.1853 176.231 30.6103V30.5749H185.08ZM176.196 29.2653C176.302 27.4955 176.762 26.1858 177.577 25.3363C178.249 24.6638 179.169 24.2745 180.196 24.2745C182.567 24.2745 183.771 25.6549 183.771 28.345C183.771 28.5573 183.771 28.9113 183.735 29.2653V29.3007H176.161V29.2653H176.196Z" fill="#004258"/>
<path d="M171.099 19.5661V23.4242H171.063C170.426 23.2826 169.577 23.2118 168.904 23.2118C166.851 23.2118 165.188 23.8844 164.055 25.1232C162.887 26.3974 162.285 28.2734 162.285 30.6095C162.285 34.8924 164.055 37.1577 167.347 37.1577C168.55 37.1577 170.355 36.6976 171.099 35.4233V36.9099H171.488H172.479V30.8927V19.0352L171.099 19.5661ZM167.594 35.8835C166.143 35.8835 163.701 35.1756 163.701 30.3971C163.701 26.4682 165.435 24.5215 168.869 24.5215C169.47 24.5215 170.462 24.6631 171.063 24.8046H171.099V33.3704C170.674 34.503 169.683 35.8835 167.594 35.8835Z" fill="#004258"/>
<path d="M147.561 22.9648C146.18 22.9648 144.694 23.602 144.021 24.5576V22.9648L142.605 23.4604V23.9559V28.9113V36.8399H144.021V26.3628C144.588 25.0886 145.826 24.3807 147.49 24.3807C147.986 24.3807 148.481 24.4515 148.977 24.593V23.1064C148.587 23.0356 148.127 22.9648 147.561 22.9648Z" fill="#004258"/>
<path d="M192.584 22.9648C191.204 22.9648 189.859 23.602 189.151 24.5576H189.045V22.9648L187.629 23.4604V28.9113V36.8399H189.045V26.3628C189.611 25.0886 190.85 24.3807 192.513 24.3807C193.009 24.3807 193.505 24.4515 194 24.593V23.1064C193.611 23.0356 193.151 22.9648 192.584 22.9648Z" fill="#004258"/>
<g filter="url(#filter0_d)">
<rect x="9" y="6" width="50" height="50" rx="14" fill="url(#paint0_linear)"/>
</g>
<path d="M48.3431 20.166C48.1306 20.6792 47.8189 21.3451 47.3939 22.1635C46.5298 23.7725 44.9998 26.2138 42.5915 28.7384C38.3416 33.1771 30.5218 38.6562 17.333 39.6965V41.8327C31.3152 40.7785 39.645 34.9249 44.1782 30.1948C48.4139 25.7422 50.1847 21.4699 50.6663 20.166H48.3431Z" fill="url(#paint1_linear)"/>
<defs>
<filter id="filter0_d" x="0" y="0" width="68" height="68" filterUnits="userSpaceOnUse" color-interpolation-filters="sRGB">
<feFlood flood-opacity="0" result="BackgroundImageFix"/>
<feColorMatrix in="SourceAlpha" type="matrix" values="0 0 0 0 0 0 0 0 0 0 0 0 0 0 0 0 0 0 127 0" result="hardAlpha"/>
<feOffset dy="3"/>
<feGaussianBlur stdDeviation="4.5"/>
<feColorMatrix type="matrix" values="0 0 0 0 0 0 0 0 0 0 0 0 0 0 0 0 0 0 0.2 0"/>
<feBlend mode="normal" in2="BackgroundImageFix" result="effect1_dropShadow"/>
<feBlend mode="normal" in="SourceGraphic" in2="effect1_dropShadow" result="shape"/>
</filter>
<linearGradient id="paint0_linear" x1="34" y1="6" x2="34" y2="56" gradientUnits="userSpaceOnUse">
<stop stop-color="white"/>
<stop offset="1" stop-color="#E6E5E5"/>
</linearGradient>
<linearGradient id="paint1_linear" x1="17.3188" y1="30.9934" x2="50.6594" y2="30.9934" gradientUnits="userSpaceOnUse">
<stop stop-color="#EE404B"/>
<stop offset="0.0374643" stop-color="#EF494B"/>
<stop offset="0.0993417" stop-color="#F2624B"/>
<stop offset="0.178" stop-color="#F78B4C"/>
<stop offset="0.2695" stop-color="#FEC34D"/>
<stop offset="0.2814" stop-color="#FFCB4D"/>
<stop offset="0.4109" stop-color="#AFC375"/>
<stop offset="0.6793" stop-color="#00B0CC"/>
<stop offset="0.745" stop-color="#04B0C7"/>
<stop offset="0.8213" stop-color="#10B2B9"/>
<stop offset="0.9028" stop-color="#24B4A2"/>
<stop offset="0.9876" stop-color="#40B781"/>
<stop offset="1" stop-color="#45B77C"/>
</linearGradient>
</defs>
</svg>
