<svg width="211" height="43" viewBox="0 0 211 43" fill="none" xmlns="http://www.w3.org/2000/svg">
<path d="M0.235096 40.6969C0.235096 40.374 0.6065 40.2126 0.792203 40.2126C4.32054 40.2126 14.3485 39.8896 24.005 39.8896C34.4043 39.8896 42.3895 40.2126 52.2317 40.374C52.9745 40.374 53.3459 41.0199 52.9745 41.5042C52.6031 41.9886 52.046 42.1501 50.7461 42.1501C48.1462 42.1501 45.5464 42.1501 42.7609 42.1501C39.2325 42.1501 42.5752 42.1501 39.0468 42.1501C24.9335 41.9886 14.7199 41.9886 0.6065 41.6657C0.235096 41.6657 -0.136308 41.3428 0.0493942 40.8584L0.235096 40.6969Z" fill="white"/>
<path d="M25.2736 0.897624C15.6369 11.4869 10.364 20.9807 4.18196 28.8314C3.09101 30.292 2.36371 31.3874 1.09095 32.6654C0.363648 33.3957 0 33.7608 0 34.3086C0.181824 35.7692 1.81824 35.7692 2.72736 35.0389C4.00013 33.7609 4.5456 32.1177 5.63655 30.8397C7.81844 27.7359 20.0007 10.7566 25.819 3.63623H26.0009C31.0919 11.852 48.9107 36.4995 50.1835 36.4995C52.0017 36.4995 49.638 32.6654 49.0925 31.7526C46.0015 26.4579 28.5464 3.63623 28.0009 2.35821C26.91 -0.0152454 26.3645 -0.0152441 25.2736 0.897624Z" fill="white"/>
<path d="M20.6161 33.8806C24.9801 34.0597 34.6173 34.2387 38.254 34.2387C39.8905 34.2387 29.526 20.6294 27.8895 17.7642C26.7985 15.9735 26.0711 15.4363 24.6165 17.4061C20.2524 23.1364 17.3431 27.255 12.4336 33.5225V33.7015C15.3429 33.5225 15.8884 33.8806 20.6161 33.8806Z" fill="white"/>
<path d="M70.5215 34.2809C70.5215 34.4433 70.3591 34.6057 70.3591 34.7682C70.3591 34.9306 70.3591 35.093 70.3591 35.4179C70.3591 35.5803 70.3591 35.7427 70.3591 35.7427C70.3591 35.9052 70.3591 35.9052 70.5215 36.0676C70.5215 36.23 70.6838 36.23 70.8462 36.23C71.0085 36.23 71.1709 36.23 71.3332 36.23H72.7944V34.7682C72.7944 34.1184 72.9567 33.7936 73.2814 33.4687C73.6062 33.1439 74.0932 32.9814 74.5803 32.9814H75.5544H75.7167C75.7167 32.9814 75.8791 32.9814 75.8791 33.1439L76.0414 33.3063V33.4687V36.23H76.8532V37.367H75.5544H75.392C75.392 37.367 75.2297 37.367 75.2297 37.2046L75.0673 37.0422V36.8797V34.1185H74.5803C74.4179 34.1185 74.2556 34.1185 74.2556 34.1185C74.0932 34.1185 74.0932 34.1185 74.0932 34.2809L73.9309 34.4433C73.9309 34.6057 73.9309 34.6057 73.9309 34.7682V36.8797C73.9309 37.0422 73.9309 37.0422 73.9309 37.0422C73.9309 37.0422 73.9309 37.2046 73.7685 37.2046L73.6062 37.367H73.4438H71.3332C71.0085 37.367 70.5215 37.367 70.3591 37.2046C70.0344 37.0422 69.8721 36.8797 69.7097 36.7173C69.5474 36.5549 69.385 36.23 69.385 36.0676C69.385 35.7427 69.2227 35.5803 69.2227 35.2554C69.2227 35.093 69.2227 34.9306 69.2227 34.7682C69.2227 34.6057 69.2227 34.4433 69.2227 34.2809C69.2227 34.1185 69.2227 33.956 69.385 33.956C69.385 33.7936 69.5474 33.7936 69.5474 33.6312L70.5215 34.2809Z" fill="white"/>
<path d="M78.311 38.8289C78.311 38.6664 78.311 38.6664 78.311 38.6664C78.311 38.6664 78.311 38.504 78.4734 38.504L78.6357 38.3416H78.7981C78.9604 38.3416 78.9604 38.3416 78.9604 38.3416C78.9604 38.3416 79.1228 38.3416 79.1228 38.504L79.2851 38.6664V38.8289V38.9913C79.2851 38.9913 79.2851 39.1537 79.1228 39.1537C78.9604 39.1537 78.9604 39.3162 78.9604 39.3162H78.7981C78.6357 39.3162 78.6357 39.3162 78.6357 39.3162C78.6357 39.3162 78.4734 39.3162 78.4734 39.1537L78.311 38.9913C78.311 38.9913 78.311 38.9913 78.311 38.8289ZM76.8499 38.8289C76.8499 38.6664 76.8499 38.6664 76.8499 38.6664C76.8499 38.6664 76.8499 38.504 77.0122 38.504L77.1746 38.3416H77.3369H77.4993C77.4993 38.3416 77.6616 38.3416 77.6616 38.504L77.824 38.6664V38.8289V38.9913C77.824 38.9913 77.824 39.1537 77.6616 39.1537L77.4993 39.3162H77.3369H77.1746C77.1746 39.3162 77.0122 39.3162 77.0122 39.1537L76.8499 38.9913C76.8499 38.9913 76.8499 38.9913 76.8499 38.8289ZM76.6875 36.23H78.6357V32.9814H79.7722V36.7173V36.8797C79.7722 36.8797 79.7722 37.0422 79.6098 37.0422L79.4475 37.2046H79.2851H76.8499V36.23H76.6875Z" fill="white"/>
<path d="M82.2107 31.0317H81.0742V37.3665H82.2107V31.0317Z" fill="white"/>
<path d="M85.9423 35.5797C85.9423 35.9045 85.9423 36.2294 85.9423 36.3918C85.9423 36.7167 85.9423 37.0415 85.78 37.2039C85.78 37.5288 85.6176 37.8537 85.4553 38.1785C85.2929 38.5034 85.1306 38.8282 84.8059 38.9907C84.6435 39.1531 84.3188 39.4779 83.9941 39.4779C83.6694 39.6404 83.1824 39.6404 82.6953 39.6404V38.5034C83.02 38.5034 83.1824 38.5034 83.5071 38.341C83.6694 38.1785 83.8318 38.1785 83.9941 38.0161C84.1565 37.8537 84.3188 37.6912 84.3188 37.5288C84.4812 37.3664 84.4812 37.0415 84.4812 36.8791C84.4812 36.5542 84.4812 36.3918 84.6435 36.0669C84.6435 35.7421 84.6435 35.5797 84.6435 35.2548C84.6435 34.9299 84.6435 34.6051 84.6435 34.2802C84.6435 33.9554 84.6435 33.6305 84.6435 33.3057H85.9423C85.9423 33.6305 85.9423 33.9554 85.9423 34.2802C85.9423 34.6051 85.9423 35.2548 85.9423 35.5797Z" fill="white"/>
<path d="M88.0544 31.0317H86.918V37.3665H88.0544V31.0317Z" fill="white"/>
<path d="M89.8425 32.9814C90.1672 32.9814 90.4919 32.9814 90.8166 32.9814C91.1413 32.9814 91.466 33.1439 91.6284 33.1439C91.9531 33.1439 92.1155 33.3063 92.2778 33.4687C92.4402 33.6312 92.6025 33.7936 92.7649 33.956C92.9272 34.1184 93.0896 34.2809 93.0896 34.4433C93.2519 34.6057 93.2519 34.9306 93.2519 35.093C93.2519 35.4179 93.4143 35.5803 93.4143 35.9052C93.4143 36.23 93.4143 36.5549 93.4143 36.8797V37.0422C93.4143 37.0422 93.4143 37.2046 93.2519 37.2046L93.0896 37.367H92.9272H89.3555V36.23H92.4402C92.4402 35.9052 92.4402 35.4179 92.2778 35.2554C92.2778 34.9306 92.1155 34.7682 91.9531 34.6057C91.7907 34.4433 91.466 34.2809 91.1413 34.1185C90.8166 33.956 90.3296 33.956 89.8425 33.956V32.9814Z" fill="white"/>
<path d="M99.26 32.0068C99.26 31.8444 99.26 31.8444 99.26 31.8444C99.26 31.8444 99.26 31.682 99.4223 31.682C99.5847 31.682 99.5847 31.5195 99.5847 31.5195H99.747C99.9094 31.5195 99.9094 31.5195 99.9094 31.5195C99.9094 31.5195 100.072 31.5195 100.072 31.682L100.234 31.8444V32.0068C100.234 32.1693 100.234 32.1692 100.234 32.1692C100.234 32.1692 100.234 32.3317 100.072 32.3317L99.9094 32.4941H99.747C99.5847 32.4941 99.5847 32.4941 99.5847 32.4941C99.5847 32.4941 99.4223 32.4941 99.4223 32.3317C99.4223 32.1692 99.26 32.1692 99.26 32.1692C99.26 32.1692 99.26 32.1693 99.26 32.0068ZM97.7988 32.0068C97.7988 31.8444 97.7988 31.8444 97.7988 31.8444C97.7988 31.8444 97.7988 31.682 97.9612 31.682L98.1235 31.5195H98.2859H98.4482C98.4482 31.5195 98.6106 31.5195 98.6106 31.682L98.7729 31.8444V32.0068C98.7729 32.1693 98.7729 32.1692 98.7729 32.1692C98.7729 32.1692 98.7729 32.3317 98.6106 32.3317L98.4482 32.4941H98.2859H98.1235C98.1235 32.4941 97.9612 32.4941 97.9612 32.3317L97.7988 32.1692C97.9612 32.1692 97.7988 32.1693 97.7988 32.0068ZM98.6106 37.367C98.1235 37.367 97.7988 37.367 97.6365 37.2045C97.3118 37.0421 97.1494 36.8797 96.9871 36.7173C96.8247 36.5548 96.6623 36.23 96.6623 36.0675C96.6623 35.7427 96.5 35.5803 96.5 35.2554C96.5 35.093 96.5 34.9305 96.5 34.7681C96.5 34.6057 96.5 34.4433 96.5 34.2808C96.5 34.1184 96.5 33.956 96.6623 33.956C96.6623 33.7935 96.8247 33.7935 96.8247 33.6311L97.7988 34.1184C97.7988 34.2808 97.6365 34.4432 97.6365 34.6057C97.6365 34.7681 97.6365 34.9305 97.6365 35.2554C97.6365 35.4178 97.6365 35.5802 97.6365 35.5802C97.6365 35.7427 97.6365 35.7427 97.7988 35.9051C97.7988 36.0675 97.9612 36.0675 98.1235 36.0675C98.2859 36.0675 98.4482 36.0675 98.6106 36.0675H101.371V32.819H102.507V36.0675H103.481V37.2045H98.6106V37.367Z" fill="white"/>
<path d="M104.772 38.8289C104.772 38.6664 104.772 38.6664 104.772 38.6664C104.772 38.6664 104.772 38.504 104.934 38.504L105.097 38.3416H105.259C105.421 38.3416 105.421 38.3416 105.421 38.3416C105.421 38.3416 105.584 38.3416 105.584 38.504L105.746 38.6664V38.8289V38.9913C105.746 38.9913 105.746 39.1537 105.584 39.1537C105.421 39.1537 105.421 39.3162 105.421 39.3162H105.259C105.097 39.3162 105.097 39.3162 105.097 39.3162C105.097 39.3162 104.934 39.3162 104.934 39.1537L104.772 38.9913C104.772 38.9913 104.772 38.9913 104.772 38.8289ZM103.311 38.8289C103.311 38.6664 103.311 38.6664 103.311 38.6664C103.311 38.6664 103.311 38.504 103.473 38.504L103.635 38.3416H103.798H103.96C103.96 38.3416 104.123 38.3416 104.123 38.504L104.285 38.6664V38.8289V38.9913C104.285 38.9913 104.285 39.1537 104.123 39.1537L103.96 39.3162H103.798H103.635C103.635 39.3162 103.473 39.3162 103.473 39.1537C103.473 38.9913 103.311 38.9913 103.311 38.9913C103.311 38.9913 103.311 38.9913 103.311 38.8289ZM103.148 36.23H105.097V32.9814H106.233V36.7173V36.8797C106.233 36.8797 106.233 37.0422 106.071 37.0422L105.908 37.2046H105.746H103.311V36.23H103.148Z" fill="white"/>
<path d="M109.809 33.6309C109.809 33.9557 109.809 34.2806 109.809 34.6054C109.809 34.9303 109.809 35.2552 109.809 35.7424C109.809 35.9049 109.809 36.2297 109.809 36.3921H110.621V37.5292H109.647C109.647 37.854 109.484 38.1789 109.322 38.5037C109.16 38.8286 108.997 39.1534 108.835 39.3159C108.673 39.4783 108.348 39.8032 108.023 39.8032C107.698 39.9656 107.211 39.9656 106.887 39.9656V38.8286C107.211 38.8286 107.374 38.8286 107.698 38.6661C107.861 38.5037 108.023 38.5037 108.186 38.3413C108.348 38.1789 108.51 38.0164 108.51 37.854C108.673 37.6916 108.673 37.3667 108.673 37.2043C108.673 36.8794 108.673 36.717 108.835 36.3921C108.835 36.0673 108.835 35.9049 108.835 35.58C108.835 35.2551 108.835 34.9303 108.835 34.6054C108.835 34.2806 108.835 33.9557 108.835 33.6309H109.809Z" fill="white"/>
<path d="M111.922 38.8289C111.922 38.6664 111.922 38.6664 111.922 38.6664C111.922 38.6664 111.922 38.504 112.084 38.504L112.247 38.3416H112.409C112.572 38.3416 112.572 38.3416 112.572 38.3416C112.572 38.3416 112.734 38.3416 112.734 38.504L112.896 38.6664V38.8289V38.9913C112.896 38.9913 112.896 39.1537 112.734 39.1537C112.572 39.1537 112.572 39.3162 112.572 39.3162H112.409C112.247 39.3162 112.247 39.3162 112.247 39.3162C112.247 39.3162 112.084 39.3162 112.084 39.1537L111.922 38.9913C111.922 38.9913 111.922 38.9913 111.922 38.8289ZM110.623 38.8289C110.623 38.6664 110.623 38.6664 110.623 38.6664C110.623 38.6664 110.623 38.504 110.786 38.504L110.948 38.3416H111.11H111.273C111.273 38.3416 111.435 38.3416 111.435 38.504L111.597 38.6664V38.8289V38.9913C111.597 38.9913 111.597 39.1537 111.435 39.1537L111.273 39.3162H111.11H110.948C110.948 39.3162 110.786 39.3162 110.786 39.1537C110.786 38.9913 110.623 38.9913 110.623 38.9913C110.623 38.9913 110.623 38.9913 110.623 38.8289ZM110.461 36.23H112.409V32.9814H113.546V36.7173V36.8797C113.546 36.8797 113.546 37.0422 113.383 37.0422L113.221 37.2046H113.059H110.623V36.23H110.461Z" fill="white"/>
<path d="M114.52 37.3664V36.2294H117.442C117.442 35.9045 117.442 35.5796 117.28 35.2548C117.28 34.9299 117.117 34.7675 116.955 34.6051C116.792 34.4426 116.468 34.2802 116.143 34.1178C115.818 33.9554 115.331 33.9554 114.844 33.9554V32.8184C115.169 32.8184 115.494 32.8184 115.818 32.8184C116.143 32.8184 116.468 32.9808 116.63 32.9808C116.955 32.9808 117.117 33.1432 117.28 33.3057C117.442 33.4681 117.604 33.6305 117.767 33.7929C117.929 34.1178 118.254 34.4426 118.254 34.7675C118.416 35.0924 118.416 35.5796 118.416 36.2294H119.065V37.3664H114.52Z" fill="white"/>
<path d="M121.173 36.23H123.121V33.956C122.797 33.956 122.634 33.956 122.472 33.956C122.31 33.956 122.31 33.956 122.147 33.956H121.985C121.822 33.956 121.822 33.956 121.66 34.1185C121.498 34.1185 121.498 34.2809 121.335 34.2809C121.173 34.4433 121.173 34.4433 121.173 34.6057C121.173 34.7682 121.173 34.7682 121.173 34.9306V36.23ZM119.225 36.23H120.037V34.9306C120.037 34.7682 120.037 34.6057 120.037 34.4433C120.037 34.2809 120.199 34.1184 120.199 33.956C120.361 33.7936 120.361 33.6312 120.524 33.4687C120.686 33.3063 120.848 33.1439 121.011 33.1439C121.173 32.9814 121.335 32.9814 121.498 32.9814C121.66 32.9814 121.822 32.9814 121.985 32.9814H123.608H123.771C123.771 32.9814 123.933 32.9814 123.933 33.1439L124.095 33.3063V33.4687V36.7173C124.095 36.8797 124.095 36.8797 124.095 36.8797C124.095 36.8797 124.095 37.0422 123.933 37.0422L123.771 37.2046H123.608H119.062V36.23H119.225Z" fill="white"/>
<path d="M208.194 8.2917C208.194 4.55584 207.869 2.93155 207.707 1.30726L210.142 0.495117C210.467 1.79455 210.629 3.25641 210.629 5.85527V18.0374L208.356 18.6871V8.2917H208.194Z" fill="white"/>
<path d="M152.016 8.12969V14.4644C152.016 14.9517 152.016 15.7638 151.691 16.0887C151.204 16.2511 150.555 16.2511 150.068 16.2511H133.67C133.508 16.2511 133.183 16.2511 133.021 16.0887C132.209 15.7638 131.722 15.1141 131.722 14.302V7.47998L129.449 7.96727V15.6014C129.449 17.5506 131.073 19.0124 132.859 19.0124H147.47C147.47 19.0124 150.717 19.0124 152.016 18.85C153.153 18.0378 154.127 16.4136 154.127 14.7893V13.8147V13.3274V7.47998L152.016 8.12969Z" fill="white"/>
<path d="M205.112 7.15453V14.3014C205.112 15.9257 204.138 17.55 203.001 18.3621C201.702 18.5245 198.455 18.5245 198.455 18.5245H194.234C192.773 18.5245 191.474 17.7124 190.987 16.413L190.825 16.5754C189.688 17.8748 188.714 18.5245 186.604 18.5245H181.246C180.272 18.5245 179.46 18.1997 178.811 17.3875C178.486 17.7124 178.161 18.0372 177.837 18.1997C176.538 18.3621 175.888 18.3621 174.427 18.3621H160.303C158.354 18.3621 156.893 16.7378 156.893 14.9511V7.96667C156.893 4.23081 156.731 2.60652 156.406 0.982237L158.842 0.33252C159.166 1.63195 159.329 3.09381 159.329 5.69266V13.8141C159.329 14.9511 160.14 15.7632 161.277 15.7632H176.051C176.538 15.7632 177.187 15.7632 177.674 15.6008C177.999 15.1135 177.999 14.4638 177.999 13.9765C177.999 12.0274 176.213 10.2407 174.103 10.2407H162.9L165.173 7.64181L166.634 7.47938H174.59C177.512 7.47938 180.272 9.91581 180.272 12.8395V13.8141C180.272 14.9511 181.084 15.7632 182.22 15.7632H186.766C188.877 15.7632 189.851 15.4384 190.825 13.9765V7.31695L193.098 6.82967V13.6517C193.098 14.7887 193.909 15.6008 195.046 15.6008H198.942H200.891C201.378 15.6008 202.027 15.6008 202.514 15.4384C202.839 14.9511 202.839 14.3014 202.839 13.8141V7.47938L205.112 7.15453Z" fill="white"/>
<path d="M145.691 21.123H143.581C143.256 21.123 143.094 21.2855 143.094 21.6103V23.5595C143.094 23.8843 143.256 24.0468 143.581 24.0468H145.691C146.016 24.0468 146.178 23.8843 146.178 23.5595V21.6103C146.178 21.2855 145.854 21.123 145.691 21.123Z" fill="white"/>
<path d="M168.093 4.71864H170.203C170.528 4.71864 170.69 4.55621 170.69 4.23135V2.28221C170.69 1.95735 170.528 1.79492 170.203 1.79492H168.093C167.768 1.79492 167.605 1.95735 167.605 2.28221V4.23135C167.605 4.55621 167.768 4.71864 168.093 4.71864Z" fill="white"/>
<path d="M182.542 4.71864H184.652C184.977 4.71864 185.139 4.55621 185.139 4.23135V2.28221C185.139 1.95735 184.977 1.79492 184.652 1.79492H182.542C182.217 1.79492 182.055 1.95735 182.055 2.28221V4.23135C182.055 4.55621 182.379 4.71864 182.542 4.71864Z" fill="white"/>
<path d="M187.249 4.71864H189.359C189.684 4.71864 189.846 4.55621 189.846 4.23135V2.28221C189.846 1.95735 189.684 1.79492 189.359 1.79492H187.249C186.924 1.79492 186.762 1.95735 186.762 2.28221V4.23135C186.762 4.55621 186.924 4.71864 187.249 4.71864Z" fill="white"/>
<path d="M199.428 4.71864H201.539C201.864 4.71864 202.026 4.55621 202.026 4.23135V2.28221C202.026 1.95735 201.864 1.79492 201.539 1.79492H199.428C199.104 1.79492 198.941 1.95735 198.941 2.28221V4.23135C198.941 4.55621 199.104 4.71864 199.428 4.71864Z" fill="white"/>
<path d="M83.9922 21.123H81.8816C81.5569 21.123 81.3945 21.2855 81.3945 21.6103V23.5595C81.3945 23.8843 81.5569 24.0468 81.8816 24.0468H83.9922C84.3169 24.0468 84.4792 23.8843 84.4792 23.5595V21.6103C84.4792 21.2855 84.3169 21.123 83.9922 21.123Z" fill="white"/>
<path d="M88.0547 21.123H85.9441C85.6194 21.123 85.457 21.2855 85.457 21.6103V23.5595C85.457 23.8843 85.6194 24.0468 85.9441 24.0468H88.0547C88.3794 24.0468 88.5417 23.8843 88.5417 23.5595V21.6103C88.5417 21.2855 88.3794 21.123 88.0547 21.123Z" fill="white"/>
<path d="M102.991 4.71864H105.102C105.426 4.71864 105.589 4.55621 105.589 4.23135V2.28221C105.589 1.95735 105.426 1.79492 105.102 1.79492H102.991C102.666 1.79492 102.504 1.95735 102.504 2.28221V4.23135C102.504 4.55621 102.666 4.71864 102.991 4.71864Z" fill="white"/>
<path d="M121.66 16.2506H119.063C117.277 16.2506 116.303 15.4385 115.978 13.6518L118.251 10.2408H118.738C120.524 10.2408 121.498 11.5402 121.498 13.4893V16.2506H121.66ZM101.204 9.91591H105.263C105.912 9.91591 106.237 10.4032 106.237 10.8905V13.3269C106.237 14.4639 106.237 15.6009 105.425 16.0882H102.178C100.555 15.9258 100.068 14.1391 100.068 12.5148C100.068 11.8651 100.392 10.8905 101.204 9.91591ZM119.55 7.15462H114.192L113.218 10.0783H115.491L112.244 14.7888C111.594 15.7633 110.458 16.2506 109.322 16.2506H107.86H107.698C108.185 15.6009 108.51 14.9512 108.51 14.1391V9.75348C108.51 8.29162 107.373 7.15462 105.912 7.15462H101.529C99.4181 8.61648 97.3075 11.0529 97.4699 13.9766C97.4699 14.7888 97.7946 15.6009 98.2816 16.2506H95.0346C94.0605 16.2506 93.0864 15.4385 93.0864 14.3015V7.15462L90.4888 8.29162V14.4639C89.5146 15.9258 88.2158 16.0882 85.7806 16.0882H81.3971C80.423 16.0882 79.4488 15.2761 79.4488 14.1391C79.4488 14.1391 79.2865 11.3778 79.2865 10.4032C79.1241 7.64191 76.8512 6.99219 74.7406 6.99219H72.6301H71.8183L71.1689 10.0783C71.1689 10.0783 71.3313 10.0783 71.9807 10.0783H73.7665C76.0395 10.0783 77.5006 10.728 77.5006 12.1899C77.5006 13.8142 77.5006 15.7633 77.0136 15.9258C76.6889 16.0882 75.8771 16.0882 75.2277 16.0882H68.896L67.9219 19.1743C67.9219 19.1743 75.0653 19.1743 76.2018 19.1743C76.8512 19.1743 78.15 18.3622 78.3124 17.0628C78.4747 17.5501 78.4747 17.7125 78.9618 18.3622C79.2865 18.8495 80.2606 19.1743 80.7477 19.1743H86.1053C88.5405 19.1743 89.677 18.6871 90.9758 17.3876L91.1382 17.2252L91.3005 17.3876C91.9499 18.5246 93.0864 19.1743 94.5476 19.1743H104.126H109.484C111.27 19.1743 112.731 18.3622 113.705 16.9003L114.192 16.0882L114.354 16.4131C115.166 18.5246 117.439 19.0119 118.576 19.0119H121.985L122.472 18.5246C123.446 17.5501 124.42 16.5755 124.42 14.7888V11.865C124.258 9.26619 122.472 7.15462 119.55 7.15462Z" fill="white"/>
</svg>
