<svg width="179" height="21" viewBox="0 0 179 21" fill="none" xmlns="http://www.w3.org/2000/svg">
<path d="M87.1602 15.8257C87.785 15.5317 88.2124 15.3684 88.9194 15.2051C88.9522 2.69478 88.9851 0.555288 89.018 0C88.2946 0.391968 87.2589 0.718608 86.5684 0.751272C86.7985 2.4498 87.0945 7.12076 87.1602 15.8257Z" fill="#004A69"/>
<path d="M75.6212 15.3197C76.2459 15.0257 76.6734 14.8624 77.3803 14.6991C77.4132 2.18876 77.4461 0.57189 77.479 0.0166016C76.7556 0.40857 75.7198 0.73521 75.0293 0.767874C75.2595 2.45007 75.5554 6.61473 75.6212 15.3197Z" fill="#004A69"/>
<path d="M81.0611 6.28778C81.3899 8.16596 81.7187 11.906 81.8174 13.9475C81.2913 15.2867 79.1704 16.4463 77.7236 17.0996C78.2826 17.5569 79.0718 18.3735 79.4828 18.9778C80.2719 18.4878 80.8638 18.0958 81.3406 17.6385C82.8367 16.234 83.4943 14.2905 83.4943 11.759C83.4943 9.78283 83.3628 7.05538 83.3299 5.61816C82.5736 5.9938 81.8174 6.18978 81.0611 6.28778Z" fill="#004A69"/>
<path d="M149.241 5.0625C148.353 5.68312 147.088 5.97709 147.088 5.97709C147.581 8.21458 147.91 12.3302 147.91 12.3302C146.101 13.0489 143.964 13.1142 143.306 13.1305H143.257C140.314 13.1305 139.229 12.5752 139.097 10.3704C138.999 8.94952 138.933 7.64296 138.9 6.04242C138.111 6.40173 137.371 6.59771 136.615 6.6957C136.944 8.57388 137.272 11.9383 137.371 13.9798C136.845 15.319 134.724 16.4786 133.277 17.1319C133.836 17.5892 134.625 18.4058 135.036 19.01C135.826 18.5201 136.418 18.1281 136.894 17.6708C137.881 16.7562 138.489 15.613 138.801 14.2248C139.377 15.2537 141.317 15.7763 143.471 15.6456C146.167 15.4823 148.321 14.3391 148.321 14.3391C148.962 13.0815 149.669 12.4119 149.603 10.2724C149.57 8.23091 149.241 5.0625 149.241 5.0625Z" fill="#004A69"/>
<path d="M133.803 10.2887C133.737 8.24724 133.425 5.0625 133.425 5.0625C132.537 5.68312 131.271 5.97709 131.271 5.97709C131.765 8.21458 132.093 12.3302 132.093 12.3302C129.94 13.1795 127.572 13.1305 127.572 13.1305C124.465 13.1305 123.314 12.3139 123.281 10.4357C123.232 8.41056 123.15 7.16933 123.051 6.18941C123.051 6.18941 122.114 6.77736 120.98 7.12033C120.98 7.12033 121.341 9.40682 121.539 11.677C121.407 11.7913 121.275 11.8893 121.144 11.9873C120.24 12.5589 117.56 13.6531 110.622 13.2122C105.46 12.8855 105.328 11.824 105.542 8.49222C105.607 7.44697 105.673 6.87535 105.673 6.87535C105.673 6.87535 104.605 6.81003 103.865 6.61404C103.865 6.61404 103.52 8.11659 103.52 10.6644C103.52 13.4245 104.407 15.417 108.764 15.8416C113.269 16.2663 117.165 15.6293 117.165 15.6293C117.987 15.5313 118.727 15.319 119.352 15.0577C119.977 14.7964 120.486 14.4861 120.832 14.1758C121.193 13.8491 121.802 13.4082 121.999 13.0489C122.229 14.8617 124.12 15.809 127.802 15.7273C129.726 15.6946 131.584 15.074 132.389 14.4697C133.211 13.1468 133.869 12.4282 133.803 10.2887Z" fill="#004A69"/>
<path d="M95.8092 4.71973C95.8092 4.71973 95.6448 6.20594 94.9378 7.26752C94.9378 7.26752 98.6698 8.8354 99.7714 12.1671C99.7714 12.1671 97.2724 13.0817 95.02 13.294C92.9814 13.4737 92.8334 12.1345 92.9978 10.2726C92.9978 10.2726 92.5375 10.4523 91.7319 10.4849C91.7319 10.4849 91.5018 12.4121 91.6826 13.5227C91.8799 14.6333 92.3731 15.7275 94.0994 15.7275C96.2038 15.7275 99.2946 14.5189 100.034 14.127C100.034 14.127 100.61 13.0654 100.758 12.6081C101.021 11.8568 100.708 9.86431 100.1 8.77007C99.4426 7.5615 98.4726 6.38559 95.8092 4.71973Z" fill="#004A69"/>
<path d="M173.59 5.45443C171.666 5.45443 169.381 5.45443 168.756 5.35644C168.691 5.94439 168.46 6.72833 168.164 7.33262C168.608 7.29995 169.134 7.29995 170.548 7.29995C169.2 9.48844 168.263 10.8603 167.277 12.0689C167.277 12.0852 167.26 12.0852 167.26 12.1016C167.26 12.1016 167.244 12.1179 167.244 12.1342C167.096 12.2975 166.603 12.7548 165.518 12.9672C165.139 13.0488 164.679 13.0978 164.137 13.0978C162.723 13.0978 161.769 12.9345 161.194 12.4119C160.783 12.0362 160.569 11.4646 160.536 10.6154C160.536 10.5827 160.536 10.55 160.536 10.5174C160.536 10.4847 160.536 10.4357 160.536 10.403C160.47 7.41428 160.306 5.86273 160.141 4.88281C159.484 5.30744 158.629 5.66675 157.988 5.79741C158.185 6.59767 158.497 8.16555 158.777 11.6443C157.692 12.6079 155.982 13.0978 154.354 13.0978C153.467 13.0978 152.99 12.8365 152.99 12.3465V10.8277C152.562 11.0563 151.97 11.285 151.543 11.3176C151.576 11.7423 151.576 12.6569 151.576 13.3918C151.609 14.78 152.168 15.6946 153.927 15.6946C155.62 15.6946 157.79 15.0413 158.3 14.1757C158.53 13.7838 158.81 13.3101 159.007 12.9672C159.303 14.437 160.289 15.7109 163.101 15.7109H163.134C166.192 15.7599 167.523 14.2737 167.606 14.1921C167.967 13.7021 168.329 13.1468 168.822 12.4445C168.822 14.4534 170.4 15.7273 172.85 15.7273C173.804 15.7273 174.609 15.6619 175.629 15.6293C176.582 13.8818 177.815 13.2938 177.815 9.6191C177.766 7.10397 176.138 5.45443 173.59 5.45443ZM175.579 12.9835C175.119 13.0815 174.182 13.1141 173.228 13.1141C171.305 13.1141 170.45 12.3629 170.45 11.236C170.45 10.4847 170.631 9.81508 171.962 7.43061H172.899C174.757 7.43061 175.711 8.94949 175.711 10.6807C175.711 12.0526 175.678 12.4935 175.579 12.9835Z" fill="#004A69"/>
<path d="M72.1191 5.0625C71.2313 5.68312 69.9654 5.97709 69.9654 5.97709C70.4586 8.21458 70.7874 12.3302 70.7874 12.3302C70.7874 12.3302 68.8639 13.1468 66.0361 13.0979C63.8166 13.0652 63.1097 11.5136 62.6822 9.42315C62.3369 7.69195 61.071 6.30373 58.8022 6.32007H58.5556C57.6678 6.32007 57.4212 6.35273 56.221 6.45072C55.103 7.90427 52.9822 9.66813 52.9822 12.1343C52.9822 14.1104 54.2646 15.1884 56.7142 15.1884H59.0817C58.8515 17.0339 57.0595 17.6545 54.4783 17.6545H53.163C50.4832 17.6545 49.431 16.3806 49.431 14.5024C49.431 13.7185 49.6776 11.2687 49.9078 9.86411C49.4146 10.0928 48.7241 10.2561 48.313 10.2887C48.2802 11.3667 47.8691 14.2738 47.8691 15.711C47.8691 18.4711 49.3652 20.1206 52.5712 20.1206H54.1495C58.868 20.1206 60.7915 17.2952 60.7915 14.5024C60.7915 13.5551 60.0352 12.7875 59.0817 12.7875H57.5856C55.8264 12.7875 54.9386 12.3629 54.9386 11.0727C54.9386 10.3541 55.5798 9.1945 56.0073 8.57388C56.4676 8.50856 56.5334 8.47589 58.7035 8.47589C60.0517 8.49222 61.0546 9.48848 61.4327 11.2197L61.6793 12.0689C62.0903 13.6858 63.718 15.7273 66.5129 15.564C69.2091 15.4007 71.2313 14.3554 71.2313 14.3554C71.9547 12.9509 72.5795 12.4446 72.5137 10.2887C72.4315 8.23091 72.1191 5.0625 72.1191 5.0625Z" fill="#004A69"/>
<path d="M141.744 18.3242C141.81 18.9775 141.81 19.9411 141.744 20.3984H144.161C144.095 19.8758 144.095 18.8795 144.161 18.3242H141.744Z" fill="#004A69"/>
<path d="M145.032 18.3242C145.098 18.9775 145.098 19.9411 145.032 20.3984H147.449C147.383 19.8758 147.383 18.8795 147.449 18.3242H145.032Z" fill="#004A69"/>
<path d="M125.254 18.3242C125.32 18.9775 125.32 19.9411 125.254 20.3984H127.671C127.605 19.8758 127.605 18.8795 127.671 18.3242H125.254Z" fill="#004A69"/>
<path d="M128.543 18.3242C128.609 18.9775 128.609 19.9411 128.543 20.3984H130.96C130.894 19.8758 130.894 18.8795 130.96 18.3242H128.543Z" fill="#004A69"/>
<path d="M65.2627 17.9482C65.3285 18.6015 65.3285 19.5651 65.2627 20.0224H67.6795C67.6137 19.4998 67.6137 18.5035 67.6795 17.9482H65.2627Z" fill="#004A69"/>
<path d="M68.5508 17.9482C68.6165 18.6015 68.6165 19.5651 68.5508 20.0224H70.984C70.9182 19.4998 70.9182 18.5035 70.984 17.9482H68.5508Z" fill="#004A69"/>
<path d="M112.71 6.97456C112.644 6.45193 112.644 5.45568 112.71 4.90039H110.293C110.359 5.55367 110.359 6.51726 110.293 6.97456H112.71Z" fill="#004A69"/>
<path d="M116.014 6.97456C115.949 6.45193 115.949 5.45568 116.014 4.90039H113.598C113.663 5.55367 113.663 6.51726 113.598 6.97456H116.014Z" fill="#004A69"/>
<path d="M40.2566 5.81418C38.4646 5.81418 36.3273 5.81418 35.7519 5.71619C35.6861 6.25514 35.4724 6.99008 35.2093 7.5617C35.6368 7.52904 36.13 7.52904 37.4453 7.52904C36.1958 9.55421 35.3244 10.8444 34.4038 11.9713C33.6475 12.9676 31.9705 12.9349 30.8526 12.9349H30.3758C31.0663 12.2 31.3951 11.6447 31.3951 9.52155C31.3951 7.13707 30.3265 5.81418 27.9919 5.81418H25.8053C23.2899 8.37831 22.698 9.40722 22.698 11.0404C22.698 11.759 22.8788 12.396 23.2734 12.9513H22.4678C20.0017 12.9513 19.3934 12.494 19.3934 10.5995C19.3934 7.85568 19.3934 6.85943 19.4263 6.30414C18.8509 6.54912 18.0946 6.69611 17.4534 6.76144C17.5027 7.52904 17.5685 9.6522 17.5685 11.7427C16.5656 12.494 15.2175 12.8859 12.5048 12.9513H12.2582C9.36461 12.9513 9.00291 12.2 8.97003 10.4525C8.90427 7.67603 8.7563 6.22248 8.60833 5.32422C8.00003 5.71619 7.21088 6.04283 6.60257 6.17348C6.78342 6.90842 7.07935 8.37831 7.3424 11.612C6.33952 12.5103 4.74477 12.9676 3.23223 12.9676C2.4102 12.9676 1.94986 12.7226 1.94986 12.2653V10.8444C1.55528 11.0568 1.01274 11.2691 0.618164 11.3017C0.651045 11.6937 0.651045 12.543 0.651045 13.2289C0.683927 14.5355 1.19359 15.3684 2.83766 15.3684C4.41596 15.3684 6.42172 14.7641 6.91494 13.9475C7.12867 13.5882 7.37528 13.1473 7.57257 12.8206C7.7863 14.5028 8.60833 15.3684 12.028 15.3684H12.176C14.8065 15.2867 16.3026 14.8784 16.9273 14.0945C17.1739 13.7679 17.5027 13.3106 17.8316 12.9023C18.0288 14.4865 19.1139 15.3684 22.1883 15.3684H30.047C32.7761 15.3684 34.0256 14.8621 34.6668 13.9475C34.9956 13.4902 35.3409 12.9839 35.7848 12.3143C35.7848 14.1925 37.248 15.3684 39.5168 15.3684C40.4046 15.3684 41.1609 15.3031 42.098 15.2704C42.9858 13.6372 44.1366 13.0983 44.1366 9.68487C44.1531 7.34939 42.6405 5.81418 40.2566 5.81418ZM28.9455 13.0329C25.3778 13.0003 24.5722 12.0367 24.5722 10.1258C24.5722 9.37456 24.7531 8.67228 25.46 7.64336H27.3014C28.9455 7.64336 29.4551 8.57429 29.4551 10.1422C29.4716 11.857 29.34 12.4286 28.9455 13.0329ZM42.1144 12.8206C41.687 12.9186 40.7992 12.9349 39.9278 12.9349C38.1358 12.9349 37.3466 12.2327 37.3466 11.1874C37.3466 10.4851 37.511 9.86452 38.7441 7.6597H39.6155C41.3417 7.6597 42.2295 9.08058 42.2295 10.6811C42.246 11.9387 42.2131 12.3633 42.1144 12.8206Z" fill="#06BBAE"/>
<path d="M28.7485 3.90276C28.6827 3.4128 28.6827 2.48188 28.7485 1.97559H26.4961C26.5619 2.57987 26.5619 3.47813 26.4961 3.90276H28.7485Z" fill="#06BBAE"/>
<path d="M11.9463 17.1963C12.0121 17.8006 12.0121 18.6988 11.9463 19.1235H14.1987C14.1329 18.6335 14.1329 17.7026 14.1987 17.1963H11.9463Z" fill="#06BBAE"/>
<path d="M14.7744 17.1963C14.8402 17.8006 14.8402 18.6988 14.7744 19.1235H17.0268C16.961 18.6335 16.961 17.7026 17.0268 17.1963H14.7744Z" fill="#06BBAE"/>
</svg>
