<svg width="128" height="21" viewBox="0 0 128 21" fill="none" xmlns="http://www.w3.org/2000/svg">
<path d="M121.842 6.32029C120.848 6.32029 120.439 6.32029 119.542 6.32029C118.645 6.32029 117.3 6.24205 117.3 6.24205C117.203 6.92665 116.755 8.11981 116.755 8.11981C117.476 8.06113 118.996 8.08068 118.996 8.08068C118.996 8.08068 117.749 10.0758 116.521 11.7775C115.527 13.1858 115.234 13.5966 111.979 13.5966H109.855C110.966 12.8729 111.628 12.1883 111.628 12.1883C111.628 12.1883 111.94 11.2103 111.94 9.70416C111.921 6.65281 109.289 6.32029 108.12 6.32029C106.95 6.32029 106.736 6.30073 104.865 6.30073C102.993 6.30073 101.551 6.22249 101.551 6.22249C101.376 7.43521 100.927 8.4132 100.927 8.4132L102.35 8.35452C103.344 11.2689 104.67 13.4988 104.67 13.4988C104.67 13.4988 103.52 13.577 102.604 13.577H101.239H98.9392C98.1011 13.577 97.6723 13.2445 97.6723 12.423V1C97.0485 1.37164 96.1324 1.6846 95.4502 1.70416C95.6646 3.30807 95.957 5.4401 95.9765 11.9927C95.9765 14.2421 96.3273 16.0611 99.8553 16.0611C100.849 16.0611 100.46 16.0611 101.005 16.0611H102.077C105.742 16.0611 107.535 14.7506 107.535 14.7506C108.217 15.4156 108.977 16.0416 111.531 16.0416C115.176 16.0416 115.702 15.1223 116.209 14.5941C116.462 14.3203 117.339 12.9315 117.339 12.9315C117.339 15.6112 120.068 16.0611 121.374 16.0611C122.427 16.0611 123.713 15.9633 123.713 15.9633C124.805 14.3203 125.779 13.2054 125.779 10.2518C125.779 6.82885 122.836 6.32029 121.842 6.32029ZM106.814 13.2641C106.814 13.2641 105.177 11.1712 104.202 8.33496C104.202 8.33496 106.755 8.33496 107.438 8.33496C108.1 8.33496 110.303 8.43276 109.913 11.9731C109.913 11.9731 108.451 13.0098 106.814 13.2641ZM123.713 13.4792C123.713 13.4792 123.011 13.5966 121.511 13.5966C119.99 13.5966 118.002 12.9511 119.308 10.1736C119.737 9.25428 120.322 8.19805 120.322 8.19805C120.322 8.19805 121.121 8.17849 121.374 8.19805C123.713 8.31541 124.161 10.8973 123.713 13.4792Z" fill="#004A69"/>
<path d="M90.1087 6.32003C89.1146 6.32003 88.7053 6.32003 87.8087 6.32003C86.9121 6.32003 85.5672 6.2418 85.5672 6.2418C85.4697 6.92639 85.0214 8.11955 85.0214 8.11955C85.7426 8.06087 87.2629 8.08043 87.2629 8.08043C87.2629 8.08043 86.035 10.0364 84.8265 11.7577C84.8265 11.7577 84.807 11.7772 84.807 11.7968C84.69 11.9728 84.5731 12.1293 84.4561 12.2858C84.4561 12.3054 84.4366 12.3249 84.4171 12.3249C83.579 13.4007 82.8578 13.6159 81.3374 13.6159C78.3552 13.6159 78.4527 11.4447 78.4527 10.3689C78.4527 9.29314 78.4527 1.17578 78.4527 1.17578C77.4391 1.74302 76.1527 1.8017 76.1527 1.8017C76.523 3.95329 76.7764 8.02175 76.7179 10.2125C76.6984 11.0144 76.6789 12.7161 75.0806 13.342C70.7924 15.0242 68.1221 12.8139 68.1221 12.8139C68.1221 12.8139 68.7263 13.8897 68.9212 15.4741C69.3501 15.7479 70.4026 16.2956 71.767 16.2956C75.412 16.2956 77.0493 13.5963 77.0493 13.5963C77.9459 16.0804 79.3103 16.0804 81.3764 16.0804C82.0586 16.0804 82.6824 15.8653 83.2087 15.5719C83.8129 15.2393 84.2612 14.8482 84.4756 14.6134C84.8265 14.2222 85.4697 13.166 85.5866 12.9704C85.5866 12.9704 85.5866 12.9508 85.6061 12.9508C85.6061 12.9508 85.6061 12.9508 85.6061 12.9313C85.6061 15.611 88.335 16.0609 89.6409 16.0609C90.6935 16.0609 91.9994 15.9631 91.9994 15.9631C93.091 14.32 94.0655 13.2051 94.0655 10.2516C94.0461 6.82859 91.1028 6.32003 90.1087 6.32003ZM91.9799 13.479C91.9799 13.479 91.2782 13.5963 89.7579 13.5963C88.2375 13.5963 86.2494 12.9508 87.5553 10.1733C87.9841 9.25402 88.5689 8.19779 88.5689 8.19779C88.5689 8.19779 89.368 8.17823 89.6214 8.19779C91.9799 8.31515 92.4282 10.8971 91.9799 13.479Z" fill="#004A69"/>
<path d="M70.773 13.0296L72.6247 11.9929C72.5662 5.75329 71.9815 3.85598 71.1239 1.50879C71.1239 1.50879 70.3637 2.07603 69.1162 2.58458C69.1162 2.58458 70.5196 5.24473 70.7145 9.93911C70.7925 11.8364 70.773 13.0296 70.773 13.0296Z" fill="#004A69"/>
<path d="M64.185 6.88706C64.185 6.88706 64.8867 10.0362 64.9647 13.0289C64.9647 13.0289 60.8909 14.1047 55.1019 13.7526C50.151 13.4592 50.0341 12.403 50.229 9.17557C50.2874 8.15845 50.3654 7.61078 50.3654 7.61078C50.3654 7.61078 49.5273 7.5521 48.8256 7.3565C48.8256 7.3565 48.6306 9.07777 48.4942 11.2685C48.3383 13.9286 49.1569 15.9433 53.3282 16.2758C56.5638 16.5301 62.4893 16.4714 65.2376 15.0827C65.2376 15.0827 66.641 13.244 66.602 11.7575C66.563 10.2514 66.2317 5.9873 66.2317 5.9873C66.2317 5.9873 65.53 6.53498 64.185 6.88706Z" fill="#004A69"/>
<path d="M56.661 7.5334C56.6025 7.00528 56.6025 5.9686 56.661 5.40137H54.1855C54.244 6.0664 54.244 7.08352 54.1855 7.5334H56.661Z" fill="#004A69"/>
<path d="M60.0135 7.5334C59.9551 7.00528 59.9551 5.9686 60.0135 5.40137H57.5381C57.5966 6.0664 57.5966 7.08352 57.5381 7.5334H60.0135Z" fill="#004A69"/>
<path d="M41.5006 6.32011C39.6879 6.32011 37.5243 6.32011 36.9395 6.22231C36.8811 6.76999 36.6667 7.51326 36.3938 8.10006C36.8226 8.0805 37.3099 8.06094 38.6548 8.06094C37.3879 10.1343 36.5107 11.4448 35.5751 12.5988C34.815 13.616 33.1192 13.5964 31.9692 13.5964H31.5014C32.2031 12.8531 32.5344 12.2859 32.5344 10.0952C32.5344 7.65018 31.4624 6.30055 29.0844 6.30055H26.8818C24.3284 8.92158 23.7437 9.97781 23.7437 11.6404C23.7437 12.3837 23.9386 13.0292 24.3284 13.5964H23.5098C21.0148 13.5964 20.3911 13.127 20.3911 11.1905C20.3911 8.3739 20.3911 7.35678 20.4301 6.80911C19.8453 7.06339 19.0657 7.21986 18.4224 7.27854C18.4809 8.06094 18.5394 10.2321 18.5394 12.3837C17.5258 13.1465 16.1614 13.5573 13.4131 13.616H13.1597C10.2359 13.616 9.86557 12.8531 9.82659 11.0536C9.76811 8.21742 9.61218 6.73087 9.45625 5.79199C8.83251 6.20275 8.03335 6.53527 7.42911 6.65263C7.60453 7.41546 7.9164 8.90202 8.18928 12.2272C7.15622 13.1465 5.55791 13.616 4.01806 13.616C3.17992 13.616 2.73161 13.3617 2.73161 12.9118V11.4644C2.32228 11.6795 1.77651 11.8947 1.36719 11.9338C1.40617 12.3446 1.40617 13.2052 1.40617 13.9094C1.44515 15.2394 1.95194 16.1001 3.62823 16.1001C5.22655 16.1001 7.25368 15.4741 7.76046 14.6526C7.97487 14.281 8.22826 13.8311 8.42318 13.4986C8.63759 15.2199 9.47574 16.1001 12.9453 16.1001H13.1012C15.7716 16.0218 17.2724 15.6111 17.9156 14.8091C18.169 14.4766 18.5004 14.0072 18.8318 13.5964C19.0267 15.2003 20.1377 16.1196 23.2564 16.1196H31.209C33.9768 16.1196 35.2438 15.5915 35.887 14.6722C36.2184 14.2027 36.5692 13.6746 37.0175 13.0096C37.0175 14.9265 38.4989 16.1392 40.7989 16.1392C41.6955 16.1392 42.4557 16.0805 43.4108 16.0414C44.3074 14.3788 45.4769 13.8116 45.4769 10.3299C45.4574 7.90446 43.9176 6.32011 41.5006 6.32011ZM30.059 13.7138C26.4335 13.6746 25.6344 12.6966 25.6344 10.7406C25.6344 9.97781 25.8098 9.25409 26.531 8.19786H28.4022C30.059 8.19786 30.5853 9.15629 30.5853 10.7602C30.5853 12.501 30.4488 13.0878 30.059 13.7138ZM43.3913 13.4986C42.9625 13.5964 42.0659 13.616 41.1692 13.616C39.3565 13.616 38.5574 12.9118 38.5574 11.8164C38.5574 11.0927 38.7328 10.4668 39.9803 8.19786H40.8769C42.6311 8.19786 43.5277 9.64529 43.5277 11.2883C43.5083 12.5988 43.4888 13.0292 43.3913 13.4986Z" fill="#06BBAE"/>
<path d="M29.845 4.36422C29.7865 3.87522 29.7865 2.91679 29.845 2.38867H27.5645C27.6229 3.01459 27.6229 3.9339 27.5645 4.36422H29.845Z" fill="#06BBAE"/>
<path d="M12.8281 17.9775C12.8866 18.6035 12.8866 19.5228 12.8281 19.9531H15.1087C15.0502 19.4641 15.0502 18.5057 15.1087 17.9775H12.8281Z" fill="#06BBAE"/>
<path d="M15.6934 17.9775C15.7518 18.6035 15.7518 19.5228 15.6934 19.9531H17.9739C17.9154 19.4641 17.9154 18.5057 17.9739 17.9775H15.6934Z" fill="#06BBAE"/>
</svg>
