<svg width="149" height="55" viewBox="0 0 149 55" fill="none" xmlns="http://www.w3.org/2000/svg">
<path d="M0.328125 9.90292C4.71162 6.65435 9.74452 5.19251 14.9398 5.35494C20.6221 5.51736 26.3044 7.62893 30.6879 11.6896C30.0385 12.5018 29.2267 13.3139 28.5773 14.1261C24.6809 10.5526 19.8103 8.76594 14.9398 8.60351C9.74452 8.44108 4.38692 10.3902 0.328125 14.2885V9.90292ZM33.6102 14.7758C35.5584 17.3746 36.8573 20.2984 37.669 23.3845C37.8314 24.0342 37.9937 24.6839 38.1561 25.3336C38.6431 28.7446 38.4808 32.3181 37.5067 35.7291L34.422 34.917C35.2337 31.9932 35.3961 28.9071 34.909 25.9834C34.7467 25.3337 34.7467 24.8464 34.5843 24.1966C33.9349 21.7602 32.9608 19.4862 31.4997 17.5371C32.1491 16.5625 32.9608 15.7504 33.6102 14.7758Z" fill="white"/>
<path d="M20.6187 27.4457C16.7222 30.6942 12.9881 31.8313 9.25405 27.6081L8.60464 26.9584C8.44229 26.796 8.44229 26.796 8.27994 26.6335L8.11758 26.4711L7.14347 25.4965L0 18.3497V13.9641L9.7411 24.0347C12.1764 26.6335 14.6117 25.659 17.2093 23.2225C19.1575 21.4358 21.1057 18.837 23.2163 16.2381C29.7104 8.11667 37.9903 -0.167197 49.5173 0.807376C32.6327 6.81724 30.1974 17.2127 20.6187 27.4457Z" fill="white"/>
<path d="M32.4721 38.0029C33.2839 37.0283 34.745 37.0283 35.7191 38.0029C36.6932 38.815 36.6932 40.2769 35.7191 41.2515C34.745 42.226 33.4462 42.226 32.4721 41.2515C31.6603 40.4393 31.6603 38.9775 32.4721 38.0029Z" fill="white"/>
<path d="M28.5808 44.0132C29.2302 43.3635 30.3667 43.3635 31.0161 44.0132C31.6655 44.6629 31.6655 45.7999 31.0161 46.4496C30.3667 47.0993 29.2302 47.0993 28.5808 46.4496C27.9314 45.7999 27.9314 44.6629 28.5808 44.0132Z" fill="white"/>
<path d="M23.5411 47.9114C24.0281 47.4242 25.0022 47.2617 25.4893 47.9114C25.9763 48.3987 26.1387 49.3733 25.4893 49.8606C25.0022 50.3479 24.0281 50.5103 23.5411 49.8606C23.054 49.3733 23.054 48.5612 23.5411 47.9114Z" fill="white"/>
<path d="M0.164062 21.4355L9.0934 31.0188C13.6393 35.2419 17.8604 33.4552 21.7568 29.7193C24.1921 27.4453 26.465 24.3592 28.9003 21.4355C29.3874 20.7858 29.8744 20.136 30.5238 19.4863C31.4979 20.9482 32.1473 22.5725 32.472 24.1968C32.472 24.5216 32.6344 24.684 32.6344 25.0089C30.1991 28.095 27.9262 31.0188 25.3286 33.4552C19.971 38.4905 14.2887 40.602 7.79459 33.9425L0.164062 25.9835V21.4355Z" fill="white"/>
<path d="M18.349 49.6985C18.8361 49.2112 19.6478 49.2112 20.1349 49.6985C20.6219 50.1858 20.6219 50.9979 20.1349 51.4852C19.6478 51.9725 18.8361 51.9725 18.349 51.4852C18.0243 50.9979 18.0243 50.1858 18.349 49.6985Z" fill="white"/>
<path d="M12.9896 50.3479C13.4767 49.8606 14.1261 49.8606 14.6131 50.3479C15.1002 50.8352 15.1002 51.4849 14.6131 51.9722C14.1261 52.4595 13.4767 52.4595 12.9896 51.9722C12.6649 51.4849 12.6649 50.8352 12.9896 50.3479Z" fill="white"/>
<path d="M58.9365 25.6582C57.8 25.6582 56.9883 26.4703 56.9883 27.4449C56.9883 28.4195 57.8 29.2316 58.9365 29.2316C60.073 29.2316 60.8847 28.4195 60.8847 27.4449C60.8847 26.4703 60.073 25.6582 58.9365 25.6582Z" fill="white"/>
<path d="M63.1592 25.6582C62.0227 25.6582 61.2109 26.4703 61.2109 27.4449C61.2109 28.4195 62.0227 29.2316 63.1592 29.2316C64.2956 29.2316 65.1074 28.4195 65.1074 27.4449C64.945 26.4703 64.2956 25.6582 63.1592 25.6582Z" fill="white"/>
<path d="M85.4013 25.6582C84.2649 25.6582 83.4531 26.4703 83.4531 27.4449C83.4531 28.4195 84.2649 29.2316 85.4013 29.2316C86.5378 29.2316 87.3496 28.4195 87.3496 27.4449C87.1872 26.3079 86.5378 25.6582 85.4013 25.6582Z" fill="white"/>
<path d="M89.456 25.6582C88.3196 25.6582 87.5078 26.4703 87.5078 27.4449C87.5078 28.4195 88.3196 29.2316 89.456 29.2316C90.5925 29.2316 91.4043 28.4195 91.4043 27.4449C91.4043 26.3079 90.7548 25.6582 89.456 25.6582Z" fill="white"/>
<path d="M87.5107 28.9077C86.3743 28.9077 85.5625 29.7198 85.5625 30.6944C85.5625 31.669 86.3743 32.4811 87.5107 32.4811C88.6472 32.4811 89.4589 31.669 89.4589 30.6944C89.2966 29.7198 88.6472 28.9077 87.5107 28.9077Z" fill="white"/>
<path d="M93.1897 19.8112V12.502H89.618V18.9991C89.618 20.461 89.2933 21.1107 88.1568 21.1107H82.4745V12.502H76.1428C73.2204 12.502 70.7852 14.6135 70.7852 18.3494C70.7852 21.7604 72.8957 24.1968 75.6557 24.1968H78.7404C78.4157 25.8211 77.2792 26.4708 75.8181 26.4708C74.3569 26.4708 73.2204 25.9835 72.4087 25.6587L71.7593 28.42C72.7334 29.0697 74.3569 29.2321 75.9804 29.2321C77.7663 29.2321 79.3898 28.9072 80.6886 27.7702C81.6627 26.9581 82.1498 25.6587 82.3121 24.1968H89.2933C90.4297 24.1968 91.4038 23.872 92.0532 23.2223C92.865 22.5725 93.1897 21.4355 93.1897 19.8112ZM78.9027 21.1107H76.7922C75.331 21.1107 74.3569 19.9737 74.3569 18.3494C74.3569 16.2378 75.331 15.5881 76.7922 15.5881H78.7404V21.1107H78.9027Z" fill="white"/>
<path d="M68.191 19.8116V12.5023H64.6193V18.9994C64.6193 20.4613 64.2946 21.111 63.1581 21.111H59.424C58.1252 21.111 57.6381 20.1364 57.6381 18.3497V8.1167H54.0664V19.1619C54.0664 22.7353 55.8523 24.1971 58.1252 24.1971H64.4569C65.5934 24.1971 66.5675 23.8723 67.2169 23.2226C67.8663 22.5729 68.191 21.4358 68.191 19.8116Z" fill="white"/>
<path d="M148.39 25.0088H96.7617V25.1712H148.39V25.0088Z" fill="white"/>
<path d="M55.6899 46.2872C55.5276 46.4496 55.5276 46.6121 55.5276 46.9369C55.5276 47.0993 55.3652 47.4242 55.3652 47.5866C55.3652 47.7491 55.3652 47.9115 55.3652 47.9115C55.3652 48.0739 55.3652 48.0739 55.5276 48.2364C55.5276 48.3988 55.6899 48.3988 55.8523 48.3988C56.0146 48.3988 56.177 48.3988 56.3393 48.3988H57.8005V46.7745C57.8005 46.4496 57.8005 46.1248 57.9628 45.7999C58.1252 45.4751 58.1252 45.3126 58.4499 45.1502C58.6123 44.9878 58.937 44.8254 59.0993 44.6629C59.424 44.5005 59.7487 44.5005 60.0734 44.5005H61.2099C61.3722 44.5005 61.3722 44.5005 61.5346 44.5005C61.6969 44.5005 61.6969 44.6629 61.6969 44.6629C61.6969 44.6629 61.8593 44.8254 61.8593 44.9878C61.8593 45.1502 61.8593 45.1502 61.8593 45.3126V48.2364H62.8334V49.6982H61.2099C61.0475 49.6982 61.0475 49.6982 60.8852 49.6982C60.7228 49.6982 60.7228 49.5358 60.7228 49.5358L60.5605 49.3733C60.5605 49.2109 60.5605 49.2109 60.5605 49.0485V45.9624H60.3981H60.2358C60.0734 45.9624 60.0734 45.9624 59.9111 45.9624C59.7487 45.9624 59.7487 45.9623 59.7487 46.1248L59.5864 46.2872C59.5864 46.4496 59.5864 46.4496 59.5864 46.6121V48.8861C59.5864 49.0485 59.5864 49.0485 59.5864 49.2109C59.5864 49.3734 59.424 49.3734 59.424 49.5358L59.2617 49.6982C59.0993 49.6982 59.0993 49.6982 58.937 49.6982H56.664C56.177 49.6982 55.8523 49.6982 55.5276 49.5358C55.2029 49.3734 54.8782 49.2109 54.7158 49.0485C54.5535 48.8861 54.3911 48.5612 54.2288 48.2364C54.0664 47.9115 54.0664 47.5866 54.0664 47.2618C54.0664 47.0993 54.0664 46.9369 54.0664 46.7745C54.0664 46.6121 54.0664 46.4496 54.2288 46.2872C54.2288 46.1248 54.3911 45.9624 54.3911 45.7999C54.3911 45.6375 54.5535 45.4751 54.5535 45.3126L55.6899 46.2872Z" fill="white"/>
<path d="M62.6702 48.3987H63.8066V42.5513H65.2678V49.2109C65.2678 49.3733 65.2678 49.3733 65.2678 49.5357C65.2678 49.6981 65.1054 49.6981 65.1054 49.8606C65.1054 49.8606 64.9431 50.023 64.7807 50.023C64.6184 50.023 64.6184 50.023 64.456 50.023H62.5078V48.3987H62.6702Z" fill="white"/>
<path d="M69.164 50.0232H67.2158C67.0535 50.0232 67.0535 50.0232 66.8911 50.0232C66.7288 50.0232 66.7288 49.8607 66.7288 49.8607L66.5664 49.6983C66.5664 49.5359 66.5664 49.5359 66.5664 49.3734V42.7139H68.0276V48.5613H69.164V50.0232Z" fill="white"/>
<path d="M71.5998 48.3985H73.548V46.1244C73.3857 46.1244 73.2233 46.1244 73.061 46.1244C72.8986 46.1244 72.7363 46.1244 72.7363 46.1244H72.5739C72.4116 46.1244 72.4116 46.1245 72.2492 46.2869C72.0869 46.2869 72.0869 46.4493 71.9245 46.4493C71.7622 46.6117 71.7622 46.6117 71.7622 46.7742C71.7622 46.9366 71.7622 46.9366 71.7622 47.099V48.3985H71.5998ZM69.0022 48.3985H69.9763V47.099C69.9763 46.7742 69.9763 46.4493 70.1387 46.2869C70.301 46.1245 70.4634 45.7996 70.6257 45.4747C70.7881 45.3123 71.1128 44.9874 71.4375 44.825C71.7622 44.6626 72.0869 44.6626 72.4116 44.6626C72.7363 44.6626 73.061 44.6626 73.2233 44.6626C73.548 44.6626 73.8728 44.6626 74.1975 44.6626C74.3598 44.6626 74.3598 44.6626 74.5222 44.6626C74.6845 44.6626 74.6845 44.825 74.6845 44.825L74.8469 44.9875C74.8469 45.1499 74.8469 45.1499 74.8469 45.3123V49.0482C74.8469 49.2106 74.8469 49.2106 74.8469 49.373C74.8469 49.5354 74.6845 49.5354 74.6845 49.6979L74.5222 49.8603C74.3598 49.8603 74.3598 49.8603 74.1975 49.8603H68.8398V48.3985H69.0022Z" fill="white"/>
<path d="M81.665 44.0133C81.665 43.8509 81.665 43.8509 81.665 43.6885C81.665 43.526 81.8274 43.526 81.8274 43.3636C81.8274 43.3636 81.9897 43.2012 82.1521 43.2012C82.3144 43.2012 82.3144 43.2012 82.4768 43.2012C82.6391 43.2012 82.6391 43.2012 82.8015 43.2012C82.9638 43.2012 82.9638 43.3636 83.1262 43.3636C83.1262 43.3636 83.2885 43.526 83.2885 43.6885C83.2885 43.8509 83.2885 43.8509 83.2885 44.0133C83.2885 44.1757 83.2885 44.1758 83.2885 44.3382C83.2885 44.5006 83.1262 44.5006 83.1262 44.663C83.1262 44.663 82.9638 44.8255 82.8015 44.8255C82.6391 44.8255 82.6391 44.8255 82.4768 44.8255C82.3144 44.8255 82.3144 44.8255 82.1521 44.8255C81.9897 44.8255 81.9897 44.663 81.8274 44.663C81.8274 44.663 81.665 44.5006 81.665 44.3382C81.665 44.1758 81.665 44.1757 81.665 44.0133ZM79.8791 44.0133C79.8791 43.8509 79.8791 43.8509 79.8791 43.6885C79.8791 43.526 80.0415 43.526 80.0415 43.3636C80.0415 43.3636 80.2038 43.2012 80.3662 43.2012C80.5285 43.2012 80.5285 43.2012 80.6909 43.2012C80.8532 43.2012 80.8532 43.2012 81.0156 43.2012C81.1779 43.2012 81.1779 43.3636 81.3403 43.3636C81.3403 43.3636 81.5027 43.526 81.5027 43.6885C81.5027 43.8509 81.5027 43.8509 81.5027 44.0133C81.5027 44.1757 81.5027 44.1758 81.5027 44.3382C81.5027 44.5006 81.3403 44.5006 81.3403 44.663C81.3403 44.663 81.1779 44.8255 81.0156 44.8255C80.8532 44.8255 80.8532 44.8255 80.6909 44.8255C80.5285 44.8255 80.5285 44.8255 80.3662 44.8255C80.2038 44.8255 80.2038 44.663 80.0415 44.663C80.0415 44.663 79.8791 44.5006 79.8791 44.3382C79.8791 44.3382 79.8791 44.1757 79.8791 44.0133ZM85.3991 44.8255V49.2111C85.3991 49.3735 85.3991 49.3735 85.3991 49.5359C85.3991 49.6983 85.2367 49.6983 85.2367 49.6983L85.0744 49.8608C85.0744 49.8608 84.912 49.8608 84.7497 49.8608H81.0156C80.5285 49.8608 80.2038 49.8607 79.8791 49.6983C79.5544 49.5359 79.2297 49.3735 79.0674 49.2111C78.905 49.0486 78.7427 48.7238 78.5803 48.3989C78.418 48.0741 78.418 47.7492 78.418 47.5868C78.418 47.4243 78.418 47.2619 78.418 47.0995C78.418 46.937 78.418 46.7746 78.5803 46.6122C78.5803 46.4498 78.7427 46.2873 78.7427 46.1249C78.7427 45.9625 78.905 45.8 78.905 45.6376L80.2038 46.2873C80.0415 46.4498 80.0415 46.6122 80.0415 46.937C80.0415 47.0995 79.8791 47.4243 79.8791 47.5868C79.8791 47.7492 79.8791 47.9116 79.8791 47.9116C79.8791 48.074 79.8791 48.074 80.0415 48.2365C80.0415 48.3989 80.2038 48.3989 80.3662 48.3989C80.5285 48.3989 80.6909 48.3989 80.8532 48.3989C81.3403 48.3989 81.8274 48.3989 82.3144 48.3989C82.8015 48.3989 83.2885 48.3989 83.7756 48.3989V44.8255H85.3991Z" fill="white"/>
<path d="M88.9687 50.0232H87.0205C86.8581 50.0232 86.8581 50.0232 86.6958 50.0232C86.5334 50.0232 86.5334 49.8607 86.5334 49.8607L86.3711 49.6983C86.3711 49.5359 86.3711 49.5359 86.3711 49.3734V42.7139H87.8323V48.5613H88.9687V50.0232Z" fill="white"/>
<path d="M90.2698 48.3985L90.1074 48.236C90.1074 48.0736 89.9451 48.0736 89.9451 47.9112C89.9451 47.7487 89.9451 47.7487 89.7827 47.5863C89.7827 47.4239 89.7827 47.4239 89.7827 47.2614C89.7827 46.9366 89.7827 46.6117 89.9451 46.2869C90.1074 45.962 90.2698 45.6372 90.4321 45.4747C90.5945 45.1499 90.9192 44.9874 91.2439 44.825C91.5686 44.6626 91.8933 44.6626 92.3803 44.6626H94.6533V46.1244H92.3803C92.218 46.1244 92.0556 46.1245 91.8933 46.2869C91.7309 46.2869 91.5686 46.4493 91.5686 46.6117C91.4062 46.7742 91.4062 46.7742 91.4062 46.9366C91.4062 47.099 91.2439 47.2615 91.2439 47.4239C91.2439 47.5863 91.2439 47.7487 91.4062 47.9112C91.4062 48.0736 91.5686 48.236 91.5686 48.236C91.7309 48.3985 91.7309 48.3984 91.8933 48.5609C92.0556 48.5609 92.218 48.7233 92.3803 48.7233H94.8156V50.1852H88.8086V48.7233H90.2698V48.3985Z" fill="white"/>
<path d="M102.119 50.023H100.496C100.333 50.023 100.171 50.023 100.008 49.8606C99.8461 50.023 99.5214 50.023 99.1967 50.1854C98.872 50.3478 98.7097 50.3478 98.385 50.5103C98.0603 50.5103 97.8979 50.6727 97.5732 50.6727C97.2485 50.6727 97.0862 50.8351 96.7615 50.8351L96.4368 49.3733C96.7615 49.3733 96.9238 49.3733 97.2485 49.2109C97.4109 49.2109 97.7356 49.0484 97.8979 49.0484C97.8979 48.886 97.8979 48.7236 97.8979 48.5611C97.8979 48.3987 97.8979 48.2363 97.8979 48.0738C97.8979 47.749 97.7356 47.2617 97.5732 46.9368C97.4109 46.612 97.2485 46.1247 97.0862 45.7998C96.9238 45.475 96.7615 44.9877 96.4368 44.6628C96.2744 44.338 95.9497 44.0131 95.625 43.6883L96.7615 42.5513C97.0862 42.8761 97.4109 43.3634 97.7356 43.6883C98.0603 44.1756 98.2226 44.5004 98.5473 44.9877C98.7097 45.475 98.872 45.9623 99.0344 46.2871C99.1967 46.7744 99.1967 47.2617 99.3591 47.5866C99.3591 47.749 99.3591 47.749 99.3591 47.9114C99.3591 48.0738 99.3591 48.0738 99.3591 48.2363H99.5214C99.5214 48.2363 99.5214 48.2363 99.6838 48.2363V42.5513H101.145V48.3987H102.119V50.023Z" fill="white"/>
<path d="M106.186 46.1247C106.024 46.1247 105.861 46.1247 105.537 46.1247C105.374 46.1247 105.212 46.2871 105.05 46.2871C104.887 46.4496 104.725 46.4496 104.725 46.612C104.562 46.7744 104.562 46.9368 104.562 47.0993V48.0738H107.81V45.7998C107.322 45.7998 106.835 45.7998 106.673 45.7998C106.348 46.1247 106.186 46.1247 106.186 46.1247ZM104.562 45.3126C104.725 45.1501 104.887 44.9877 105.212 44.8253C105.537 44.6628 105.861 44.6628 106.186 44.6628H108.459C108.621 44.6628 108.621 44.6628 108.784 44.6628C108.946 44.6628 108.946 44.8253 108.946 44.8253L109.108 44.9877C109.108 45.1501 109.108 45.1501 109.108 45.3126V49.0484C109.108 49.2108 109.108 49.2108 109.108 49.3733C109.108 49.5357 108.946 49.5357 108.946 49.6981L108.784 49.8606C108.621 49.8606 108.621 49.8606 108.459 49.8606H101.965V48.3987H102.939V42.5513H104.4V45.3126H104.562Z" fill="white"/>
<path d="M111.864 42.5513H110.402V50.023H111.864V42.5513Z" fill="white"/>
<path d="M122.899 43.3633C122.899 43.2009 122.899 43.2009 122.899 43.0385C122.899 42.8761 123.061 42.8761 123.061 42.7136C123.061 42.7136 123.224 42.5512 123.386 42.5512C123.548 42.5512 123.549 42.5512 123.711 42.5512C123.873 42.5512 123.873 42.5512 124.036 42.5512C124.198 42.5512 124.198 42.7136 124.36 42.7136C124.36 42.7136 124.523 42.8761 124.523 43.0385C124.523 43.2009 124.523 43.2009 124.523 43.3633C124.523 43.5258 124.523 43.5258 124.523 43.6882C124.523 43.8506 124.36 43.8506 124.36 44.0131C124.36 44.0131 124.198 44.1755 124.036 44.1755C123.873 44.1755 123.873 44.1755 123.711 44.1755C123.549 44.1755 123.548 44.1755 123.386 44.1755C123.224 44.1755 123.224 44.0131 123.061 44.0131C122.899 44.0131 122.899 43.8506 122.899 43.6882C122.899 43.6882 122.899 43.5258 122.899 43.3633ZM121.925 41.9015C121.925 41.7391 121.925 41.7391 121.925 41.5766C121.925 41.4142 122.087 41.4142 122.087 41.2518C122.087 41.2518 122.25 41.0894 122.412 41.0894C122.574 41.0894 122.574 41.0894 122.737 41.0894C122.899 41.0894 122.899 41.0894 123.061 41.0894C123.224 41.0894 123.224 41.2518 123.386 41.2518C123.386 41.2518 123.549 41.4142 123.549 41.5766C123.549 41.7391 123.549 41.7391 123.549 41.9015C123.549 42.0639 123.549 42.0639 123.549 42.2264C123.549 42.3888 123.386 42.3888 123.386 42.5512C123.386 42.7136 123.224 42.7136 123.061 42.7136C122.899 42.7136 122.899 42.7136 122.737 42.7136C122.574 42.7136 122.574 42.7136 122.412 42.7136C122.25 42.7136 122.25 42.5512 122.087 42.5512C122.087 42.5512 121.925 42.3888 121.925 42.2264C121.925 42.0639 121.925 42.0639 121.925 41.9015ZM120.951 43.3633C120.951 43.2009 120.951 43.2009 120.951 43.0385C120.951 42.8761 121.113 42.8761 121.113 42.7136C121.113 42.7136 121.276 42.5512 121.438 42.5512C121.6 42.5512 121.6 42.5512 121.763 42.5512C121.925 42.5512 121.925 42.5512 122.087 42.5512C122.25 42.5512 122.25 42.7136 122.412 42.7136C122.412 42.7136 122.574 42.8761 122.574 43.0385C122.574 43.2009 122.574 43.2009 122.574 43.3633C122.574 43.5258 122.574 43.5258 122.574 43.6882C122.574 43.8506 122.412 43.8506 122.412 44.0131C122.412 44.1755 122.25 44.1755 122.087 44.1755C121.925 44.1755 121.925 44.1755 121.763 44.1755C121.6 44.1755 121.6 44.1755 121.438 44.1755C121.276 44.1755 121.276 44.0131 121.113 44.0131C120.951 44.0131 120.951 43.8506 120.951 43.6882C120.951 43.6882 120.951 43.5258 120.951 43.3633ZM117.054 47.0992V49.3732C117.054 49.5356 117.054 49.6981 117.217 49.8605C117.217 50.0229 117.379 50.0229 117.541 50.1853C117.704 50.3478 117.704 50.3478 117.866 50.3478C118.029 50.3478 118.191 50.3478 118.353 50.3478C118.516 50.3478 118.678 50.3478 118.84 50.3478C119.003 50.3478 119.165 50.1853 119.165 50.1853C119.327 50.0229 119.327 50.0229 119.49 49.8605C119.49 49.6981 119.652 49.5356 119.652 49.3732V44.8252H121.113V48.3986H122.25V44.8252H123.711V48.3986H124.847V44.8252H126.308V49.2108C126.308 49.3732 126.308 49.3732 126.308 49.5356C126.308 49.6981 126.146 49.6981 126.146 49.6981L125.984 49.8605C125.984 49.8605 125.821 49.8605 125.659 49.8605H121.113C121.113 50.1854 120.951 50.5102 120.789 50.6726C120.626 50.9975 120.464 51.1599 120.139 51.3223C119.977 51.4848 119.652 51.6472 119.327 51.6472C119.003 51.8096 118.678 51.8096 118.516 51.8096C118.191 51.8096 117.866 51.8096 117.541 51.6472C117.217 51.4848 116.892 51.3224 116.73 51.1599C116.567 50.9975 116.243 50.6726 116.08 50.3478C115.918 50.0229 115.918 49.6981 115.918 49.2108V46.9368H117.054V47.0992Z" fill="white"/>
<path d="M128.421 43.8502C128.421 43.6878 128.421 43.6878 128.421 43.5254C128.421 43.3629 128.583 43.3629 128.583 43.2005C128.583 43.0381 128.746 43.0381 128.908 43.0381C129.07 43.0381 129.07 43.0381 129.233 43.0381C129.395 43.0381 129.395 43.0381 129.557 43.0381C129.72 43.0381 129.72 43.2005 129.882 43.2005C130.044 43.2005 130.044 43.3629 130.044 43.5254C130.044 43.6878 130.044 43.6878 130.044 43.8502C130.044 44.0127 130.044 44.0127 130.044 44.1751C130.044 44.3375 129.882 44.3375 129.882 44.4999C129.882 44.6624 129.72 44.6624 129.557 44.6624C129.395 44.6624 129.395 44.6624 129.233 44.6624C129.07 44.6624 129.07 44.6624 128.908 44.6624C128.746 44.6624 128.746 44.4999 128.583 44.4999C128.421 44.4999 128.421 44.3375 128.421 44.1751C128.421 44.0127 128.421 43.8502 128.421 43.8502ZM130.044 45.4745C130.044 45.7994 130.044 46.2867 130.044 46.6115C130.044 46.9364 130.044 47.4237 130.044 47.7485C130.044 48.0734 130.044 48.3982 130.044 48.7231C130.044 49.0479 130.044 49.3728 129.882 49.6976C129.72 50.1849 129.72 50.5098 129.557 50.8347C129.395 51.1595 129.233 51.4844 128.908 51.8092C128.583 52.1341 128.259 52.2965 127.934 52.459C127.447 52.6214 126.96 52.6214 126.473 52.6214V51.1595C126.797 51.1595 127.122 51.1595 127.284 50.9971C127.447 50.8347 127.771 50.8347 127.934 50.6722C128.096 50.5098 128.259 50.3474 128.259 50.0225C128.421 49.8601 128.421 49.5352 128.421 49.2104C128.421 48.8855 128.583 48.7231 128.583 48.3982C128.583 48.0734 128.583 47.7485 128.583 47.5861C128.583 47.2612 128.583 46.7739 128.583 46.4491C128.583 46.1242 128.583 45.6369 128.583 45.3121H130.044V45.4745Z" fill="white"/>
<path d="M132.485 42.5513H131.023V50.023H132.485V42.5513Z" fill="white"/>
<path d="M134.268 44.6626C135.08 44.6626 135.891 44.6626 136.541 44.9875C137.19 45.1499 137.677 45.4747 138.002 45.7996C138.327 46.1245 138.489 46.6117 138.651 47.2614C138.814 47.9112 138.814 48.5609 138.814 49.2106C138.814 49.373 138.814 49.373 138.814 49.5355C138.814 49.6979 138.651 49.6979 138.651 49.6979L138.489 49.8603C138.327 49.8603 138.327 49.8603 138.164 49.8603H134.105V48.3985H137.515C137.515 48.0736 137.353 47.7487 137.353 47.4239C137.353 47.099 137.19 46.9366 137.028 46.7742C136.865 46.6117 136.541 46.4493 136.216 46.2869C135.891 46.1245 135.242 46.1244 134.593 46.1244L134.268 44.6626Z" fill="white"/>
<path d="M142.707 45.6372C142.707 45.9621 142.707 46.2869 142.707 46.7742C142.707 47.0991 142.707 47.5864 142.707 47.9112C142.707 48.0737 142.707 48.0736 142.707 48.2361C142.707 48.3985 142.707 48.3985 142.707 48.5609H143.518V50.0228H142.382C142.22 50.5101 142.22 50.8349 142.057 51.1598C141.895 51.4847 141.733 51.8095 141.408 52.1344C141.083 52.4592 140.759 52.6217 140.434 52.7841C140.109 52.9465 139.622 52.9465 138.973 52.9465V51.4846C139.297 51.4846 139.622 51.4846 139.784 51.3222C139.947 51.1598 140.271 51.1598 140.434 50.9974C140.596 50.8349 140.759 50.6725 140.759 50.3477C140.759 50.0228 140.921 49.8604 140.921 49.5355C140.921 49.2107 141.083 49.0482 141.083 48.7234C141.083 48.3985 141.083 48.0737 141.083 47.9112C141.083 47.5864 141.083 47.0991 141.083 46.7742C141.083 46.4494 141.083 45.9621 141.083 45.6372H142.707Z" fill="white"/>
<path d="M145.799 51.3223C145.799 51.1599 145.961 51.1599 145.961 50.9975C145.961 50.8351 146.123 50.8351 146.286 50.8351C146.448 50.8351 146.448 50.8351 146.61 50.8351C146.773 50.8351 146.773 50.8351 146.935 50.8351C147.097 50.8351 147.097 50.9975 147.26 50.9975C147.26 50.9975 147.422 51.1599 147.422 51.3223C147.422 51.4848 147.422 51.4848 147.422 51.6472C147.422 51.8096 147.422 51.8096 147.422 51.9721C147.422 52.1345 147.26 52.1345 147.26 52.2969C147.26 52.2969 147.097 52.4594 146.935 52.4594C146.773 52.4594 146.773 52.4594 146.61 52.4594C146.448 52.4594 146.448 52.4594 146.286 52.4594C146.123 52.4594 146.123 52.2969 145.961 52.2969C145.799 52.2969 145.799 52.1345 145.799 51.9721C145.799 51.8096 145.799 51.8096 145.799 51.6472C145.799 51.4848 145.799 51.4848 145.799 51.3223ZM144.824 52.9466C144.824 52.7842 144.987 52.7842 144.987 52.6218C144.987 52.4593 145.149 52.4594 145.311 52.4594C145.474 52.4594 145.474 52.4594 145.636 52.4594C145.799 52.4594 145.799 52.4594 145.961 52.4594C146.123 52.4594 146.123 52.6218 146.286 52.6218C146.286 52.6218 146.448 52.7842 146.448 52.9466C146.448 53.1091 146.448 53.1091 146.448 53.2715C146.448 53.4339 146.448 53.4339 146.448 53.5964C146.448 53.7588 146.286 53.7588 146.286 53.9212C146.286 53.9212 146.123 54.0837 145.961 54.0837C145.799 54.0837 145.799 54.0837 145.636 54.0837C145.474 54.0837 145.474 54.0837 145.311 54.0837C145.149 54.0837 145.149 53.9212 144.987 53.9212C144.987 53.9212 144.824 53.7588 144.824 53.5964C144.824 53.4339 144.824 53.4339 144.824 53.2715C144.824 53.1091 144.824 52.9466 144.824 52.9466ZM143.85 51.3223C143.85 51.1599 144.013 51.1599 144.013 50.9975C144.013 50.8351 144.175 50.8351 144.337 50.8351C144.5 50.8351 144.5 50.8351 144.662 50.8351C144.824 50.8351 144.824 50.8351 144.987 50.8351C145.149 50.8351 145.149 50.9975 145.311 50.9975C145.474 50.9975 145.474 51.1599 145.474 51.3223C145.474 51.4848 145.474 51.4848 145.474 51.6472C145.474 51.8096 145.474 51.8096 145.474 51.9721C145.474 52.1345 145.311 52.1345 145.311 52.2969C145.311 52.4594 145.149 52.4594 144.987 52.4594C144.824 52.4594 144.824 52.4594 144.662 52.4594C144.5 52.4594 144.5 52.4594 144.337 52.4594C144.175 52.4594 144.175 52.2969 144.013 52.2969C143.85 52.2969 143.85 52.1345 143.85 51.9721C143.85 51.8096 143.85 51.8096 143.85 51.6472C143.85 51.4848 143.85 51.4848 143.85 51.3223ZM143.363 48.3986H145.799V44.8252H147.26V49.0484C147.26 49.2108 147.26 49.2108 147.26 49.3732C147.26 49.5356 147.097 49.5356 147.097 49.5356L146.935 49.6981C146.773 49.6981 146.773 49.6981 146.61 49.6981H143.363V48.3986Z" fill="white"/>
</svg>
