<svg width="164" height="50" viewBox="0 0 164 50" fill="none" xmlns="http://www.w3.org/2000/svg">
<path d="M61.1025 38.3617C61.1025 38.5242 61.1025 38.5242 60.9402 38.6866C60.9402 38.849 60.9402 38.849 60.9402 39.0115V39.1739C60.9402 39.1739 60.9402 39.3363 61.1025 39.3363L61.2649 39.4987C61.4272 39.4987 61.4272 39.4987 61.5896 39.4987H61.9143H62.239H62.4013H62.5637H62.7261H62.8884C62.8884 39.4987 62.8884 39.4987 62.8884 39.3363V39.1739V39.0115C62.8884 39.0115 62.8884 38.849 62.7261 38.849C62.7261 38.849 62.5637 38.849 62.5637 38.6866C62.5637 38.5242 62.4013 38.6866 62.4013 38.5242C62.239 38.5242 62.0766 38.3617 62.0766 38.3617C61.9143 38.3617 61.9143 38.1993 61.7519 38.1993C61.5896 38.1993 61.5896 38.0369 61.5896 37.8745C61.5896 37.712 61.4272 37.5496 61.4272 37.3872C61.4272 37.2247 61.4272 37.0623 61.5896 36.8999C61.5896 36.7375 61.7519 36.575 61.9143 36.575C62.0766 36.4126 62.239 36.4126 62.4013 36.4126C62.5637 36.4126 62.726 36.4126 62.8884 36.4126C63.0508 36.4126 63.2131 36.4126 63.3755 36.4126C63.5378 36.4126 63.7002 36.575 63.8625 36.575L63.5378 37.2247C63.5378 37.2247 63.3755 37.2247 63.2131 37.0623C63.0508 37.0623 63.0508 37.0623 62.8884 37.0623C62.726 37.0623 62.7261 37.0623 62.7261 37.0623C62.7261 37.0623 62.5637 37.0623 62.5637 37.2247L62.4013 37.3872C62.4013 37.3872 62.4013 37.5496 62.4013 37.712V37.8745C62.4013 37.8745 62.4013 37.8745 62.5637 38.0369H62.7261H62.8884C62.8884 38.0369 63.0508 38.0369 63.0508 38.1993C63.0508 38.3617 63.2131 38.1993 63.2131 38.3617L63.3755 38.5242L63.5378 38.6866C63.5378 38.849 63.7002 38.849 63.7002 39.0115C63.7002 39.1739 63.7002 39.1739 63.7002 39.3363C63.7002 39.4987 63.7002 39.6612 63.7002 39.6612C63.7002 39.8236 63.5378 39.8236 63.5378 39.986C63.3755 40.1485 63.3755 40.1485 63.2131 40.1485C63.0508 40.1485 62.8884 40.3109 62.7261 40.3109H61.7519C61.4272 40.3109 61.2649 40.3109 61.1025 40.1485C60.9402 39.986 60.7778 39.986 60.6155 39.8236C60.4531 39.6612 60.4531 39.4987 60.4531 39.3363C60.4531 39.1739 60.4531 39.0115 60.4531 38.849C60.4531 38.6866 60.4531 38.6866 60.4531 38.5242C60.4531 38.3617 60.4531 38.3617 60.4531 38.1993C60.4531 38.0369 60.4531 38.0369 60.4531 38.0369C60.4531 38.0369 60.4531 37.8745 60.6155 37.8745L61.1025 38.3617Z" fill="white"/>
<path d="M65.8093 38.3619C65.8093 38.5244 65.8093 38.6868 65.8093 38.8492C65.8093 39.0116 65.8093 39.1741 65.8093 39.3365C65.8093 39.4989 65.647 39.8238 65.647 39.9862C65.4846 40.1486 65.4846 40.3111 65.3222 40.4735C65.1599 40.6359 64.9975 40.7984 64.8352 40.7984C64.6728 40.9608 64.3481 40.9608 64.0234 40.9608V40.4735C64.1858 40.4735 64.3481 40.4735 64.5105 40.3111C64.6728 40.3111 64.8352 40.1486 64.8352 40.1486C64.9975 39.9862 64.9975 39.9862 64.9975 39.8238C64.9975 39.6614 65.1599 39.4989 65.1599 39.3365C65.1599 39.1741 65.1599 39.0116 65.1599 38.8492C65.1599 38.6868 65.1599 38.5244 65.1599 38.3619C65.1599 38.1995 65.1599 37.8746 65.1599 37.7122C65.1599 37.5498 65.1599 37.2249 65.1599 37.0625H65.8093C65.8093 37.2249 65.8093 37.3874 65.8093 37.7122C65.8093 37.8746 65.8093 38.1995 65.8093 38.3619Z" fill="white"/>
<path d="M67.1064 35.4385H66.457V39.4992H67.1064V35.4385Z" fill="white"/>
<path d="M68.2427 35.9258C68.2427 35.7633 68.2427 35.7633 68.2427 35.9258C68.2427 35.7633 68.2427 35.7633 68.405 35.6009C68.405 35.6009 68.405 35.6009 68.5674 35.4385H68.7297H68.8921C68.8921 35.4385 69.0544 35.4385 69.0544 35.6009C69.0544 35.6009 69.0544 35.6009 69.2168 35.7633V35.9258V36.0882C69.2168 36.0882 69.2168 36.2506 69.0544 36.2506C69.0544 36.2506 69.0544 36.2506 68.8921 36.413H68.7297H68.5674C68.5674 36.413 68.405 36.413 68.405 36.2506C68.405 36.0882 68.405 36.0882 68.2427 35.9258ZM67.918 39.4992V38.8495H69.8662C69.8662 38.5246 69.8662 38.3622 69.7038 38.1998C69.7038 38.0373 69.5415 37.8749 69.5415 37.7125C69.3791 37.5501 69.2168 37.55 69.0544 37.3876C68.8921 37.2252 68.5674 37.2252 68.2427 37.3876V36.7379C68.405 36.7379 68.7297 36.7379 68.8921 36.7379C69.0544 36.7379 69.2168 36.7379 69.3791 36.9003C69.5415 36.9003 69.7038 37.0628 69.8662 37.0628C70.0285 37.0628 70.0285 37.2252 70.1909 37.3876C70.3532 37.55 70.5156 37.7125 70.5156 38.0373C70.5156 38.3622 70.6779 38.5246 70.6779 38.8495H71.165V39.4992H67.918Z" fill="white"/>
<path d="M72.9482 35.1131C73.1106 35.1131 73.2729 34.9507 73.5976 34.9507C73.9223 34.9507 74.0847 34.9507 74.4094 34.9507V35.2755C74.247 35.2755 74.0847 35.2755 73.76 35.2755C73.5976 35.2755 73.4353 35.438 73.1106 35.438C72.9482 35.438 72.6235 35.6004 72.2988 35.9253C72.1365 35.7628 72.1365 35.6004 72.2988 35.438C72.4612 35.2755 72.7859 35.1131 72.9482 35.1131ZM71 38.849H74.247V38.5241C74.247 38.3617 74.247 38.3617 74.247 38.1993V38.0368C74.247 38.0368 74.247 38.0368 74.0847 38.0368H73.9223H72.1365C71.9741 38.0368 71.8118 38.0368 71.8118 37.8744C71.6494 37.8744 71.6494 37.712 71.6494 37.712C71.6494 37.5496 71.6494 37.5495 71.6494 37.3871C71.6494 37.2247 71.6494 37.2247 71.8118 37.0623C71.9741 36.8998 72.1365 36.575 72.2988 36.4125C72.4612 36.2501 72.7859 36.0877 72.9482 35.9253C73.1106 35.7628 73.4353 35.7628 73.76 35.6004C74.0847 35.6004 74.247 35.6004 74.5717 35.6004V36.2501C74.4094 36.2501 74.247 36.2501 73.9223 36.2501C73.76 36.2501 73.5976 36.4125 73.2729 36.4125C73.1106 36.575 72.9482 36.575 72.7859 36.7374C72.6235 36.8998 72.4612 37.0623 72.4612 37.2247H73.76C73.9223 37.2247 74.0847 37.2247 74.247 37.2247C74.4094 37.2247 74.5717 37.2247 74.5717 37.2247C74.7341 37.2247 74.7341 37.2247 74.8964 37.3871L75.0588 37.5495C75.0588 37.712 75.0588 37.712 75.2211 37.8744C75.2211 38.0368 75.2211 38.1993 75.2211 38.3617V38.5241V38.6865V38.849V39.0114V39.1738V39.3363C75.2211 39.3363 75.2211 39.3363 75.0588 39.3363H74.8964H71.3247V38.849H71Z" fill="white"/>
<path d="M78.6355 39.4989H77.6614H77.499C77.499 39.4989 77.3367 39.4989 77.3367 39.3365C77.3367 39.3365 77.3367 39.3365 77.3367 39.174V39.0116V37.2249H76.6872C76.5249 37.2249 76.5249 37.2249 76.3625 37.2249C76.3625 37.2249 76.2002 37.2249 76.2002 37.3873L76.0378 37.5497V37.7122V38.5243C76.2002 38.5243 76.2002 38.5243 76.3625 38.5243C76.5249 38.5243 76.5249 38.5243 76.6872 38.5243C76.8496 38.5243 76.8496 38.5243 77.0119 38.5243V39.174H76.8496H76.6872C76.5249 39.174 76.3625 39.174 76.2002 39.174C76.0378 39.174 75.8755 39.174 75.7131 39.0116C75.5508 39.0116 75.5508 39.0116 75.5508 38.8492V38.6867V37.5497C75.5508 37.3873 75.5508 37.2249 75.7131 37.0625C75.7131 36.9 75.8755 36.7376 76.0378 36.5752C76.2002 36.4127 76.3625 36.4127 76.5249 36.2503C76.6872 36.2503 76.8496 36.0879 77.0119 36.0879H77.9861H78.1484C78.1484 36.0879 78.3108 36.0879 78.3108 36.2503C78.3108 36.2503 78.3108 36.4127 78.4731 36.4127V36.5752V38.3619H79.1225V39.4989H78.6355Z" fill="white"/>
<path d="M79.4468 40.4732C79.4468 40.4732 79.6091 40.3107 79.4468 40.4732C79.4468 40.3107 79.4468 40.3107 79.6091 40.1483C79.6091 40.1483 79.6091 40.1483 79.7715 39.9859H79.9338H80.0962C80.0962 39.9859 80.2585 39.9859 80.2585 40.1483C80.2585 40.1483 80.2585 40.1483 80.4209 40.3107V40.4732V40.6356C80.4209 40.6356 80.4209 40.798 80.2585 40.798C80.2585 40.798 80.2585 40.798 80.0962 40.9605H79.9338H79.7715C79.7715 40.9605 79.6091 40.9605 79.6091 40.798C79.6091 40.6356 79.6091 40.6356 79.4468 40.4732C79.6091 40.6356 79.4468 40.4732 79.4468 40.4732ZM78.635 40.4732C78.635 40.4732 78.635 40.3107 78.635 40.4732C78.635 40.3107 78.635 40.3107 78.7974 40.1483C78.7974 40.1483 78.7974 40.1483 78.9597 39.9859H79.1221H79.2844C79.2844 39.9859 79.4468 39.9859 79.4468 40.1483C79.4468 40.1483 79.4468 40.1483 79.6091 40.3107V40.4732V40.6356C79.6091 40.6356 79.6091 40.798 79.4468 40.798C79.4468 40.798 79.4468 40.798 79.2844 40.9605H79.1221H78.9597C78.9597 40.9605 78.7974 40.9605 78.7974 40.798C78.635 40.6356 78.635 40.6356 78.635 40.4732C78.635 40.6356 78.635 40.4732 78.635 40.4732ZM78.635 38.8489H79.7715V36.7373H80.4209V39.1737V39.3362V39.4986C80.4209 39.4986 80.4209 39.4986 80.2585 39.4986H80.0962H78.4727V38.8489H78.635Z" fill="white"/>
<path d="M82.5332 39.4992H81.5591H81.3967H81.2344C81.2344 39.4992 81.2344 39.4992 81.2344 39.3368V39.1743V35.4385H81.8838V38.8495H82.5332V39.4992Z" fill="white"/>
<path d="M83.6682 38.8489H84.967V37.387C84.8047 37.387 84.6423 37.387 84.6423 37.387C84.48 37.387 84.48 37.387 84.48 37.387H84.3176C84.3176 37.387 84.1553 37.387 84.1553 37.5494L83.9929 37.7119V37.8743V38.8489H83.6682ZM82.3694 38.8489H82.8564V38.0367C82.8564 37.8743 82.8564 37.8743 82.8564 37.7119C82.8564 37.5495 82.8564 37.5495 83.0188 37.387C83.0188 37.2246 83.1811 37.2246 83.1811 37.0622C83.3435 36.8997 83.3435 36.8997 83.5058 36.8997C83.6682 36.8997 83.6682 36.7373 83.8305 36.7373C83.9929 36.7373 83.9929 36.7373 84.1553 36.7373H85.1294H85.2917C85.2917 36.7373 85.2917 36.7373 85.4541 36.7373C85.4541 36.7373 85.4541 36.7373 85.4541 36.8997V37.0622V39.1737V39.3362V39.4986C85.4541 39.4986 85.4541 39.4986 85.2917 39.661H85.1294H82.207V38.8489H82.3694Z" fill="white"/>
<path d="M87.8896 37.0625C87.8896 37.2249 87.8896 37.3874 87.8896 37.7122C87.8896 37.8746 87.8896 38.1995 87.8896 38.3619C87.8896 38.5244 87.8896 38.6868 87.8896 38.8492H88.3767V39.4989H87.7273C87.7273 39.6614 87.5649 39.9862 87.5649 40.1486C87.4026 40.3111 87.4026 40.4735 87.2402 40.6359C87.0779 40.7984 86.9155 40.9608 86.7532 40.9608C86.5908 41.1232 86.2661 41.1232 85.9414 41.1232V40.4735C86.1038 40.4735 86.2661 40.4735 86.4285 40.3111C86.5908 40.3111 86.7532 40.1486 86.7532 40.1486C86.9155 39.9862 86.9155 39.9862 86.9155 39.8238C86.9155 39.6614 87.0779 39.4989 87.0779 39.3365C87.0779 39.1741 87.0779 39.0116 87.0779 38.8492C87.0779 38.6868 87.0779 38.5244 87.0779 38.3619C87.0779 38.1995 87.0779 37.8746 87.0779 37.7122C87.0779 37.5498 87.0779 37.2249 87.0779 37.0625H87.8896Z" fill="white"/>
<path d="M88.3811 38.8489H89.0305V36.7373H89.6799V38.8489H90.4917V36.7373H91.1411V38.8489H91.9528V36.7373H92.6022V39.1737V39.3362V39.4986C92.6022 39.4986 92.6022 39.4986 92.4399 39.4986H92.2775H91.1411V39.1737C91.1411 39.1737 91.1411 39.3362 90.9787 39.3362H90.8164H89.6799V39.0113C89.6799 39.0113 89.6799 39.1737 89.5176 39.1737H89.3552H88.2188V38.8489H88.3811Z" fill="white"/>
<path d="M96.1648 38.3619C96.1648 38.5244 96.1648 38.6868 96.1648 38.8492C96.1648 39.0116 96.1648 39.1741 96.1648 39.3365C96.1648 39.4989 96.0024 39.8238 96.0024 39.9862C95.8401 40.1486 95.8401 40.3111 95.6777 40.4735C95.5154 40.6359 95.353 40.7984 95.1907 40.7984C95.0283 40.9608 94.7036 40.9608 94.3789 40.9608V40.4735C94.5413 40.4735 94.7036 40.4735 94.866 40.3111C95.0283 40.3111 95.1907 40.1486 95.1907 40.1486C95.353 39.9862 95.353 39.9862 95.353 39.8238C95.353 39.6614 95.5154 39.4989 95.5154 39.3365C95.5154 39.1741 95.5154 39.0116 95.5154 38.8492C95.5154 38.6868 95.5154 38.5244 95.5154 38.3619C95.5154 38.1995 95.5154 37.8746 95.5154 37.7122C95.5154 37.5498 95.5154 37.2249 95.5154 37.0625H96.1648C96.1648 37.2249 96.1648 37.3874 96.1648 37.7122C96.1648 37.8746 96.1648 38.1995 96.1648 38.3619Z" fill="white"/>
<path d="M97.9573 38.8487C98.1196 38.8487 98.4443 38.8487 98.6067 38.8487C98.6067 38.6863 98.6067 38.5238 98.6067 38.3614C98.6067 38.199 98.6067 38.0366 98.6067 37.8741C98.6067 37.7117 98.6067 37.5493 98.6067 37.3869H97.9573C97.7949 37.3869 97.7949 37.3869 97.7949 37.3869C97.7949 37.3869 97.6326 37.3868 97.6326 37.5493L97.4702 37.7117V37.8741V38.6863H97.6326H97.7949C97.7949 38.8487 97.7949 38.8487 97.9573 38.8487ZM98.6067 39.4984C98.4443 39.4984 98.4443 39.4984 98.282 39.4984C98.1196 39.4984 98.1196 39.4984 97.9573 39.4984C97.7949 39.4984 97.7949 39.4984 97.6326 39.4984C97.4702 39.4984 97.4702 39.4984 97.3079 39.4984C97.1455 39.4984 97.1455 39.4984 96.9831 39.4984C96.8208 39.4984 96.8208 39.4984 96.6584 39.4984C96.6584 39.4984 96.4961 39.4984 96.4961 39.336V39.1736V38.0366C96.4961 37.8741 96.4961 37.7117 96.6584 37.5493C96.6584 37.3868 96.8208 37.2244 96.9831 37.062C97.1455 36.8996 97.3078 36.8996 97.4702 36.7371C97.6326 36.5747 97.7949 36.5747 97.9573 36.5747H98.9314H99.0937C99.0937 36.5747 99.2561 36.5747 99.2561 36.7371C99.2561 36.7371 99.2561 36.8996 99.4184 36.8996V37.062C99.4184 37.2244 99.4184 37.3869 99.4184 37.7117C99.4184 37.8741 99.4184 38.199 99.4184 38.3614C99.4184 38.5238 99.4184 38.6863 99.4184 38.8487C99.4184 39.0111 99.4184 39.1736 99.4184 39.336C99.4184 39.4984 99.2561 39.8233 99.2561 39.9857C99.0937 40.1481 99.0937 40.3106 98.9314 40.473C98.769 40.6354 98.6067 40.7979 98.4443 40.7979C98.282 40.9603 97.9573 40.9603 97.6326 40.9603V40.473C97.7949 40.473 97.9573 40.473 98.1196 40.473C98.282 40.473 98.282 40.3106 98.4443 40.3106C98.6067 40.1481 98.6067 40.1481 98.6067 39.9857C98.4443 39.8233 98.4443 39.6609 98.6067 39.4984Z" fill="white"/>
<path d="M101.361 39.4992H100.387H100.225H100.062C100.062 39.4992 100.062 39.4992 100.062 39.3368V39.1743V35.4385H100.712V38.8495H101.361V39.4992Z" fill="white"/>
<path d="M103.801 35.9252C103.801 35.9252 103.801 35.7628 103.801 35.9252C103.801 35.7628 103.801 35.7628 103.963 35.6004C103.963 35.6004 103.963 35.6004 104.125 35.4379H104.288H104.45C104.45 35.4379 104.613 35.4379 104.613 35.6004C104.613 35.6004 104.613 35.6004 104.775 35.7628V35.9252V36.0877C104.775 36.0877 104.775 36.2501 104.613 36.2501C104.613 36.2501 104.613 36.2501 104.45 36.4125H104.288H104.125C104.125 36.4125 103.963 36.4125 103.963 36.2501C103.801 36.0877 103.801 36.0877 103.801 35.9252ZM103.314 34.9507C103.314 34.7882 103.314 34.6258 103.476 34.6258C103.476 34.6258 103.476 34.6258 103.638 34.4634H103.801H103.963C103.963 34.4634 104.125 34.4634 104.125 34.6258C104.125 34.6258 104.125 34.6258 104.288 34.7882V34.9507V35.1131C104.288 35.1131 104.288 35.2755 104.125 35.2755C104.125 35.2755 104.125 35.2755 103.963 35.4379H103.801H103.638C103.638 35.4379 103.476 35.438 103.476 35.2755C103.314 35.2755 103.314 35.2755 103.314 34.9507C103.314 35.1131 103.314 35.1131 103.314 34.9507ZM102.664 35.9252C102.664 35.9252 102.664 35.7628 102.664 35.9252C102.664 35.7628 102.664 35.7628 102.827 35.6004C102.827 35.6004 102.827 35.6004 102.989 35.4379H103.151H103.314C103.314 35.4379 103.476 35.4379 103.476 35.6004C103.476 35.6004 103.476 35.6004 103.476 35.7628V35.9252V36.0877V36.2501C103.476 36.2501 103.476 36.2501 103.314 36.4125H103.151H102.989C102.989 36.4125 102.827 36.4125 102.827 36.2501C102.827 36.0877 102.827 36.0877 102.664 35.9252ZM103.963 39.4987V39.1738C103.963 39.3362 103.963 39.4987 103.963 39.4987C103.801 39.4987 103.638 39.4987 103.638 39.4987H102.502V39.1738C102.502 39.1738 102.502 39.3362 102.34 39.3362H102.177H101.203V38.8489H101.69V36.7374H102.34V38.8489H103.151V36.7374H103.801V38.8489H104.613V36.7374H105.424V38.8489H105.911V39.4987H103.963Z" fill="white"/>
<path d="M107.207 38.8489H108.506V37.387C108.344 37.387 108.181 37.387 108.181 37.387C108.019 37.387 108.019 37.387 108.019 37.387H107.857C107.857 37.387 107.694 37.387 107.694 37.5494L107.532 37.7119V37.8743V38.8489H107.207ZM105.908 38.8489H106.395V38.0367C106.395 37.8743 106.395 37.8743 106.395 37.7119C106.395 37.5495 106.396 37.5495 106.558 37.387C106.558 37.2246 106.72 37.2246 106.72 37.0622C106.883 36.8997 106.883 36.8997 107.045 36.8997C107.207 36.8997 107.207 36.7373 107.37 36.7373C107.532 36.7373 107.532 36.7373 107.694 36.7373H108.668H108.831C108.831 36.7373 108.831 36.7373 108.993 36.7373C108.993 36.7373 108.993 36.7373 108.993 36.8997V37.0622V39.1737V39.3362V39.4986C108.993 39.4986 108.993 39.4986 108.831 39.661H108.668H105.746V38.8489H105.908Z" fill="white"/>
<path d="M112.891 36.0874C112.891 35.925 112.891 35.925 113.054 35.7625C113.054 35.7625 113.054 35.7625 113.216 35.6001H113.378H113.541C113.541 35.6001 113.703 35.6001 113.703 35.7625C113.703 35.7625 113.703 35.7625 113.865 35.925V36.0874V36.2498C113.865 36.2498 113.865 36.4122 113.703 36.4122C113.703 36.4122 113.703 36.4122 113.541 36.5747H113.378H113.216C113.216 36.5747 113.054 36.5747 113.054 36.4122C112.891 36.4122 112.891 36.4122 112.891 36.0874C112.891 36.2498 112.891 36.2498 112.891 36.0874ZM111.917 36.0874C111.917 35.925 111.917 35.925 112.08 35.7625C112.08 35.7625 112.08 35.7625 112.242 35.6001H112.404H112.567C112.567 35.6001 112.729 35.6001 112.729 35.7625C112.729 35.7625 112.729 35.7625 112.891 35.925V36.0874V36.2498C112.891 36.2498 112.891 36.4122 112.729 36.4122C112.729 36.4122 112.729 36.4122 112.567 36.5747H112.404H112.242C112.242 36.5747 112.08 36.5747 112.08 36.4122C112.08 36.4122 112.08 36.4122 111.917 36.0874C111.917 36.2498 111.917 36.2498 111.917 36.0874ZM112.404 39.4984C112.08 39.4984 111.917 39.4984 111.755 39.336C111.593 39.336 111.43 39.1735 111.268 39.0111C111.105 38.8487 111.105 38.6862 111.105 38.5238C111.105 38.3614 111.105 38.199 111.105 38.0365C111.105 37.8741 111.105 37.8741 111.105 37.7117C111.105 37.5492 111.105 37.5492 111.105 37.3868C111.105 37.2244 111.105 37.2244 111.105 37.062C111.105 37.062 111.105 36.8995 111.268 36.8995L111.917 37.2244C111.917 37.3868 111.917 37.3868 111.755 37.5492C111.755 37.7117 111.755 37.7117 111.755 37.8741V38.0365C111.755 38.0365 111.755 38.199 111.917 38.199L112.08 38.3614C112.242 38.3614 112.242 38.3614 112.404 38.3614H114.19V36.2498H114.84V38.3614H115.489V39.0111H112.404V39.4984Z" fill="white"/>
<path d="M115.324 38.8487H118.571V38.5238C118.571 38.3614 118.571 38.3614 118.571 38.199V38.0365C118.571 38.0365 118.571 38.0365 118.409 38.0365H118.247H116.461C116.298 38.0365 116.136 38.0365 116.136 37.8741C115.974 37.8741 115.974 37.7117 115.974 37.7117C115.974 37.5492 115.974 37.5492 115.974 37.3868C115.974 37.2244 115.974 37.2244 116.136 37.062C116.298 36.8995 116.461 36.5747 116.623 36.4122C116.785 36.2498 117.11 36.0874 117.272 35.925C117.435 35.7625 117.759 35.7625 118.084 35.6001C118.409 35.6001 118.571 35.6001 118.896 35.6001V36.2498C118.734 36.2498 118.571 36.2498 118.247 36.2498C118.084 36.2498 117.922 36.4122 117.597 36.4122C117.435 36.4122 117.272 36.5747 117.11 36.7371C116.948 36.8995 116.785 37.062 116.785 37.2244H118.084C118.247 37.2244 118.409 37.2244 118.571 37.2244C118.734 37.2244 118.896 37.2244 118.896 37.2244C119.058 37.2244 119.058 37.2244 119.221 37.3868L119.383 37.5492C119.383 37.7117 119.383 37.7117 119.545 37.8741C119.545 38.0365 119.545 38.199 119.545 38.3614V38.5238V38.6862V38.8487V39.0111V39.1735C119.545 39.1735 119.545 39.1735 119.545 39.336C119.545 39.336 119.545 39.336 119.383 39.336H119.221H115.649V38.8487H115.324Z" fill="white"/>
<path d="M121.495 37.0625C121.495 37.2249 121.495 37.3874 121.495 37.7122C121.495 37.8746 121.495 38.1995 121.495 38.3619C121.495 38.5244 121.495 38.6868 121.495 38.8492H121.982V39.4989H121.333C121.333 39.6614 121.17 39.9862 121.17 40.1486C121.008 40.3111 121.008 40.4735 120.846 40.6359C120.683 40.7984 120.521 40.9608 120.359 40.9608C120.196 41.1232 119.872 41.1232 119.547 41.1232V40.4735C119.709 40.4735 119.872 40.4735 120.034 40.3111C120.196 40.3111 120.359 40.1486 120.359 40.1486C120.521 39.9862 120.521 39.9862 120.521 39.8238C120.521 39.6614 120.683 39.4989 120.683 39.3365C120.683 39.1741 120.683 39.0116 120.683 38.8492C120.683 38.6868 120.683 38.5244 120.683 38.3619C120.683 38.1995 120.683 37.8746 120.683 37.7122C120.683 37.5498 120.683 37.2249 120.683 37.0625H121.495Z" fill="white"/>
<path d="M124.584 35.9252C124.584 35.9252 124.584 35.7628 124.584 35.9252C124.584 35.7628 124.584 35.7628 124.747 35.6004C124.747 35.6004 124.747 35.6004 124.909 35.4379H125.071H125.234C125.234 35.4379 125.396 35.4379 125.396 35.6004C125.396 35.6004 125.396 35.6004 125.558 35.7628V35.9252V36.0877C125.558 36.0877 125.558 36.2501 125.396 36.2501C125.396 36.2501 125.396 36.2501 125.234 36.4125H125.071H124.909C124.909 36.4125 124.747 36.4125 124.747 36.2501C124.584 36.0877 124.584 36.0877 124.584 35.9252ZM124.097 34.9507C124.097 34.7882 124.097 34.7882 124.259 34.6258C124.259 34.6258 124.259 34.6258 124.422 34.4634H124.584H124.747C124.747 34.4634 124.909 34.4634 124.909 34.6258C124.909 34.6258 124.909 34.6258 125.071 34.7882V34.9507V35.1131C125.071 35.1131 125.071 35.2755 124.909 35.2755C124.909 35.2755 124.909 35.2755 124.747 35.4379H124.584H124.422C124.422 35.4379 124.259 35.438 124.259 35.2755C124.259 35.1131 124.097 35.2755 124.097 34.9507C124.097 35.1131 124.097 35.1131 124.097 34.9507ZM123.448 35.9252C123.448 35.9252 123.448 35.7628 123.448 35.9252C123.448 35.7628 123.448 35.7628 123.61 35.6004C123.61 35.6004 123.61 35.6004 123.772 35.4379H123.935H124.097C124.097 35.4379 124.259 35.4379 124.259 35.6004C124.259 35.6004 124.259 35.6004 124.422 35.7628V35.9252V36.0877C124.422 36.0877 124.422 36.2501 124.259 36.2501C124.259 36.2501 124.259 36.2501 124.097 36.4125H123.935H123.772C123.772 36.4125 123.61 36.4125 123.61 36.2501C123.61 36.0877 123.61 36.0877 123.448 35.9252ZM121.824 38.8489H122.474V36.7374H123.285V38.8489H124.097V36.7374H124.747V38.8489H125.558V36.7374H126.208V39.1738V39.3362V39.4987C126.208 39.4987 126.208 39.4987 126.045 39.4987H125.883H124.747V39.1738C124.747 39.1738 124.747 39.3362 124.584 39.3362H124.422H123.285V39.0114C123.285 39.0114 123.285 39.1738 123.123 39.1738H122.961H121.824V38.8489Z" fill="white"/>
<path d="M124.094 21.3066C124.094 19.3574 125.23 18.058 126.854 18.058H129.938V21.9563C129.938 23.743 128.64 24.5551 126.854 24.5551H124.094V21.3066ZM132.536 15.1343H126.204C123.444 15.1343 121.496 17.0834 121.496 20.1696V23.0933C121.496 24.88 122.47 25.6921 123.444 26.8291L123.931 27.3164H128.153C129.289 27.3164 131.724 26.8291 132.374 24.7176L132.536 24.3927V15.1343Z" fill="white"/>
<path d="M162.894 9.93701L160.297 10.7492C160.622 12.5359 160.946 14.3226 160.946 18.3833V29.5909L163.382 28.7787V15.622C163.382 13.0232 163.219 11.3989 162.894 9.93701Z" fill="white"/>
<path d="M149.584 28.7788H147.635C147.311 28.7788 147.148 28.9412 147.148 29.2661V31.2152C147.148 31.5401 147.311 31.7025 147.635 31.7025H149.746C150.071 31.7025 150.233 31.5401 150.233 31.2152V29.2661C150.071 28.9412 149.908 28.7788 149.584 28.7788Z" fill="white"/>
<path d="M153.641 28.7788H151.53C151.205 28.7788 151.043 28.9412 151.043 29.2661V31.2152C151.043 31.5401 151.205 31.7025 151.53 31.7025H153.641C153.965 31.7025 154.128 31.5401 154.128 31.2152V29.2661C154.128 28.9412 153.965 28.7788 153.641 28.7788Z" fill="white"/>
<path d="M155.588 21.956C155.588 23.093 154.614 24.23 153.315 24.23H150.555H150.392H147.145C146.171 24.23 145.359 23.4178 145.359 22.4433C145.359 22.4433 145.197 19.682 145.197 18.7074C145.035 15.9461 142.762 15.2964 140.651 15.2964H138.541H137.729L136.755 18.2201C136.755 18.2201 136.917 18.2201 137.567 18.2201H139.352C141.625 18.2201 143.087 18.8698 143.087 20.3317C143.087 21.956 143.087 23.9051 142.6 24.0675C142.275 24.23 141.463 24.23 140.814 24.23H134.482L133.508 27.3161C133.508 27.3161 140.651 27.3161 141.788 27.3161C142.437 27.3161 143.736 26.504 143.898 25.2045C144.061 25.6918 144.061 25.8543 144.548 26.504C144.872 26.9913 145.847 27.3161 146.334 27.3161H150.555C150.879 27.3161 151.204 27.3161 151.366 27.3161H154.126C156.237 27.3161 158.023 25.5294 158.023 23.4178V15.2964L155.588 16.4334V21.956Z" fill="white"/>
<path d="M77.822 28.7788H75.8738C75.5491 28.7788 75.3867 28.9412 75.3867 29.2661V31.2152C75.3867 31.5401 75.5491 31.7025 75.8738 31.7025H77.822C78.1467 31.7025 78.309 31.5401 78.309 31.2152V29.2661C78.1467 28.9412 77.9843 28.7788 77.822 28.7788Z" fill="white"/>
<path d="M81.8806 28.7788H79.9324C79.6077 28.7788 79.4453 28.9412 79.4453 29.2661V31.2152C79.4453 31.5401 79.6077 31.7025 79.9324 31.7025H81.8806C82.2053 31.7025 82.3676 31.5401 82.3676 31.2152V29.2661C82.2053 28.9412 82.0429 28.7788 81.8806 28.7788Z" fill="white"/>
<path d="M96.4949 12.5355H98.4431C98.7678 12.5355 98.9301 12.3731 98.9301 12.0482V10.0991C98.9301 9.77425 98.7678 9.61182 98.4431 9.61182H96.4949C96.1702 9.61182 96.0078 9.77425 96.0078 10.0991V12.0482C96.0078 12.3731 96.3325 12.5355 96.4949 12.5355Z" fill="white"/>
<path d="M115.161 23.9061H112.563C110.778 23.9061 109.803 23.0939 109.479 21.3072L111.752 17.8962H112.239C113.862 17.8962 114.999 19.1956 114.999 21.1448V23.9061H115.161ZM94.7047 17.7338H98.6012C99.0882 17.7338 99.5753 18.2211 99.5753 18.7083V21.1448C99.5753 22.2818 99.5753 23.4188 98.7635 23.7436H95.5165C93.893 23.5812 93.4059 21.7945 93.4059 20.1702C93.5682 19.5205 93.893 18.7084 94.7047 17.7338ZM113.05 14.9725H107.855L106.881 17.8962H109.154L105.907 22.6066C105.258 23.5812 104.121 23.9061 102.985 23.9061H101.523H101.361C101.848 23.2564 102.173 22.6066 102.173 21.7945V17.4089C102.173 15.9471 101.036 14.8101 99.5753 14.8101H95.1918C93.0812 16.2719 90.9706 18.7084 91.2953 21.6321C91.2953 22.4442 91.62 23.2564 92.1071 23.9061H88.8601C87.8859 23.9061 87.0742 23.0939 87.0742 22.1193V14.9725L84.3142 16.1095V22.2818C83.3401 23.7436 82.2036 23.9061 79.7684 23.9061H75.5472C74.5731 23.9061 73.7613 23.0939 73.7613 22.1193C73.7613 22.1193 73.599 19.3581 73.599 18.3835C73.4366 15.7846 71.1637 14.9725 69.0531 14.9725H66.9426H66.1308L65.1567 17.8962C65.1567 17.8962 65.3191 17.8962 65.9685 17.8962H67.7543C70.0273 17.8962 71.4884 18.5459 71.4884 20.0078C71.4884 21.6321 71.4884 23.4188 71.0014 23.7436C70.6767 23.9061 69.8649 23.9061 69.3778 23.9061H63.2085L62.2344 26.8298C62.2344 26.8298 69.3779 26.8298 70.5143 26.8298C71.1637 26.8298 72.4625 26.0176 72.6249 24.7182C72.7872 25.2055 72.6249 25.3679 73.2743 26.0176C73.599 26.5049 74.5731 26.8298 75.0602 26.8298H80.4178C82.853 26.8298 83.9895 26.3425 85.2883 25.0431L85.4507 24.8806L85.613 25.0431C86.2624 26.1801 87.3989 26.8298 88.6977 26.8298H98.1141H103.472C105.258 26.8298 106.719 26.0176 107.693 24.5558L108.18 23.9061L108.342 24.2309C109.154 26.3425 111.265 26.8298 112.563 26.8298H115.973L116.46 26.3425C117.434 25.3679 118.408 24.3934 118.408 22.7691V19.8454C117.596 17.0841 115.81 14.9725 113.05 14.9725Z" fill="white"/>
<path d="M25.5118 6.05263C23.4785 6.05263 22.2078 4.40723 22.4619 2.76183C22.4619 1.35149 23.7327 -0.0588474 25.2576 0.17621C27.2908 0.411267 28.3074 1.82161 28.3074 3.46701C28.5616 5.11241 26.7825 6.05263 25.5118 6.05263Z" fill="white"/>
<path d="M47.2179 32.6128C47.2179 34.4907 46.3652 35.5639 44.8731 35.5639C43.1678 35.5639 42.3151 34.4907 42.5283 32.3445C42.7414 30.4665 43.5941 29.6616 45.0863 29.6616C46.3652 29.6616 47.2179 30.7348 47.2179 32.6128Z" fill="white"/>
<path d="M9.2283 37.9248C10.7307 38.1707 11.8038 39.4004 11.8038 41.1219C11.8038 42.8433 10.7307 43.827 9.44293 43.827C8.15517 43.827 7.08203 42.8433 7.08203 41.1219C7.08203 39.4004 7.94054 37.9248 9.2283 37.9248Z" fill="white"/>
<path d="M35.3715 4.54149C35.3715 6.65532 33.9864 7.448 32.3242 7.18377C30.3849 7.18377 29.2768 5.86262 29.5538 4.01302C29.5538 2.16343 30.662 1.10652 32.8782 1.37075C34.5404 1.63497 35.6486 2.6919 35.3715 4.54149Z" fill="white"/>
<path d="M7.08117 17.5348C6.86654 19.6811 5.79341 20.2177 4.50565 20.2177C2.78863 20.2177 2.35938 18.8762 2.35938 16.9983C2.35938 15.3886 3.00326 14.3154 4.50565 14.3154C6.22266 14.3154 6.86654 15.6569 7.08117 17.5348Z" fill="white"/>
<path d="M47.2179 16.336C47.2179 17.9364 46.3594 19.2701 44.857 19.0033C43.5692 18.7366 42.4961 17.9364 42.4961 16.0693C42.4961 14.2022 43.3546 13.1353 44.857 13.1353C46.3594 13.1353 47.2179 14.2022 47.2179 16.336Z" fill="white"/>
<path d="M9.44293 6.05273C10.7307 6.5893 11.8038 7.66243 11.8038 9.54042C11.8038 11.4184 10.5161 11.955 9.2283 11.955C7.72591 11.955 7.08203 10.8818 7.08203 9.00386C7.29666 7.39415 7.72591 6.05273 9.44293 6.05273Z" fill="white"/>
<path d="M45.8479 27.3007C44.7811 27.3007 43.4475 26.4958 43.7142 24.6178C43.7142 23.0081 44.7811 21.6667 46.6481 21.3984C48.5151 21.3984 49.5819 22.2033 49.5819 24.3496C49.5819 26.2275 48.7818 27.3007 45.8479 27.3007Z" fill="white"/>
<path d="M5.864 25.8097C5.60904 27.4124 4.84417 28.4809 3.05948 28.4809C0.76487 28.4809 0 26.8782 0 25.2755C0 23.9399 1.01983 22.6043 2.80452 22.6043C5.09913 22.3372 6.11896 24.207 5.864 25.8097Z" fill="white"/>
<path d="M2.35938 34.1508C2.35938 32.8738 3.43251 32.0225 5.3105 32.0225C7.18848 32.0225 7.99334 33.0866 8.26162 34.5764C8.26162 36.2791 7.18848 36.9176 5.3105 36.7048C3.43251 36.7048 2.35938 35.8534 2.35938 34.1508Z" fill="white"/>
<path d="M42.4952 39.6958C42.2806 41.5737 41.2075 42.6469 39.7051 42.6469C38.4173 42.6469 37.7734 41.3055 37.7734 39.6958C37.7734 37.8178 38.4173 36.7446 39.9197 36.7446C41.4221 37.0129 42.2806 37.8178 42.4952 39.6958Z" fill="white"/>
<path d="M17.3874 48.4327C15.2411 48.9588 14.168 47.6437 14.168 45.5396C14.168 43.9616 14.7045 42.6465 16.5825 42.6465C18.7288 42.6465 19.8019 43.9616 20.0702 45.8026C20.0702 47.6437 18.1922 48.1697 17.3874 48.4327Z" fill="white"/>
<path d="M40.5947 11.955C37.6607 11.955 36.5938 11.1118 36.5938 9.42544C36.5938 7.17696 37.9274 6.05273 39.7945 6.05273C41.3949 6.05273 42.7286 7.17696 42.4618 9.42544C42.4618 11.3929 41.1282 11.955 40.5947 11.955Z" fill="white"/>
<path d="M23.9941 49.6953C22.8767 49.6953 22.4297 47.8607 22.4297 46.5503C22.4297 44.9778 23.1001 43.4053 24.888 43.9295C26.2289 44.1916 27.3463 45.2399 27.1229 47.0745C26.8994 48.647 26.2289 49.9574 23.9941 49.6953Z" fill="white"/>
<path d="M20.0362 4.29634C20.303 6.43194 18.7025 7.23281 17.1021 7.23281C15.2349 7.23281 14.168 6.16499 14.168 4.29634C14.4347 2.69464 15.2349 1.09294 17.1021 1.35989C18.9693 1.62684 20.303 2.42769 20.0362 4.29634Z" fill="white"/>
<path d="M35.3888 45.8792C35.1651 47.4809 34.2704 48.5487 32.7046 48.5487C31.1388 48.5487 30.6914 47.4809 30.6914 45.8792C30.6914 44.2774 30.9151 42.9427 32.4809 42.6757C34.2704 42.4087 35.6125 44.0105 35.3888 45.8792Z" fill="white"/>
<path d="M24.6118 35.7513C18.736 35.7513 14.6485 31.2788 14.6485 25.0669C14.6485 18.6066 18.9915 14.3826 25.1228 14.3826C31.254 14.3826 35.597 18.8551 35.597 25.0669C35.597 31.2788 30.7431 35.7513 24.6118 35.7513ZM25.1228 8.41925C16.1813 8.17077 8.26172 16.1219 8.26172 25.0669C8.26172 33.7635 15.6704 41.2177 24.3563 41.4661C34.3197 41.4661 42.2393 34.5089 42.4947 25.0669C42.4947 16.6189 34.0642 8.41925 25.1228 8.41925Z" fill="white"/>
<path d="M16.5273 25.067C16.5273 20.4905 20.3411 16.6768 24.4091 16.6768C29.2399 16.6768 33.0536 20.7448 33.0536 25.5755C33.0536 29.3893 29.2399 33.203 25.1719 33.203C20.5954 33.203 16.5273 29.3893 16.5273 25.067Z" fill="white"/>
</svg>
