<svg width="240" height="39" viewBox="0 0 240 39" fill="none" xmlns="http://www.w3.org/2000/svg">
<path d="M82.8424 3.73586C82.8424 3.73586 82.5177 3.57343 82.193 3.89829C82.193 3.89829 80.7319 5.685 79.5954 5.36015C78.4589 5.19772 74.8872 5.36015 73.7507 5.52258C72.4519 5.685 70.9908 5.03529 71.6402 4.38557C71.6402 4.38557 71.6402 4.22315 72.7766 3.73586C73.9131 3.411 74.7249 2.76129 74.7249 2.76129C74.7249 2.76129 76.5107 1.94914 77.3225 0.974572C78.2966 0.162429 77.6472 0 77.6472 0C77.6472 0 77.1601 0 71.8025 1.137C71.8025 1.137 70.179 1.29943 68.7178 2.92372C68.3931 3.24857 68.2308 3.411 68.0684 3.73586C67.7437 4.06072 67.5814 4.22315 67.419 4.38557C66.6073 4.71043 65.4708 4.87286 65.1461 4.87286C61.8991 5.03529 58.4897 5.52258 55.2426 6.17229C50.2097 6.98443 45.1768 8.44629 40.631 10.8827C36.5722 12.9943 32.6758 13.3192 28.2923 12.1822C25.0452 11.37 21.7982 10.3954 18.3888 9.74572C14.9794 8.93358 10.2712 7.79658 6.69949 7.79658C3.2901 7.63415 -0.44399 10.233 0.0430653 15.2683C0.367769 17.7047 0.53012 17.5423 1.50423 20.466C4.26421 26.8007 8.16065 32.3233 12.5441 37.3586C13.0312 37.8459 13.6806 37.8459 14.8171 37.521C14.9794 37.3586 13.843 36.2216 13.5183 35.8967C13.3559 35.5719 12.8688 35.0846 12.5441 34.7597C11.8947 33.9476 11.4077 33.1355 10.7583 32.3233C10.5959 31.9985 9.45946 30.5366 9.29711 30.2117C8.64771 29.2372 7.18654 26.4759 7.02419 25.9886C5.72538 23.5522 2.47834 17.3799 2.9654 13.8064C3.6148 11.2076 6.05008 9.74572 8.97241 10.233C14.8171 11.37 20.4994 12.6694 26.344 14.1313C28.9417 14.781 31.3769 14.9434 33.9746 15.4307C36.4098 15.7556 38.6828 15.2683 40.7933 14.1313C44.8521 12.507 48.7486 10.8827 52.8074 9.74572C55.8921 8.93358 58.9767 8.28386 62.2238 7.95901C62.7108 7.95901 64.4967 7.79658 64.9837 7.63415C66.4449 7.30929 67.419 7.79658 67.9061 9.09601C68.0684 9.58329 68.3931 10.0706 68.8802 10.3954C69.6919 11.0452 69.5296 11.5324 68.8802 12.1822C64.8214 16.0804 63.0355 21.1157 61.8991 26.4759C61.5744 28.2626 61.7367 30.0493 61.5744 31.9985C59.6261 31.1863 58.0026 30.3742 56.2168 29.562C52.4827 27.7753 49.2356 25.014 44.8521 24.6892C40.4686 24.3643 36.0851 23.2273 31.7016 22.4152C29.9158 22.0903 25.3699 20.9533 25.0452 20.7909C20.6617 19.6539 16.6029 18.0296 12.3818 16.4053C11.083 15.918 9.62182 16.2429 8.64771 17.2174C7.83595 18.0296 7.34889 19.329 7.83595 20.9533C8.16065 22.2527 8.16065 23.5522 11.2453 29.562C12.0571 31.0239 12.7065 32.1609 13.6806 33.4603C14.33 34.2725 16.2782 37.0337 16.6029 37.1962C18.0641 37.6835 18.0641 37.1962 18.0641 37.1962C18.0641 36.8713 17.7394 36.7089 17.577 36.5465C13.6806 31.9985 10.7583 26.9632 9.45946 21.1157C9.13476 20.1412 9.13476 19.1666 9.94652 18.3544C10.5959 17.7047 11.4077 17.7047 12.2194 17.8672C12.5441 17.8672 12.7065 18.0296 12.8688 18.192C23.2594 22.5776 32.1887 24.6892 42.2545 26.8007C44.3651 27.288 46.4757 27.1256 48.2615 28.5875C50.2097 29.8869 52.3203 30.8615 54.2685 32.1609C56.5415 33.6227 59.3014 34.2725 61.2497 36.0592C62.0614 36.8713 63.0355 37.1962 64.172 37.3586C67.7437 37.8459 71.4778 36.8713 75.0496 36.8713C75.5366 36.8713 76.5107 36.7089 76.3484 35.8967C76.3484 35.0846 75.3743 35.0846 74.8872 35.0846C73.7507 34.9222 72.4519 34.7597 71.3155 34.7597C69.0425 34.4349 66.932 33.2979 64.659 33.4603C64.0096 33.4603 63.8473 33.1355 63.8473 32.6482C63.8473 30.2117 64.172 27.7753 64.9837 25.3389C65.9579 22.0903 67.5814 19.1666 70.0166 16.8926C70.3414 16.5677 70.8284 15.918 71.1531 15.918C71.3155 16.0804 71.4778 16.0804 71.6402 16.2429C71.9649 16.5677 73.1013 16.7302 73.426 16.7302C74.2378 16.7302 74.7249 16.4053 75.2119 15.918C75.699 15.2683 75.5366 14.6186 75.5366 14.6186C75.3743 13.9689 75.2119 12.9943 75.3743 12.507C75.8613 10.233 75.2119 8.93358 75.2119 8.93358C75.8613 8.77115 76.6731 8.60872 77.6472 8.44629C80.4072 7.95901 81.8683 7.63415 82.8424 5.685C82.8424 5.52258 83.4918 4.06072 82.8424 3.73586Z" fill="white"/>
<path d="M91.9336 34.1104H93.8818V31.9988C93.5571 31.9988 93.3947 31.9988 93.2324 31.9988C93.07 31.9988 93.07 31.9988 92.9077 31.9988H92.7453C92.583 31.9988 92.583 31.9988 92.4206 31.9988C92.2583 31.9988 92.2583 32.1612 92.0959 32.1612C91.9336 32.3237 91.9336 32.3237 91.9336 32.4861C91.9336 32.6485 91.9336 32.6485 91.9336 32.811V34.1104ZM90.7971 34.1104V32.811C90.7971 32.6485 90.7971 32.4861 90.7971 32.3237C90.7971 32.1612 90.9595 31.9988 90.9595 31.8364C91.1218 31.674 91.1218 31.5115 91.2842 31.3491C91.4465 31.1867 91.6089 31.0242 91.7712 31.0242C91.9336 30.8618 92.0959 30.8618 92.2583 30.8618C92.4206 30.8618 92.583 30.8618 92.7453 30.8618H94.3688H94.5312C94.5312 30.8618 94.6935 30.8618 94.6935 31.0242L94.8559 31.1867V31.3491V34.5977V34.7601C94.8559 34.7601 94.8559 34.9225 94.6935 34.9225L94.5312 35.085H94.3688H91.2842C91.1218 35.085 90.9595 35.085 90.9595 35.085C90.7971 35.085 90.7971 35.085 90.6347 35.2474C90.4724 35.2474 90.4724 35.4098 90.4724 35.4098C90.4724 35.5722 90.4724 35.5722 90.4724 35.7347V37.5214H89.3359V35.7347C89.3359 35.4098 89.3359 35.2474 89.4983 34.9225C89.4983 34.7601 89.6606 34.5977 89.823 34.4352C89.9853 34.2728 90.1477 34.1104 90.31 34.1104C90.4724 34.2728 90.6348 34.1104 90.7971 34.1104Z" fill="white"/>
<path d="M97.7751 34.1104C98.0998 34.1104 98.4245 34.1104 98.7492 33.948C98.7492 33.7855 98.7492 33.4607 98.7492 33.2982C98.7492 32.9734 98.7492 32.811 98.7492 32.4861C98.7492 32.1612 98.7492 31.9988 98.7492 31.8364H97.7751C97.6128 31.8364 97.4504 31.8364 97.4504 31.8364C97.2881 31.8364 97.2881 31.9988 97.1257 31.9988C96.9634 32.1612 96.9634 32.1612 96.9634 32.3237C96.9634 32.4861 96.9634 32.4861 96.9634 32.6485V33.7855C97.1257 33.7855 97.1257 33.7855 97.2881 33.7855C97.4504 33.7855 97.4504 33.7855 97.4504 33.7855H97.6128H97.7751V34.1104ZM98.5869 35.2474C98.4245 35.2474 98.2622 35.2474 98.0998 35.2474C97.9375 35.2474 97.7751 35.2474 97.6128 35.2474C97.4504 35.2474 97.2881 35.2474 97.1257 35.2474C96.9634 35.2474 96.801 35.2474 96.6387 35.2474C96.4763 35.2474 96.314 35.2474 96.1516 35.2474C95.9893 35.2474 95.8269 35.2474 95.8269 35.085C95.6645 35.085 95.6645 34.9225 95.5022 34.9225C95.5022 34.7601 95.3398 34.7601 95.3398 34.5977V32.9734C95.3398 32.6485 95.3398 32.4861 95.5022 32.1612C95.6645 31.8364 95.8269 31.674 95.9892 31.5115C96.1516 31.3491 96.314 31.1867 96.6387 31.0242C97.1257 30.8618 97.4504 30.8618 97.7751 30.8618H99.0739C99.2363 30.8618 99.2363 30.8618 99.3986 30.8618C99.561 30.8618 99.561 31.0242 99.561 31.0242L99.7233 31.1867C99.7233 31.3491 99.7233 31.3491 99.7233 31.5115C99.7233 31.8364 99.7233 32.1612 99.7233 32.4861C99.7233 32.811 99.7233 33.1358 99.7233 33.4607C99.7233 33.7855 99.7233 33.948 99.7233 34.2728C99.7233 34.5977 99.7233 34.9225 99.561 35.085C99.561 35.4098 99.3986 35.7347 99.2363 36.0595C99.0739 36.3844 98.9116 36.7092 98.7492 36.8717C98.5869 37.0341 98.2622 37.359 97.9375 37.359C97.6128 37.5214 97.2881 37.5214 96.801 37.5214V36.3844C97.1257 36.3844 97.2881 36.3844 97.4504 36.222C97.6128 36.222 97.7751 36.0595 97.9375 35.8971C98.0998 35.7347 98.2622 35.5722 98.2622 35.4098C98.4245 35.5722 98.5869 35.4098 98.5869 35.2474Z" fill="white"/>
<path d="M102.164 29.0752H101.027V35.2475H102.164V29.0752Z" fill="white"/>
<path d="M103.297 35.2472V34.1102H106.219C106.219 33.7854 106.219 33.4605 106.057 33.1356C106.057 32.8108 105.895 32.6484 105.732 32.4859C105.57 32.3235 105.245 32.1611 104.92 31.9986C104.596 31.8362 104.109 31.8362 103.622 31.8362V30.6992C103.946 30.6992 104.271 30.6992 104.596 30.6992C104.92 30.6992 105.245 30.8616 105.407 30.8616C105.57 30.8616 105.895 31.0241 106.057 31.1865C106.219 31.3489 106.382 31.5114 106.544 31.6738C106.706 31.9986 106.869 32.3235 107.031 32.6484C107.193 32.9732 107.193 33.4605 107.193 33.9478H107.843V35.0848L103.297 35.2472Z" fill="white"/>
<path d="M109.79 34.1104H111.738V31.9988C111.414 31.9988 111.251 31.9988 111.089 31.9988C110.927 31.9988 110.927 31.9988 110.764 31.9988H110.602C110.44 31.9988 110.44 31.9988 110.277 31.9988C110.115 31.9988 110.115 32.1612 109.953 32.1612C109.79 32.3237 109.79 32.3237 109.79 32.4861C109.79 32.6485 109.79 32.6485 109.79 32.811V34.1104ZM107.842 34.1104H108.654V32.811C108.654 32.6485 108.654 32.4861 108.654 32.3237C108.654 32.1612 108.816 31.9988 108.816 31.8364C108.978 31.674 108.978 31.5115 109.141 31.3491C109.303 31.1867 109.466 31.0242 109.628 31.0242C109.79 30.8618 109.953 30.8618 110.115 30.8618C110.277 30.8618 110.44 30.8618 110.602 30.8618H112.226H112.388C112.388 30.8618 112.55 30.8618 112.55 31.0242L112.713 31.1867V31.3491V34.5977V34.7601C112.713 34.7601 112.713 34.9225 112.55 34.9225L112.388 35.085H112.226H107.68V34.1104H107.842Z" fill="white"/>
<path d="M118.397 30.0493C118.397 29.8869 118.397 29.8869 118.397 29.8869C118.397 29.8869 118.397 29.7244 118.559 29.7244L118.721 29.562H118.884C119.046 29.562 119.046 29.562 119.046 29.562C119.046 29.562 119.208 29.562 119.208 29.7244L119.371 29.8869V30.0493V30.2117C119.371 30.2117 119.371 30.3742 119.208 30.3742L119.046 30.5366H118.884C118.721 30.5366 118.721 30.5366 118.721 30.5366C118.721 30.5366 118.559 30.5366 118.559 30.3742L118.397 30.2117V30.0493ZM117.098 30.0493C117.098 29.8869 117.098 29.8869 117.098 29.8869C117.098 29.8869 117.098 29.7244 117.26 29.7244L117.423 29.562H117.585C117.747 29.562 117.747 29.562 117.747 29.562C117.747 29.562 117.91 29.562 117.91 29.7244L118.072 29.8869V30.0493V30.2117C118.072 30.2117 118.072 30.3742 117.91 30.3742L117.747 30.5366H117.585C117.423 30.5366 117.423 30.5366 117.423 30.5366C117.423 30.5366 117.26 30.5366 117.26 30.3742L117.098 30.2117V30.0493ZM117.747 35.247C117.423 35.247 117.098 35.247 116.773 35.0846C116.448 34.9222 116.286 34.7597 116.124 34.5973C115.961 34.4349 115.799 34.2724 115.799 33.9476C115.799 33.7852 115.637 33.4603 115.637 33.2979C115.637 33.1354 115.637 32.973 115.637 32.8106C115.637 32.6482 115.637 32.4857 115.799 32.3233C115.799 32.1609 115.799 31.9984 115.961 31.9984C115.961 31.836 116.124 31.836 116.124 31.6736L117.098 32.1609C117.098 32.3233 116.936 32.4857 116.936 32.6482C116.936 32.8106 116.936 32.973 116.936 33.1354C116.936 33.2979 116.936 33.2979 116.936 33.4603C116.936 33.6227 116.936 33.6227 117.098 33.7852C117.098 33.7852 117.26 33.9476 117.423 33.9476C117.585 33.9476 117.747 33.9476 117.91 33.9476H120.507V30.8614H121.644V34.11H122.455V35.247H117.747Z" fill="white"/>
<path d="M124.728 29.5625C124.728 29.4001 124.728 29.4001 124.728 29.4001C124.728 29.4001 124.728 29.2376 124.891 29.2376L125.053 29.0752H125.215H125.378C125.378 29.0752 125.54 29.0752 125.54 29.2376L125.702 29.4001V29.5625C125.702 29.7249 125.702 29.7249 125.702 29.7249C125.702 29.7249 125.702 29.8873 125.54 29.8873L125.378 30.0498H125.215H125.053C125.053 30.0498 124.891 30.0498 124.891 29.8873L124.728 29.7249C124.891 29.7249 124.728 29.7249 124.728 29.5625ZM124.241 33.4608C124.241 33.6232 124.404 33.7856 124.566 33.9481C124.728 34.1105 124.891 34.1105 125.053 34.1105H126.027V31.9989H125.053C124.891 31.9989 124.728 31.9989 124.566 32.1613C124.404 32.1613 124.404 32.3238 124.241 32.4862C124.241 32.6486 124.079 32.6486 124.079 32.8111C124.079 32.9735 124.079 33.1359 124.079 33.1359C124.079 33.2983 124.079 33.2983 124.079 33.4608C124.241 33.2983 124.241 33.4608 124.241 33.4608ZM122.293 35.2475V34.1105H123.429C123.267 33.9481 123.267 33.7856 123.267 33.6232C123.267 33.4608 123.267 33.2983 123.267 33.1359C123.267 32.8111 123.267 32.6486 123.429 32.3238C123.592 31.9989 123.592 31.8365 123.754 31.6741C123.916 31.5116 124.079 31.3492 124.404 31.1868C124.566 30.8619 124.728 30.8619 125.053 30.8619H126.352C126.514 30.8619 126.514 30.8619 126.676 30.8619C126.839 30.8619 126.839 31.0243 126.839 31.0243L127.001 31.1868C127.001 31.3492 127.001 31.3492 127.001 31.5116V34.5978V34.7602C127.001 34.7602 127.001 34.9226 126.839 34.9226L126.676 35.0851H126.514H122.293V35.2475Z" fill="white"/>
<path d="M130.411 31.5112C130.411 31.8361 130.411 32.1609 130.411 32.4858C130.411 32.8107 130.411 33.1355 130.411 33.4604C130.411 33.6228 130.411 33.9477 130.411 34.1101H131.222V35.2471H130.248C130.248 35.5719 130.086 35.8968 129.924 36.2217C129.761 36.5465 129.599 36.8714 129.436 37.0338C129.274 37.1962 128.949 37.3587 128.625 37.5211C128.3 37.6835 127.975 37.6835 127.488 37.6835V36.5465C127.813 36.5465 127.975 36.5465 128.3 36.3841C128.462 36.2217 128.625 36.2217 128.787 36.0592C128.949 35.8968 129.112 35.7344 129.112 35.5719C129.274 35.4095 129.274 35.0847 129.274 34.9222C129.274 34.7598 129.274 34.4349 129.436 34.1101C129.436 33.7852 129.436 33.6228 129.436 33.2979C129.436 32.9731 129.436 32.6482 129.436 32.3234C129.436 31.9985 129.436 31.6737 129.436 31.5112H130.411Z" fill="white"/>
<path d="M134.955 29.5616C134.955 29.3992 134.955 29.3992 134.955 29.3992C134.955 29.3992 134.955 29.2368 135.117 29.2368L135.28 29.0743H135.442C135.604 29.0743 135.604 29.0743 135.604 29.0743C135.604 29.0743 135.767 29.0743 135.767 29.2368L135.929 29.3992V29.5616C135.929 29.724 135.929 29.724 135.929 29.724C135.929 29.724 135.929 29.8865 135.767 29.8865L135.604 30.0489H135.442C135.28 30.0489 135.28 30.0489 135.28 30.0489C135.28 30.0489 135.117 30.0489 135.117 29.8865L134.955 29.724C134.955 29.724 134.955 29.724 134.955 29.5616ZM134.143 28.2622C134.143 28.0998 134.143 28.0998 134.143 28.0998C134.143 28.0998 134.143 27.9373 134.306 27.9373L134.468 27.7749H134.63C134.793 27.7749 134.793 27.7749 134.793 27.7749C134.793 27.7749 134.955 27.7749 134.955 27.9373L135.117 28.0998V28.2622V28.4246C135.117 28.4246 135.117 28.587 134.955 28.587L134.793 28.7495H134.63H134.468C134.468 28.7495 134.306 28.7495 134.306 28.587L134.143 28.4246C134.143 28.4246 134.143 28.4246 134.143 28.2622ZM133.332 29.5616C133.332 29.3992 133.332 29.3992 133.332 29.3992C133.332 29.3992 133.332 29.2368 133.494 29.2368L133.656 29.0743H133.819H133.981C133.981 29.0743 134.143 29.0743 134.143 29.2368L134.306 29.3992V29.5616C134.306 29.724 134.306 29.724 134.306 29.724C134.306 29.724 134.306 29.8865 134.143 29.8865L133.981 30.0489H133.819C133.656 30.0489 133.656 30.0489 133.656 30.0489C133.656 30.0489 133.494 30.0489 133.494 29.8865L133.332 29.724C133.332 29.724 133.332 29.724 133.332 29.5616ZM135.28 35.2466V34.9218C135.28 35.0842 135.117 35.0842 135.117 35.2466C134.955 35.2466 134.955 35.409 134.793 35.409H133.007V35.0842C133.007 35.2466 132.844 35.2466 132.844 35.409C132.682 35.409 132.682 35.5715 132.52 35.5715H131.059V34.1096H131.87V31.0235H133.007V34.1096H134.143V31.0235H135.28V34.1096H136.416V31.0235H137.553V34.1096H138.364V35.2466H135.28Z" fill="white"/>
<path d="M139.831 36.546V36.3836C139.831 36.3836 139.831 36.2212 139.993 36.2212L140.155 36.0587H140.318H140.48C140.48 36.0587 140.642 36.0587 140.642 36.2212L140.805 36.3836V36.546C140.805 36.7084 140.805 36.7084 140.805 36.7084C140.805 36.7084 140.805 36.8709 140.642 36.8709L140.48 37.0333H140.318H140.155C140.155 37.0333 139.993 37.0333 139.993 36.8709L139.831 36.7084C139.993 36.7084 139.831 36.7084 139.831 36.546ZM138.532 36.546V36.3836C138.532 36.3836 138.532 36.2212 138.694 36.2212L138.856 36.0587H139.019C139.181 36.0587 139.181 36.0587 139.181 36.0587C139.181 36.0587 139.344 36.0587 139.344 36.2212L139.506 36.3836V36.546C139.506 36.7084 139.506 36.7084 139.506 36.7084C139.506 36.7084 139.506 36.8709 139.344 36.8709L139.181 37.0333H139.019C138.856 37.0333 138.856 37.0333 138.856 37.0333C138.856 37.0333 138.694 37.0333 138.694 36.8709L138.532 36.7084C138.532 36.7084 138.532 36.7084 138.532 36.546ZM139.344 34.1096V31.0234H140.48V34.1096H141.292V35.2466H138.207V34.1096H139.344Z" fill="white"/>
<path d="M143.232 36.3836C143.232 36.3836 143.232 36.2212 143.394 36.2212L143.556 36.0587H143.719C143.881 36.0587 143.881 36.0587 143.881 36.0587C143.881 36.0587 144.043 36.0587 144.043 36.2212L144.206 36.3836V36.546V36.7084C144.206 36.7084 144.206 36.8709 144.043 36.8709L143.881 37.0333H143.719C143.556 37.0333 143.556 37.0333 143.556 37.0333C143.556 37.0333 143.394 37.0333 143.394 36.8709L143.232 36.7084V36.546V36.3836ZM142.42 37.683C142.42 37.683 142.42 37.5206 142.582 37.5206L142.745 37.3582H142.907C143.069 37.3582 143.069 37.3582 143.069 37.3582C143.069 37.3582 143.232 37.3582 143.232 37.5206L143.394 37.683V37.8454C143.394 38.0079 143.394 38.0079 143.394 38.0079C143.394 38.0079 143.394 38.1703 143.232 38.1703L143.069 38.3327H142.907H142.745C142.745 38.3327 142.582 38.3327 142.582 38.1703L142.42 38.0079V37.8454V37.683ZM141.608 36.3836C141.608 36.3836 141.608 36.2212 141.771 36.2212L141.933 36.0587H142.095H142.258C142.258 36.0587 142.42 36.0587 142.42 36.2212L142.582 36.3836V36.546V36.7084C142.582 36.7084 142.582 36.8709 142.42 36.8709L142.258 37.0333H142.095H141.933C141.933 37.0333 141.771 37.0333 141.771 36.8709L141.608 36.7084V36.546C141.446 36.546 141.608 36.3836 141.608 36.3836ZM141.121 34.1096H143.394V31.0234H144.53V34.5969V34.7593C144.53 34.7593 144.53 34.9217 144.368 34.9217L144.206 35.0842H144.043H141.283V34.1096H141.121Z" fill="white"/>
<path d="M140.315 15.7553C139.828 15.9178 138.692 15.9178 137.718 15.9178C135.607 15.9178 134.633 15.1056 134.633 13.8062C134.633 12.994 134.795 12.1819 136.257 9.58305H137.231C139.341 9.58305 140.315 11.3698 140.315 13.3189C140.478 14.6183 140.478 15.1056 140.315 15.7553ZM124.243 15.9178C120.508 15.9178 119.21 14.7808 119.21 12.3443C119.21 11.3698 119.372 10.5576 120.346 9.42062H122.294C124.243 9.42062 124.892 10.5576 124.892 12.5068C124.892 14.6183 124.73 15.2681 124.243 15.9178ZM138.042 7.14662C135.932 7.14662 133.334 7.14662 132.685 6.98419C132.685 7.6339 132.36 8.44605 132.035 9.25819C132.522 9.25819 133.172 9.25819 134.633 9.25819C133.172 11.6946 132.198 13.3189 131.061 14.6183C130.087 15.7553 127.977 15.7553 126.515 15.7553H126.028C126.84 14.9432 127.327 14.131 127.327 11.6946C127.327 8.7709 126.028 7.14662 123.268 7.14662H120.833C117.748 10.3952 116.937 11.5322 116.937 13.4813C116.937 14.2935 117.099 15.1056 117.586 15.7553H116.125C113.203 15.7553 112.391 15.2681 112.391 12.8316C112.391 9.58305 112.391 8.28362 112.391 7.6339C111.741 7.95876 110.767 8.12119 109.956 8.12119C109.956 9.09576 110.118 11.6946 110.118 14.131C108.981 15.1056 106.871 15.4305 103.624 15.5929H102.974C99.5651 15.5929 98.9157 14.6183 98.7533 12.5068C98.7533 9.09576 98.4286 7.30904 98.2663 6.33447C97.6168 6.82176 96.6427 7.14662 95.831 7.30904C95.9933 8.12119 96.318 9.9079 96.6427 13.9686C95.5063 15.1056 93.5581 15.5929 91.7722 15.5929C90.7981 15.5929 90.311 15.2681 90.311 14.7808V13.3189C89.824 13.6438 89.1746 13.8062 88.6875 13.8062C88.6875 14.2935 88.6875 15.2681 88.6875 16.0802C88.6875 17.7045 89.3369 18.6791 91.2851 18.6791C93.2334 18.6791 95.6686 17.8669 96.1557 16.8923C96.4804 16.4051 96.6427 15.9178 96.9674 15.5929C97.2921 17.7045 98.4286 18.6791 102.487 18.6791H102.974C106.059 18.5166 108.332 18.1918 109.144 17.2172C109.469 16.8923 109.793 16.2426 110.28 15.7553C110.443 17.7045 111.904 18.6791 115.476 18.6791H125.379C128.626 18.6791 130.087 18.0293 130.899 16.8923C131.224 16.4051 131.711 15.7553 132.198 14.9432C132.198 17.2172 133.984 18.6791 136.744 18.6791C137.88 18.6791 138.692 18.6791 139.828 18.5166C140.965 16.5675 142.264 15.9178 142.264 11.6946C142.751 9.09576 140.965 7.14662 138.042 7.14662Z" fill="white"/>
<path d="M183.664 4.87312C183.664 4.22341 183.664 3.08641 183.664 2.59912H181.066C181.066 3.24884 181.066 4.38584 181.066 4.87312H183.664Z" fill="white"/>
<path d="M193.886 0.649414C191.613 2.2737 190.314 3.24827 187.879 4.87256V6.49685C190.477 4.87256 191.775 3.89799 194.048 2.11127C194.048 1.62399 193.886 1.29913 193.886 0.649414Z" fill="white"/>
<path d="M124.406 4.87312C124.406 4.22341 124.406 3.08641 124.406 2.59912H121.809C121.809 3.24884 121.809 4.38584 121.809 4.87312H124.406Z" fill="white"/>
<path d="M209.8 8.12123C210.125 10.2328 210.45 14.4559 210.612 16.7299C209.963 18.1918 207.69 19.4912 206.066 20.3034C206.716 20.7907 207.528 21.7652 208.015 22.4149C208.826 21.9277 209.476 21.4404 210.125 20.9531C211.749 19.3288 212.56 17.2172 212.56 14.2935C212.56 12.0195 212.398 8.93337 212.398 7.30908C211.424 7.79637 210.612 8.12123 209.8 8.12123Z" fill="white"/>
<path d="M234.314 8.2839H224.573C227.658 6.82204 229.931 5.36018 232.529 3.89833C232.204 3.24861 231.879 2.27404 231.879 1.62432C230.418 2.76132 225.872 5.84747 221.813 8.2839C221.813 9.25847 221.813 9.90819 221.651 10.7203H233.665C235.938 10.7203 237.724 12.1822 237.724 14.4562C237.724 14.9435 237.724 15.4308 237.724 15.7556C237.074 15.7556 236.587 15.7556 235.938 15.7556H220.028C219.053 15.7556 218.566 15.4308 218.566 14.4562V0.974609C217.917 1.4619 216.781 1.78675 215.969 1.78675C216.293 3.7359 216.456 7.95904 216.618 15.7556C216.618 17.7048 217.592 18.6793 219.378 18.6793C233.178 18.6793 231.879 18.6793 235.938 18.6793C236.587 18.6793 236.912 18.6793 237.562 18.6793C238.698 16.8926 239.997 15.7556 239.997 13.1568C239.672 10.3955 237.399 8.2839 234.314 8.2839Z" fill="white"/>
<path d="M200.386 8.2836H190.645C193.892 6.65931 196.002 5.35988 198.6 3.89803C198.275 3.24831 197.951 2.27374 197.951 1.62402C196.49 2.76102 191.944 5.84717 187.885 8.2836C187.885 9.25817 187.885 9.90789 187.723 10.72H199.737C202.009 10.72 203.795 12.1819 203.795 14.4559C203.795 14.9432 203.795 15.4305 203.795 15.7553C203.146 15.7553 202.659 15.7553 202.009 15.7553H188.859C185.612 15.7553 184.151 15.1056 184.151 12.6692C183.988 11.0449 183.988 9.09574 183.988 7.30903C182.852 7.79631 181.878 8.12117 181.066 8.12117C181.391 10.2327 181.716 14.4559 181.878 16.7299C181.228 18.1917 178.956 19.4912 177.332 20.3033C177.981 20.7906 178.793 21.7652 179.28 22.4149C180.092 21.9276 180.741 21.4403 181.391 20.953C182.527 19.9785 183.177 18.679 183.501 17.0547C184.151 18.1917 185.612 18.679 188.047 18.679C198.925 18.679 197.626 18.679 201.685 18.679C202.334 18.679 202.659 18.679 203.308 18.679C204.445 16.8923 205.744 15.7553 205.744 13.1565C205.744 10.3952 203.471 8.2836 200.386 8.2836Z" fill="white"/>
<path d="M160.607 9.25821H162.717C162.879 8.44606 163.204 7.47149 163.529 6.82178H161.256C160.282 6.82178 158.658 6.82178 157.36 6.98421C156.061 8.60849 153.95 10.5576 153.95 13.3189C153.95 15.5929 155.411 16.7299 158.171 16.7299H161.418C161.094 18.8415 159.145 19.4912 156.223 19.4912H154.112C151.19 19.4912 149.891 18.0294 149.891 15.9178C149.891 15.1056 150.054 14.1311 150.216 12.5068C149.729 12.8316 148.917 12.9941 148.43 12.9941C148.43 14.1311 148.105 15.5929 148.105 17.2172C148.105 20.3034 149.729 22.2525 153.301 22.2525H155.574C160.769 22.2525 163.042 19.0039 163.042 15.9178C163.042 14.6184 162.555 13.9686 161.256 13.9686H158.821C156.872 13.9686 155.898 13.4814 155.898 12.0195C155.898 11.2074 156.385 9.90792 156.872 9.25821C157.36 9.42064 158.171 9.25821 160.607 9.25821Z" fill="white"/>
<path d="M174.895 18.8419C175.545 18.5171 176.032 18.3546 176.844 18.1922C176.844 4.06092 176.844 1.78692 177.006 1.13721C176.194 1.62449 175.058 1.94935 174.246 1.94935C174.571 3.73607 174.895 8.93378 174.895 18.8419Z" fill="white"/>
<path d="M168.074 8.12123C168.399 10.2328 168.723 14.4559 168.886 16.7299C168.236 18.1918 165.963 19.4912 164.34 20.3034C164.989 20.7907 165.801 21.7652 166.288 22.4149C167.1 21.9277 167.749 21.4404 168.399 20.9531C170.022 19.3288 170.834 17.2172 170.834 14.2935C170.834 12.0195 170.672 8.93337 170.672 7.30908C169.697 7.79637 168.886 8.12123 168.074 8.12123Z" fill="white"/>
<path d="M100.867 20.9536C100.867 21.7658 100.867 22.7403 100.867 23.2276H103.627C103.627 22.5779 103.627 21.4409 103.627 20.9536H100.867Z" fill="white"/>
<path d="M104.27 20.9536C104.27 21.7658 104.27 22.7403 104.27 23.2276H107.03C107.03 22.5779 107.03 21.4409 107.03 20.9536H104.27Z" fill="white"/>
</svg>
