<svg width="1367" height="188" viewBox="0 0 1367 188" fill="none" xmlns="http://www.w3.org/2000/svg">
<path d="M400.33 61.6602C383.98 61.6602 364.58 61.6602 359.32 60.8302C358.76 65.8202 356.83 72.4701 354.33 77.7301C358.15 77.4901 362.6 77.4601 374.6 77.4601C363.24 96.0901 355.31 107.82 346.84 118.19C339.91 127.34 324.67 127.06 314.42 127.06H310.17C316.47 120.33 319.41 115.29 319.41 95.7501C319.41 73.8601 309.71 61.6602 288.37 61.6602H268.47C245.47 85.2101 240.2 94.6401 240.2 109.6C240.2 116.21 241.89 122.02 245.48 127.06H194.53C172.08 127.06 166.54 122.9 166.54 105.45C166.54 80.2301 166.54 71.0902 166.81 66.1002C161.55 68.3102 154.62 69.7002 148.8 70.2502C149.32 77.3301 149.84 96.8001 149.9 116.01C140.83 122.91 133.21 126.47 108.55 127.07L106.27 127.06C79.9401 127.06 76.5601 120.13 76.2801 104.06C75.7301 78.5701 74.3401 65.2702 72.9601 56.9502C67.4201 60.5502 60.21 63.6002 54.67 64.7102C56.3 71.4802 58.98 84.8701 61.42 114.67C52.21 122.92 37.81 127.06 23.91 127.06C16.43 127.06 12.2701 124.84 12.2701 120.68V107.66C8.67008 109.6 3.68008 111.54 0.0800781 111.82C0.360078 115.42 0.360046 123.18 0.360046 129.55C0.640046 141.46 5.35006 149.22 20.3101 149.22C34.7201 149.22 53.0101 143.68 57.4401 136.2C59.3701 132.83 61.7101 128.84 63.3801 125.85C65.3101 141.26 72.86 149.23 104.05 149.23H105.44C129.4 148.48 138.26 144.8 144.08 137.59C146.33 134.59 149.26 130.46 152.25 126.63C154.05 141.1 163.99 149.23 192.02 149.23H307.19C332.13 149.23 343.49 144.52 349.31 136.21C352.36 132.05 355.41 127.34 359.57 121.25C359.57 138.43 372.87 149.24 393.65 149.24C401.69 149.24 408.61 148.69 417.2 148.41C425.24 133.45 435.77 128.46 435.77 97.1501C435.8 75.7901 421.94 61.6602 400.33 61.6602ZM297.25 127.89C264.71 127.57 257.41 118.79 257.41 101.29C257.41 94.3601 259.07 87.9901 265.45 78.5701H282.29C297.25 78.5701 301.96 87.1601 301.96 101.57C301.96 117.08 300.85 122.34 297.25 127.89ZM417.23 125.95C413.35 126.78 405.32 127.06 397.28 127.06C380.93 127.06 373.73 120.68 373.73 110.99C373.73 104.54 375.3 98.8701 386.51 78.5701H394.51C410.3 78.5701 418.34 91.6001 418.34 106.28C418.34 117.91 418.06 121.79 417.23 125.95Z" fill="#00A796"/>
<path d="M295.42 44.2002C294.87 39.7702 294.87 31.1802 295.42 26.4702H274.91C275.46 32.0102 275.46 40.3202 274.91 44.2002H295.42Z" fill="#00A796"/>
<path d="M117.01 166.17C117.57 171.71 117.57 180.02 117.01 183.9H137.52C136.96 179.47 136.96 170.88 137.52 166.17H117.01Z" fill="#00A796"/>
<path d="M142.77 166.17C143.33 171.71 143.33 180.02 142.77 183.9H163.28C162.73 179.47 162.73 170.88 163.28 166.17H142.77Z" fill="#00A796"/>
<path d="M605.72 156.4C611.38 153.72 615.26 152.23 621.81 150.74C622.11 36.0298 622.41 17.5898 622.71 12.5298C614.51 16.1698 611.18 17.3998 601.72 19.1298C603.81 34.6198 605.13 76.5498 605.72 156.4Z" fill="#004C6A"/>
<path d="M723.2 89.1101C716.96 77.8201 707.85 66.7101 683.03 51.1001C683.03 51.1001 681.77 62.4401 675.64 73.5501C675.64 73.5501 709.71 89.8401 720.06 121.1C720.06 121.1 696.78 129.71 675.62 131.64C656.58 133.38 655.25 119.24 656.71 101.76C656.71 101.76 651.25 103.13 644.87 103.83C644.87 103.83 642.68 123.31 644.47 133.75C646.26 144.18 650.89 154.5 667.11 154.5C686.7 154.5 715.64 143.11 722.5 139.39C722.5 139.39 727.87 129.34 729.3 125.18C731.75 118.09 728.91 99.4501 723.2 89.1101Z" fill="#004C6A"/>
<path d="M558.47 61.5498C567.5 98.6498 565.63 139.5 565.63 139.5C558.83 146.52 546.28 161.45 512.47 159.88C477.92 158.27 479.99 136.1 481.49 125.24C482.99 114.38 488.5 83.9798 488.5 83.9798C481.25 82.8498 474.26 79.1198 474.26 79.1198C474.26 79.1198 467.08 116.18 465.31 130.45C462.96 149.31 466.63 184.83 513.48 184.83C562.36 184.83 580.32 142.37 580.32 142.37C582.28 86.0798 575.98 54.2598 575.98 54.2598C566.49 59.7298 558.47 61.5498 558.47 61.5498Z" fill="#004C6A"/>
<path d="M1096.34 167.51C1096.98 173.9 1096.98 183.48 1096.34 187.95H1119.98C1119.35 182.84 1119.35 172.94 1119.98 167.51H1096.34Z" fill="#004C6A"/>
<path d="M536.78 102.38C536.15 97.2699 536.15 87.3699 536.78 81.9399H513.14C513.78 88.3299 513.78 97.9099 513.14 102.38H536.78Z" fill="#004C6A"/>
<path d="M1362.51 55.1698C1362.51 55.1698 1354.22 59.6598 1342.85 63.5098C1346.8 80.4898 1350.32 123.05 1350.32 123.05C1350.32 123.05 1339.26 129.12 1326.58 129.12C1313.91 129.12 1311.48 121.9 1310.63 112.76C1309.77 103.38 1309.6 68.8498 1309.6 68.8498C1303.05 72.2698 1291.87 73.4998 1291.87 73.4998C1291.87 73.4998 1293.2 103.61 1295.38 124.37C1289.81 126.15 1279.28 129.1 1270.44 129.1C1251.7 129.1 1247.55 123.69 1246.78 114.53C1245.97 104.89 1247.02 68.8398 1247.02 68.8398C1240.49 72.2698 1229.31 73.5198 1229.31 73.5198C1229.31 73.5198 1230.82 100.06 1231.41 121.7C1229.64 122.98 1212.38 129.15 1185.27 129.15H1159.38C1135.65 129.15 1122.48 124.75 1122.48 106.3C1122.48 79.6398 1122.48 67.6698 1122.77 62.3998C1117.21 64.7398 1109.88 66.2098 1103.73 66.7898C1104.29 74.2698 1104.84 97.1598 1104.9 117.46C1095.31 124.75 1086.95 129.15 1067.33 129.15L1065.41 129.14C1042.68 129.14 1037.77 121.82 1037.47 104.82C1036.89 77.8698 1035.05 59.8398 1033.58 51.0498C1027.72 54.8598 1020.11 58.0798 1014.25 59.2498C1015.97 66.4098 1019.18 84.5298 1021.77 116.04C1012.03 124.76 996.81 129.14 982.11 129.14C974.2 129.14 969.81 126.79 969.81 122.4V106.91C966 108.96 960.73 111.01 956.92 111.31C957.21 115.12 957.21 125.05 957.21 131.79C957.5 144.39 962.48 152.59 978.3 152.59C993.53 152.59 1012.87 146.73 1017.56 138.82C1019.6 135.26 1022.07 131.04 1023.84 127.88C1026.84 146.09 1034.99 152.59 1063.07 152.59H1064.06C1081.81 152.59 1092.6 147.9 1098.75 140.29C1101.13 137.12 1104.23 132.75 1107.39 128.71C1109.29 144.01 1127.91 152.6 1150.18 152.6H1185.26C1217.6 152.6 1223.93 144.41 1232.85 134.01C1236.27 145.97 1246 152.6 1261.39 152.6C1284.29 152.6 1291.89 144.17 1298.01 136.68C1302.18 146.46 1311.58 152.62 1324.97 152.62C1346.54 152.62 1359.45 137.34 1359.45 137.34C1363.92 127.37 1366.05 112.93 1366.01 103.06C1365.93 89.5998 1362.51 55.1698 1362.51 55.1698Z" fill="#004C6A"/>
<path d="M903.37 65.9703C878.21 65.9703 838.04 66.0403 820.66 66.0803C846.73 49.6103 884.57 29.6703 884.57 29.6703C882.01 18.6403 881.83 8.34033 881.83 8.34033L815 51.1103C814.38 55.5603 813.58 60.6803 812.48 66.0803C812.11 68.0903 811.68 70.1303 811.24 72.2202C810.14 77.0702 808.86 82.0802 807.33 87.0102C810.14 86.9402 861.49 85.8402 888.69 85.8402C895.48 85.8402 902.68 86.4202 908.88 89.4902C921.3 95.6202 922.65 105.41 920.68 117.57C920.5 118.55 918.85 128.09 918.42 128.09H878.29C866.5 128.09 814.2 128.09 814.2 128.09H813.69C786.89 128.09 777.03 123.01 775.86 102.75C774.95 89.6402 774.36 77.6602 774.07 63.0903C766.91 66.3403 760.05 68.1303 753.22 69.0403C756.18 86.3102 759.17 117.06 760.05 135.83C755.3 148.06 735.91 158.76 722.84 164.75C727.88 168.91 735.04 176.36 738.91 182.02C746.07 177.53 751.44 173.95 755.89 169.79C764.84 161.43 770.46 150.91 773.31 138.17C778.42 147.33 794.93 151.31 814.21 151.31H920.84C920.84 151.31 922.48 147.55 928.14 138.6C934.64 128.3 939.93 121.03 940.23 108.66C940.38 101.21 940.23 93.4302 937.97 86.3102C933.02 70.9703 918.27 65.9703 903.37 65.9703Z" fill="#004C6A"/>
<path d="M852.67 0.910156L816.85 27.5902L815.8 37.8102L853.8 13.4902L852.67 0.910156Z" fill="#004C6A"/>
</svg>
