<svg width="24" height="24" viewBox="0 0 24 24" fill="none" xmlns="http://www.w3.org/2000/svg">
<path d="M12 24C18.6157 24 24 18.6345 24 11.9879C24 5.36558 18.6398 0 12 0C5.38431 0 0 5.36558 0 11.9879C0 18.6345 5.36016 24 12 24Z" fill="#0C3B61"/>
<path d="M16.7596 11.3656H13.9226V8C13.237 8 12.6932 8.55704 12.6932 9.23016V12.8975H12.3859V8H12.2204C11.6057 8.06963 11.1092 8.58025 11.1092 9.23016V12.8975H10.8019V11.4584V11.3656C10.1162 11.3656 9.57247 11.9226 9.57247 12.5957V12.8975H9.26512V11.4584V11.3656C8.57951 11.3656 8.03574 11.9226 8.03574 12.5957V12.8975H7.7284V11.528V11.3656C7.04278 11.3656 6.49901 11.9226 6.49901 12.5957V14.4294H5.38785C4.01661 14.4294 3.54376 13.7795 3.54376 13.176C3.54376 12.7814 3.75654 12.2011 4.25302 11.7833L4.30031 11.7369L4.1821 11.3888L4.08754 11.4584C3.56742 11.8994 3 12.7118 3 13.4545C3 14.8008 3.87476 15.6364 5.29327 15.6364H7.75205V14.1044H18.2727V12.8278C18.2491 12.0155 17.5871 11.3656 16.7596 11.3656ZM17.1379 12.8975V13.0599H13.7335V12.4333H16.736C16.9724 12.4333 17.1379 12.619 17.1379 12.8511V12.8975V12.8975Z" fill="white"/>
<path d="M19.3633 9.31403V14.5455H20.4542V8C19.8458 8 19.3633 8.59502 19.3633 9.31403Z" fill="white"/>
</svg>
