<svg width="24" height="24" viewBox="0 0 24 24" fill="none" xmlns="http://www.w3.org/2000/svg">
<path d="M12 24C18.6157 24 24 18.6345 24 11.9879C24 5.36558 18.6398 0 12 0C5.36016 0 0 5.38974 0 12.0121C0 18.6344 5.36016 24 12 24Z" fill="#F7BC36"/>
<path d="M10.9093 15.2729C10.2901 15.2729 9.81836 15.761 9.81836 16.3638C9.81836 16.9667 10.3196 17.4548 10.9093 17.4548C11.5284 17.4548 12.0002 16.9667 12.0002 16.3638C12.0002 15.761 11.4989 15.2729 10.9093 15.2729Z" fill="white"/>
<path d="M5.89095 11.9917V15.5298C5.89095 15.8331 5.70394 16.0858 5.45459 16.0858V16.3638H5.89095C6.8468 16.3638 7.63641 15.3782 7.63641 14.1904V9.81836C6.68056 9.81836 5.89095 10.804 5.89095 11.9917Z" fill="white"/>
<path d="M16.9047 11.72H18.5452L17.99 9.81096H16.3494C15.1379 9.81096 14.1788 10.7906 14.1788 11.9964C14.1788 11.9964 14.1788 11.9461 14.1788 11.9964C14.1788 12.1471 14.0526 12.2727 13.9012 12.2727C13.7497 12.2727 13.6235 12.1471 13.6235 11.9964V9.25831C12.412 9.25831 11.4529 10.238 11.4529 11.4437V11.9964C11.4529 12.1471 11.3267 12.2727 11.1753 12.2727C11.0238 12.2727 10.8977 12.1471 10.8977 11.9964V8.7308C10.8977 7.52506 9.91331 6.54541 8.72705 6.54541V11.9964C8.72705 13.2021 9.71139 14.1818 10.8977 14.1818H18.52V12.2727H16.3494C16.3746 11.9712 16.6018 11.72 16.9047 11.72Z" fill="white"/>
<path d="M12.0001 15.2729C11.3809 15.2729 10.9092 15.761 10.9092 16.3638C10.9092 16.9667 11.4104 17.4548 12.0001 17.4548C12.6193 17.4548 13.091 16.9667 13.091 16.3638C13.091 15.761 12.5898 15.2729 12.0001 15.2729Z" fill="white"/>
</svg>
