<svg width="24" height="24" viewBox="0 0 24 24" fill="none" xmlns="http://www.w3.org/2000/svg">
<circle cx="12" cy="12" r="12" fill="#E73A2E"/>
<path d="M19.6365 10.5522L18.3326 11.1404V12.0227C18.3326 12.1784 18.1814 12.3167 18.0113 12.3167C17.8413 12.3167 17.6901 12.1784 17.6901 12.0227V10.5349L16.3862 11.1231V12.0054C16.3862 12.1611 16.235 12.2994 16.0649 12.2994C15.8949 12.2994 15.7437 12.1611 15.7437 12.0054V10.5176L14.4398 11.1058V11.9881C14.4398 12.1438 14.2886 12.2821 14.1186 12.2821C13.9485 12.2821 13.7973 12.1438 13.7973 11.9881V10.7944L12.4934 11.3826V11.9708C12.4934 12.1265 12.3423 12.2649 12.1722 12.2649C12.0021 12.2649 11.8509 12.1265 11.8509 11.9708V11.0885L10.5471 11.6767V11.9708C10.5471 12.1265 10.3959 12.2649 10.2258 12.2649C10.0557 12.2649 9.90456 12.1265 9.90456 11.9708V10.483L8.60068 11.0712V11.9535C8.60068 12.1092 8.4495 12.2476 8.27943 12.2476C8.10936 12.2476 7.95818 12.1092 7.95818 11.9535V8.18213L6.6543 8.77032V12.04C6.6543 12.853 7.37238 13.5277 8.27943 13.5277C8.63847 13.5277 8.97861 13.4239 9.24317 13.2336C9.50773 13.4239 9.84787 13.5277 10.2069 13.5277C10.566 13.5277 10.9061 13.4239 11.1707 13.2336C11.4352 13.4239 11.7754 13.5277 12.1344 13.5277C12.4934 13.5277 12.8336 13.4239 13.0981 13.2336C13.3627 13.4239 13.7028 13.5277 14.0619 13.5277C14.4209 13.5277 14.7611 13.4239 15.0256 13.2336C15.2902 13.4239 15.6303 13.5277 15.9894 13.5277C16.3484 13.5277 16.6885 13.4239 16.9531 13.2336C17.2177 13.4239 17.5578 13.5277 17.9168 13.5277C18.805 13.5277 19.542 12.8703 19.542 12.04V10.5522H19.6365Z" fill="white"/>
<path d="M5.89158 9.89989C5.89158 9.57261 5.62566 9.32715 5.31884 9.32715C4.99155 9.32715 4.74609 9.59306 4.74609 9.89989C4.74609 10.2272 5.01201 10.4726 5.31884 10.4726C5.62566 10.4726 5.89158 10.2067 5.89158 9.89989Z" fill="white"/>
<path d="M10.4726 9.91977C10.4726 9.59281 10.2362 9.34758 9.96351 9.34758C9.78169 9.34758 9.61805 9.4702 9.52714 9.63368C9.41804 9.44976 9.2544 9.32715 9.07258 9.32715C8.78166 9.32715 8.56348 9.59281 8.56348 9.89934C8.56348 10.2263 8.79985 10.4715 9.07258 10.4715C9.2544 10.4715 9.41804 10.3489 9.50896 10.1854C9.59987 10.3489 9.76351 10.4715 9.94533 10.4715C10.2362 10.492 10.4726 10.2263 10.4726 9.91977Z" fill="white"/>
<path d="M16.9638 14.4829C16.9638 14.8102 16.7252 15.0556 16.4498 15.0556C16.2663 15.0556 16.101 14.9329 16.0093 14.7693C15.9175 14.9329 15.7523 15.0556 15.5687 15.0556C15.275 15.0556 15.0547 14.7897 15.0547 14.4829C15.0547 14.1556 15.2933 13.9102 15.5687 13.9102C15.7523 13.9102 15.9175 14.0329 16.0093 14.1965C16.101 14.0329 16.2663 13.9102 16.4498 13.9102C16.7252 13.9102 16.9638 14.1761 16.9638 14.4829Z" fill="white"/>
<path d="M13.3961 9.38168C13.4328 9.30376 13.4695 9.20635 13.4695 9.10895C13.4695 8.79725 13.2309 8.56348 12.9555 8.56348C12.6802 8.56348 12.4415 8.81673 12.4415 9.10895C12.4415 9.20635 12.4599 9.30376 12.515 9.38168C12.2396 9.38168 12.001 9.63493 12.001 9.92715C12.001 10.2388 12.2396 10.4726 12.515 10.4726C12.6985 10.4726 12.8638 10.3557 12.9555 10.1999C13.0473 10.3557 13.2125 10.4726 13.3961 10.4726C13.6898 10.4726 13.9101 10.2194 13.9101 9.92715C13.9101 9.63493 13.6898 9.38168 13.3961 9.38168Z" fill="white"/>
<path d="M18.7408 15.0011C18.7776 15.079 18.8143 15.1764 18.8143 15.2738C18.8143 15.5855 18.5756 15.8193 18.3003 15.8193C18.0249 15.8193 17.7863 15.566 17.7863 15.2738C17.7863 15.1764 17.8046 15.079 17.8597 15.0011C17.5843 15.0011 17.3457 14.7478 17.3457 14.4556C17.3457 14.1439 17.5843 13.9102 17.8597 13.9102C18.0433 13.9102 18.2085 14.027 18.3003 14.1829C18.3921 14.027 18.5573 13.9102 18.7408 13.9102C19.0346 13.9102 19.2548 14.1634 19.2548 14.4556C19.2548 14.7478 19.0346 15.0011 18.7408 15.0011Z" fill="white"/>
<path d="M5.89157 10.855L4.66617 11.4627V13.6074C4.66617 13.7682 4.52409 13.9112 4.36426 13.9112L4.84376 15.0551C5.44758 14.8585 5.89157 14.2866 5.89157 13.5895V10.855Z" fill="white"/>
</svg>
