<svg width="160" height="160" viewBox="0 0 160 160" fill="none" xmlns="http://www.w3.org/2000/svg">
<g clip-path="url(#clip0_4828_15121)">
<path d="M148.05 121.955C171.131 84.6048 159.564 35.6154 122.213 12.5342C84.8627 -10.5469 35.8732 1.02066 12.7921 38.3711C-10.2891 75.7215 1.2785 124.711 38.6289 147.792C75.9793 170.873 124.969 159.306 148.05 121.955Z" stroke="#B3E5E0" stroke-width="0.5" stroke-linecap="round" stroke-linejoin="round"/>
<path d="M68 50H45V73H68V50Z" fill="#B3C9D2"/>
<path d="M73.0919 47.9081L54 67L58.9497 71.9497L78.0416 52.8579L73.0919 47.9081Z" fill="#004C6A"/>
<path d="M52.9504 55.051L48 60L60.0191 72.0225L64.9696 67.0735L52.9504 55.051Z" fill="#004C6A"/>
<path d="M68 89H45V112H68V89Z" fill="#B3C9D2"/>
<path d="M108 50H85V73H108V50Z" fill="#B3C9D2"/>
<path d="M113.092 47.9081L94 67L98.9497 71.9497L118.042 52.8579L113.092 47.9081Z" fill="#004C6A"/>
<path d="M92.9504 55.051L88 60L100.019 72.0225L104.97 67.0735L92.9504 55.051Z" fill="#004C6A"/>
<path d="M108 89H85V112H108V89Z" fill="#B3C9D2"/>
<path d="M114.092 86.9081L95 106L99.9497 110.95L119.042 91.8579L114.092 86.9081Z" fill="#004C6A"/>
<path d="M91.9497 93.0503L87 98L99.0208 110.021L103.971 105.071L91.9497 93.0503Z" fill="#004C6A"/>
</g>
<defs>
<clipPath id="clip0_4828_15121">
<rect width="160" height="160" fill="white"/>
</clipPath>
</defs>
</svg>
