<svg width="117" height="83" viewBox="0 0 117 83" fill="none" xmlns="http://www.w3.org/2000/svg">
<path d="M36.5519 78.2218C36.4926 78.3389 36.4481 78.4728 36.4185 78.6402C36.3741 78.8075 36.3593 78.9749 36.3593 79.159C36.3593 79.2762 36.3741 79.3766 36.3889 79.477C36.4037 79.5774 36.4481 79.6611 36.5074 79.728C36.5667 79.795 36.6407 79.8619 36.7444 79.9121C36.8481 79.9623 36.9815 79.9791 37.1593 79.9791H38.2556V78.6402C38.2556 78.1213 38.3889 77.7197 38.6259 77.4351C38.8778 77.1339 39.2333 77 39.6926 77L40.4481 77.0167C40.5074 77.0167 40.5667 77.0335 40.6259 77.0669C40.6852 77.1004 40.7296 77.1339 40.7593 77.1841C40.8037 77.2343 40.8333 77.2845 40.8481 77.3515C40.863 77.4184 40.8778 77.4686 40.8778 77.5523V79.9958H41.5V81H40.4333C40.3741 81 40.3148 80.9833 40.2704 80.9665C40.2111 80.9498 40.1667 80.8996 40.137 80.8661C40.0926 80.8159 40.063 80.7657 40.0481 80.7155C40.0185 80.6485 40.0185 80.5983 40.0185 80.5146V78.0042L39.6926 77.9874C39.5889 77.9874 39.5 78.0042 39.4259 78.0209C39.3519 78.0377 39.2926 78.0711 39.263 78.1213C39.2185 78.1715 39.1889 78.2385 39.1741 78.3222C39.1593 78.4059 39.1444 78.5063 39.1444 78.6234V80.4142C39.1444 80.4979 39.1296 80.5649 39.1148 80.6318C39.1 80.6987 39.0704 80.749 39.0259 80.7992C38.9815 80.8494 38.937 80.8828 38.8778 80.9163C38.8185 80.9498 38.7593 80.9665 38.7 80.9665H37.1741C36.863 80.9665 36.5963 80.9163 36.3889 80.8159C36.1815 80.7155 36.0037 80.5649 35.8704 80.3975C35.737 80.2301 35.6481 80.0293 35.5889 79.8117C35.5296 79.5941 35.5 79.3766 35.5 79.1423C35.5 79.0084 35.5 78.8912 35.5296 78.7573C35.5444 78.6234 35.5593 78.5063 35.5889 78.3891C35.6185 78.272 35.6481 78.1548 35.6778 78.0544C35.7074 77.954 35.7519 77.8536 35.7963 77.7699L36.5519 78.2218Z" fill="#004C6A"/>
<path d="M43.5063 81.5359C43.5063 81.476 43.5189 81.4012 43.5314 81.3413C43.5566 81.2814 43.5818 81.2365 43.6195 81.1916C43.6572 81.1467 43.695 81.1168 43.7453 81.0868C43.7956 81.0569 43.8459 81.0419 43.9088 81.0419C43.9591 81.0419 44.022 81.0569 44.0723 81.0868C44.1226 81.1168 44.1604 81.1467 44.1981 81.1916C44.2358 81.2365 44.261 81.2814 44.2862 81.3413C44.3113 81.4012 44.3113 81.4611 44.3113 81.5359C44.3113 81.5958 44.2987 81.6707 44.2862 81.7156C44.261 81.7755 44.2358 81.8204 44.1981 81.8653C44.1604 81.9102 44.1226 81.9401 44.0723 81.9701C44.022 82 43.9717 82 43.9088 82C43.8459 82 43.7956 81.985 43.7453 81.9701C43.695 81.9401 43.6572 81.9102 43.6195 81.8653C43.5818 81.8204 43.5566 81.7755 43.5314 81.7156C43.5189 81.6707 43.5063 81.6108 43.5063 81.5359ZM42.5755 81.5359C42.5755 81.476 42.5881 81.4012 42.6006 81.3413C42.6258 81.2814 42.6509 81.2365 42.6887 81.1916C42.7264 81.1467 42.7642 81.1168 42.8145 81.0868C42.8648 81.0569 42.9151 81.0419 42.9654 81.0419C43.0283 81.0419 43.0786 81.0569 43.1289 81.0868C43.1792 81.1168 43.217 81.1467 43.2547 81.1916C43.2925 81.2365 43.3176 81.2814 43.3428 81.3413C43.3679 81.4012 43.3679 81.4611 43.3679 81.5359C43.3679 81.5958 43.3553 81.6707 43.3428 81.7156C43.3176 81.7755 43.2925 81.8204 43.2547 81.8653C43.217 81.9102 43.1792 81.9401 43.1289 81.9701C43.0786 82 43.0283 82 42.9654 82C42.9151 82 42.8522 81.985 42.8145 81.9701C42.7642 81.9401 42.7264 81.9102 42.6887 81.8653C42.6509 81.8204 42.6258 81.7755 42.6006 81.7156C42.5881 81.6707 42.5755 81.6108 42.5755 81.5359ZM42.5 79.515H43.7579V77H44.5V79.9192C44.5 79.9341 44.5 79.9491 44.5 79.9641C44.5 80.024 44.4874 80.0838 44.4748 80.1437C44.4497 80.2036 44.4245 80.2485 44.3994 80.2784C44.3616 80.3234 44.3239 80.3533 44.2736 80.3683C44.2233 80.3832 44.173 80.3982 44.1226 80.3982H42.5V79.515Z" fill="#004C6A"/>
<path d="M46.5 76H45.5V81H46.5V76Z" fill="#004C6A"/>
<path d="M50.5 79.5522C50.5 79.7761 50.4817 80.0149 50.4634 80.2388C50.4451 80.4776 50.4085 80.7015 50.3537 80.9403C50.2805 81.2239 50.189 81.4925 50.0427 81.7463C49.8963 82 49.7317 82.209 49.4939 82.403C49.2744 82.5821 49 82.7313 48.6707 82.8358C48.3415 82.9403 47.9573 83 47.5 83V82.1045C47.7927 82.1045 48.0488 82.0746 48.25 82C48.4512 81.9254 48.6341 81.8358 48.7805 81.7015C48.9268 81.5821 49.0366 81.4328 49.1098 81.2687C49.2012 81.1045 49.2561 80.9254 49.2927 80.7313C49.3293 80.5373 49.3659 80.3433 49.3841 80.1343C49.4024 79.9254 49.4024 79.7164 49.4024 79.5224C49.4024 79.2537 49.4024 78.9701 49.3841 78.7164C49.3659 78.4478 49.3659 78.209 49.3659 78H50.4451C50.4451 78.2239 50.4634 78.4627 50.4634 78.7313C50.5 78.9851 50.5 79.2687 50.5 79.5522Z" fill="#004C6A"/>
<path d="M51.5 76H50.5V81H51.5V76Z" fill="#004C6A"/>
<path d="M52.7477 77C53.0229 77 53.2706 77.0169 53.4908 77.0339C53.711 77.0678 53.9174 77.1186 54.0963 77.1864C54.2752 77.2542 54.4266 77.339 54.578 77.4576C54.7156 77.5763 54.8394 77.6949 54.9495 77.8475C55.0596 78 55.1422 78.1525 55.211 78.339C55.2798 78.5254 55.3349 78.7288 55.3761 78.9492C55.4174 79.1695 55.445 79.4068 55.4725 79.661C55.4862 79.9153 55.5 80.2034 55.5 80.5085C55.5 80.5763 55.4862 80.6441 55.4725 80.6949C55.445 80.7627 55.4174 80.8136 55.3899 80.8644C55.3486 80.9153 55.3073 80.9492 55.2661 80.9661C55.211 81 55.156 81 55.1147 81H52.5V79.9831H54.6605C54.6468 79.6271 54.6193 79.339 54.5642 79.0848C54.5092 78.8305 54.4266 78.6441 54.3303 78.4915C54.2064 78.3051 54.0138 78.1864 53.7661 78.1017C53.5183 78.017 53.1881 77.9831 52.7752 77.9831L52.7477 77Z" fill="#004C6A"/>
<path d="M60.9696 76.5272C60.9696 76.4633 60.9862 76.3834 61.0193 76.3195C61.0525 76.2556 61.0856 76.2077 61.1354 76.1597C61.1851 76.1118 61.2348 76.0799 61.3011 76.0479C61.3674 76.016 61.4337 76 61.5 76C61.5663 76 61.6492 76.016 61.7155 76.0479C61.7818 76.0799 61.8315 76.1118 61.8812 76.1597C61.9309 76.2077 61.9641 76.2556 61.9972 76.3195C62.0304 76.3834 62.0304 76.4473 62.0304 76.5272C62.0304 76.607 62.0138 76.6709 61.9972 76.7188C61.9641 76.7827 61.9309 76.8307 61.8812 76.8786C61.8315 76.9265 61.7818 76.9585 61.7155 76.9904C61.6492 77.0224 61.5829 77.0224 61.5 77.0224C61.4337 77.0224 61.3508 77.0064 61.3011 76.9904C61.2348 76.9585 61.1851 76.9265 61.1354 76.8786C61.0856 76.8307 61.0525 76.7827 61.0193 76.7188C60.9862 76.6549 60.9696 76.5911 60.9696 76.5272ZM59.7431 76.5272C59.7431 76.4633 59.7597 76.3834 59.7928 76.3195C59.826 76.2556 59.8591 76.2077 59.9088 76.1597C59.9586 76.1118 60.0083 76.0799 60.0746 76.0479C60.1409 76.016 60.2072 76 60.2735 76C60.3398 76 60.4227 76.016 60.489 76.0479C60.5552 76.0799 60.605 76.1118 60.6547 76.1597C60.7044 76.2077 60.7376 76.2556 60.7707 76.3195C60.8039 76.3834 60.8039 76.4473 60.8039 76.5272C60.8039 76.607 60.7873 76.6709 60.7707 76.7188C60.7376 76.7827 60.7044 76.8307 60.6547 76.8786C60.605 76.9265 60.5552 76.9585 60.489 76.9904C60.4227 77.0224 60.3564 77.0224 60.2735 77.0224C60.2072 77.0224 60.1409 77.0064 60.0746 76.9904C60.0083 76.9585 59.9586 76.9265 59.9088 76.8786C59.8591 76.8307 59.826 76.7827 59.7928 76.7188C59.7597 76.6549 59.7431 76.5911 59.7431 76.5272ZM60.3895 81C60.0249 81 59.7431 80.9521 59.4945 80.8403C59.2459 80.7444 59.0635 80.6006 58.9144 80.4409C58.7652 80.2812 58.6657 80.0895 58.5994 79.8818C58.5332 79.6741 58.5 79.4665 58.5 79.2428C58.5 79.115 58.5166 78.9872 58.5166 78.8754C58.5332 78.7476 58.5663 78.6358 58.5829 78.524C58.616 78.4121 58.6492 78.3003 58.6823 78.2045C58.7155 78.1086 58.7652 78.0128 58.8149 77.9329L59.6934 78.3642C59.6436 78.476 59.5773 78.6038 59.5442 78.7636C59.5111 78.9233 59.4779 79.0831 59.4779 79.2588C59.4779 79.3706 59.4945 79.4665 59.511 79.5623C59.5276 79.6581 59.5774 79.738 59.6436 79.8019C59.7099 79.8658 59.7928 79.9297 59.9088 79.9776C60.0249 80.0256 60.1575 80.0415 60.3398 80.0415H62.7431V77.3578H63.721V80.0415H64.5V81H60.3895Z" fill="#004C6A"/>
<path d="M64.5063 81.5359C64.5063 81.476 64.5189 81.4012 64.5314 81.3413C64.5566 81.2814 64.5818 81.2365 64.6195 81.1916C64.6572 81.1467 64.695 81.1168 64.7453 81.0868C64.7956 81.0569 64.8459 81.0419 64.8962 81.0419C64.9591 81.0419 65.0094 81.0569 65.0598 81.0868C65.1101 81.1168 65.1478 81.1467 65.1855 81.1916C65.2233 81.2365 65.2484 81.2814 65.2736 81.3413C65.2987 81.4012 65.3113 81.4611 65.3113 81.5359C65.3113 81.5958 65.2987 81.6707 65.2736 81.7156C65.2484 81.7755 65.2233 81.8204 65.1855 81.8653C65.1478 81.9102 65.1101 81.9401 65.0598 81.9701C65.0094 82 64.9591 82 64.8962 82C64.8459 82 64.783 81.985 64.7453 81.9701C64.695 81.9401 64.6572 81.9102 64.6195 81.8653C64.5818 81.8204 64.5566 81.7755 64.5314 81.7156C64.5189 81.6707 64.5063 81.6108 64.5063 81.5359ZM63.5629 81.5359C63.5629 81.476 63.5755 81.4012 63.6006 81.3413C63.6258 81.2814 63.6509 81.2365 63.6887 81.1916C63.7264 81.1467 63.7642 81.1168 63.8145 81.0868C63.8648 81.0569 63.9151 81.0419 63.9654 81.0419C64.0283 81.0419 64.0786 81.0569 64.1289 81.0868C64.1792 81.1168 64.217 81.1467 64.2547 81.1916C64.2925 81.2365 64.3176 81.2814 64.3428 81.3413C64.3679 81.4012 64.3805 81.4611 64.3805 81.5359C64.3805 81.5958 64.3679 81.6707 64.3428 81.7156C64.3176 81.7755 64.2925 81.8204 64.2547 81.8653C64.217 81.9102 64.1792 81.9401 64.1289 81.9701C64.0786 82 64.0283 82 63.9654 82C63.9151 82 63.8522 81.985 63.8145 81.9701C63.7642 81.9401 63.7264 81.9102 63.6887 81.8653C63.6509 81.8204 63.6258 81.7755 63.6006 81.7156C63.5755 81.6707 63.5629 81.6108 63.5629 81.5359ZM63.5 79.515H64.7579V77H65.5V79.9192C65.5 79.9341 65.5 79.9491 65.5 79.9641C65.5 80.024 65.4874 80.0838 65.4748 80.1437C65.4497 80.2036 65.4245 80.2485 65.3994 80.2784C65.3616 80.3234 65.3239 80.3533 65.2736 80.3683C65.2233 80.3832 65.173 80.3982 65.1226 80.3982H63.5V79.515Z" fill="#004C6A"/>
<path d="M68.8793 78.0149C68.8793 78.2381 68.8793 78.4762 68.8941 78.744C68.9089 79.0119 68.9089 79.2798 68.9089 79.5774C68.9089 79.756 68.9089 79.9196 68.8941 80.0982H69.5V80.9911H68.7906C68.7315 81.2738 68.6429 81.5417 68.5394 81.7798C68.4212 82.0327 68.2882 82.2411 68.0961 82.4196C67.9187 82.5982 67.697 82.747 67.431 82.8512C67.165 82.9554 66.8547 83 66.5 83V82.1071C66.7365 82.1071 66.9286 82.0774 67.1059 82.003C67.2685 81.9286 67.4163 81.8393 67.5345 81.7054C67.6527 81.5863 67.7414 81.4375 67.8005 81.2738C67.8596 81.1101 67.9187 80.9315 67.9483 80.7381C67.9778 80.5446 68.0074 80.3512 68.0222 80.1429C68.0369 79.9345 68.0369 79.7262 68.0369 79.5179C68.0369 79.25 68.0369 78.9821 68.0222 78.7143C68.0074 78.4464 68.0074 78.2083 68.0074 78H68.8793V78.0149Z" fill="#004C6A"/>
<path d="M70.5063 81.5359C70.5063 81.476 70.5189 81.4012 70.5314 81.3413C70.5566 81.2814 70.5818 81.2365 70.6195 81.1916C70.6572 81.1467 70.695 81.1168 70.7453 81.0868C70.7956 81.0569 70.8459 81.0419 70.9088 81.0419C70.9591 81.0419 71.022 81.0569 71.0723 81.0868C71.1226 81.1168 71.1604 81.1467 71.1981 81.1916C71.2359 81.2365 71.261 81.2814 71.2862 81.3413C71.3113 81.4012 71.3239 81.4611 71.3239 81.5359C71.3239 81.5958 71.3113 81.6707 71.2862 81.7156C71.261 81.7755 71.2359 81.8204 71.1981 81.8653C71.1604 81.9102 71.1226 81.9401 71.0723 81.9701C71.022 82 70.9717 82 70.9088 82C70.8459 82 70.7956 81.985 70.7453 81.9701C70.695 81.9401 70.6572 81.9102 70.6195 81.8653C70.5818 81.8204 70.5566 81.7755 70.5314 81.7156C70.5189 81.6707 70.5063 81.6108 70.5063 81.5359ZM69.5629 81.5359C69.5629 81.476 69.5755 81.4012 69.588 81.3413C69.6132 81.2814 69.6384 81.2365 69.6761 81.1916C69.7138 81.1467 69.7516 81.1168 69.8019 81.0868C69.8522 81.0569 69.9025 81.0419 69.9528 81.0419C70.0157 81.0419 70.066 81.0569 70.1164 81.0868C70.1667 81.1168 70.2044 81.1467 70.2421 81.1916C70.2799 81.2365 70.305 81.2814 70.3302 81.3413C70.3553 81.4012 70.3679 81.4611 70.3679 81.5359C70.3679 81.5958 70.3553 81.6707 70.3302 81.7156C70.305 81.7755 70.2799 81.8204 70.2421 81.8653C70.2044 81.9102 70.1667 81.9401 70.1164 81.9701C70.066 82 70.0157 82 69.9528 82C69.9025 82 69.8396 81.985 69.8019 81.9701C69.7516 81.9401 69.7138 81.9102 69.6761 81.8653C69.6384 81.8204 69.6132 81.7755 69.588 81.7156C69.5755 81.6707 69.5629 81.6108 69.5629 81.5359ZM69.5 79.515H70.7579V77H71.5V79.9192C71.5 79.9341 71.5 79.9491 71.5 79.9641C71.5 80.024 71.4874 80.0838 71.4748 80.1437C71.4497 80.2036 71.4245 80.2485 71.3994 80.2784C71.3616 80.3234 71.3239 80.3533 71.2736 80.3683C71.2233 80.3832 71.173 80.3982 71.1226 80.3982H69.5V79.515Z" fill="#004C6A"/>
<path d="M72.5 81V79.983H74.9921C74.9762 79.6271 74.9444 79.339 74.881 79.1017C74.8175 78.8644 74.7222 78.661 74.5952 78.5085C74.4524 78.322 74.2302 78.2034 73.9444 78.1186C73.6587 78.0339 73.2778 78 72.8016 78L72.7857 77C73.1032 77 73.373 77.0169 73.6429 77.0339C73.8968 77.0678 74.1349 77.1186 74.3413 77.1864C74.5476 77.2542 74.7381 77.339 74.8968 77.4576C75.0556 77.5593 75.1984 77.6949 75.3254 77.8475C75.5317 78.1017 75.6746 78.4068 75.7698 78.7458C75.8651 79.1017 75.9286 79.5085 75.9444 79.983H76.5V81H72.5Z" fill="#004C6A"/>
<path d="M78.0704 80H79.6259V78.0169C79.4185 78.0169 79.2556 78.0169 79.1519 78.0169C79.0481 78.0169 78.9593 78.0169 78.9148 78.0169C78.8704 78.0169 78.8259 78.0169 78.8259 78.0169H78.8111C78.7222 78.0169 78.6333 78.0339 78.5444 78.0847C78.4556 78.1356 78.3815 78.2034 78.3074 78.2712C78.2333 78.3559 78.1889 78.4407 78.1444 78.5424C78.1 78.6441 78.0852 78.7458 78.0852 78.8475V80H78.0704ZM76.5 80H77.1963V78.8475C77.1963 78.6949 77.2111 78.5593 77.2556 78.4068C77.3 78.2542 77.3444 78.1186 77.4185 77.9661C77.4926 77.8305 77.5815 77.6949 77.6704 77.5763C77.7741 77.4576 77.8778 77.3559 77.9963 77.2712C78.1148 77.1864 78.2481 77.1186 78.3815 77.0678C78.5148 77.017 78.6778 77 78.8407 77L80.0852 77.0169C80.1444 77.0169 80.2037 77.0339 80.2482 77.0508C80.3074 77.0847 80.3519 77.1186 80.3815 77.1525C80.4259 77.2034 80.4556 77.2542 80.4704 77.3051C80.5 77.3559 80.5 77.4237 80.5 77.4915V80.4407C80.5 80.5085 80.4852 80.5932 80.4704 80.661C80.4556 80.7288 80.4259 80.7797 80.3815 80.8305C80.337 80.8814 80.2926 80.9153 80.2482 80.9492C80.1889 80.9831 80.1296 81 80.0704 81H76.5V80Z" fill="#004C6A"/>
<path d="M33.6295 41.0022C33.7064 40.6755 33.9528 40.4396 34.2453 40.4396C37.571 40.4578 47.194 39.9496 56.5245 40.0041C66.5786 40.0585 74.2 40.3852 83.6999 40.6574C84.3465 40.6755 84.7315 41.5466 84.3465 42.1818C83.9308 42.8895 83.5305 43.0165 82.2218 42.9984C79.6813 42.9802 77.1254 42.9621 74.585 42.9258C71.1207 42.8895 74.4002 42.8714 70.9359 42.8351C57.4483 42.708 47.6252 42.6354 34.1376 42.3814C33.7218 42.3814 33.4139 41.9096 33.5217 41.4196L33.6295 41.0022Z" fill="#004C6A"/>
<path d="M58.3169 0.645315C48.9252 11.0217 43.7127 20.4433 37.5903 28.3469C36.4645 29.8024 35.8477 30.8979 34.5677 32.1656C33.8583 32.8699 33.4573 33.3081 33.5036 33.8715C33.5961 35.4053 35.3079 35.4053 36.1407 34.5132C37.3127 33.2611 37.9913 31.6961 38.9628 30.2875C41.1681 27.1261 53.0119 10.38 58.8721 3.30592C58.9337 3.22766 59.0417 3.27461 59.1034 3.35287C64.1462 11.5538 81.5726 36 82.868 36C84.6106 36 82.2511 32.2439 81.7422 31.3048C78.8121 25.9836 61.6479 3.33722 61.0157 2.00692C59.859 -0.418926 59.3655 -0.340673 58.3169 0.645315Z" fill="#004C6A"/>
<path d="M52.8806 34.6449C57.27 34.8225 66.7493 35 70.3138 35C72.0104 35 61.5972 20.7477 59.9628 17.7294C58.8888 15.7603 58.2039 15.2438 56.6785 17.3905C52.398 23.3948 49.425 27.7367 44.5219 34.2575C44.4752 34.3382 44.5064 34.4512 44.5842 34.4512C47.5572 34.4189 48.1487 34.6449 52.8806 34.6449Z" fill="#004C6A"/>
<path d="M114.881 57.3836C114.881 54.3648 114.704 52.9497 114.5 51.5975L116.201 51C116.391 52.0849 116.5 53.327 116.5 55.4025V65.434L114.895 66V57.3836H114.881Z" fill="#004C6A"/>
<path d="M68.6706 57.4125V62.9406C68.6706 63.4026 68.6399 64.0297 68.44 64.4092C68.0865 64.5908 67.5331 64.6073 67.1026 64.6073H53.882C53.6975 64.6073 53.5131 64.5743 53.344 64.5248C52.7598 64.2772 52.3294 63.6502 52.3294 62.9406V57.0165L50.5 57.4125V64.0132C50.5 65.6634 51.7606 67 53.2978 67H65.1042C65.1042 67 67.7022 66.9505 68.7629 66.7855C69.6545 66.0924 70.5 64.7063 70.5 63.2376V62.4125V62.0165V57L68.6706 57.4125Z" fill="#004C6A"/>
<path d="M112.5 56.4774V62.4271C112.5 63.8279 111.64 65.1343 110.718 65.8111C109.64 65.9528 106.998 66 106.998 66H103.543C102.355 66 101.339 65.2602 100.917 64.2214L100.792 64.3631C99.9013 65.4649 99.0729 65.9213 97.3066 65.9843V66H92.9455C92.1483 66 91.4293 65.6695 90.9134 65.1186C90.679 65.4019 90.4289 65.638 90.1632 65.8426C89.0846 65.9843 88.5375 66 87.3183 66H75.7669C74.2038 66 72.9377 64.7251 72.9377 63.1511V57.3903C72.9377 54.3683 72.7345 52.9517 72.5 51.5981L74.4383 51C74.6727 52.086 74.7821 53.3295 74.7821 55.4071V62.1438C74.7821 63.0409 75.5012 63.7807 76.4078 63.7807H88.4906C88.9283 63.7807 89.491 63.7492 89.8662 63.5918C90.0694 63.2298 90.1006 62.6317 90.1006 62.191C90.1006 60.5226 88.6469 59.0588 86.865 59.0588H77.6895L79.4871 56.9339L80.7532 56.8237H87.3495C89.8036 56.8237 91.9764 58.8384 91.9764 61.3095V62.0965C91.992 62.128 92.0076 62.1438 92.0076 62.1438C92.0076 63.0409 92.7423 63.7807 93.6333 63.7807H97.3535C99.0416 63.7492 99.9326 63.5446 100.745 62.3484V56.8709L102.606 56.4932V62.1595C102.606 63.0409 103.325 63.7964 104.231 63.7964H107.451V63.765H109.077C109.514 63.765 110.077 63.7492 110.437 63.5761C110.64 63.2141 110.671 62.6317 110.671 62.1752V56.9024L112.5 56.4774Z" fill="#004C6A"/>
<path d="M63.1815 68H61.8185C61.6529 68 61.5 68.1429 61.5 68.3247V69.6753C61.5 69.8571 61.6401 70 61.8185 70H63.1815C63.3471 70 63.5 69.8571 63.5 69.6753V68.3247C63.5 68.1429 63.3471 68 63.1815 68Z" fill="#004C6A"/>
<path d="M81.8185 54H83.1815C83.3599 54 83.5 53.8571 83.5 53.6753V52.3247C83.5 52.1429 83.3471 52 83.1815 52H81.8185C81.6401 52 81.5 52.1429 81.5 52.3247V53.6753C81.5 53.8571 81.6401 54 81.8185 54Z" fill="#004C6A"/>
<path d="M93.8185 54H95.1815C95.3471 54 95.5 53.8571 95.5 53.6753V52.3247C95.5 52.1429 95.3471 52 95.1815 52H93.8185C93.6401 52 93.5 52.1429 93.5 52.3247V53.6753C93.5 53.8571 93.6401 54 93.8185 54Z" fill="#004C6A"/>
<path d="M97.8185 54H99.1815C99.3471 54 99.5 53.8571 99.5 53.6753V52.3247C99.5 52.1429 99.3471 52 99.1815 52H97.8185C97.6529 52 97.5 52.1429 97.5 52.3247V53.6753C97.5127 53.8571 97.6529 54 97.8185 54Z" fill="#004C6A"/>
<path d="M107.818 54H109.182C109.347 54 109.5 53.8571 109.5 53.6753V52.3247C109.5 52.1429 109.347 52 109.182 52H107.818C107.64 52 107.5 52.1429 107.5 52.3247V53.6753C107.5 53.8571 107.64 54 107.818 54Z" fill="#004C6A"/>
<path d="M13.1809 68H11.8184C11.6528 68 11.5 68.1429 11.5 68.3247V69.6753C11.5 69.8571 11.6401 70 11.8184 70H13.1809C13.3464 70 13.4993 69.8571 13.4993 69.6753V68.3247C13.512 68.1429 13.3592 68 13.1809 68Z" fill="#004C6A"/>
<path d="M16.1815 68H14.8185C14.6529 68 14.5 68.1429 14.5 68.3247V69.6753C14.5 69.8571 14.6401 70 14.8185 70H16.1815C16.3471 70 16.5 69.8571 16.5 69.6753V68.3247C16.5 68.1429 16.3471 68 16.1815 68Z" fill="#004C6A"/>
<path d="M28.8185 54H30.1815C30.3471 54 30.5 53.8571 30.5 53.6753V52.3247C30.5 52.1429 30.3471 52 30.1815 52H28.8185C28.6401 52 28.5 52.1429 28.5 52.3247V53.6753C28.5 53.8571 28.6401 54 28.8185 54Z" fill="#004C6A"/>
<path d="M44.3843 63.4803H42.2376C40.7753 63.4803 39.9352 62.7559 39.7486 61.3071L39.733 61.2441L41.6309 58.4409H42.0665C43.4665 58.4409 44.3688 59.5118 44.3688 61.1811V63.4803H44.3843ZM27.6302 58.3465H30.8815C31.3482 58.3465 31.7215 58.7244 31.7215 59.1969V61.2598C31.7215 62.1732 31.6593 63.1811 31.0681 63.4803H28.4236C27.1013 63.4016 26.7124 61.9055 26.7124 60.4724C26.7124 59.8268 26.9768 59.1339 27.6302 58.3465ZM42.6887 56.0472H38.3641L37.5085 58.4409H39.4219L36.7306 62.3307C36.1395 63.0866 35.2995 63.4803 34.3039 63.4803H33.0749H32.9505C33.4016 62.9764 33.666 62.4409 33.666 61.7638V58.1417C33.666 56.9606 32.7171 56 31.5504 56H27.988C26.2612 57.2598 24.5189 59.2283 24.7056 61.6378C24.7678 62.3622 25.0012 62.9764 25.3745 63.4803H22.6989C21.8588 63.4803 21.1743 62.7874 21.1743 61.937V56L19.0587 56.9921V62.1102L19.0276 62.1575C18.172 63.3701 17.223 63.4961 15.2474 63.4961H11.7472C10.9072 63.4961 10.2227 62.8032 10.2227 61.9528C10.2227 61.9528 10.1294 59.6535 10.0982 58.8661C10.0049 56.6457 8.12259 56.0787 6.4114 56.0787H4.63798H3.92239L3.0979 58.4567C3.11346 58.4409 3.2068 58.4409 3.75127 58.4409H5.16689C7.00254 58.4409 8.20037 58.9449 8.20037 60.2362C8.20037 61.5748 8.18482 63.1339 7.79591 63.3386C7.46923 63.5118 6.89364 63.5118 6.39584 63.5118H1.26226L0.5 66C0.5 66 6.38028 66 7.31366 66C7.84258 66 8.86929 65.3858 9.0093 64.2677C9.07152 64.6142 9.07152 64.8346 9.5071 65.3386C9.81823 65.7008 10.5183 66 10.9227 66H15.2785C17.2697 66 18.2342 65.622 19.2453 64.4567L19.3854 64.2992L19.4943 64.4882C20.0232 65.4331 21.0188 66 22.0766 66H29.8548H34.2727C35.6884 66 36.9173 65.3543 37.7262 64.1732L38.1463 63.5591L38.2552 63.8268C38.893 65.5276 40.7286 65.9842 41.7087 65.9842H44.5555L44.9133 65.6378C45.7689 64.7874 46.5 64.063 46.5 62.5827V60.1417C46.5 57.7008 44.9599 56.0472 42.6887 56.0472Z" fill="#004C6A"/>
</svg>
