<svg width="73" height="18" viewBox="0 0 73 18" fill="none" xmlns="http://www.w3.org/2000/svg">
<path d="M9.21469 10.4433H10.0967V12.9993H9.21469C8.42269 12.9993 7.76869 12.7293 7.25269 12.1893C6.59269 12.7293 5.73469 12.9993 4.67869 12.9993H3.54469C2.60869 12.9993 1.84069 12.7593 1.24069 12.2793C0.652687 11.7993 0.346688 11.2053 0.322688 10.4973L0.304688 9.32733H2.39269C2.39269 9.65133 2.40469 9.89733 2.42869 10.0653C2.45269 10.3173 2.69269 10.4433 3.14869 10.4433H4.98469C5.39269 10.4433 5.67469 10.3773 5.83069 10.2453C5.98669 10.1013 6.04069 9.90933 5.99269 9.66933L5.93869 9.45333L4.60669 4.17933L6.82069 3.56733C7.37269 5.71533 7.82269 7.47933 8.17069 8.85933C8.32669 9.49533 8.46469 9.92133 8.58469 10.1373C8.71669 10.3413 8.92669 10.4433 9.21469 10.4433Z" fill="#004C6A"/>
<path d="M16.5178 9.50733C16.5658 9.89133 16.6618 10.1433 16.8058 10.2633C16.9618 10.3833 17.2558 10.4433 17.6878 10.4433V12.9993C16.7518 12.9993 15.9958 12.7593 15.4198 12.2793C14.8078 12.7593 14.0278 12.9993 13.0798 12.9993H9.91177V10.4433H13.0798C13.5478 10.4433 13.8658 10.3833 14.0338 10.2633C14.2018 10.1433 14.2738 9.93933 14.2498 9.65133V9.61533L14.0518 7.40133L16.3198 7.18533L16.5178 9.39933V9.50733ZM10.1098 15.6813L11.5678 14.2053L13.0438 15.6813L11.5678 17.1573L10.1098 15.6813ZM13.7098 15.6813L15.1678 14.2053L16.6438 15.6813L15.1678 17.1573L13.7098 15.6813Z" fill="#004C6A"/>
<path d="M23.9855 1.76733L22.3295 3.44133L20.6735 1.76733L22.3295 0.111328L23.9855 1.76733ZM26.5055 10.4433V12.9993H25.4615C24.3695 12.9993 23.2355 12.7773 22.0595 12.3333C20.7995 12.7773 19.5935 12.9993 18.4415 12.9993H17.5055V10.4433H18.4415C18.7175 10.4433 18.9275 10.4373 19.0715 10.4253C18.6635 9.89733 18.4835 9.40533 18.5315 8.94933L18.6395 7.88733C18.7475 6.87933 19.1795 6.06933 19.9355 5.45733C20.7035 4.83333 21.5795 4.57533 22.5635 4.68333C23.4995 4.77933 24.2615 5.21733 24.8495 5.99733C25.4375 6.77733 25.7015 7.64733 25.6415 8.60733L25.5875 9.43533C25.5755 9.75933 25.4315 10.0953 25.1555 10.4433H26.5055ZM20.7995 9.05733C21.0395 9.38133 21.4355 9.65733 21.9875 9.88533C22.7435 9.65733 23.1875 9.41733 23.3195 9.16533L23.3915 8.58933C23.4395 8.26533 23.3495 7.96533 23.1215 7.68933C22.9055 7.41333 22.6235 7.25133 22.2755 7.20333C21.9155 7.16733 21.5975 7.25733 21.3215 7.47333C21.0455 7.68933 20.8955 7.97133 20.8715 8.31933L20.7995 9.05733Z" fill="#004C6A"/>
<path d="M33.3137 5.81733C34.2257 6.30933 34.7897 7.14333 35.0057 8.31933C35.2217 9.48333 35.0297 10.6233 34.4297 11.7393C34.1057 12.3393 33.6437 12.7473 33.0437 12.9633C32.4437 13.1793 31.8257 13.1313 31.1897 12.8193L29.1737 11.7753C28.4657 12.5913 27.5837 12.9993 26.5277 12.9993H26.3297V10.4433H26.5277C27.1517 10.4433 27.6017 10.2093 27.8777 9.74133L29.2097 7.16733C29.6297 6.37533 30.2237 5.85333 30.9917 5.60133C31.7717 5.33733 32.5457 5.40933 33.3137 5.81733ZM32.6297 10.7133C32.9417 10.1613 33.0917 9.63333 33.0797 9.12933C33.0797 8.61333 32.8877 8.24733 32.5037 8.03133C32.1917 7.86333 31.8917 7.85133 31.6037 7.99533C31.3157 8.12733 31.0637 8.40333 30.8477 8.82333L30.3977 9.68733L32.4677 10.7313C32.4797 10.7433 32.4977 10.7553 32.5217 10.7673C32.5697 10.7913 32.5997 10.7853 32.6117 10.7493C32.6237 10.7373 32.6297 10.7253 32.6297 10.7133Z" fill="#004C6A"/>
<path d="M39.9104 17.6071L39.3164 15.1411C40.8044 14.7331 41.7284 14.4151 42.0884 14.1871C42.5684 13.8871 42.7784 13.4011 42.7184 12.7291C42.7184 12.6931 42.7124 12.6511 42.7004 12.6031L41.9804 7.43713L44.2304 7.09513L44.9504 12.2971C45.1544 13.8211 44.8484 14.9551 44.0324 15.6991C43.2284 16.4431 41.8544 17.0791 39.9104 17.6071Z" fill="#004C6A"/>
<path d="M50.9122 12.9991C49.6402 12.9991 48.7342 12.6931 48.1942 12.0811C47.6542 11.4691 47.3542 10.4131 47.2942 8.91313L46.9702 0.633125L49.2382 0.525125L49.5622 8.91313C49.5742 9.62113 49.6462 10.0531 49.7782 10.2091C49.9222 10.3651 50.3002 10.4431 50.9122 10.4431H51.0922V12.9991H50.9122Z" fill="#004C6A"/>
<path d="M56.6579 10.4431V12.9991C55.7219 12.9991 54.9659 12.7591 54.3899 12.2791C53.7779 12.7591 52.9979 12.9991 52.0499 12.9991H50.9159V10.4431H52.0499C52.5179 10.4431 52.8359 10.3831 53.0039 10.2631C53.1719 10.1431 53.2439 9.93913 53.2199 9.65112V9.61513L53.0219 7.40112L55.2899 7.18513L55.4879 9.39913V9.41712C55.5239 9.82512 55.6199 10.1011 55.7759 10.2451C55.9319 10.3771 56.2259 10.4431 56.6579 10.4431ZM50.6099 15.6271L52.2659 13.9711L53.9399 15.6271L52.2659 17.3011L50.6099 15.6271Z" fill="#004C6A"/>
<path d="M62.9505 2.12712L61.2945 3.78312L59.6205 2.12712L61.2945 0.453125L62.9505 2.12712ZM63.2025 5.47513L67.7565 8.10313L67.4325 11.0551L62.1945 12.4591C60.8505 12.8191 58.9725 12.9991 56.5605 12.9991H56.4705V10.4431H56.5785C58.8465 10.4431 60.5325 10.2931 61.6365 9.99312L65.0205 9.18313L62.1045 7.70713C61.6725 7.47913 61.2285 7.43113 60.7725 7.56313C60.3285 7.68313 59.9805 7.95313 59.7285 8.37313L59.4225 8.94913L57.4245 7.70713L57.7845 7.05913C58.3725 6.01513 59.1705 5.34913 60.1785 5.06113C61.1865 4.76113 62.1945 4.89913 63.2025 5.47513Z" fill="#004C6A"/>
<path d="M70.4723 13.0711L69.9863 0.633125L72.2723 0.525125L72.7403 12.9631L70.4723 13.0711Z" fill="#004C6A"/>
</svg>
