<svg width="20" height="20" viewBox="0 0 20 20" fill="none" xmlns="http://www.w3.org/2000/svg">
<path d="M9.16797 12.5013H10.8346V14.168H9.16797V12.5013ZM9.16797 5.83464H10.8346V10.8346H9.16797V5.83464ZM9.99297 1.66797C5.39297 1.66797 1.66797 5.4013 1.66797 10.0013C1.66797 14.6013 5.39297 18.3346 9.99297 18.3346C14.6013 18.3346 18.3346 14.6013 18.3346 10.0013C18.3346 5.4013 14.6013 1.66797 9.99297 1.66797ZM10.0013 16.668C6.31797 16.668 3.33464 13.6846 3.33464 10.0013C3.33464 6.31797 6.31797 3.33464 10.0013 3.33464C13.6846 3.33464 16.668 6.31797 16.668 10.0013C16.668 13.6846 13.6846 16.668 10.0013 16.668Z" fill="#DC3545"/>
</svg>
