<svg width="20" height="21" viewBox="0 0 20 21" fill="none" xmlns="http://www.w3.org/2000/svg">
<path d="M0 10.4889C0 16.0038 4.48 20.4797 10 20.4797C15.52 20.4797 20 16.0038 20 10.4889C20 4.97393 15.52 0.498047 10 0.498047C4.48 0.498047 0 4.97393 0 10.4889ZM18 10.4889C18 14.9048 14.42 18.4815 10 18.4815C5.58 18.4815 2 14.9048 2 10.4889C2 6.07292 5.58 2.49621 10 2.49621C14.42 2.49621 18 6.07292 18 10.4889ZM6 10.4889L10 6.49254L11.41 7.90124L9.83 9.48978H14V11.4879H9.83L11.42 13.0765L10 14.4852L6 10.4889Z" fill="#00A796"/>
</svg>
