<svg width="9" height="11" viewBox="0 0 9 11" fill="none" xmlns="http://www.w3.org/2000/svg">
<path d="M8.05263 10H2.84211V3H8.05263V10ZM8.05263 2H2.84211C2.59085 2 2.34988 2.10536 2.17221 2.29289C1.99455 2.48043 1.89474 2.73478 1.89474 3V10C1.89474 10.2652 1.99455 10.5196 2.17221 10.7071C2.34988 10.8946 2.59085 11 2.84211 11H8.05263C8.30389 11 8.54486 10.8946 8.72252 10.7071C8.90019 10.5196 9 10.2652 9 10V3C9 2.73478 8.90019 2.48043 8.72252 2.29289C8.54486 2.10536 8.30389 2 8.05263 2ZM6.63158 0H0.947368C0.696111 0 0.455144 0.105357 0.277478 0.292893C0.0998117 0.48043 0 0.734784 0 1V8H0.947368V1H6.63158V0Z" fill="#00A796"/>
</svg>
