<svg width="16" height="17" viewBox="0 0 16 17" fill="none" xmlns="http://www.w3.org/2000/svg">
<path d="M7.2 10.8801H8.8V12.4828H7.2V10.8801ZM7.2 4.46952H8.8V9.27748H7.2V4.46952ZM8 0.462891C3.576 0.462891 0 4.06886 0 8.47615C0 10.6014 0.842855 12.6396 2.34315 14.1424C3.08601 14.8865 3.96793 15.4767 4.93853 15.8794C5.90914 16.2821 6.94943 16.4894 8 16.4894C10.1217 16.4894 12.1566 15.6452 13.6569 14.1424C15.1571 12.6396 16 10.6014 16 8.47615C16 7.42383 15.7931 6.38182 15.391 5.40961C14.989 4.43739 14.3997 3.55402 13.6569 2.80992C12.914 2.06582 12.0321 1.47557 11.0615 1.07286C10.0909 0.67016 9.05058 0.462891 8 0.462891ZM8 14.8868C6.30261 14.8868 4.67475 14.2114 3.47452 13.0091C2.27428 11.8069 1.6 10.1763 1.6 8.47615C1.6 6.77595 2.27428 5.14539 3.47452 3.94317C4.67475 2.74094 6.30261 2.06554 8 2.06554C9.69739 2.06554 11.3253 2.74094 12.5255 3.94317C13.7257 5.14539 14.4 6.77595 14.4 8.47615C14.4 10.1763 13.7257 11.8069 12.5255 13.0091C11.3253 14.2114 9.69739 14.8868 8 14.8868Z" fill="#00A796"/>
</svg>
