<?xml version="1.0" encoding="UTF-8" ?>
<!DOCTYPE svg PUBLIC "-//W3C//DTD SVG 1.1//EN" "http://www.w3.org/Graphics/SVG/1.1/DTD/svg11.dtd">
<svg width="512pt" height="512pt" viewBox="0 0 512 512" version="1.1" xmlns="http://www.w3.org/2000/svg">
<g id="#004c6a">
<path fill="#004c6a" opacity="1.00" d=" M 121.40 32.48 C 133.56 31.46 145.80 32.25 158.00 32.00 C 169.90 32.32 182.35 30.59 193.63 35.38 C 211.61 42.23 224.20 60.75 223.98 79.99 C 224.01 197.33 224.01 314.67 223.98 432.01 C 224.36 454.38 207.07 475.31 185.02 479.12 C 172.11 480.90 158.99 479.60 145.99 480.00 C 135.37 479.67 124.44 481.14 114.12 477.91 C 98.49 473.29 85.72 460.17 81.65 444.37 C 79.56 437.10 80.04 429.47 80.00 422.00 C 80.00 308.33 80.00 194.67 80.00 81.00 C 79.07 57.40 97.96 35.27 121.40 32.48 Z" />
<path fill="#004c6a" opacity="1.00" d=" M 329.40 32.48 C 341.56 31.46 353.80 32.25 366.00 32.00 C 377.89 32.32 390.35 30.59 401.63 35.38 C 419.61 42.23 432.20 60.75 431.98 79.99 C 432.01 197.33 432.01 314.67 431.98 432.01 C 432.37 454.38 415.06 475.32 393.02 479.12 C 379.77 480.91 366.33 479.60 353.00 480.00 C 342.70 479.71 332.11 481.06 322.12 477.90 C 306.49 473.29 293.72 460.17 289.65 444.37 C 287.56 437.10 288.04 429.47 288.00 422.00 C 288.00 308.33 288.00 194.66 288.00 80.99 C 287.07 57.39 305.96 35.27 329.40 32.48 Z" />
</g>
</svg>
