<svg width="17" height="14" viewBox="0 0 17 14" fill="none" xmlns="http://www.w3.org/2000/svg">
<path d="M7.65 2.33333H11.9V3.88889H7.65V2.33333ZM5.1 4.66667V0H14.45V4.66667C15.1263 4.66667 15.7749 4.9125 16.2531 5.35008C16.7313 5.78767 17 6.38116 17 7V11.6667H14.45V14H5.1V11.6667H4.25V4.66667H5.1ZM6.8 1.55556V4.66667H12.75V1.55556H6.8ZM6.8 9.33333V12.4444H12.75V9.33333H6.8ZM14.45 6.22222C14.2246 6.22222 14.0084 6.30417 13.849 6.45003C13.6896 6.59589 13.6 6.79372 13.6 7C13.6 7.20628 13.6896 7.40411 13.849 7.54997C14.0084 7.69583 14.2246 7.77778 14.45 7.77778C14.6754 7.77778 14.8916 7.69583 15.051 7.54997C15.2104 7.40411 15.3 7.20628 15.3 7C15.3 6.79372 15.2104 6.59589 15.051 6.45003C14.8916 6.30417 14.6754 6.22222 14.45 6.22222ZM1.7 4.66667H2.55C2.77543 4.66667 2.99163 4.74861 3.15104 4.89447C3.31045 5.04033 3.4 5.23816 3.4 5.44444V10.8889C3.4 11.0952 3.31045 11.293 3.15104 11.4389C2.99163 11.5847 2.77543 11.6667 2.55 11.6667H1.7C1.24913 11.6667 0.81673 11.5028 0.497918 11.2111C0.179107 10.9193 0 10.5237 0 10.1111V6.22222C0 5.80966 0.179107 5.414 0.497918 5.12228C0.81673 4.83056 1.24913 4.66667 1.7 4.66667Z" fill="#42474D"/>
</svg>
