<?xml version="1.0" encoding="UTF-8" ?>
<!DOCTYPE svg PUBLIC "-//W3C//DTD SVG 1.1//EN" "http://www.w3.org/Graphics/SVG/1.1/DTD/svg11.dtd">
<svg width="512pt" height="512pt" viewBox="0 0 512 512" version="1.1" xmlns="http://www.w3.org/2000/svg">
<g id="#C4C4C4">
<path fill="#C4C4C4" opacity="1.00" d=" M 0.00 73.15 C 73.14 73.15 146.28 73.15 219.42 73.15 C 219.46 145.79 219.43 218.42 219.44 291.05 C 219.40 293.79 217.54 296.03 216.49 298.45 C 193.16 345.22 169.64 391.90 146.42 438.73 C 109.82 439.00 73.20 438.78 36.58 438.84 C 60.92 390.07 85.36 341.34 109.69 292.57 C 73.13 292.55 36.56 292.57 0.00 292.56 L 0.00 73.15 Z" />
<path fill="#C4C4C4" opacity="1.00" d=" M 292.58 73.15 C 365.72 73.15 438.86 73.15 512.00 73.15 L 512.00 292.52 C 487.64 341.31 463.24 390.08 438.82 438.84 C 402.31 438.87 365.79 438.81 329.27 438.87 C 353.39 390.01 377.99 341.37 402.26 292.58 C 365.69 292.53 329.12 292.61 292.56 292.54 C 292.58 219.41 292.53 146.28 292.58 73.15 Z" />
</g>
</svg>
