<svg width="50" height="50" viewBox="0 0 50 50" fill="none" xmlns="http://www.w3.org/2000/svg">
<path d="M21.3555 15.1836C21.3555 17.7169 19.2971 19.9336 16.6055 19.9336C14.0721 19.9336 11.8555 17.8753 11.8555 15.1836C11.8555 12.6503 13.9138 10.4336 16.6055 10.4336C19.2971 10.4336 21.3555 12.6503 21.3555 15.1836Z" fill="#5BC4BF"/>
<path d="M16.607 20.25C11.6987 20.25 7.58203 24.2083 7.58203 29.275V33.55H25.632V29.275C25.632 24.2083 21.6737 20.25 16.607 20.25Z" fill="#5BC4BF"/>
<path d="M38.1406 15.1836C38.1406 17.7169 36.0823 19.9336 33.3906 19.9336C30.8573 19.9336 28.6406 17.8753 28.6406 15.1836C28.6406 12.6503 30.699 10.4336 33.3906 10.4336C35.924 10.4336 38.1406 12.6503 38.1406 15.1836Z" fill="#5BC4BF"/>
<path d="M33.3922 20.25C28.3255 20.25 24.3672 24.3667 24.3672 29.275V33.55H42.4172V29.275C42.4172 24.2083 38.3005 20.25 33.3922 20.25Z" fill="#5BC4BF"/>
<path d="M29.7461 21.2012C29.7461 23.7345 27.6878 25.9512 24.9961 25.9512C22.4628 25.9512 20.2461 23.8928 20.2461 21.2012C20.2461 18.6678 22.3044 16.4512 24.9961 16.4512C27.5294 16.4512 29.7461 18.6678 29.7461 21.2012Z" fill="#004C6A"/>
<path d="M24.9977 26.2676C19.931 26.2676 15.9727 30.3842 15.9727 35.2926V39.5676H34.0227V35.2926C34.0227 30.2259 30.0643 26.2676 24.9977 26.2676Z" fill="#004C6A"/>
</svg>
