<svg width="40" height="40" viewBox="0 0 40 40" fill="none" xmlns="http://www.w3.org/2000/svg">
<path d="M15.7622 25.7129H12.043V29.4321C12.0518 30.7445 12.5771 32.0005 13.5051 32.9285C14.433 33.8565 15.6891 34.3817 17.0014 34.3906H20.7184V30.6714C20.7095 29.3594 20.1845 28.1037 19.2571 27.1758C18.3296 26.2479 17.0741 25.7224 15.7622 25.7129Z" fill="#00AA96"/>
<path d="M26.1107 23.2305H29.8269V26.9497C29.818 28.2622 29.2927 29.5183 28.3645 30.4463C27.4364 31.3743 26.1801 31.8995 24.8677 31.9082H21.1484V28.1889C21.1573 26.8759 21.6831 25.6193 22.6119 24.6912C23.5407 23.7631 24.7978 23.2383 26.1107 23.2305Z" fill="#5BC4BF"/>
<path d="M21.2699 9.92988C21.2699 9.55008 20.962 9.24219 20.5822 9.24219C20.2024 9.24219 19.8945 9.55008 19.8945 9.92988V36.7468C19.8945 37.1266 20.2024 37.4345 20.5822 37.4345C20.962 37.4345 21.2699 37.1266 21.2699 36.7468V9.92988Z" fill="#004E6E"/>
<path d="M26.5184 2.09842C24.7653 2.11031 23.0874 2.81199 21.8478 4.05164C20.6081 5.29128 19.9064 6.96919 19.8945 8.72227V13.69H24.8615C26.6145 13.6781 28.2924 12.9764 29.5321 11.7367C30.7717 10.4971 31.4734 8.8192 31.4853 7.06612V2.09766L26.5184 2.09842Z" fill="#00AA96"/>
<path d="M13.2692 7.89453H8.30078V12.863C8.31267 14.6161 9.01436 16.294 10.254 17.5336C11.4936 18.7733 13.1715 19.475 14.9246 19.4868H19.8931V14.5191C19.8814 12.7659 19.1798 11.0878 17.9401 9.84803C16.7005 8.60822 15.0225 7.90642 13.2692 7.89453Z" fill="#5BC4BF"/>
</svg>
