<svg width="40" height="40" viewBox="0 0 40 40" fill="none" xmlns="http://www.w3.org/2000/svg">
<path d="M16.5849 30.427H14.1141V37.1455H12.4518V30.4278H10.0156V29.0816H16.5849V30.427ZM22.3849 33.6478H19.1941V35.8078H22.9379V37.1455H17.5287V29.0801H22.9249V30.4262H19.1941V32.3455H22.3849V33.6478ZM30.4795 37.1455H28.8172V33.6839H25.5764V37.1455H23.9133V29.0801H25.5756V32.3455H28.8164V29.0801H30.4787L30.4795 37.1455Z" fill="#004E6E"/>
<path d="M20.1048 2.57422C17.8984 2.5848 15.7863 3.47009 14.2318 5.03588C12.6772 6.60167 11.8072 8.72011 11.8125 10.9265C11.8125 17.4711 19.3256 24.2288 19.6456 24.5127C19.7725 24.6262 19.9368 24.689 20.1071 24.689C20.2774 24.689 20.4417 24.6262 20.5687 24.5127C20.8887 24.2281 28.4018 17.4704 28.4018 10.9258C28.4069 8.71868 27.5361 6.59973 25.9806 5.03398C24.4251 3.46823 22.3119 2.58359 20.1048 2.57422V2.57422ZM20.1048 15.4734C19.1937 15.4734 18.303 15.2033 17.5454 14.697C16.7878 14.1908 16.1973 13.4713 15.8486 12.6295C15.4999 11.7877 15.4087 10.8614 15.5864 9.96776C15.7642 9.0741 16.203 8.25323 16.8472 7.60894C17.4915 6.96465 18.3124 6.52588 19.2061 6.34812C20.0997 6.17037 21.026 6.2616 21.8678 6.61028C22.7096 6.95897 23.4291 7.54945 23.9353 8.30706C24.4416 9.06466 24.7118 9.95536 24.7118 10.8665C24.7095 12.0877 24.2234 13.2582 23.3599 14.1216C22.4965 14.9851 21.326 15.4712 20.1048 15.4734Z" fill="#0BB8AE"/>
</svg>
