<svg width="40" height="40" viewBox="0 0 40 40" fill="none" xmlns="http://www.w3.org/2000/svg">
<path d="M8.41797 17.2988H31.2903V30.8304C31.2903 31.8155 30.8989 32.7604 30.2023 33.457C29.5057 34.1536 28.5608 34.545 27.5757 34.545H12.1326C11.1474 34.545 10.2026 34.1536 9.50595 33.457C8.80933 32.7604 8.41797 31.8155 8.41797 30.8304V17.2988Z" fill="#5BC4BF"/>
<path d="M31.2891 24.5742V17.3019H36.3329C36.7783 17.3019 37.2055 17.4788 37.5206 17.7937C37.8356 18.1086 38.0127 18.5357 38.0129 18.9811V22.8942C38.0129 23.3398 37.8359 23.7671 37.5208 24.0822C37.2058 24.3972 36.7785 24.5742 36.3329 24.5742H31.2891Z" fill="#5BC4BF"/>
<path d="M16.3031 13.8501C16.1008 13.8503 15.9054 13.7762 15.7541 13.6418C15.6028 13.5074 15.5061 13.3222 15.4824 13.1212C15.4588 12.9203 15.5098 12.7175 15.6258 12.5516C15.7418 12.3858 15.9147 12.2684 16.1116 12.2217C16.3779 12.1486 16.6242 12.0161 16.8319 11.8341C17.0397 11.652 17.2034 11.4254 17.3108 11.1709C17.5826 10.6413 17.6521 10.0308 17.5062 9.45368C17.3604 8.87657 17.0093 8.37233 16.5185 8.03541C16.0156 7.65091 15.5926 7.17195 15.2731 6.62541C14.7707 5.78022 14.5531 4.79603 14.6524 3.81779C14.6631 3.70953 14.6951 3.60451 14.7466 3.50867C14.798 3.41284 14.868 3.32815 14.9523 3.25946C15.0367 3.19077 15.1338 3.13946 15.2381 3.10847C15.3424 3.07748 15.4517 3.06733 15.5599 3.0788C15.6681 3.09026 15.773 3.12297 15.8684 3.17514C15.9639 3.2273 16.048 3.298 16.1161 3.38285C16.1842 3.46769 16.2349 3.56512 16.2651 3.66962C16.2953 3.77412 16.3046 3.8836 16.2924 3.99169C16.2334 4.62512 16.3781 5.26075 16.7055 5.80622C16.9296 6.1811 17.2256 6.50809 17.5762 6.76851C18.1004 7.15861 18.5244 7.66785 18.8131 8.25401C19.0795 8.82181 19.2166 9.44157 19.2146 10.0687C19.2126 10.6959 19.0715 11.3147 18.8016 11.8808C18.5871 12.3573 18.2684 12.7796 17.869 13.1165C17.4696 13.4535 16.9997 13.6965 16.4939 13.8277C16.4313 13.8422 16.3674 13.8497 16.3031 13.8501Z" fill="#004C6A"/>
<path d="M22.1699 13.8509C21.9677 13.8507 21.7725 13.7764 21.6215 13.6419C21.4705 13.5073 21.3741 13.322 21.3507 13.1211C21.3273 12.9202 21.3784 12.7177 21.4944 12.5521C21.6104 12.3864 21.7832 12.2692 21.9799 12.2225C22.2462 12.1493 22.4925 12.0168 22.7002 11.8348C22.9079 11.6528 23.0717 11.4261 23.1792 11.1717C23.3415 10.8276 23.4267 10.4521 23.429 10.0716C23.4313 9.69108 23.3504 9.31469 23.1922 8.96863C23.0039 8.59655 22.7271 8.27629 22.3861 8.0362C21.8839 7.65051 21.4605 7.1718 21.1391 6.6262C20.6369 5.78039 20.4198 4.79566 20.5199 3.81708C20.5434 3.5994 20.6524 3.39984 20.8229 3.2625C20.9934 3.12517 21.2115 3.06138 21.4292 3.08484C21.6468 3.10831 21.8463 3.21725 21.9836 3.38777C22.121 3.55828 22.1849 3.7763 22.1615 3.99399C22.1004 4.62686 22.2447 5.26254 22.573 5.80701C22.7962 6.18216 23.0916 6.50924 23.4422 6.7693C23.968 7.15902 24.3929 7.66893 24.6815 8.25631C24.9474 8.82396 25.0842 9.44343 25.0822 10.0703C25.0803 10.6971 24.9394 11.3157 24.6699 11.8816C24.4554 12.3581 24.1368 12.7804 23.7374 13.1173C23.338 13.4543 22.868 13.6973 22.3622 13.8285C22.2992 13.843 22.2347 13.8505 22.1699 13.8509V13.8509Z" fill="#004C6A"/>
<path d="M5.38281 34.3735V35.7058C5.38281 36.0215 5.6387 36.2773 5.95435 36.2773H33.752C34.0677 36.2773 34.3236 36.0215 34.3236 35.7058V34.3735C34.3236 34.0578 34.0677 33.802 33.752 33.802H5.95435C5.6387 33.802 5.38281 34.0578 5.38281 34.3735Z" fill="#004C6A"/>
</svg>
