<svg width="40" height="40" viewBox="0 0 40 40" fill="none" xmlns="http://www.w3.org/2000/svg">
<path d="M33.4667 9.01654C33.4394 8.81999 33.3552 8.63572 33.2246 8.48635C33.0939 8.33698 32.9225 8.22904 32.7313 8.17577L20.209 4.69346C20.0306 4.64385 19.842 4.64385 19.6636 4.69346L7.14055 8.17577C6.94939 8.22904 6.77795 8.33698 6.64731 8.48635C6.51666 8.63572 6.4325 8.81999 6.40516 9.01654C6.33285 9.53885 4.67593 21.8781 8.92516 28.0165C11.5249 31.7576 15.3243 34.4987 19.6944 35.7858C19.8516 35.8237 20.0156 35.8237 20.1729 35.7858C24.543 34.4987 28.3424 31.7577 30.9421 28.0165C35.1959 21.8781 33.539 9.53885 33.4667 9.01654ZM28.0113 16.2204L19.4729 24.7589C19.3783 24.8535 19.2661 24.9285 19.1426 24.9797C19.019 25.0309 18.8866 25.0573 18.7529 25.0573C18.6191 25.0573 18.4867 25.0309 18.3631 24.9797C18.2396 24.9285 18.1274 24.8535 18.0329 24.7589L12.7521 19.4781C12.6575 19.3836 12.5824 19.2713 12.5312 19.1478C12.48 19.0242 12.4536 18.8918 12.4536 18.7581C12.4536 18.6243 12.48 18.4919 12.5312 18.3684C12.5824 18.2448 12.6575 18.1326 12.7521 18.0381L13.799 16.9919C13.99 16.801 14.249 16.6938 14.519 16.6938C14.789 16.6938 15.048 16.801 15.239 16.9919L18.7498 20.5019L25.519 13.7327C25.6135 13.6381 25.7258 13.563 25.8493 13.5118C25.9728 13.4606 26.1053 13.4342 26.239 13.4342C26.3727 13.4342 26.5052 13.4606 26.6287 13.5118C26.7523 13.563 26.8645 13.6381 26.959 13.7327L28.0075 14.7812C28.1986 14.9716 28.3064 15.2301 28.3071 15.5C28.3079 15.7698 28.2015 16.0289 28.0113 16.2204Z" fill="#5BC4BF"/>
<path d="M18.7459 20.4546L15.1267 16.8083C14.9429 16.6921 14.7268 16.6374 14.5099 16.6528C14.2931 16.6682 14.0873 16.753 13.9217 16.8939C13.4943 17.2544 13.0911 17.6427 12.7153 18.0568C12.6201 18.1473 12.5447 18.2561 12.4929 18.3768C12.4412 18.4975 12.4141 18.6271 12.4141 18.7584C12.4141 18.8897 12.4412 19.0201 12.4929 19.1408C12.5447 19.2614 12.6201 19.3703 12.7153 19.4608C13.4076 20.1992 17.8798 24.6148 17.8798 24.6148C17.8798 24.6148 18.7592 25.5639 19.5084 24.7177C20.2576 23.8715 27.9474 16.2945 27.9474 16.2945C28.0564 16.2039 28.1457 16.0919 28.2096 15.9654C28.2735 15.8389 28.3111 15.7005 28.3193 15.559C28.3274 15.4176 28.3058 15.2759 28.2569 15.1429C28.208 15.0099 28.1325 14.8885 28.0346 14.7861C27.383 14.1253 27.0039 13.7862 27.0039 13.7862C26.9113 13.678 26.7967 13.5911 26.6674 13.5316C26.538 13.472 26.3973 13.4414 26.255 13.4414C26.1126 13.4414 25.9719 13.472 25.8425 13.5316C25.7132 13.5911 25.5978 13.678 25.5053 13.7862C24.6868 14.5716 18.7459 20.4546 18.7459 20.4546Z" fill="#004E6E"/>
</svg>
