<svg width="115" height="115" viewBox="0 0 115 115" fill="none" xmlns="http://www.w3.org/2000/svg">
<path fill-rule="evenodd" clip-rule="evenodd" d="M31.9744 56.8392C32.0126 56.6957 32.0967 56.569 32.2135 56.4787C32.3303 56.3884 32.4733 56.3397 32.6204 56.34C36.0713 56.352 46.0368 55.908 55.7031 55.9512C66.1222 55.9968 73.9906 56.2944 83.8445 56.5272C83.9981 56.5312 84.1477 56.5771 84.2776 56.6601C84.4076 56.743 84.5129 56.8599 84.5825 56.9983C84.6521 57.1367 84.6833 57.2916 84.673 57.4465C84.6627 57.6015 84.6111 57.7507 84.5237 57.8784C84.0891 58.5 83.6782 58.6152 82.3173 58.5984L74.4062 58.536C70.8152 58.5096 74.2209 58.4832 70.6252 58.4568C56.6531 58.3512 46.4809 58.284 32.5064 58.056C32.4059 58.0542 32.3072 58.0293 32.2176 57.9834C32.128 57.9374 32.0499 57.8716 31.9891 57.7907C31.9283 57.7099 31.8864 57.6162 31.8666 57.5166C31.8468 57.4171 31.8495 57.3143 31.8747 57.216L31.9744 56.8392Z" fill="#004C6A"/>
<path fill-rule="evenodd" clip-rule="evenodd" d="M56.9952 15.8448C47.2791 26.5248 41.9021 36.2304 35.5632 44.3736C34.3971 45.8664 33.763 47.0136 32.4377 48.312C31.7038 49.032 31.2906 49.4904 31.3286 50.0616C31.426 51.6336 33.1906 51.6504 34.0575 50.7216C35.2616 49.4328 35.9575 47.8176 36.9763 46.3728C39.2635 43.1184 51.5161 25.8768 57.5842 18.5832C57.6483 18.5064 57.76 18.552 57.8217 18.6408C63.023 27.0768 81.0374 52.2576 82.384 52.2576C84.189 52.2576 81.7475 48.3936 81.2131 47.424C78.1921 41.94 60.439 18.624 59.793 17.256C58.6055 14.7552 58.0853 14.8392 56.9952 15.8448" fill="#004C6A"/>
<path fill-rule="evenodd" clip-rule="evenodd" d="M51.7397 49.7113C56.2522 49.8913 65.9493 50.0593 69.5973 50.0593C71.3334 50.0593 60.6697 35.8296 58.9858 32.8176C57.8909 30.8592 57.1808 30.3312 55.6133 32.4768C51.2314 38.4768 48.1819 42.7969 43.1564 49.3129C43.0994 49.3873 43.1351 49.5025 43.2253 49.5001C46.2867 49.4833 46.8994 49.7113 51.7397 49.7113" fill="#004C6A"/>
<path fill-rule="evenodd" clip-rule="evenodd" d="M114.67 67.7184L112.77 68.3112C113.007 69.6432 113.195 71.016 113.195 73.9776V82.4064L114.995 81.8496V72.0312C114.995 70.0032 114.886 68.772 114.665 67.7112" fill="#004C6A"/>
<path fill-rule="evenodd" clip-rule="evenodd" d="M68.1927 79.0153C68.1927 79.4521 68.1689 80.0281 67.9552 80.3881C67.5288 80.5371 67.078 80.6014 66.6275 80.5777H53.5389C53.3587 80.5776 53.1795 80.551 53.0069 80.4985C52.713 80.3807 52.4608 80.1767 52.2826 79.9128C52.1044 79.6489 52.0084 79.3371 52.007 79.0177V73.4905L50.1973 73.8553V80.0113C50.1979 80.7518 50.4894 81.4617 51.0078 81.9851C51.5262 82.5085 52.229 82.8025 52.9618 82.8025H64.6491C64.6491 82.8025 67.2189 82.7545 68.2686 82.6105C69.1521 81.9577 69.9976 80.6905 69.9976 79.3057V73.4905L68.1879 73.8553L68.1927 79.0153Z" fill="#004C6A"/>
<path fill-rule="evenodd" clip-rule="evenodd" d="M108.888 78.6191C108.888 79.0631 108.862 79.6343 108.651 79.9919C108.226 80.1461 107.774 80.2122 107.323 80.1863H105.737V80.22H102.599C102.181 80.2193 101.779 80.051 101.483 79.7518C101.187 79.4526 101.021 79.047 101.02 78.624V73.0799L99.2078 73.4495V78.8087C98.4193 79.9704 97.5453 80.1816 95.9066 80.2056H92.2776C91.8591 80.2043 91.4581 80.0357 91.1622 79.7367C90.8663 79.4377 90.6995 79.0324 90.6982 78.6096L90.6721 78.5663V77.7936C90.6721 75.372 88.5678 73.3991 86.1596 73.3991H79.7471L78.5168 73.5047L76.7617 75.5952H85.7083C87.4492 75.5952 88.8647 77.0352 88.8647 78.6552C88.8647 79.092 88.8457 79.6704 88.6438 80.028C88.2145 80.1784 87.7605 80.2436 87.3067 80.22H75.5386C75.3308 80.2206 75.1249 80.1798 74.9327 80.0998C74.7406 80.0199 74.5659 79.9025 74.4187 79.7542C74.2716 79.6059 74.1548 79.4298 74.0751 79.2358C73.9955 79.0419 73.9545 78.8339 73.9545 78.624V72.0287C73.9545 70.0007 73.8476 68.7719 73.6148 67.7087L71.7148 68.2967C71.9523 69.6311 72.14 71.0039 72.14 73.9679V79.6008C72.14 80.341 72.431 81.051 72.949 81.5744C73.467 82.0979 74.1695 82.392 74.9021 82.392H86.162C87.0893 82.4171 88.0171 82.365 88.936 82.236C89.2 82.0325 89.4392 81.798 89.6485 81.5376C89.9058 81.808 90.2145 82.023 90.5561 82.1699C90.8977 82.3167 91.2651 82.3922 91.6363 82.392H95.8876C97.6047 82.3248 98.4098 81.8832 99.2838 80.8104L99.3978 80.6688C99.6058 81.1816 99.9601 81.6202 100.416 81.9288C100.871 82.2374 101.407 82.402 101.956 82.4016H105.326C105.326 82.4016 107.896 82.356 108.945 82.212C109.834 81.5568 110.677 80.28 110.677 78.9072V73.0799L108.869 73.4495L108.888 78.6191Z" fill="#004C6A"/>
<path fill-rule="evenodd" clip-rule="evenodd" d="M63.1471 84.2976H61.5178C61.4172 84.2995 61.3214 84.3414 61.2512 84.4142C61.181 84.4869 61.1419 84.5847 61.1426 84.6864V86.28C61.1419 86.3817 61.181 86.4795 61.2512 86.5523C61.3214 86.625 61.4172 86.6669 61.5178 86.6688H63.1471C63.2487 86.6676 63.3459 86.6262 63.4178 86.5536C63.4896 86.4809 63.5306 86.3827 63.5318 86.28V84.6864C63.5312 84.5835 63.4904 84.485 63.4184 84.4122C63.3464 84.3394 63.2489 84.2982 63.1471 84.2976Z" fill="#004C6A"/>
<path fill-rule="evenodd" clip-rule="evenodd" d="M81.094 71.0615H82.7233C82.8249 71.0602 82.9221 71.0189 82.994 70.9462C83.0659 70.8736 83.1068 70.7754 83.108 70.6727V69.0791C83.1068 68.9764 83.0659 68.8782 82.994 68.8056C82.9221 68.7329 82.8249 68.6916 82.7233 68.6903H81.094C80.9934 68.6922 80.8976 68.7341 80.8274 68.8068C80.7571 68.8796 80.7181 68.9774 80.7188 69.0791V70.6799C80.7181 70.7815 80.7571 70.8794 80.8274 70.9521C80.8976 71.0249 80.9934 71.0668 81.094 71.0687" fill="#004C6A"/>
<path fill-rule="evenodd" clip-rule="evenodd" d="M92.6741 71.0615H94.3034C94.405 71.0602 94.5022 71.0189 94.5741 70.9462C94.646 70.8736 94.6869 70.7754 94.6881 70.6727V69.0791C94.6869 68.9764 94.646 68.8782 94.5741 68.8056C94.5022 68.7329 94.405 68.6916 94.3034 68.6903H92.6741C92.6242 68.6909 92.5749 68.7015 92.529 68.7214C92.4832 68.7412 92.4416 68.7701 92.4068 68.8062C92.3719 68.8423 92.3445 68.885 92.326 68.9318C92.3074 68.9786 92.2982 69.0287 92.2989 69.0791V70.6799C92.2982 70.7303 92.3074 70.7804 92.326 70.8272C92.3445 70.874 92.3719 70.9167 92.4068 70.9528C92.4416 70.9889 92.4832 71.0177 92.529 71.0376C92.5749 71.0575 92.6242 71.068 92.6741 71.0687" fill="#004C6A"/>
<path fill-rule="evenodd" clip-rule="evenodd" d="M96.4104 71.0615H98.0397C98.1413 71.0602 98.2385 71.0189 98.3104 70.9462C98.3823 70.8736 98.4232 70.7754 98.4244 70.6727V69.0791C98.4232 68.9764 98.3823 68.8782 98.3104 68.8056C98.2385 68.7329 98.1413 68.6916 98.0397 68.6903H96.4104C96.3098 68.6922 96.214 68.7341 96.1438 68.8068C96.0736 68.8796 96.0345 68.9774 96.0352 69.0791V70.6799C96.0345 70.7815 96.0736 70.8794 96.1438 70.9521C96.214 71.0249 96.3098 71.0668 96.4104 71.0687" fill="#004C6A"/>
<path fill-rule="evenodd" clip-rule="evenodd" d="M106.121 71.0616H107.751C107.851 71.0604 107.947 71.0201 108.019 70.949C108.091 70.8779 108.132 70.7815 108.135 70.68V69.0864C108.134 68.9837 108.093 68.8855 108.021 68.8129C107.949 68.7402 107.852 68.6989 107.751 68.6976H106.121C106.021 68.6995 105.925 68.7414 105.855 68.8142C105.784 68.887 105.745 68.9848 105.746 69.0864V70.68C105.745 70.7817 105.784 70.8795 105.855 70.9523C105.925 71.0251 106.021 71.0669 106.121 71.0688" fill="#004C6A"/>
<path fill-rule="evenodd" clip-rule="evenodd" d="M13.8483 84.2976H12.219C12.1184 84.2995 12.0226 84.3414 11.9524 84.4142C11.8821 84.4869 11.8431 84.5847 11.8438 84.6864V86.28C11.8431 86.3817 11.8821 86.4795 11.9524 86.5523C12.0226 86.625 12.1184 86.6669 12.219 86.6688H13.8483C13.9497 86.667 14.0465 86.6254 14.1183 86.5529C14.1901 86.4804 14.2312 86.3825 14.233 86.28V84.6864C14.2318 84.5837 14.1908 84.4855 14.119 84.4129C14.0471 84.3402 13.9499 84.2989 13.8483 84.2976" fill="#00AAA5"/>
<path fill-rule="evenodd" clip-rule="evenodd" d="M17.1253 84.2976H15.4866C15.386 84.2995 15.2902 84.3414 15.22 84.4142C15.1497 84.4869 15.1107 84.5847 15.1113 84.6864V86.28C15.1107 86.3817 15.1497 86.4795 15.22 86.5523C15.2902 86.625 15.386 86.6669 15.4866 86.6688H17.1253C17.2268 86.667 17.3236 86.6254 17.3954 86.5529C17.4671 86.4804 17.5083 86.3825 17.5101 86.28V84.6864C17.5089 84.5837 17.4679 84.4855 17.396 84.4129C17.3241 84.3402 17.227 84.2989 17.1253 84.2976" fill="#00AAA5"/>
<path fill-rule="evenodd" clip-rule="evenodd" d="M28.9944 71.0615H30.6236C30.7251 71.0602 30.822 71.0188 30.8935 70.9461C30.965 70.8734 31.0054 70.7752 31.006 70.6727V69.0791C31.0054 68.9766 30.965 68.8784 30.8935 68.8057C30.822 68.733 30.7251 68.6916 30.6236 68.6903H28.9944C28.8938 68.6922 28.798 68.7341 28.7278 68.8068C28.6575 68.8796 28.6185 68.9774 28.6191 69.0791V70.6799C28.6185 70.7815 28.6575 70.8794 28.7278 70.9521C28.798 71.0249 28.8938 71.0668 28.9944 71.0687" fill="#00AAA5"/>
<path fill-rule="evenodd" clip-rule="evenodd" d="M42.325 73.0801H38.0975L37.252 75.4177H39.1235L36.4944 79.2145C36.2118 79.5748 35.85 79.8636 35.4378 80.0581C35.0256 80.2527 34.5742 80.3476 34.1194 80.3353H32.7894C33.2356 79.8913 33.4914 79.288 33.5019 78.6553V75.1201C33.5016 74.8452 33.4477 74.5732 33.3433 74.3194C33.239 74.0656 33.0861 73.835 32.8936 73.6409C32.7011 73.4468 32.4726 73.2929 32.2212 73.1881C31.9698 73.0832 31.7005 73.0293 31.4285 73.0297H27.9277C26.2367 74.2609 24.5291 76.1833 24.7191 78.5497C24.7657 79.2012 24.9938 79.826 25.377 80.3521H22.7645C22.3679 80.3514 21.9877 80.1919 21.7072 79.9085C21.4267 79.6251 21.2689 79.2409 21.2682 78.8401V73.0321L19.2044 74.0041V79.0057L19.1759 79.0441C18.3422 80.2273 17.4065 80.3521 15.4709 80.3521H12.0153C11.6186 80.3514 11.2384 80.1919 10.9579 79.9085C10.6775 79.6251 10.5196 79.2409 10.519 78.8401C10.519 78.8401 10.4264 76.5937 10.3979 75.8281C10.31 73.6513 8.45987 73.1041 6.78787 73.1041H4.35113L3.55312 75.4369C3.76188 75.4019 3.97426 75.3946 4.18487 75.4153H5.5695C7.36737 75.4153 8.543 75.9073 8.543 77.1745C8.543 78.4873 8.524 80.0089 8.144 80.2129C7.82813 80.3833 7.25813 80.3761 6.76888 80.3761H1.73625L1 82.8001H7.6785C8.20575 82.8001 9.20087 82.2025 9.341 81.1081C9.37744 81.5012 9.54492 81.8701 9.816 82.1545C10.1894 82.5326 10.6852 82.7619 11.2125 82.8001H15.4638C17.416 82.8001 18.3565 82.4329 19.3445 81.2905L19.4822 81.1297L19.5891 81.3145C19.8461 81.7643 20.2154 82.1383 20.66 82.3989C21.1047 82.6596 21.6092 82.7979 22.1233 82.8001H34.0742C34.7398 82.8084 35.397 82.6496 35.9869 82.3379C36.5767 82.0263 37.0808 81.5715 37.4539 81.0145L37.8647 80.4193L37.9645 80.6905C38.5796 82.3561 40.3822 82.8001 41.3489 82.8001H44.1371L44.4839 82.4545C45.3199 81.6289 46.0443 80.9161 46.0443 79.4785V77.0977C46.0443 74.6977 44.5456 73.0849 42.3155 73.0849L42.325 73.0801ZM31.5829 78.1705C31.5829 79.0585 31.5283 80.0401 30.944 80.3305H28.3505C27.0585 80.2561 26.688 78.7897 26.688 77.3977C26.688 76.7617 26.9255 76.0921 27.581 75.3145H30.7659C30.9851 75.3151 31.1952 75.4032 31.3505 75.5596C31.5057 75.7161 31.5935 75.9281 31.5948 76.1497L31.5829 78.1705ZM43.9804 80.3305H41.8785C40.4535 80.3305 39.6246 79.6105 39.4394 78.2089V78.1513L41.2919 75.4177H41.7265C43.1016 75.4177 43.9899 76.4713 43.9899 78.1009L43.9804 80.3305Z" fill="#00AAA5"/>
<path d="M37.5342 94.4639C37.4754 94.5832 37.43 94.7088 37.3988 94.8383C37.3606 94.988 37.3414 95.142 37.3418 95.2967C37.3435 95.3921 37.3555 95.487 37.3774 95.5799C37.3945 95.6689 37.4346 95.7517 37.4938 95.8199C37.5583 95.8923 37.6401 95.9468 37.7313 95.9783C37.864 96.0208 38.003 96.0403 38.1422 96.0359H39.2323V94.8359C39.2194 94.6396 39.2461 94.4427 39.3106 94.2571C39.3751 94.0715 39.4761 93.901 39.6075 93.7559C39.7518 93.6241 39.9206 93.5229 40.1042 93.4582C40.2878 93.3935 40.4823 93.3666 40.6763 93.3791L41.4292 93.3959C41.4878 93.3957 41.5456 93.4097 41.5978 93.4367C41.6509 93.4602 41.6986 93.4945 41.7379 93.5375C41.7756 93.5788 41.8054 93.6268 41.8258 93.6791C41.8489 93.7345 41.8602 93.7942 41.859 93.8543V96.0311H42.4837V96.9239H41.4197C41.304 96.923 41.1932 96.8765 41.1109 96.7943C41.0706 96.7537 41.0383 96.7056 41.0159 96.6527C40.9921 96.5983 40.9799 96.5394 40.9803 96.4799V94.2743H40.662C40.5726 94.2714 40.4832 94.2803 40.396 94.3007C40.3308 94.3146 40.2712 94.3481 40.225 94.3967C40.1824 94.4472 40.1523 94.5072 40.1372 94.5719C40.1185 94.6602 40.1097 94.7504 40.111 94.8407V96.4415C40.111 96.5069 40.0998 96.5719 40.0778 96.6335C40.0586 96.6892 40.0288 96.7406 39.9899 96.7847C39.9501 96.8283 39.9026 96.8641 39.8498 96.8903C39.7918 96.9173 39.7284 96.9304 39.6645 96.9287H38.1374C37.8677 96.9375 37.5991 96.8893 37.3489 96.7871C37.1502 96.705 36.9724 96.5787 36.8288 96.4175C36.6948 96.2684 36.5965 96.0902 36.5414 95.8967C36.4818 95.7032 36.4514 95.5017 36.4512 95.2991C36.4519 95.1827 36.4598 95.0665 36.4749 94.9511C36.4883 94.8392 36.5097 94.7285 36.539 94.6199C36.565 94.5173 36.5967 94.4164 36.634 94.3175C36.6659 94.2315 36.7024 94.1474 36.7433 94.0655L37.5342 94.4639Z" fill="#004C6A"/>
<path d="M42.3876 96.024H43.8672V93.5112H44.7459V96.432C44.7486 96.4455 44.7486 96.4594 44.7459 96.4728C44.7461 96.5321 44.7348 96.5908 44.7127 96.6456C44.6903 96.6985 44.6581 96.7466 44.6177 96.7872C44.5772 96.8281 44.5286 96.86 44.4752 96.8808C44.4215 96.9054 44.3631 96.9177 44.3042 96.9168H42.3828L42.3876 96.024ZM42.4707 98.0496C42.4711 97.9853 42.484 97.9217 42.5087 97.8624C42.5318 97.8052 42.5657 97.7531 42.6084 97.7088C42.652 97.6658 42.7026 97.6309 42.7581 97.6056C42.8168 97.5812 42.8798 97.569 42.9433 97.5696C43.0076 97.5695 43.0712 97.5817 43.1309 97.6056C43.1871 97.6309 43.2385 97.6658 43.2829 97.7088C43.3257 97.7531 43.3595 97.8052 43.3827 97.8624C43.4073 97.9217 43.4203 97.9853 43.4207 98.0496C43.4194 98.1768 43.3701 98.2987 43.2829 98.3904C43.2392 98.4336 43.1876 98.4678 43.1309 98.4912C43.0715 98.5159 43.0076 98.5282 42.9433 98.5272C42.8797 98.5288 42.8166 98.5165 42.7581 98.4912C42.6727 98.4541 42.5999 98.3925 42.5488 98.314C42.4977 98.2355 42.4706 98.1436 42.4707 98.0496V98.0496ZM43.5727 98.0496C43.5712 97.9854 43.5833 97.9215 43.6083 97.8624C43.6331 97.8055 43.6676 97.7535 43.7104 97.7088C43.7535 97.6664 43.8033 97.6316 43.8577 97.6056C43.9173 97.5813 43.981 97.5691 44.0453 97.5696C44.1088 97.569 44.1718 97.5812 44.2306 97.6056C44.2871 97.6315 44.3393 97.6663 44.3849 97.7088C44.4262 97.7542 44.4599 97.8061 44.4847 97.8624C44.5093 97.9217 44.5223 97.9853 44.5227 98.0496C44.5226 98.114 44.5096 98.1776 44.4847 98.2368C44.4599 98.2932 44.4262 98.345 44.3849 98.3904C44.3398 98.433 44.2875 98.4671 44.2306 98.4912C44.1721 98.5167 44.1089 98.529 44.0453 98.5272C43.9809 98.529 43.917 98.5167 43.8577 98.4912C43.8029 98.467 43.753 98.4328 43.7104 98.3904C43.6676 98.3458 43.6331 98.2938 43.6083 98.2368C43.5829 98.1779 43.5707 98.1139 43.5727 98.0496" fill="#004C6A"/>
<path d="M46.6014 91.9008H45.7227V96.9072H46.6014V91.9008Z" fill="#004C6A"/>
<path d="M49.5742 95.5007C49.5742 95.7295 49.567 95.9599 49.5528 96.1919C49.5367 96.4274 49.5049 96.6615 49.4578 96.8927C49.4044 97.1711 49.32 97.4424 49.206 97.7015C49.1007 97.9467 48.9509 98.1697 48.7643 98.3591C48.5734 98.5512 48.3454 98.7015 48.0945 98.8007C47.7906 98.9139 47.4684 98.9685 47.1445 98.9615V98.0687C47.3513 98.0737 47.557 98.0378 47.7502 97.9631C47.9105 97.8967 48.0547 97.796 48.1729 97.6679C48.2895 97.5403 48.3821 97.3923 48.446 97.2311C48.5167 97.0571 48.5692 96.8761 48.6028 96.6911C48.6363 96.4918 48.6585 96.2906 48.6693 96.0887C48.6693 95.8799 48.6835 95.6735 48.6835 95.4671C48.6835 95.1911 48.6835 94.9199 48.6693 94.6583C48.655 94.3967 48.6503 94.1544 48.6503 93.9384H49.529C49.529 94.1592 49.529 94.4015 49.5528 94.6583C49.5765 94.9151 49.5718 95.2007 49.5718 95.4887" fill="#004C6A"/>
<path d="M51.244 91.9008H50.3652V96.9072H51.244V91.9008Z" fill="#004C6A"/>
<path d="M52.5118 93.3887C52.7767 93.3851 53.0416 93.3971 53.3051 93.4247C53.525 93.4458 53.7422 93.4893 53.9535 93.5543C54.1343 93.6108 54.3068 93.6915 54.4665 93.7943C54.6153 93.8903 54.7504 94.0066 54.8678 94.1399C54.9796 94.2721 55.0731 94.419 55.1457 94.5767C55.2254 94.7471 55.2867 94.9258 55.3286 95.1095C55.3766 95.3187 55.4084 95.5313 55.4236 95.7455C55.4449 95.9855 55.4521 96.2255 55.4521 96.4943C55.4532 96.5536 55.4419 96.6125 55.4188 96.6671C55.3958 96.7196 55.3636 96.7676 55.3238 96.8087C55.2824 96.8479 55.2351 96.8803 55.1837 96.9047C55.1296 96.9279 55.0715 96.9401 55.0127 96.9407H52.2363V96.0479H54.5615C54.5534 95.7803 54.5192 95.5142 54.4593 95.2535C54.4168 95.0588 54.3279 94.8776 54.2005 94.7255C54.0363 94.5501 53.8235 94.4288 53.5901 94.3775C53.2392 94.3002 52.8802 94.268 52.5213 94.2815L52.5118 93.3887Z" fill="#004C6A"/>
<path d="M59.387 96.9193C59.1141 96.9262 58.8427 96.8772 58.589 96.7753C58.3906 96.6904 58.2131 96.5626 58.0689 96.4009C57.9401 96.2484 57.8446 96.0701 57.7886 95.8777C57.7318 95.6853 57.703 95.4856 57.7031 95.2849C57.704 95.1685 57.712 95.0523 57.7269 94.9369C57.7423 94.8254 57.7637 94.7148 57.791 94.6057C57.8177 94.5042 57.8494 94.404 57.886 94.3057C57.9216 94.2121 57.9596 94.1257 57.9952 94.0513L58.7766 94.4617C58.7186 94.5824 58.6725 94.7086 58.6389 94.8385C58.602 94.9885 58.5828 95.1424 58.5819 95.2969C58.5815 95.3915 58.5927 95.4858 58.6151 95.5777C58.6325 95.6661 58.6717 95.7487 58.7291 95.8177C58.7957 95.8877 58.8768 95.9418 58.9666 95.9761C59.0906 96.0182 59.2206 96.0392 59.3514 96.0385H61.4889V93.5089H62.3676V96.0265H63.0801V96.9193H59.387ZM58.817 92.7241C58.8177 92.659 58.8306 92.5947 58.855 92.5345C58.8782 92.4773 58.912 92.4251 58.9548 92.3809C58.998 92.3371 59.0497 92.3027 59.1067 92.2801C59.1646 92.2552 59.2267 92.2421 59.2896 92.2417C59.354 92.2421 59.4177 92.2552 59.4772 92.2801C59.5346 92.3022 59.5864 92.3366 59.6292 92.3809C59.717 92.4732 59.7663 92.5961 59.767 92.7241C59.7679 92.7885 59.755 92.8524 59.729 92.9113C59.706 92.9679 59.672 93.0193 59.6292 93.0625C59.5864 93.1068 59.5346 93.1412 59.4772 93.1633C59.4181 93.1894 59.3541 93.2025 59.2896 93.2017C59.2266 93.2024 59.1642 93.1893 59.1067 93.1633C59.0497 93.1406 58.998 93.1063 58.9548 93.0625C58.9119 93.0193 58.878 92.9679 58.855 92.9113C58.83 92.8521 58.8171 92.7884 58.817 92.7241V92.7241ZM59.919 92.7241C59.9197 92.5961 59.969 92.4732 60.0567 92.3809C60.0995 92.3376 60.1504 92.3034 60.2064 92.2801C60.2651 92.2554 60.328 92.2424 60.3916 92.2417C60.4553 92.2418 60.5183 92.2549 60.5769 92.2801C60.6349 92.3021 60.6875 92.3365 60.7312 92.3809C60.774 92.4251 60.8078 92.4773 60.831 92.5345C60.8554 92.5947 60.8683 92.659 60.869 92.7241C60.8689 92.7884 60.856 92.8521 60.831 92.9113C60.808 92.9679 60.7741 93.0193 60.7312 93.0625C60.6875 93.1069 60.6349 93.1413 60.5769 93.1633C60.5186 93.1895 60.4554 93.2026 60.3916 93.2017C60.3279 93.2022 60.2648 93.1891 60.2064 93.1633C60.1504 93.14 60.0995 93.1058 60.0567 93.0625C60.0139 93.0192 59.98 92.9679 59.957 92.9113C59.931 92.8524 59.9181 92.7885 59.919 92.7241" fill="#004C6A"/>
<path d="M62.9883 96.024H64.4655V93.5112H65.3467V96.432C65.348 96.4456 65.348 96.4593 65.3467 96.4728C65.3481 96.5322 65.3367 96.5911 65.3134 96.6456C65.291 96.6985 65.2588 96.7466 65.2184 96.7872C65.1332 96.8679 65.0216 96.914 64.9049 96.9168H62.9883V96.024ZM63.069 98.0496C63.0695 97.9853 63.0824 97.9217 63.107 97.8624C63.1318 97.8061 63.1655 97.7542 63.2068 97.7088C63.2507 97.6664 63.3013 97.6315 63.3564 97.6056C63.416 97.5815 63.4798 97.5692 63.544 97.5696C63.6075 97.569 63.6705 97.5812 63.7293 97.6056C63.7862 97.6309 63.8384 97.6658 63.8837 97.7088C63.9249 97.7542 63.9586 97.8061 63.9834 97.8624C64.0081 97.9217 64.021 97.9853 64.0214 98.0496C64.0213 98.114 64.0084 98.1776 63.9834 98.2368C63.9586 98.2932 63.9249 98.345 63.8837 98.3904C63.8389 98.4335 63.7865 98.4677 63.7293 98.4912C63.6708 98.5165 63.6076 98.5288 63.544 98.5272C63.4797 98.5287 63.4157 98.5165 63.3564 98.4912C63.3009 98.4671 63.2502 98.4329 63.2068 98.3904C63.1655 98.345 63.1318 98.2932 63.107 98.2368C63.0821 98.1776 63.0692 98.114 63.069 98.0496V98.0496ZM64.171 98.0496C64.1703 97.9852 64.1833 97.9214 64.209 97.8624C64.2322 97.8052 64.2661 97.7531 64.3088 97.7088C64.3527 97.6664 64.4033 97.6315 64.4584 97.6056C64.5172 97.5812 64.5801 97.569 64.6437 97.5696C64.7079 97.5692 64.7716 97.5815 64.8313 97.6056C64.8871 97.6315 64.9385 97.6663 64.9833 97.7088C65.026 97.7531 65.0599 97.8052 65.083 97.8624C65.1088 97.9214 65.1217 97.9852 65.121 98.0496C65.1223 98.1141 65.1093 98.1781 65.083 98.2368C65.0599 98.294 65.026 98.3462 64.9833 98.3904C64.939 98.4329 64.8875 98.4671 64.8313 98.4912C64.772 98.5165 64.708 98.5287 64.6437 98.5272C64.58 98.529 64.5168 98.5167 64.4584 98.4912C64.4029 98.4671 64.3522 98.4329 64.3088 98.3904C64.2661 98.3462 64.2322 98.294 64.209 98.2368C64.183 98.1747 64.1716 98.1073 64.1758 98.04" fill="#004C6A"/>
<path d="M68.0466 93.9408C68.0466 94.164 68.0466 94.404 68.0656 94.6608C68.0846 94.9176 68.0894 95.2008 68.0894 95.4936C68.0894 95.6664 68.0894 95.8392 68.0751 96.0144H68.6879V96.9072H67.9754C67.919 97.183 67.833 97.4518 67.7189 97.7088C67.6131 97.951 67.4641 98.1714 67.2795 98.3592C67.0896 98.549 66.8621 98.6962 66.6121 98.7912C66.3085 98.9054 65.986 98.96 65.6621 98.952V98.0592C65.8691 98.0644 66.075 98.0277 66.2677 97.9512C66.4281 97.8859 66.5723 97.7859 66.6905 97.6584C66.8066 97.5304 66.8991 97.3825 66.9636 97.2216C67.0334 97.0475 67.0852 96.8665 67.118 96.6816C67.1528 96.4824 67.175 96.2812 67.1845 96.0792C67.1845 95.8728 67.2035 95.664 67.2035 95.46C67.2035 95.184 67.2035 94.9104 67.1845 94.6464C67.1655 94.3824 67.1702 94.1448 67.1702 93.9264L68.0466 93.9408Z" fill="#004C6A"/>
<path d="M68.5809 96.024H70.0606V93.5112H70.9393V96.432C70.9408 96.4456 70.9408 96.4593 70.9393 96.4728C70.9399 96.5324 70.9278 96.5913 70.9037 96.6456C70.8813 96.6985 70.8491 96.7466 70.8087 96.7872C70.7695 96.8286 70.7216 96.8606 70.6686 96.8808C70.6141 96.9056 70.5549 96.9179 70.4952 96.9168H68.5762L68.5809 96.024ZM68.664 98.0496C68.6621 97.9851 68.6751 97.921 68.702 97.8624C68.7242 97.8047 68.7582 97.7524 68.8018 97.7088C68.8445 97.6659 68.8943 97.6309 68.9491 97.6056C69.0688 97.5577 69.2022 97.5577 69.3219 97.6056C69.3781 97.6309 69.4295 97.6658 69.4739 97.7088C69.5167 97.7535 69.5513 97.8055 69.5761 97.8624C69.6002 97.9218 69.6123 97.9855 69.6117 98.0496C69.6123 98.1138 69.6002 98.1775 69.5761 98.2368C69.5513 98.2938 69.5167 98.3458 69.4739 98.3904C69.4302 98.4336 69.3786 98.4678 69.3219 98.4912C69.2022 98.5392 69.0688 98.5392 68.9491 98.4912C68.894 98.4676 68.8439 98.4334 68.8018 98.3904C68.7582 98.3469 68.7242 98.2946 68.702 98.2368C68.6747 98.1784 68.6617 98.1142 68.664 98.0496ZM69.7637 98.0496C69.763 97.9852 69.7759 97.9214 69.8017 97.8624C69.8248 97.8052 69.8587 97.7531 69.9014 97.7088C69.9458 97.6669 69.9963 97.6321 70.0511 97.6056C70.1091 97.5815 70.1712 97.5693 70.2339 97.5696C70.299 97.5688 70.3636 97.581 70.4239 97.6056C70.5378 97.6548 70.6281 97.747 70.6757 97.8624C70.7007 97.9215 70.7129 97.9854 70.7113 98.0496C70.7133 98.1139 70.7011 98.1779 70.6757 98.2368C70.651 98.2938 70.6164 98.3458 70.5736 98.3904C70.5305 98.4333 70.4797 98.4676 70.4239 98.4912C70.3639 98.517 70.2991 98.5292 70.2339 98.5272C70.1711 98.5287 70.1087 98.5164 70.0511 98.4912C69.9959 98.4665 69.9453 98.4324 69.9014 98.3904C69.8587 98.3462 69.8248 98.294 69.8017 98.2368C69.7754 98.1781 69.7624 98.1141 69.7637 98.0496Z" fill="#004C6A"/>
<path d="M71.707 96.9143V96.0215H74.0345C74.0261 95.757 73.9911 95.4941 73.93 95.2367C73.8854 95.0464 73.7967 94.8696 73.6712 94.7207C73.5075 94.5451 73.2945 94.4245 73.0608 94.3751C72.7103 94.2957 72.351 94.2626 71.992 94.2767V93.3887C72.2577 93.3844 72.5233 93.3956 72.7877 93.4223C73.0072 93.4468 73.2242 93.491 73.436 93.5543C73.6165 93.6118 73.7889 93.6925 73.949 93.7943C74.0978 93.8896 74.2321 94.006 74.348 94.1399C74.5413 94.3703 74.6824 94.6406 74.7613 94.9319C74.8545 95.2905 74.9086 95.6583 74.9228 96.0287H75.4358V96.9215L71.707 96.9143Z" fill="#004C6A"/>
<path d="M75.3516 96.0264H76.0498V95.0112C76.0505 94.8786 76.0705 94.7468 76.1092 94.62C76.1483 94.4858 76.2033 94.3569 76.2731 94.236C76.343 94.1103 76.4275 93.9935 76.5248 93.888C76.6246 93.7816 76.7371 93.6881 76.8597 93.6096C76.9812 93.5306 77.1131 93.4692 77.2516 93.4272C77.3938 93.3834 77.5424 93.3647 77.6909 93.372L78.9378 93.3888C78.9957 93.3888 79.0529 93.4002 79.1064 93.4224C79.1582 93.4462 79.2056 93.4786 79.2466 93.5184C79.2864 93.5586 79.3186 93.6057 79.3416 93.6576C79.3654 93.7112 79.3775 93.7693 79.3772 93.828V96.432C79.3768 96.4965 79.3664 96.5605 79.3463 96.6216C79.326 96.6781 79.2954 96.7302 79.2561 96.7752C79.2167 96.8178 79.17 96.8528 79.1183 96.8784C79.0622 96.9062 79.0003 96.9202 78.9378 96.9192H75.3516V96.0264ZM76.9309 96.0264H78.4913V94.2744H78.0163H77.7788H77.6672C77.5724 94.2745 77.479 94.2966 77.3941 94.3392C77.3058 94.3809 77.2255 94.4377 77.1566 94.5072C77.0867 94.5764 77.0296 94.6577 76.9879 94.7472C76.9488 94.8339 76.9286 94.928 76.9286 95.0232L76.9309 96.0264Z" fill="#004C6A"/>
</svg>
