<svg width="115" height="115" viewBox="0 0 115 115" fill="none" xmlns="http://www.w3.org/2000/svg">
<path d="M66.6895 78.3993V81.5555C66.6895 83.4663 67.6672 84.4131 68.8014 85.5105L69.2659 85.9694H73.837C75.1423 85.9694 77.621 85.377 78.4521 83.1676L78.5866 82.8107V73.0701H71.7299C68.7135 73.0701 66.6895 75.2115 66.6895 78.3993ZM75.8219 76.1948L75.8439 80.3222C75.8439 82.2329 74.4848 83.1361 72.5488 83.1361H69.481V79.7468C69.481 77.5811 70.6788 76.1826 72.5341 76.1826L75.8219 76.1948Z" fill="#004C6A"/>
<path d="M111.511 67.4762L108.744 68.3211C109.081 70.2318 109.367 72.2057 109.367 76.4472V88.5308L111.995 87.7296V73.6479C111.995 70.7344 111.834 68.9815 111.506 67.4713" fill="#004C6A"/>
<path d="M97.0713 87.7709H94.8713C94.8039 87.7718 94.7373 87.786 94.6754 87.8125C94.6135 87.839 94.5574 87.8773 94.5104 87.9253C94.4635 87.9734 94.4264 88.0301 94.4015 88.0923C94.3766 88.1546 94.3643 88.2211 94.3653 88.288V90.4051C94.3646 90.5395 94.4174 90.6687 94.5122 90.7647C94.6069 90.8606 94.736 90.9155 94.8713 90.9174H97.0713C97.2079 90.9162 97.3386 90.8619 97.4355 90.7661C97.5323 90.6704 97.5876 90.5408 97.5895 90.4051V88.288C97.5889 88.1515 97.5342 88.0207 97.4372 87.9239C97.3402 87.8271 97.2088 87.7721 97.0713 87.7709" fill="#004C6A"/>
<path d="M101.489 87.7709H99.2893C99.2218 87.7718 99.1553 87.786 99.0934 87.8125C99.0314 87.839 98.9754 87.8773 98.9284 87.9253C98.8814 87.9734 98.8444 88.0301 98.8195 88.0923C98.7946 88.1546 98.7823 88.2211 98.7833 88.288V90.4051C98.7826 90.5395 98.8354 90.6687 98.9301 90.7647C99.0249 90.8606 99.154 90.9155 99.2893 90.9174H101.489C101.626 90.9168 101.758 90.8628 101.855 90.767C101.952 90.6712 102.008 90.5412 102.01 90.4051V88.288C102.009 88.1511 101.954 88.0199 101.857 87.923C101.759 87.8262 101.627 87.7715 101.489 87.7709" fill="#004C6A"/>
<path d="M103.504 80.3365C103.502 80.9633 103.25 81.5638 102.803 82.0065C102.357 82.4493 101.751 82.6982 101.12 82.6989H98.187V82.7329L98.0624 82.6989H94.5937C94.0588 82.6982 93.546 82.4871 93.1675 82.1116C92.7891 81.7362 92.5759 81.2271 92.5746 80.6959C92.5746 80.6959 92.445 77.712 92.4059 76.6971C92.291 73.8055 89.7904 73.082 87.5341 73.082H84.2439L83.1561 76.1751C83.1732 76.1582 83.2955 76.1509 84.0117 76.1509H85.8768C88.309 76.1509 89.8955 76.804 89.8955 78.4841C89.8955 80.2273 89.871 82.2473 89.3552 82.5168C88.9324 82.7426 88.1599 82.7353 87.5024 82.7353H80.7117L79.7168 85.9668H88.7368C89.4481 85.9668 90.7877 85.1753 90.9906 83.721C91.0378 84.245 91.2678 84.7362 91.6408 85.1098C92.1375 85.6075 92.7976 85.9116 93.501 85.9668H98.0672C98.407 85.9668 98.7199 85.9668 99.0206 85.9401H102.061C103.162 85.9363 104.217 85.5002 104.996 84.727C105.774 83.9538 106.213 82.9062 106.217 81.8127V73.014L103.528 74.1697L103.504 80.3365Z" fill="#004C6A"/>
<path fill-rule="evenodd" clip-rule="evenodd" d="M19.2456 87.7782H17.0602C16.9933 87.7788 16.9271 87.7926 16.8655 87.8187C16.8039 87.8448 16.7481 87.8828 16.7013 87.9304C16.6545 87.978 16.6176 88.0343 16.5928 88.0961C16.568 88.1579 16.5557 88.224 16.5567 88.2905V90.393C16.5557 90.4596 16.568 90.5256 16.5928 90.5874C16.6176 90.6492 16.6545 90.7055 16.7013 90.7531C16.7481 90.8007 16.8039 90.8387 16.8655 90.8648C16.9271 90.8909 16.9933 90.9047 17.0602 90.9053H19.2456C19.3818 90.9034 19.5119 90.8489 19.6082 90.7532C19.7045 90.6575 19.7595 90.5283 19.7614 90.393V88.2905C19.7595 88.1552 19.7045 88.026 19.6082 87.9303C19.5119 87.8347 19.3818 87.7801 19.2456 87.7782" fill="#00AAA5"/>
<path fill-rule="evenodd" clip-rule="evenodd" d="M23.646 87.7782H21.4606C21.3937 87.7788 21.3275 87.7926 21.2659 87.8187C21.2043 87.8448 21.1485 87.8828 21.1017 87.9304C21.0549 87.978 21.018 88.0343 20.9932 88.0961C20.9684 88.1579 20.9561 88.224 20.9571 88.2905V90.393C20.9561 90.4596 20.9684 90.5256 20.9932 90.5874C21.018 90.6492 21.0549 90.7055 21.1017 90.7531C21.1485 90.8007 21.2043 90.8387 21.2659 90.8648C21.3275 90.8909 21.3937 90.9047 21.4606 90.9053H23.646C23.7819 90.9034 23.9118 90.8488 24.0077 90.753C24.1036 90.6573 24.158 90.5281 24.1593 90.393V88.2905C24.158 88.1554 24.1036 88.0262 24.0077 87.9305C23.9118 87.8348 23.7819 87.7801 23.646 87.7782" fill="#00AAA5"/>
<path fill-rule="evenodd" clip-rule="evenodd" d="M39.5744 70.3144H41.7597C41.8963 70.3137 42.0271 70.2595 42.1237 70.1636C42.2203 70.0677 42.2749 69.9377 42.2755 69.8021V67.6971C42.2742 67.5616 42.2195 67.4321 42.123 67.3363C42.0266 67.2405 41.8961 67.1861 41.7597 67.1848H39.5744C39.4391 67.1867 39.31 67.2416 39.2153 67.3376C39.1205 67.4335 39.0677 67.5627 39.0684 67.6971V69.7996C39.0677 69.8663 39.0803 69.9324 39.1054 69.9942C39.1305 70.056 39.1676 70.1123 39.2146 70.1599C39.2615 70.2074 39.3175 70.2454 39.3792 70.2714C39.441 70.2975 39.5073 70.3113 39.5744 70.3119" fill="#00AAA5"/>
<path fill-rule="evenodd" clip-rule="evenodd" d="M57.4523 72.9826H51.7811L50.6445 76.0708H53.1549L49.6276 81.0795C49.2477 81.5552 48.7613 81.9363 48.2071 82.1925C47.6529 82.4488 47.0462 82.5731 46.4351 82.5557H44.6507C45.2466 81.9668 45.5855 81.1689 45.5943 80.3341V75.6726C45.5936 74.942 45.3016 74.2413 44.7821 73.724C44.2626 73.2066 43.5579 72.9147 42.8222 72.9121H38.1411C35.8727 74.5364 33.5798 77.0759 33.8365 80.1812C33.8988 81.0407 34.2038 81.8653 34.7165 82.5605H31.2038C30.6711 82.5599 30.1604 82.3494 29.7837 81.9753C29.407 81.6011 29.1951 81.0939 29.1945 80.5648V72.8976L26.4225 74.1819V80.7785L26.3882 80.8294C25.2662 82.393 24.0098 82.5557 21.4138 82.5557H16.784C16.2521 82.555 15.7422 82.3452 15.3656 81.9721C14.9891 81.5991 14.7766 81.0931 14.7747 80.5648C14.7747 80.5648 14.65 77.6028 14.6085 76.5928C14.496 73.7206 12.01 72.9995 9.76601 72.9995H6.49778L5.42222 76.0708C5.44178 76.0514 5.56156 76.0465 6.27289 76.0465H8.12823C10.5458 76.0465 12.12 76.6948 12.12 78.3651C12.12 80.0962 12.098 82.1041 11.5871 82.3736C11.1642 82.5945 10.3967 82.5896 9.74156 82.5896H2.97778L2 85.8017H10.9638C11.6678 85.8017 13.0049 85.0151 13.2029 83.5705C13.2506 84.0906 13.4787 84.578 13.8482 84.9495C14.3401 85.4422 14.9928 85.7444 15.6889 85.8017H21.404C24.022 85.8017 25.2858 85.3161 26.6131 83.8084L26.7989 83.5996L26.9382 83.8424C27.2848 84.438 27.7829 84.9326 28.3828 85.2765C28.9826 85.6204 29.663 85.8016 30.3556 85.8017H46.3911C47.2851 85.8143 48.168 85.6053 48.9602 85.1937C49.7524 84.7821 50.4287 84.1808 50.928 83.4443L51.478 82.6625L51.6125 83.0194C52.4411 85.2045 54.8611 85.8017 56.1567 85.8017H59.8991L60.3636 85.3453C61.4905 84.2576 62.4609 83.3156 62.4609 81.4194V78.2753C62.4609 75.1191 60.4492 72.9826 57.4523 72.9826V72.9826ZM43.0496 79.6956C43.0496 80.8659 42.9738 82.1599 42.1916 82.5557H38.7107C36.9776 82.4561 36.4618 80.5235 36.4618 78.6881C36.4618 77.8504 36.7942 76.9643 37.662 75.9397H41.9374C42.2319 75.941 42.5141 76.0578 42.7224 76.2647C42.9307 76.4716 43.0483 76.7518 43.0496 77.0444V79.6956ZM59.6889 82.5557H56.8705C54.9443 82.5557 53.8443 81.6136 53.5925 79.7612V79.6835L56.076 76.0757H56.6578C58.5034 76.0757 59.6963 77.4644 59.6963 79.6179L59.6889 82.5557Z" fill="#00AAA5"/>
<path d="M4.08578 103.27C4.0088 103.43 3.94741 103.597 3.90245 103.768C3.85262 103.966 3.82718 104.169 3.82667 104.373C3.82624 104.498 3.84018 104.624 3.86823 104.747C3.89493 104.861 3.95043 104.967 4.02956 105.055C4.11908 105.151 4.2319 105.222 4.35712 105.261C4.53454 105.319 4.72064 105.345 4.90712 105.339H6.53023C6.63042 105.341 6.73031 105.327 6.82601 105.298C6.89636 105.271 6.96046 105.231 7.01423 105.179C7.05868 105.128 7.09198 105.068 7.11201 105.004C7.12998 104.936 7.13902 104.866 7.13889 104.795C7.14216 104.682 7.11959 104.57 7.07289 104.467C7.03019 104.378 6.96646 104.301 6.88712 104.242C6.79739 104.175 6.69969 104.119 6.59623 104.077C6.48378 104.033 6.35178 103.982 6.20512 103.931C5.99978 103.86 5.79934 103.79 5.60867 103.71C5.42198 103.636 5.2486 103.533 5.09534 103.404C4.94038 103.271 4.81756 103.105 4.736 102.918C4.63572 102.677 4.58903 102.417 4.59912 102.156C4.59024 101.84 4.65639 101.527 4.79223 101.241C4.91224 100.999 5.08414 100.787 5.29578 100.619C5.50632 100.455 5.74716 100.334 6.00467 100.262C6.26769 100.187 6.54004 100.149 6.81378 100.148C7.07997 100.148 7.34513 100.181 7.60334 100.245C7.84043 100.299 8.07022 100.38 8.28778 100.488L7.71089 101.522C7.58018 101.455 7.44136 101.404 7.29778 101.372C7.13366 101.333 6.96544 101.313 6.79667 101.314C6.66608 101.313 6.53577 101.326 6.408 101.352C6.29263 101.379 6.18323 101.427 6.08534 101.493C5.99124 101.562 5.91498 101.652 5.86289 101.755C5.80388 101.887 5.77547 102.029 5.77978 102.173C5.77638 102.259 5.80032 102.344 5.84823 102.416C5.89812 102.483 5.95931 102.541 6.02912 102.588C6.11238 102.635 6.19899 102.675 6.28823 102.71C6.38356 102.741 6.47889 102.778 6.58156 102.809C6.68423 102.841 6.84312 102.899 6.97512 102.948C7.10523 102.994 7.23185 103.05 7.35401 103.115C7.47562 103.185 7.59022 103.266 7.69623 103.358C7.8098 103.456 7.91005 103.569 7.99445 103.693C8.09988 103.857 8.18214 104.034 8.23889 104.22C8.29435 104.407 8.32234 104.6 8.32201 104.795C8.32286 105.009 8.28817 105.221 8.21934 105.424C8.14464 105.629 8.03094 105.818 7.88445 105.98C7.7269 106.151 7.53439 106.287 7.31978 106.378C7.06179 106.483 6.78466 106.535 6.50578 106.529H4.90712C4.5426 106.538 4.17999 106.474 3.84134 106.339C3.57248 106.234 3.3322 106.068 3.13978 105.854C2.9613 105.656 2.83009 105.421 2.75601 105.167C2.67812 104.912 2.63858 104.647 2.63867 104.38C2.63944 104.227 2.65005 104.073 2.67045 103.921C2.69256 103.773 2.72275 103.626 2.76089 103.482C2.79636 103.347 2.83961 103.215 2.89045 103.086C2.93689 102.962 2.98578 102.843 3.03467 102.751L4.08578 103.27Z" fill="#004C6A"/>
<path d="M11.8781 103.227C11.8781 103.53 11.8781 103.831 11.8487 104.142C11.829 104.452 11.7873 104.76 11.7241 105.065C11.6504 105.432 11.5365 105.79 11.3843 106.133C11.2454 106.455 11.0473 106.749 10.8001 107C10.5436 107.254 10.2375 107.453 9.90051 107.585C9.49294 107.733 9.0609 107.804 8.62695 107.794V106.619C8.90481 106.623 9.18101 106.575 9.44095 106.478C9.65544 106.389 9.84931 106.258 10.0105 106.092C10.1655 105.921 10.2896 105.724 10.3772 105.511C10.4699 105.281 10.5387 105.042 10.5825 104.798C10.6302 104.535 10.6613 104.27 10.6754 104.004C10.6901 103.727 10.6949 103.455 10.6949 103.183C10.6949 102.819 10.6949 102.455 10.6754 102.115C10.6558 101.775 10.6509 101.447 10.6509 101.168H11.8316C11.8316 101.459 11.8316 101.782 11.8609 102.139C11.8903 102.496 11.8878 102.855 11.8878 103.237" fill="#004C6A"/>
<path d="M14.124 98.4753H12.9434V105.086H14.124V98.4753Z" fill="#004C6A"/>
<path d="M15.457 105.087V103.904H18.5786C18.5682 103.557 18.5223 103.212 18.4417 102.875C18.3823 102.622 18.2624 102.387 18.0921 102.19C17.8733 101.958 17.5872 101.798 17.2733 101.734C16.8017 101.629 16.3187 101.585 15.8359 101.603V100.43C16.1918 100.425 16.5477 100.441 16.9017 100.478C17.1966 100.507 17.488 100.564 17.7719 100.648C18.0113 100.722 18.2398 100.826 18.4515 100.959C18.6521 101.085 18.8325 101.239 18.9868 101.418C19.2492 101.722 19.4389 102.08 19.5417 102.467C19.668 102.938 19.741 103.422 19.7593 103.909H20.4486V105.089L15.457 105.087ZM15.9459 99.1358C15.945 99.0521 15.9625 98.9693 15.9973 98.893C16.0275 98.8178 16.0725 98.7492 16.1295 98.6913C16.1866 98.6334 16.2546 98.5873 16.3297 98.5556C16.4072 98.5236 16.4903 98.5072 16.5741 98.5072C16.658 98.5072 16.7411 98.5236 16.8186 98.5556C16.8963 98.5852 16.9665 98.6317 17.0239 98.6915C17.1137 98.7817 17.1744 98.8963 17.1983 99.0208C17.2223 99.1453 17.2084 99.2741 17.1584 99.3908C17.1263 99.4641 17.0807 99.5308 17.0239 99.5874C16.9015 99.7041 16.7389 99.7701 16.5693 99.7719C16.485 99.7727 16.4016 99.7553 16.3248 99.7209C16.1744 99.6589 16.0549 99.5401 15.9924 99.3908C15.9578 99.3145 15.9402 99.2316 15.941 99.148" fill="#004C6A"/>
<path d="M20.3008 103.919H25.659V103.348C25.6607 103.193 25.6542 103.037 25.6394 102.882C25.6341 102.794 25.6036 102.71 25.5514 102.639C25.4959 102.582 25.4211 102.546 25.3412 102.54C25.2138 102.525 25.0856 102.519 24.9574 102.52H22.095C21.9011 102.53 21.7089 102.48 21.545 102.377C21.4111 102.288 21.3092 102.158 21.2541 102.008C21.1939 101.846 21.1746 101.672 21.1979 101.501C21.2194 101.305 21.2757 101.115 21.3641 100.94C21.561 100.544 21.8304 100.188 22.1586 99.8908C22.4847 99.5907 22.8527 99.3389 23.2512 99.143C23.6525 98.941 24.0792 98.7932 24.5199 98.7036C24.9471 98.6135 25.3838 98.5752 25.8203 98.5895V99.7452C25.4926 99.733 25.1645 99.7583 24.8426 99.8204C24.5191 99.8793 24.2045 99.9788 23.9063 100.117C23.6121 100.245 23.3373 100.413 23.0899 100.617C22.8478 100.815 22.6469 101.058 22.4983 101.333H24.5883C24.8841 101.333 25.1432 101.333 25.3706 101.348C25.5694 101.352 25.7674 101.375 25.9621 101.416C26.1127 101.445 26.2562 101.503 26.385 101.585C26.5019 101.665 26.5969 101.773 26.6612 101.899C26.7376 102.059 26.788 102.23 26.8103 102.406C26.8469 102.652 26.8633 102.9 26.8592 103.149V103.479C26.8592 103.586 26.8592 103.695 26.8592 103.8C26.8592 103.904 26.8592 104.016 26.8592 104.135V104.501C26.8604 104.579 26.8445 104.656 26.8128 104.727C26.7847 104.798 26.7423 104.863 26.6881 104.917C26.5757 105.024 26.4264 105.086 26.2701 105.089H20.3008V103.919ZM23.4786 97.849C23.8122 97.7172 24.1587 97.6204 24.5126 97.5601C24.9409 97.478 25.377 97.443 25.813 97.4557V98.0456C25.4779 98.0562 25.1444 98.0944 24.8157 98.1597C24.4837 98.2252 24.1569 98.3145 23.8379 98.4268C23.3661 98.6239 22.9157 98.8679 22.4934 99.1552C22.2197 98.9488 22.249 98.6817 22.5546 98.3613C22.8508 98.169 23.1613 97.9993 23.4834 97.8538" fill="#004C6A"/>
<path d="M32.9574 105.099H31.4223C31.3378 105.1 31.2541 105.081 31.1779 105.045C31.1058 105.014 31.0416 104.968 30.9896 104.909C30.9366 104.851 30.8958 104.782 30.8699 104.708C30.8435 104.63 30.8303 104.547 30.8307 104.465L30.8185 101.595H29.7747C29.6375 101.594 29.5017 101.622 29.3763 101.678C29.252 101.729 29.1397 101.805 29.0463 101.901C28.951 101.996 28.8746 102.108 28.8214 102.231C28.7654 102.357 28.7371 102.494 28.7383 102.632V103.899C28.9082 103.93 29.0795 103.953 29.2516 103.967C29.4252 103.982 29.6012 103.989 29.7772 103.989C29.9532 103.989 30.0803 103.989 30.2343 103.972L30.3296 105.147L30.0485 105.164H29.7699C29.4692 105.166 29.1687 105.148 28.8703 105.111C28.5825 105.077 28.298 105.021 28.0196 104.941C27.8877 104.913 27.7694 104.84 27.6845 104.736C27.5995 104.632 27.5531 104.502 27.5528 104.368V102.629C27.5516 102.334 27.6106 102.042 27.7263 101.77C27.8358 101.508 27.9971 101.27 28.2005 101.071C28.4017 100.87 28.6399 100.709 28.9021 100.597C29.1749 100.476 29.4709 100.415 29.7699 100.418H31.2365C31.3347 100.419 31.4318 100.439 31.5225 100.476C31.6133 100.512 31.6963 100.564 31.767 100.631C31.8349 100.698 31.8918 100.775 31.9356 100.86C31.9769 100.946 31.9978 101.041 31.9967 101.136L32.0139 103.924H32.9623L32.9574 105.099Z" fill="#004C6A"/>
<path d="M32.8242 103.919H34.8116V100.6H35.9922V104.455C35.9938 104.474 35.9938 104.492 35.9922 104.511C35.9934 104.589 35.9776 104.666 35.9458 104.737C35.9171 104.807 35.8747 104.872 35.8211 104.926C35.7063 105.035 35.5544 105.097 35.3958 105.099H32.8242V103.919ZM32.9367 106.589C32.9361 106.506 32.9527 106.423 32.9856 106.347C33.0158 106.271 33.0615 106.202 33.12 106.145C33.1762 106.085 33.2445 106.038 33.3204 106.007C33.3981 105.975 33.481 105.959 33.5649 105.958C33.6487 105.959 33.7316 105.976 33.8093 106.007C33.886 106.038 33.9552 106.085 34.0122 106.145C34.0699 106.203 34.1163 106.272 34.1491 106.347C34.1809 106.424 34.1974 106.506 34.198 106.589C34.198 106.673 34.1814 106.755 34.1491 106.832C34.1163 106.906 34.0699 106.974 34.0122 107.031C33.9557 107.091 33.8864 107.137 33.8093 107.167C33.7321 107.2 33.649 107.217 33.5649 107.218C33.4808 107.218 33.3976 107.201 33.3204 107.167C33.2442 107.137 33.1756 107.091 33.12 107.031C33.0616 106.975 33.0158 106.907 32.9856 106.832C32.9521 106.756 32.9355 106.673 32.9367 106.589V106.589ZM34.4156 106.589C34.415 106.506 34.4316 106.423 34.4645 106.347C34.4938 106.27 34.5397 106.202 34.5989 106.145C34.6565 106.085 34.7259 106.037 34.8029 106.005C34.8799 105.973 34.9627 105.957 35.0462 105.958C35.1301 105.959 35.213 105.975 35.2907 106.007C35.3674 106.038 35.4365 106.085 35.4936 106.145C35.5512 106.203 35.5976 106.272 35.6305 106.347C35.6633 106.423 35.68 106.506 35.6794 106.589C35.6805 106.673 35.6639 106.756 35.6305 106.832C35.5976 106.906 35.5512 106.974 35.4936 107.031C35.437 107.091 35.3677 107.137 35.2907 107.167C35.2134 107.2 35.1303 107.218 35.0462 107.218C34.9629 107.218 34.8805 107.201 34.8037 107.169C34.727 107.137 34.6573 107.09 34.5989 107.031C34.5397 106.976 34.4938 106.908 34.4645 106.832C34.431 106.756 34.4144 106.673 34.4156 106.589Z" fill="#004C6A"/>
<path d="M39.3394 105.099H37.6601C37.5806 105.099 37.502 105.082 37.4303 105.048C37.359 105.019 37.2942 104.977 37.2396 104.924C37.1851 104.87 37.1411 104.807 37.1101 104.737C37.0798 104.666 37.064 104.59 37.0636 104.513C37.0621 104.494 37.0621 104.475 37.0636 104.455V98.4753H38.2443V103.921H39.3345L39.3394 105.099Z" fill="#004C6A"/>
<path d="M39.1816 103.919H40.1154V102.583C40.1173 102.408 40.1428 102.233 40.1912 102.064C40.2459 101.887 40.3205 101.717 40.4136 101.556C40.5088 101.389 40.6246 101.234 40.7583 101.095C40.8913 100.955 41.0416 100.831 41.2056 100.728C41.3695 100.624 41.5472 100.542 41.7337 100.486C41.9228 100.424 42.1216 100.398 42.3203 100.408L43.9948 100.432C44.0738 100.432 44.152 100.447 44.2245 100.478C44.2949 100.507 44.3589 100.549 44.4128 100.602C44.465 100.656 44.5072 100.718 44.5374 100.787C44.569 100.858 44.5848 100.935 44.5839 101.013V104.45C44.584 104.533 44.57 104.615 44.5423 104.693C44.5169 104.766 44.4779 104.834 44.4274 104.892C44.3751 104.951 44.3121 104.998 44.2417 105.033C44.165 105.068 44.0815 105.085 43.9972 105.084H39.1816V103.919ZM41.301 103.919H43.3983V101.605H42.7652H42.4474H42.2934C42.1665 101.605 42.0413 101.633 41.9268 101.687C41.8099 101.745 41.7027 101.821 41.609 101.911C41.5151 102.001 41.4388 102.108 41.3841 102.226C41.3295 102.34 41.3011 102.465 41.301 102.591V103.919Z" fill="#004C6A"/>
<path d="M48.1466 101.168C48.1466 101.462 48.1466 101.782 48.1735 102.127C48.2003 102.472 48.2028 102.855 48.2028 103.227C48.2028 103.47 48.2028 103.688 48.1857 103.919H49.0021V105.099H48.0366C47.9593 105.462 47.843 105.816 47.6895 106.155C47.5478 106.475 47.3481 106.766 47.1003 107.014C46.8444 107.264 46.54 107.459 46.2057 107.587C45.8003 107.734 45.3708 107.804 44.9395 107.794V106.619C45.2184 106.624 45.4957 106.575 45.7559 106.475C45.9697 106.389 46.1624 106.259 46.3206 106.092C46.4762 105.922 46.6003 105.727 46.6872 105.514C46.7816 105.284 46.8521 105.045 46.8975 104.8C46.9424 104.537 46.9718 104.271 46.9855 104.004C47.0001 103.727 47.0099 103.455 47.0099 103.186C47.0099 102.821 47.0099 102.457 46.9855 102.112C46.961 101.768 46.9781 101.445 46.9781 101.168H48.1466Z" fill="#004C6A"/>
<path d="M48.8657 103.919H50.0366V100.597H51.2246V103.919H52.4469V100.597H53.6275V103.919H54.8693V100.597H56.05V104.511C56.0502 104.589 56.0344 104.666 56.0035 104.737C55.9737 104.808 55.9305 104.872 55.8764 104.926C55.8219 104.979 55.7581 105.021 55.6882 105.05C55.6169 105.083 55.5393 105.099 55.4609 105.099H53.6006V104.698C53.5625 104.814 53.4879 104.914 53.388 104.985C53.2874 105.062 53.163 105.102 53.036 105.099H51.1806V104.698C51.1396 104.814 51.0636 104.915 50.963 104.986C50.8625 105.058 50.7422 105.097 50.6184 105.099H48.8535L48.8657 103.919Z" fill="#004C6A"/>
<path d="M61.8571 103.227C61.8571 103.53 61.8571 103.831 61.8277 104.142C61.806 104.452 61.7635 104.76 61.7006 105.065C61.6281 105.432 61.5141 105.791 61.3608 106.133C61.2199 106.457 61.0184 106.751 60.7668 107C60.5108 107.254 60.2046 107.454 59.8673 107.585C59.4598 107.734 59.0277 107.805 58.5938 107.794V106.619C58.8716 106.624 59.148 106.576 59.4077 106.478C59.6226 106.39 59.8166 106.258 59.9773 106.092C60.1323 105.921 60.2564 105.724 60.344 105.511C60.4384 105.281 60.5088 105.042 60.5542 104.798C60.5991 104.535 60.6284 104.27 60.6422 104.004C60.6568 103.727 60.6642 103.455 60.6642 103.183C60.6642 102.819 60.6642 102.455 60.6422 102.115C60.6202 101.775 60.6177 101.447 60.6177 101.168H61.8008C61.8008 101.459 61.8008 101.782 61.8302 102.139C61.8595 102.496 61.8571 102.855 61.8571 103.237" fill="#004C6A"/>
<path d="M65.6478 105.108C65.4987 105.128 65.352 105.14 65.2078 105.152C65.0635 105.164 64.9095 105.152 64.7531 105.152C64.5967 105.152 64.4402 105.152 64.2911 105.14C64.142 105.128 63.9904 105.113 63.8389 105.091C63.6873 105.07 63.5529 105.048 63.3989 105.023C63.2542 105.004 63.1123 104.968 62.976 104.917C62.8565 104.875 62.7484 104.806 62.6607 104.715C62.5731 104.616 62.5283 104.487 62.536 104.356V102.617C62.5335 102.328 62.5896 102.041 62.7009 101.773C62.8121 101.505 62.9763 101.262 63.1838 101.059C63.3855 100.855 63.6233 100.691 63.8853 100.573C64.1593 100.456 64.4548 100.396 64.7531 100.398H66.2198C66.3188 100.399 66.4167 100.419 66.5082 100.457C66.6001 100.491 66.6835 100.545 66.7526 100.614C66.8211 100.685 66.8758 100.767 66.914 100.857C66.9516 100.952 66.9707 101.054 66.9702 101.156C66.9702 101.447 66.9702 101.77 66.9971 102.127C67.024 102.484 67.0264 102.843 67.0264 103.224C67.0264 103.528 67.0264 103.829 66.9946 104.14C66.9745 104.45 66.9337 104.758 66.8724 105.062C66.7976 105.43 66.6828 105.789 66.5302 106.133C66.3881 106.456 66.1876 106.751 65.9387 107.002C65.6791 107.253 65.3716 107.451 65.0342 107.582C64.6276 107.731 64.1963 107.802 63.7631 107.791V106.616C64.019 106.621 64.2739 106.582 64.516 106.5C64.9057 106.36 65.2245 106.074 65.4033 105.703C65.5037 105.512 65.5855 105.312 65.6478 105.106V105.108ZM64.7531 103.982C65.1106 103.982 65.4674 103.95 65.8189 103.885C65.8311 103.642 65.836 103.399 65.836 103.156C65.836 102.914 65.836 102.608 65.8213 102.341C65.8067 102.073 65.8066 101.823 65.7969 101.583H64.7531C64.6159 101.583 64.4802 101.611 64.3547 101.666C64.2295 101.716 64.1163 101.792 64.0222 101.889C63.9284 101.985 63.853 102.097 63.7998 102.219C63.7451 102.346 63.7168 102.482 63.7167 102.62V103.887L64.0124 103.943C64.098 103.955 64.1811 103.962 64.2569 103.97C64.3327 103.977 64.4109 103.97 64.5013 103.97L64.7531 103.982Z" fill="#004C6A"/>
<path d="M70.2626 105.099H68.5858C68.5062 105.099 68.4276 105.082 68.356 105.048C68.2841 105.021 68.219 104.978 68.1653 104.924C68.1087 104.871 68.0638 104.808 68.0335 104.737C68.0031 104.667 67.9881 104.59 67.9893 104.514C67.9879 104.494 67.9879 104.475 67.9893 104.455V98.4753H69.17V103.921H70.2602L70.2626 105.099Z" fill="#004C6A"/>
<path d="M74.5993 105.099V104.696C74.56 104.811 74.4868 104.913 74.3891 104.987C74.2866 105.06 74.1634 105.099 74.0371 105.099H72.1818V104.696C72.1415 104.811 72.0675 104.913 71.9691 104.987C71.8671 105.059 71.7449 105.098 71.6195 105.099H70.1211V103.919H71.0231V100.597H72.2087V103.919H73.448V100.597H74.6287V103.919H75.868V100.597H77.0438V103.919H77.9433V105.099H74.5993ZM72.5142 99.16C72.5147 99.0764 72.5321 98.9939 72.5655 98.9172C72.5949 98.8416 72.6399 98.773 72.6975 98.7157C72.755 98.6569 72.8241 98.6106 72.9004 98.5797C72.9775 98.5461 73.0607 98.5287 73.1449 98.5287C73.229 98.5292 73.3121 98.5465 73.3893 98.5797C73.4663 98.6094 73.5357 98.6559 73.5922 98.7157C73.6522 98.7721 73.6989 98.8409 73.7291 98.9172C73.7618 98.994 73.7784 99.0766 73.778 99.16C73.7788 99.2434 73.7622 99.3261 73.7291 99.4028C73.6982 99.4773 73.6515 99.5444 73.5922 99.5994C73.5364 99.66 73.4668 99.7066 73.3893 99.7354C73.3121 99.7686 73.229 99.7859 73.1449 99.7864C73.0607 99.7864 72.9775 99.769 72.9004 99.7354C72.8236 99.7054 72.7543 99.659 72.6975 99.5994C72.6405 99.5435 72.5956 99.4766 72.5655 99.4028C72.5316 99.3263 72.5142 99.2436 72.5142 99.16V99.16ZM73.4015 97.7421C73.4008 97.6584 73.4183 97.5756 73.4529 97.4993C73.4846 97.4236 73.5301 97.3545 73.5873 97.2954C73.6461 97.2393 73.7138 97.1934 73.7878 97.1594C73.8658 97.1296 73.9486 97.114 74.0322 97.1133C74.1158 97.1142 74.1985 97.1298 74.2767 97.1594C74.3522 97.1932 74.4215 97.2391 74.482 97.2954C74.6 97.4176 74.6665 97.58 74.6678 97.7494C74.6665 97.8328 74.6491 97.9153 74.6164 97.9922C74.5841 98.0668 74.5386 98.1351 74.482 98.1937C74.4221 98.25 74.3525 98.2952 74.2767 98.3272C74.199 98.3587 74.1161 98.3752 74.0322 98.3758C73.9483 98.3755 73.8653 98.359 73.7878 98.3272C73.7134 98.2951 73.6455 98.2498 73.5873 98.1937C73.5307 98.1351 73.4852 98.0668 73.4529 97.9922C73.418 97.916 73.4005 97.8331 73.4015 97.7494V97.7421ZM74.284 99.1673C74.2856 99.0839 74.303 99.0015 74.3353 98.9245C74.3664 98.8492 74.4121 98.7807 74.4698 98.723C74.5267 98.6636 74.5959 98.6173 74.6727 98.587C74.7497 98.5535 74.8329 98.5361 74.9171 98.536C75.0012 98.5363 75.0844 98.5537 75.1615 98.587C75.2396 98.6161 75.3099 98.6626 75.3669 98.723C75.4245 98.7807 75.4702 98.8492 75.5013 98.9245C75.5336 99.0015 75.551 99.0839 75.5527 99.1673C75.5515 99.2507 75.5341 99.3332 75.5013 99.4101C75.4696 99.4835 75.4239 99.5503 75.3669 99.6067C75.3105 99.6679 75.2401 99.7145 75.1615 99.7427C75.0844 99.776 75.0012 99.7934 74.9171 99.7937C74.8329 99.7936 74.7497 99.7762 74.6727 99.7427C74.5955 99.7133 74.5261 99.6668 74.4698 99.6067C74.4127 99.5503 74.3671 99.4835 74.3353 99.4101C74.3026 99.3332 74.2851 99.2507 74.284 99.1673" fill="#004C6A"/>
<path d="M77.8301 103.919H78.7565V102.583C78.7569 102.407 78.7832 102.232 78.8348 102.064C78.8875 101.887 78.9613 101.716 79.0548 101.556C79.1499 101.39 79.2648 101.235 79.397 101.095C79.531 100.956 79.6812 100.833 79.8443 100.729C80.0084 100.624 80.186 100.542 80.3723 100.486C80.5631 100.424 80.7636 100.398 80.9639 100.408L82.6359 100.432C82.7149 100.431 82.7932 100.447 82.8657 100.478C82.9361 100.507 83 100.549 83.0539 100.602C83.1069 100.655 83.1492 100.718 83.1786 100.787C83.212 100.857 83.2288 100.935 83.2275 101.013V104.45C83.2264 104.533 83.2124 104.615 83.1859 104.693C83.1597 104.767 83.119 104.835 83.0661 104.892C83.0148 104.952 82.9515 105 82.8803 105.033C82.8039 105.068 82.7202 105.086 82.6359 105.084H77.8301V103.919ZM79.9519 103.919H82.0468V101.605H81.4161H81.0959H80.9566C80.8297 101.605 80.7044 101.633 80.5899 101.688C80.4719 101.745 80.3638 101.82 80.2697 101.911C80.1765 102.002 80.1003 102.109 80.0448 102.227C79.992 102.341 79.9645 102.465 79.9641 102.591L79.9519 103.919Z" fill="#004C6A"/>
<path d="M88.5136 105.099C88.1465 105.109 87.7812 105.045 87.4404 104.909C87.1751 104.8 86.9373 104.634 86.7438 104.424C86.5693 104.223 86.4409 103.987 86.3673 103.732C86.29 103.479 86.2505 103.216 86.25 102.952C86.2505 102.798 86.2619 102.644 86.2842 102.491C86.3026 102.344 86.3312 102.198 86.3698 102.054C86.4044 101.919 86.446 101.786 86.4944 101.656C86.5433 101.53 86.5947 101.413 86.6436 101.323L87.6947 101.862C87.5234 102.205 87.4331 102.582 87.4307 102.965C87.4291 103.089 87.4447 103.213 87.4771 103.334C87.5003 103.447 87.5525 103.552 87.6287 103.639C87.7172 103.731 87.8249 103.801 87.944 103.846C88.1091 103.906 88.2839 103.936 88.4598 103.933H91.3344V100.6H92.5151V103.919H93.4611V105.099H88.5136ZM87.7484 99.5607C87.7493 99.4774 87.7659 99.3951 87.7973 99.3179C87.829 99.2429 87.8746 99.1746 87.9318 99.1164C87.99 99.0591 88.0589 99.0137 88.1347 98.9828C88.2116 98.9487 88.2948 98.9305 88.3791 98.9294C88.4634 98.9307 88.5465 98.9489 88.6236 98.9828C88.701 99.0119 88.7711 99.0575 88.8289 99.1164C88.8868 99.174 88.9325 99.2425 88.9633 99.3179C88.9967 99.3946 89.0142 99.4771 89.0147 99.5607C89.0144 99.6442 88.997 99.7269 88.9633 99.8035C88.9319 99.8778 88.8862 99.9454 88.8289 100.003C88.7711 100.061 88.701 100.107 88.6236 100.136C88.5462 100.169 88.4631 100.185 88.3791 100.185C88.2951 100.185 88.2119 100.169 88.1347 100.136C88.0589 100.105 87.99 100.06 87.9318 100.003C87.8752 99.9448 87.8297 99.8773 87.7973 99.8035C87.7656 99.7264 87.749 99.644 87.7484 99.5607V99.5607ZM89.2151 99.5607C89.2156 99.4771 89.2331 99.3946 89.2664 99.3179C89.2964 99.2426 89.3413 99.1741 89.3984 99.1164C89.4566 99.0591 89.5256 99.0137 89.6013 98.9828C89.6783 98.949 89.7616 98.9315 89.8458 98.9315C89.93 98.9315 90.0132 98.949 90.0902 98.9828C90.1677 99.0119 90.2377 99.0575 90.2956 99.1164C90.3535 99.174 90.3992 99.2425 90.43 99.3179C90.4634 99.3946 90.4808 99.4771 90.4813 99.5607C90.4811 99.6442 90.4636 99.7269 90.43 99.8035C90.3986 99.8778 90.3529 99.9454 90.2956 100.003C90.2377 100.061 90.1677 100.107 90.0902 100.136C89.9333 100.198 89.7583 100.198 89.6013 100.136C89.5258 100.106 89.4572 100.061 89.3997 100.004C89.3421 99.9466 89.2968 99.8785 89.2664 99.8035C89.2328 99.7269 89.2154 99.6442 89.2151 99.5607" fill="#004C6A"/>
<path d="M93.2734 103.919H98.6316V103.351C98.6339 103.194 98.6281 103.038 98.6145 102.882C98.6084 102.794 98.577 102.71 98.524 102.639C98.4695 102.582 98.3955 102.546 98.3163 102.54C98.1889 102.525 98.0607 102.519 97.9325 102.52L95.0701 102.508C94.876 102.519 94.6833 102.471 94.5176 102.37C94.3846 102.278 94.2824 102.148 94.2243 101.998C94.1673 101.835 94.1489 101.662 94.1705 101.491C94.1941 101.296 94.2512 101.106 94.3392 100.93C94.5339 100.534 94.8027 100.178 95.1312 99.8811C95.457 99.5793 95.826 99.3273 96.2263 99.1333C96.6273 98.9327 97.053 98.7849 97.4925 98.6938C97.9196 98.603 98.3563 98.5639 98.7929 98.5773L98.7538 99.7548C98.4376 99.7446 98.1211 99.769 97.8103 99.8276C97.4876 99.8895 97.1733 99.9889 96.8741 100.124C96.5791 100.254 96.3036 100.424 96.0552 100.629C95.8128 100.825 95.6125 101.068 95.4661 101.343H97.5561C97.8518 101.343 98.1109 101.343 98.3383 101.357C98.5363 101.362 98.7335 101.385 98.9274 101.425C99.0779 101.453 99.2215 101.51 99.3503 101.593C99.468 101.673 99.5631 101.781 99.6265 101.908C99.7052 102.068 99.7564 102.239 99.778 102.416C99.8109 102.663 99.8265 102.912 99.8245 103.161V103.491C99.8245 103.601 99.8245 103.707 99.8245 103.812C99.8245 103.916 99.8245 104.028 99.8245 104.147V104.513C99.8267 104.592 99.8099 104.669 99.7756 104.739C99.7475 104.81 99.7051 104.875 99.6509 104.929C99.5968 104.982 99.5329 105.024 99.4627 105.052C99.3904 105.085 99.3121 105.101 99.2329 105.101H93.2734V103.919Z" fill="#004C6A"/>
<path d="M103.325 101.168C103.325 101.462 103.325 101.782 103.352 102.127C103.379 102.472 103.382 102.855 103.382 103.227C103.382 103.47 103.382 103.688 103.364 103.919H104.178V105.099H103.213C103.136 105.462 103.019 105.816 102.866 106.155C102.724 106.475 102.524 106.766 102.277 107.014C102.02 107.264 101.715 107.459 101.38 107.587C100.974 107.734 100.545 107.804 100.113 107.794V106.619C100.391 106.625 100.668 106.576 100.927 106.475C101.143 106.391 101.338 106.26 101.497 106.092C101.652 105.922 101.777 105.727 101.864 105.514C101.958 105.284 102.028 105.045 102.074 104.8C102.118 104.536 102.149 104.271 102.164 104.004C102.179 103.727 102.186 103.455 102.186 103.186C102.186 102.821 102.186 102.457 102.164 102.112C102.142 101.768 102.142 101.45 102.142 101.168H103.325Z" fill="#004C6A"/>
<path d="M104.041 103.919H105.209V100.597H106.397V103.919H107.634V100.597H108.822V103.919H110.064V100.597H111.245V104.514C111.245 104.59 111.23 104.666 111.201 104.737C111.171 104.808 111.127 104.871 111.071 104.924C111.019 104.979 110.954 105.022 110.883 105.05C110.812 105.082 110.736 105.099 110.658 105.099H108.796V104.696C108.756 104.812 108.682 104.914 108.583 104.987C108.482 105.061 108.359 105.101 108.233 105.099H106.378V104.696C106.339 104.814 106.263 104.916 106.162 104.988C106.06 105.061 105.938 105.099 105.813 105.099H104.048L104.041 103.919ZM106.669 99.1602C106.669 99.0766 106.687 98.994 106.72 98.9174C106.783 98.7649 106.904 98.6435 107.057 98.5799C107.134 98.5457 107.218 98.5283 107.302 98.5289C107.386 98.5292 107.469 98.5465 107.546 98.5799C107.623 98.6096 107.693 98.6561 107.749 98.7159C107.81 98.7716 107.857 98.8406 107.886 98.9174C107.919 98.9942 107.935 99.0768 107.935 99.1602C107.936 99.2436 107.919 99.3263 107.886 99.403C107.856 99.478 107.809 99.5453 107.749 99.5996C107.693 99.6602 107.624 99.7068 107.546 99.7356C107.469 99.769 107.386 99.7863 107.302 99.7866C107.218 99.7872 107.134 99.7698 107.057 99.7356C106.98 99.7068 106.91 99.6602 106.855 99.5996C106.796 99.5445 106.75 99.4774 106.72 99.403C106.686 99.3265 106.669 99.2438 106.669 99.1602V99.1602ZM107.559 97.7423C107.558 97.6589 107.575 97.5763 107.607 97.4995C107.639 97.4238 107.685 97.3547 107.742 97.2956C107.801 97.2395 107.868 97.1935 107.942 97.1596C108.02 97.13 108.103 97.1144 108.187 97.1135C108.271 97.1114 108.356 97.1265 108.434 97.1578C108.513 97.1891 108.584 97.236 108.644 97.2956C108.762 97.4178 108.828 97.5802 108.83 97.7496C108.828 97.833 108.811 97.9155 108.778 97.9924C108.746 98.067 108.701 98.1353 108.644 98.1939C108.522 98.3118 108.357 98.3771 108.187 98.376C108.103 98.3754 108.02 98.3589 107.942 98.3274C107.868 98.2953 107.8 98.25 107.742 98.1939C107.685 98.1353 107.64 98.067 107.607 97.9924C107.575 97.9156 107.558 97.833 107.559 97.7496V97.7423ZM108.441 99.1675C108.442 99.0842 108.458 99.0018 108.49 98.9247C108.521 98.8494 108.567 98.7809 108.624 98.7232C108.682 98.6644 108.751 98.6181 108.827 98.5872C108.904 98.5537 108.988 98.5363 109.072 98.5362C109.156 98.5365 109.239 98.5539 109.316 98.5872C109.394 98.6163 109.464 98.6628 109.522 98.7232C109.58 98.7803 109.626 98.8489 109.656 98.9247C109.688 99.0017 109.706 99.084 109.707 99.1675C109.706 99.2509 109.689 99.3334 109.656 99.4102C109.625 99.4842 109.579 99.5511 109.522 99.6069C109.465 99.6681 109.395 99.7147 109.316 99.7429C109.239 99.7762 109.156 99.7936 109.072 99.7939C108.988 99.7938 108.904 99.7764 108.827 99.7429C108.75 99.7129 108.681 99.6665 108.624 99.6069C108.567 99.5505 108.522 99.4837 108.49 99.4102C108.458 99.3332 108.441 99.2508 108.441 99.1675" fill="#004C6A"/>
<path d="M57.7745 13.8174C55.5989 13.917 54.296 12.0208 54.4452 10.1343C54.5674 8.5829 55.7383 7.0412 57.5227 7.22086C59.5858 7.42966 60.83 9.16317 60.8398 11.0691C60.8398 12.8584 59.1287 13.7592 57.7745 13.8199" fill="#004C6A"/>
<path d="M81.3338 41.4761C81.2947 43.4184 80.2045 44.29 78.3516 44.3264C76.1809 44.375 75.1738 43.2581 75.3278 41.1192C75.4769 39.1769 76.704 38.4485 78.5276 38.5068C80.4685 38.5529 81.3851 39.5605 81.3338 41.4761Z" fill="#004C6A"/>
<path d="M40.5654 47.3978C42.5087 47.5386 43.7432 48.9637 43.8312 50.8502C43.9192 52.7367 42.4916 53.7637 40.7732 53.6811C39.1256 53.601 37.8936 52.6031 37.8399 50.6754C37.7861 48.7477 38.8421 47.2764 40.5605 47.3978" fill="#004C6A"/>
<path d="M68.5817 11.8849C68.5964 13.985 67.3033 14.7692 65.531 14.6551C63.7099 14.5337 62.6417 13.2906 62.7542 11.4989C62.8666 9.70709 63.9519 8.5854 65.8806 8.75536C67.8093 8.92531 68.633 10.0858 68.5817 11.8946" fill="#004C6A"/>
<path d="M38.9678 25.2384C38.8114 27.5012 37.3496 27.9504 35.6238 27.9285C33.5192 27.897 32.9619 26.5374 33.045 24.7189C33.1232 23.0558 33.8614 21.9705 35.6678 22.0336C37.8018 22.104 38.6867 23.4661 38.9678 25.2384" fill="#004C6A"/>
<path d="M81.4445 24.4053C81.3638 26.0126 80.4105 27.2193 78.4916 27.0226C76.8367 26.8575 75.4703 25.9446 75.4825 23.9926C75.4947 22.0406 76.6558 21.0816 78.5112 21.101C80.4276 21.118 81.3761 22.2518 81.4445 24.4053Z" fill="#004C6A"/>
<path d="M40.7394 13.4535C42.4774 13.9391 43.7363 15.0777 43.6971 17.0152C43.6531 19.0158 42.0471 19.4892 40.3727 19.5014C38.4171 19.5159 37.5616 18.4307 37.7449 16.5223C37.9111 14.7815 38.6665 13.5822 40.7394 13.4535Z" fill="#004C6A"/>
<path d="M79.5837 35.8409C78.5692 35.8264 77.1784 34.9766 77.3275 33.0732C77.4497 31.512 78.3052 30.0116 80.2853 29.9582C82.2237 29.9096 83.1697 30.8662 83.2186 32.8474C83.2675 34.8285 82.4437 35.8361 79.5837 35.8409Z" fill="#004C6A"/>
<path d="M37.0405 34.1096C36.8914 35.7363 35.9772 36.7536 34.0925 36.7803C31.6969 36.8119 30.8145 35.2216 30.7778 33.5318C30.7509 32.2887 31.8265 30.9243 33.6085 30.8611C36.0261 30.764 37.175 32.6602 37.0307 34.1218" fill="#004C6A"/>
<path d="M33.2882 43.0443C33.2222 41.3326 34.2391 40.3493 36.1653 40.4537C38.05 40.5508 38.9691 41.7842 39.0644 43.5541C39.1744 45.5693 37.9717 46.3778 36.0944 46.3243C34.1682 46.2685 33.2271 45.2367 33.2882 43.0443" fill="#004C6A"/>
<path d="M76.4777 48.7232C76.1819 50.6436 74.8204 51.7556 73.0041 51.7945C71.425 51.8284 70.633 50.5805 70.6061 48.915C70.5768 46.9873 71.5399 45.936 73.3855 45.8826C75.1626 45.8292 76.353 46.6911 76.4777 48.7232" fill="#004C6A"/>
<path d="M48.9501 57.6847C46.6914 58.3353 45.6305 56.7888 45.6061 54.8198C45.5865 53.1979 46.0339 51.9063 47.9063 51.8772C50.0378 51.8262 51.0841 53.2805 51.3701 55.0965C51.6634 57.0388 49.9401 57.4006 48.9501 57.6847" fill="#004C6A"/>
<path d="M73.6084 19.5668C70.7313 19.528 69.5946 18.8967 69.6631 17.0758C69.7437 15.0364 70.9635 13.7958 72.9362 13.8637C74.6644 13.922 75.7938 14.9854 75.5982 16.969C75.4027 18.9526 74.156 19.5596 73.6084 19.5668" fill="#004C6A"/>
<path d="M56.377 59.1801C54.9104 59.0781 54.5241 57.3567 54.4875 55.8733C54.4508 54.2296 55.2941 52.7631 57.3939 53.1467C59.0928 53.4502 60.2735 54.4748 60.0828 56.32C59.9117 58.0365 59.039 59.2675 56.3673 59.1801" fill="#004C6A"/>
<path d="M51.5099 11.744C51.6468 13.9849 50.2877 14.723 48.5301 14.7109C46.7212 14.7109 45.4672 13.7397 45.6921 11.744C45.8852 10.0081 46.8923 8.60718 48.7354 8.78927C50.2925 8.94708 51.813 9.76042 51.5099 11.744Z" fill="#004C6A"/>
<path d="M68.5826 55.0529C68.3382 56.7111 67.1819 57.6094 65.3804 57.6799C63.5104 57.7575 62.9359 56.546 62.8235 55.0092C62.7281 53.5087 63.0533 52.1564 64.8964 51.9087C67.1819 51.6004 68.8637 53.2077 68.5826 55.065" fill="#004C6A"/>
<path d="M57.7527 15.5849C48.3782 15.3567 39.8887 23.8664 39.8887 33.476C39.8887 42.7991 47.7524 50.9155 56.8604 51.0151C67.4718 51.1267 75.7829 43.4401 75.8953 33.4153C75.9956 24.454 67.2029 15.818 57.7502 15.5849H57.7527ZM57.1929 45.2051C50.9669 45.1614 46.606 40.4076 46.6231 33.6921C46.6402 26.8212 51.0818 22.2956 57.7796 22.2956C64.1791 22.2956 68.7918 27.1854 68.7502 33.9058C68.7111 40.3178 63.6707 45.2415 57.1953 45.193" fill="#004C6A"/>
<path d="M48.713 33.2916C48.6886 28.5548 52.6608 24.4055 57.1732 24.4517C62.2234 24.5075 66.4205 28.7587 66.4156 33.8063C66.4156 37.822 62.3016 41.7722 58.1045 41.8183C53.1521 41.8717 48.7497 37.8657 48.7252 33.2916" fill="#004C6A"/>
</svg>
