<svg width="115" height="115" viewBox="0 0 115 115" fill="none" xmlns="http://www.w3.org/2000/svg">
<path d="M37.2282 91.4455V90.4296C37.2291 90.3005 37.2497 90.1723 37.2894 90.0496C37.329 89.9194 37.3838 89.7944 37.4526 89.6774C37.5246 89.5558 37.6102 89.443 37.7076 89.3413C37.8032 89.2369 37.9111 89.1449 38.0289 89.0673C38.1465 88.9898 38.2745 88.9297 38.4089 88.8889C38.5457 88.8455 38.6888 88.8255 38.8321 88.8295L40.0433 88.845C40.1564 88.8469 40.2642 88.8932 40.3442 88.9742C40.3822 89.0134 40.4132 89.0589 40.436 89.1087C40.4593 89.1607 40.4714 89.217 40.4717 89.2741V91.8591C40.4714 91.9171 40.4593 91.9743 40.436 92.0272C40.4145 92.0784 40.3833 92.125 40.3442 92.1642C40.3051 92.2033 40.2593 92.2348 40.2091 92.2572C40.1569 92.2808 40.1005 92.2931 40.0433 92.2934H37.6209C37.522 92.2923 37.4232 92.2983 37.3251 92.3115C37.2439 92.3196 37.1654 92.3461 37.0957 92.3891C37.0312 92.4319 36.9807 92.4931 36.9503 92.5649C36.9108 92.6632 36.8925 92.769 36.8968 92.8751V94.2684H36.0374V92.8751C36.0335 92.6772 36.0646 92.4802 36.1292 92.2934C36.1853 92.1362 36.272 91.992 36.3842 91.8695C36.4925 91.7538 36.6214 91.66 36.7642 91.5929C36.9148 91.5223 37.0744 91.4736 37.2384 91.4481L37.2282 91.4455ZM38.0978 91.4249H39.6277V89.711H39.1713H38.8347C38.7413 89.71 38.649 89.7303 38.5644 89.7704C38.3899 89.8535 38.25 89.9963 38.1692 90.1737C38.1284 90.2646 38.1075 90.3634 38.108 90.4632L38.0978 91.4249Z" fill="#004C6A"/>
<path d="M43.2484 92.2986C43.1413 92.3115 43.0342 92.3219 42.9297 92.327C42.8251 92.3322 42.7129 92.327 42.6007 92.327C42.4885 92.327 42.3738 92.327 42.2641 92.327L41.9378 92.2934L41.619 92.2417C41.5145 92.2275 41.4119 92.2015 41.313 92.1642C41.2266 92.132 41.1482 92.0808 41.0835 92.0143C41.0234 91.9422 40.9916 91.8501 40.9943 91.7558V90.4632C40.9926 90.2457 41.0352 90.0301 41.1192 89.8299C41.2003 89.6368 41.3172 89.4613 41.4635 89.3129C41.6107 89.1649 41.7836 89.0458 41.9735 88.9613C42.1715 88.8747 42.3851 88.8307 42.6007 88.8321H43.664C43.7368 88.8321 43.8088 88.8471 43.8757 88.876C43.9407 88.9023 43.9998 88.9419 44.0491 88.9923C44.0982 89.0429 44.1371 89.1025 44.1638 89.1681C44.1926 89.2377 44.2073 89.3124 44.2072 89.3878C44.2072 89.605 44.2072 89.8402 44.2276 90.0987C44.248 90.3572 44.2454 90.6157 44.2454 90.9104C44.2454 91.1302 44.2454 91.3577 44.225 91.5851C44.2095 91.8144 44.1788 92.0424 44.1332 92.2676C44.0793 92.5405 43.9937 92.806 43.8782 93.0586C43.7753 93.2971 43.6301 93.5144 43.4498 93.6997C43.2628 93.8869 43.0397 94.033 42.7945 94.1288C42.5003 94.24 42.1879 94.2935 41.874 94.2865V93.4153C42.0595 93.42 42.2442 93.3911 42.4197 93.33C42.562 93.2779 42.6928 93.198 42.8047 93.0948C42.9099 92.9931 42.9962 92.8732 43.0597 92.7407C43.131 92.5997 43.1899 92.4526 43.2357 92.3012L43.2484 92.2986ZM42.588 91.4688C42.8447 91.4698 43.1009 91.4456 43.3529 91.3964C43.3529 91.2232 43.3529 91.0449 43.3529 90.8613C43.3529 90.6778 43.3529 90.4606 43.3529 90.2616C43.3529 90.0625 43.3529 89.879 43.3351 89.7032H42.5701C42.4702 89.702 42.3711 89.7222 42.2794 89.7627C42.1901 89.8022 42.1088 89.8583 42.0398 89.9281C41.9722 89.9996 41.9178 90.0828 41.8791 90.1737C41.8384 90.2664 41.8176 90.3669 41.8179 90.4684V91.4042C41.897 91.4223 41.9684 91.4378 42.0321 91.4481L42.208 91.4662H42.3763L42.588 91.4688Z" fill="#004C6A"/>
<path d="M45.9714 87.3948H45.1172V92.2805H45.9714V87.3948Z" fill="#004C6A"/>
<path d="M46.9355 92.2857V91.4145H49.1973C49.1906 91.1575 49.1573 90.9019 49.0979 90.652C49.055 90.4614 48.9676 90.284 48.8429 90.135C48.6836 89.9637 48.4761 89.8464 48.2487 89.7989C47.9075 89.7216 47.5578 89.6894 47.2084 89.7033V88.8347C47.4638 88.8316 47.7193 88.8437 47.9733 88.8709C48.1869 88.8921 48.3978 88.9345 48.6032 88.9975C48.7823 89.0514 48.9538 89.1287 49.1132 89.2276C49.2569 89.3211 49.3873 89.4342 49.5007 89.5637C49.6896 89.7887 49.8264 90.0536 49.9011 90.3392C49.9927 90.6881 50.0466 91.0461 50.0617 91.4068H50.5589V92.2779L46.9355 92.2857Z" fill="#004C6A"/>
<path d="M50.4883 91.4198H51.164V90.4297C51.1643 90.3009 51.1832 90.1729 51.2201 90.0497C51.2581 89.9177 51.312 89.7909 51.3807 89.6723C51.4519 89.5494 51.5376 89.4357 51.6357 89.3336C51.7316 89.2293 51.8404 89.138 51.9596 89.0622C52.0785 88.9861 52.2072 88.9269 52.3421 88.8864C52.4805 88.8424 52.6255 88.8232 52.7704 88.8296L53.9791 88.8451C54.037 88.8453 54.0943 88.8576 54.1474 88.8812C54.1986 88.9018 54.2448 88.9336 54.2825 88.9743C54.3205 89.0135 54.3515 89.0589 54.3743 89.1087C54.3968 89.1609 54.4081 89.2173 54.4075 89.2742V91.8153C54.4075 91.8775 54.398 91.9395 54.3794 91.9988C54.3604 92.054 54.331 92.105 54.2927 92.1487C54.2553 92.1924 54.2092 92.2276 54.1576 92.2521C54.1019 92.2791 54.0408 92.2924 53.9791 92.2909H50.4883V91.4198ZM52.0182 91.4198H53.5354V89.7085H53.079H52.7373C52.6487 89.7087 52.5614 89.73 52.4823 89.7705C52.3963 89.8108 52.3178 89.8659 52.2503 89.9334C52.1821 90.001 52.1268 90.0807 52.0871 90.1686C52.0501 90.2497 52.0301 90.3378 52.0284 90.4271L52.0182 91.4198Z" fill="#004C6A"/>
<path d="M58.2173 92.2909C57.9554 92.2971 57.695 92.2487 57.4523 92.1488C57.2571 92.0684 57.0826 91.9437 56.9423 91.7843C56.8149 91.6344 56.7217 91.4579 56.6695 91.2673C56.6148 91.0802 56.5873 90.886 56.5879 90.6908C56.5883 90.5776 56.5951 90.4646 56.6083 90.3522C56.6226 90.2423 56.6439 90.1335 56.672 90.0265C56.6965 89.9275 56.7263 89.83 56.7613 89.7343C56.7925 89.646 56.8292 89.5596 56.8709 89.4758L57.6359 89.8765C57.5135 90.1301 57.449 90.4085 57.4472 90.6908C57.4466 90.7831 57.4569 90.8751 57.4778 90.9648C57.4954 91.0471 57.5331 91.1235 57.5875 91.1871C57.6506 91.2567 57.7293 91.3099 57.8169 91.3422C57.9365 91.3849 58.0625 91.4059 58.1892 91.4043H60.2725V88.9485H61.1267V91.4043H61.8101V92.2754L58.2173 92.2909ZM57.6614 88.1988C57.6611 88.1356 57.6741 88.073 57.6996 88.0153C57.7218 87.9585 57.7547 87.9067 57.7965 87.8628C57.838 87.8205 57.8875 87.7871 57.9419 87.7646C57.9993 87.7407 58.0608 87.7284 58.1229 87.7284C58.185 87.7286 58.2464 87.7409 58.304 87.7646C58.3592 87.7871 58.4094 87.8205 58.4519 87.8628C58.4937 87.9067 58.5266 87.9585 58.5488 88.0153C58.5735 88.0732 58.5857 88.1358 58.5845 88.1988C58.5857 88.2611 58.5735 88.3228 58.5488 88.3798C58.5259 88.4354 58.4931 88.4863 58.4519 88.5297C58.4088 88.5712 58.3587 88.6045 58.304 88.628C58.2464 88.6516 58.185 88.6639 58.1229 88.6641C58.0608 88.6641 57.9993 88.6519 57.9419 88.628C57.8861 88.6041 57.8358 88.5689 57.7941 88.5244C57.7524 88.4799 57.7202 88.4272 57.6996 88.3695C57.6741 88.3127 57.661 88.2509 57.6614 88.1885V88.1988ZM58.7324 88.1885C58.7323 88.1255 58.7445 88.0632 58.768 88.005C58.7912 87.9481 58.8249 87.8963 58.8675 87.8524C58.909 87.8102 58.9584 87.7768 59.0128 87.7542C59.0695 87.7306 59.1301 87.7183 59.1913 87.718C59.2543 87.718 59.3166 87.7303 59.3749 87.7542C59.4301 87.7768 59.4804 87.8101 59.5228 87.8524C59.5646 87.8964 59.5975 87.9482 59.6197 88.005C59.6445 88.0628 59.6566 88.1254 59.6554 88.1885C59.6567 88.2507 59.6445 88.3125 59.6197 88.3695C59.5969 88.4251 59.564 88.4759 59.5228 88.5194C59.4797 88.5609 59.4296 88.5941 59.3749 88.6176C59.3166 88.6415 59.2543 88.6538 59.1913 88.6538C59.1301 88.6535 59.0695 88.6412 59.0128 88.6176C58.9552 88.5945 58.9028 88.5596 58.8589 88.5151C58.8151 88.4707 58.7807 88.4176 58.7578 88.3591C58.7343 88.3018 58.7221 88.2403 58.7221 88.1782" fill="#004C6A"/>
<path d="M61.707 92.2908V91.4197H62.5536C62.4899 91.289 62.4419 91.151 62.4108 91.0087C62.3802 90.8625 62.3648 90.7135 62.3649 90.564C62.3654 90.3462 62.3998 90.1299 62.4669 89.9229C62.5312 89.7206 62.6333 89.5328 62.7678 89.3697C62.9036 89.2039 63.0732 89.0698 63.265 88.9768C63.4789 88.8759 63.7126 88.8255 63.9484 88.8295H64.9965C65.0703 88.8291 65.1434 88.8449 65.2106 88.876C65.2754 88.904 65.3343 88.9444 65.384 88.9949C65.4327 89.0478 65.4716 89.1091 65.4988 89.1759C65.5285 89.2442 65.5433 89.3183 65.5421 89.393V91.8565C65.5421 91.9145 65.53 91.9718 65.5064 92.0246C65.4624 92.1277 65.3812 92.21 65.2795 92.2546C65.2273 92.2782 65.1709 92.2905 65.1137 92.2908H61.707ZM63.288 90.944C63.3343 91.0772 63.4164 91.1945 63.5251 91.2827C63.6457 91.3779 63.7958 91.4265 63.9484 91.4197H64.6879V89.7006H63.9484C63.8415 89.6971 63.7353 89.7202 63.6393 89.768C63.5433 89.8157 63.4603 89.8867 63.3976 89.9746C63.3369 90.0577 63.292 90.1515 63.265 90.2512C63.2347 90.3527 63.2192 90.458 63.2191 90.564C63.2199 90.6282 63.2259 90.6922 63.237 90.7553C63.2477 90.8198 63.2648 90.883 63.288 90.944V90.944ZM63.7087 87.9014C63.7075 87.8384 63.7197 87.7758 63.7444 87.7179C63.7667 87.6619 63.7996 87.611 63.8413 87.568C63.8828 87.5257 63.9323 87.4923 63.9867 87.4697C64.0438 87.4446 64.1055 87.4323 64.1677 87.4336C64.2299 87.4325 64.2916 87.4449 64.3488 87.4697C64.404 87.4923 64.4542 87.5257 64.4967 87.568C64.5393 87.6103 64.5723 87.6614 64.5936 87.7179C64.6191 87.7756 64.6322 87.8382 64.6318 87.9014C64.6325 87.9647 64.6194 88.0274 64.5936 88.085C64.5722 88.1407 64.5391 88.1909 64.4967 88.2323C64.4543 88.2754 64.4041 88.3097 64.3488 88.3331C64.2912 88.3568 64.2298 88.3691 64.1677 88.3693C64.1056 88.3693 64.0441 88.357 63.9867 88.3331C63.9321 88.3097 63.8827 88.2754 63.8413 88.2323C63.7997 88.1903 63.7667 88.1402 63.7444 88.085C63.7194 88.0272 63.7073 87.9645 63.7087 87.9014" fill="#004C6A"/>
<path d="M68.1048 89.3853C68.1048 89.5998 68.1048 89.8376 68.1277 90.0961C68.1507 90.3546 68.1456 90.6261 68.1456 90.9079C68.1456 91.0785 68.1456 91.2491 68.1328 91.4249H68.7244V92.296H68.0257C67.9675 92.5628 67.882 92.8227 67.7708 93.0715C67.6677 93.3077 67.5225 93.5224 67.3424 93.7049C67.1567 93.8901 66.9354 94.0344 66.6922 94.1288C66.4004 94.239 66.0906 94.2917 65.7793 94.2839V93.4128C65.9804 93.4171 66.1804 93.382 66.3683 93.3094C66.5241 93.2451 66.6642 93.1472 66.7789 93.0224C66.8894 92.8976 66.9758 92.753 67.0338 92.5959C67.103 92.4298 67.1534 92.2564 67.1843 92.0789C67.2182 91.8848 67.2412 91.6888 67.2531 91.4921C67.2531 91.2879 67.2659 91.0862 67.2659 90.8872C67.2659 90.6157 67.2659 90.3521 67.2531 90.0936C67.2404 89.8351 67.2353 89.6024 67.2353 89.3956L68.1048 89.3853Z" fill="#004C6A"/>
<path d="M71.8653 92.2909V91.9937C71.8363 92.0789 71.7831 92.1535 71.7123 92.2082C71.6384 92.263 71.5489 92.2921 71.4573 92.2909H70.1212V91.9937C70.0931 92.0801 70.0386 92.1552 69.9656 92.2082C69.8919 92.2634 69.8023 92.2924 69.7107 92.2909H68.627V91.4198H69.2772V88.964H70.1365V91.4198H71.0315V88.964H71.8857V91.4198H72.7858V88.964H73.64V91.4198H74.2903V92.2909H71.8653ZM70.3558 87.8964C70.3545 87.8333 70.3667 87.7707 70.3915 87.7128C70.4127 87.6563 70.4458 87.6052 70.4884 87.5629C70.5303 87.5212 70.5796 87.4879 70.6337 87.4647C70.7497 87.4164 70.8798 87.4164 70.9958 87.4647C71.0541 87.4867 71.1071 87.5212 71.1511 87.5658C71.1951 87.6104 71.2291 87.664 71.2508 87.7232C71.2755 87.781 71.2877 87.8436 71.2865 87.9067C71.288 87.9698 71.2758 88.0324 71.2508 88.0902C71.2285 88.1454 71.1955 88.1955 71.1539 88.2376C71.1116 88.2807 71.0613 88.3149 71.006 88.3384C70.9209 88.3758 70.8266 88.3862 70.7356 88.3682C70.6445 88.3502 70.561 88.3047 70.496 88.2376C70.4535 88.1962 70.4205 88.1459 70.3991 88.0902C70.3741 88.0324 70.362 87.9698 70.3634 87.9067L70.3558 87.8964ZM71.006 86.8598C71.0048 86.7959 71.017 86.7324 71.0417 86.6736C71.0639 86.6177 71.0969 86.5667 71.1386 86.5237C71.1801 86.4815 71.2295 86.4481 71.2839 86.4255C71.341 86.4004 71.4028 86.388 71.465 86.3893C71.5272 86.3878 71.589 86.4001 71.646 86.4255C71.702 86.4479 71.7531 86.4813 71.7965 86.5237C71.8792 86.6159 71.9262 86.7352 71.9291 86.8598C71.9294 86.9222 71.9164 86.9839 71.8908 87.0407C71.8695 87.0958 71.8374 87.1459 71.7965 87.1881C71.708 87.2761 71.5889 87.3253 71.465 87.3251C71.4029 87.3251 71.3414 87.3128 71.2839 87.2889C71.2294 87.2654 71.1799 87.2311 71.1386 87.1881C71.0969 87.146 71.064 87.0959 71.0417 87.0407C71.0169 86.9838 71.0047 86.922 71.006 86.8598V86.8598ZM71.6435 87.9067C71.6431 87.8435 71.6562 87.7809 71.6817 87.7232C71.7039 87.6672 71.7369 87.6162 71.7786 87.5732C71.8201 87.531 71.8695 87.4976 71.924 87.475C71.981 87.4499 72.0428 87.4376 72.105 87.4388C72.1672 87.4378 72.2289 87.4501 72.286 87.475C72.3443 87.497 72.3973 87.5315 72.4413 87.5761C72.4853 87.6207 72.5193 87.6744 72.541 87.7335C72.5658 87.7914 72.578 87.854 72.5767 87.917C72.5782 87.9801 72.566 88.0428 72.541 88.1006C72.5187 88.1558 72.4858 88.2059 72.4441 88.2479C72.4018 88.291 72.3516 88.3253 72.2962 88.3487C72.2387 88.3724 72.1773 88.3847 72.1152 88.3849C72.0531 88.3849 71.9916 88.3726 71.9342 88.3487C71.8796 88.3253 71.8302 88.291 71.7888 88.2479C71.7471 88.2059 71.7142 88.1558 71.6919 88.1006C71.6661 88.043 71.653 87.9803 71.6537 87.917" fill="#004C6A"/>
<path d="M75.0232 91.4198V88.964H75.8774V91.4198H76.6092V92.2909H74.2148V91.4198H75.0232ZM74.4112 93.3947C74.4112 93.3318 74.4233 93.2694 74.4469 93.2112C74.4701 93.1551 74.5038 93.1042 74.5463 93.0613C74.5884 93.019 74.6376 92.9849 74.6917 92.9604C74.749 92.9361 74.8106 92.9238 74.8727 92.9242C74.9338 92.9238 74.9943 92.9356 75.0508 92.9591C75.1073 92.9827 75.1586 93.0174 75.2017 93.0613C75.2434 93.1043 75.2763 93.1552 75.2985 93.2112C75.3462 93.3288 75.3462 93.4607 75.2985 93.5783C75.2763 93.6334 75.2433 93.6835 75.2017 93.7256C75.1134 93.8121 74.9954 93.8603 74.8727 93.86C74.8105 93.8618 74.7486 93.8494 74.6917 93.8238C74.6373 93.8012 74.5878 93.7678 74.5463 93.7256C74.5039 93.6837 74.47 93.6336 74.4469 93.5783C74.4233 93.52 74.4112 93.4577 74.4112 93.3947V93.3947ZM75.4821 93.3947C75.4821 93.3318 75.4943 93.2694 75.5178 93.2112C75.5421 93.1557 75.5757 93.1049 75.6173 93.0613C75.6593 93.019 75.7086 92.9849 75.7626 92.9604C75.8192 92.9365 75.8799 92.9242 75.9411 92.9242C76.004 92.9247 76.0662 92.937 76.1247 92.9604C76.1792 92.9855 76.2292 93.0195 76.2726 93.0613C76.3143 93.1043 76.3473 93.1552 76.3695 93.2112C76.4171 93.3288 76.4171 93.4607 76.3695 93.5783C76.3472 93.6334 76.3143 93.6835 76.2726 93.7256C76.2297 93.7674 76.1796 93.8007 76.1247 93.8238C76.0667 93.8487 76.0041 93.861 75.9411 93.86C75.8797 93.8613 75.8188 93.849 75.7626 93.8238C75.7082 93.8012 75.6588 93.7678 75.6173 93.7256C75.5756 93.683 75.5419 93.6331 75.5178 93.5783C75.4943 93.52 75.4821 93.4577 75.4821 93.3947" fill="#004C6A"/>
<path d="M76.4609 91.4274H78.2459V88.9717H79.1001V91.8152C79.1016 91.8289 79.1016 91.8428 79.1001 91.8566C79.1001 91.9145 79.0879 91.9718 79.0644 92.0246C79.0431 92.076 79.0119 92.1226 78.9726 92.1616C78.933 92.2013 78.8863 92.2329 78.8349 92.2547C78.7819 92.2785 78.7246 92.2908 78.6666 92.2908H76.466L76.4609 91.4274ZM76.7899 93.193C76.8122 93.1378 76.8451 93.0877 76.8868 93.0457C76.9281 93.0026 76.9775 92.9683 77.0321 92.9449C77.0888 92.9212 77.1494 92.9089 77.2106 92.9087C77.2735 92.9087 77.3359 92.9209 77.3942 92.9449C77.4495 92.9683 77.4998 93.0026 77.5421 93.0457C77.5838 93.0883 77.6174 93.1382 77.6415 93.193C77.6642 93.2505 77.6755 93.312 77.6747 93.374C77.6755 93.4376 77.6643 93.5008 77.6415 93.5601C77.6173 93.6156 77.5837 93.6664 77.5421 93.71C77.4997 93.7523 77.4494 93.7857 77.3942 93.8083C77.3362 93.8333 77.2736 93.8457 77.2106 93.8444C77.1492 93.8455 77.0884 93.8331 77.0321 93.8083C76.9777 93.7857 76.9283 93.7523 76.8868 93.71C76.8015 93.6193 76.7532 93.4993 76.7516 93.374C76.7512 93.3115 76.7643 93.2498 76.7899 93.193ZM77.4325 94.2425C77.4547 94.1866 77.4876 94.1356 77.5293 94.0926C77.5715 94.0512 77.6208 94.0179 77.6747 93.9944C77.7907 93.9461 77.9208 93.9461 78.0368 93.9944C78.0915 94.0178 78.1416 94.0511 78.1847 94.0926C78.2264 94.1356 78.2593 94.1866 78.2816 94.2425C78.3063 94.2995 78.3185 94.3612 78.3173 94.4235C78.3185 94.4874 78.3063 94.5508 78.2816 94.6096C78.2599 94.6687 78.2258 94.7224 78.1818 94.767C78.1378 94.8116 78.0849 94.8461 78.0266 94.8681C77.9106 94.9164 77.7805 94.9164 77.6645 94.8681C77.6101 94.8455 77.5607 94.8121 77.5192 94.7699C77.4774 94.7269 77.4445 94.6759 77.4223 94.6199C77.3975 94.5612 77.3853 94.4977 77.3866 94.4338C77.3853 94.3716 77.3975 94.3098 77.4223 94.2529L77.4325 94.2425ZM78.0597 93.2034C78.0838 93.1485 78.1175 93.0986 78.1592 93.056C78.2005 93.013 78.2499 92.9787 78.3045 92.9552C78.3619 92.931 78.4234 92.9187 78.4856 92.919C78.5476 92.9193 78.6091 92.9315 78.6666 92.9552C78.7219 92.9787 78.7722 93.0129 78.8145 93.056C78.8562 93.0981 78.8891 93.1482 78.9114 93.2034C78.9362 93.2603 78.9484 93.3221 78.9471 93.3843C78.9483 93.4482 78.9361 93.5116 78.9114 93.5704C78.8897 93.6295 78.8557 93.6832 78.8117 93.7278C78.7677 93.7724 78.7147 93.8069 78.6564 93.8289C78.5992 93.8538 78.5375 93.8661 78.4754 93.8651C78.4131 93.8666 78.3513 93.8543 78.2943 93.8289C78.2399 93.8063 78.1905 93.7729 78.149 93.7307C78.1074 93.687 78.0737 93.6363 78.0495 93.5808C78.0259 93.5216 78.0138 93.4584 78.0138 93.3947C78.0138 93.3325 78.026 93.271 78.0495 93.2137" fill="#004C6A"/>
<path d="M92.1969 22.3321C92.1969 22.3321 91.8884 22.1434 91.6538 22.5364C91.6538 22.5364 90.4758 23.9866 89.5425 23.8108C88.6092 23.635 85.6616 23.7694 84.6059 23.9478C83.5503 24.1262 82.3238 23.4644 82.8363 22.9448C82.8363 22.9448 82.821 22.7561 83.7823 22.3942C84.3549 22.1812 84.8936 21.8842 85.3811 21.5127C85.3811 21.5127 86.8396 20.7915 87.5842 20.0341C88.3288 19.2766 87.8035 19.106 87.8035 19.106C87.8035 19.106 87.4312 19.0569 82.9128 20.003C81.9126 20.1768 81.0114 20.7202 80.3833 21.5282C80.1768 21.7867 79.9957 21.9935 79.8351 22.1615H79.8121V22.177C79.6459 22.3572 79.4669 22.5248 79.2766 22.6785C78.6799 22.8818 78.0637 23.0204 77.4382 23.0921C74.6532 23.2852 71.8813 23.6382 69.1357 24.1494C64.8621 24.9043 60.6854 26.1192 56.8963 28.1873C53.5075 30.0356 50.162 30.1855 46.61 29.3247C43.8459 28.6551 41.1074 27.8667 38.3331 27.2385C35.4135 26.5768 31.4943 25.5324 28.4803 25.5324C25.4663 25.5324 22.3606 27.8073 22.8476 32.0596C23.0847 34.0889 23.2352 34.0243 24.1225 36.5343C26.4327 41.9629 29.7323 46.616 33.3531 50.8528C33.7152 51.2949 34.2609 51.313 35.2936 50.9252C35.4211 50.7804 34.4368 49.8317 34.1921 49.5836C33.9132 49.296 33.6502 48.9931 33.4041 48.6762C32.8942 47.999 32.4173 47.3062 31.9176 46.6263C31.7365 46.3678 30.8517 45.127 30.6783 44.8168C30.1556 43.9404 28.8934 41.6372 28.7047 41.2494C27.6414 39.1142 24.834 33.9932 25.2776 30.9532C25.7519 28.6267 27.8887 27.404 30.2958 27.8305C35.1916 28.6965 40.0084 29.9192 44.8302 31.0954C46.9594 31.6124 49.1115 31.8477 51.2738 32.1941C53.2882 32.5172 55.2414 32.0028 57.0569 31.16C60.2905 29.6308 63.6357 28.3569 67.0627 27.3497C69.6446 26.6321 72.2809 26.1332 74.9444 25.8581C75.3371 25.8116 76.8696 25.7082 77.303 25.5867C78.5321 25.2481 79.2945 25.7056 79.7994 26.8353C79.9737 27.2589 80.2344 27.6403 80.5643 27.9546C81.2401 28.5517 81.133 28.9162 80.5006 29.5289C77.0786 32.8351 75.6099 37.1496 74.6002 41.6785C74.2636 43.1856 74.4344 44.7366 74.3452 46.3445C72.754 45.6957 71.3414 44.9667 69.9109 44.2765C66.7796 42.7824 64.0258 40.4765 60.3335 40.1766C56.6413 39.8768 53.0051 38.9643 49.369 38.1836C47.8697 37.8604 44.1264 36.8911 43.7847 36.798C40.1716 35.8105 36.6833 34.4715 33.2104 33.0781C32.68 32.8415 32.091 32.7744 31.522 32.8857C30.953 32.997 30.431 33.2814 30.0255 33.7011C29.3218 34.4379 29.0056 35.4641 29.2937 36.9324C29.5207 38.0957 29.5921 39.1736 32.1598 44.2196C32.7572 45.4033 33.4614 46.5282 34.2635 47.5802C34.7479 48.2238 36.4028 50.5581 36.7751 50.7624C37.948 51.1941 38.0296 50.8115 38.0143 50.7417C37.9557 50.4832 37.739 50.3384 37.5681 50.1419C34.2533 46.3419 31.9048 42.0301 30.7242 37.0901C30.5177 36.2241 30.4539 35.3917 31.1194 34.7222C31.6498 34.1897 32.3204 34.2052 32.9834 34.3345C33.1848 34.404 33.3801 34.4905 33.5673 34.593C42.2854 38.3128 49.8203 40.1094 58.2375 41.8698C59.9459 42.2266 61.7589 42.2033 63.2863 43.333C64.857 44.4936 66.6394 45.3183 68.2968 46.3419C70.2194 47.5311 72.4531 48.1696 74.1616 49.7025C74.8298 50.3221 75.6705 50.7175 76.5687 50.8347C79.6285 51.2432 82.6246 50.4418 85.6667 50.4599C86.0823 50.4599 86.832 50.372 86.7606 49.6017C86.6943 48.8701 85.9956 48.9528 85.5366 48.8727C84.5396 48.7047 83.5248 48.6556 82.5201 48.5366C80.6255 48.3092 78.8738 47.3527 76.9358 47.3915C76.3341 47.3915 76.2576 47.1614 76.2627 46.647C76.2524 44.5627 76.5515 42.4887 77.15 40.4946C78.0043 37.77 79.3251 35.309 81.4211 33.3392C81.6761 33.1092 82.0407 32.5637 82.413 32.5224C82.5475 32.5908 82.6719 32.6778 82.7827 32.7809C83.0377 33.0394 83.9684 33.1841 84.2617 33.1712C84.5541 33.1571 84.8406 33.0826 85.1037 32.9524C85.3667 32.8222 85.6008 32.6389 85.7916 32.4138C85.9067 32.2932 85.9903 32.1454 86.0349 31.9838C86.0794 31.8222 86.0834 31.6519 86.0466 31.4883C85.9217 30.9274 85.8069 30.0588 85.8936 29.6426C86.2812 27.7659 85.7993 26.5768 85.7967 26.5742C86.482 26.3824 87.1765 26.2263 87.8774 26.1063C90.2361 25.6798 91.3861 25.3954 92.2122 23.7126C92.2122 23.7126 92.7885 22.5467 92.2122 22.3115L92.1969 22.3321Z" fill="#004C6A"/>
<path d="M37.6351 68.0717C35.993 68.0717 34.0474 68.0717 33.517 67.9864C33.4348 68.5834 33.2629 69.164 33.0071 69.7081C33.3921 69.6822 33.8383 69.6796 35.047 69.6796C34.213 71.1211 33.2827 72.5031 32.2625 73.8157C31.5664 74.7437 29.8682 74.7179 28.8406 74.7179H28.4122C29.0445 74.0328 29.3403 73.5184 29.3403 71.5305C29.3403 69.3022 28.3663 68.0614 26.2244 68.0614H24.3884C22.0782 70.4577 21.5504 71.422 21.5504 72.9394C21.5356 73.5744 21.7214 74.1975 22.0808 74.7179H21.0226C18.7685 74.7179 18.2177 74.2939 18.2177 72.518C18.2177 69.9511 18.2177 69.0205 18.2458 68.5138C17.666 68.7408 17.0572 68.8827 16.4379 68.9351C16.4914 69.6564 16.5424 71.6391 16.5501 73.5882C15.6372 74.2888 14.0512 74.6377 11.5778 74.6998L11.0678 74.7127C8.42614 74.7127 7.92381 74.007 7.89576 72.3707C7.84221 69.7856 7.70197 68.4233 7.56173 67.578C6.99952 67.9468 6.37827 68.2136 5.72581 68.3664C5.889 69.0566 6.15929 70.419 6.40408 73.4512C5.48102 74.2913 4.03523 74.7127 2.64044 74.7127C1.88822 74.7127 1.47004 74.4852 1.47004 74.0639V72.7377C1.09093 72.9534 0.676136 73.0971 0.246094 73.1617C0.274143 73.5288 0.274143 74.3172 0.274143 74.9712C0.302191 76.1836 0.78412 76.972 2.27836 76.972C3.72414 76.972 5.56006 76.4085 6.00374 75.6485C6.19754 75.3047 6.43468 74.8988 6.60297 74.5938C6.79421 76.1629 7.71472 76.972 10.846 76.972L11.2361 76.9513C13.6432 76.8764 15.3746 76.5222 15.9585 75.7881C16.1829 75.483 16.4685 75.0643 16.777 74.6739C16.9581 76.1448 17.9576 76.972 20.7702 76.972H28.2796C30.7836 76.972 31.9234 76.4938 32.5098 75.6485C32.8158 75.2245 33.1193 74.7437 33.5298 74.1259C33.5298 75.8734 34.8659 76.9694 36.9518 76.9694C37.7575 76.9694 38.4536 76.9126 39.3155 76.8867C40.1238 75.3615 41.1795 74.8549 41.1795 71.6675C41.1795 69.4961 39.7898 68.0485 37.6096 68.0485L37.6351 68.0717ZM27.1194 74.8109C24.2814 74.7825 23.2792 73.8803 23.2792 72.1044C23.2792 71.4013 23.4475 70.7524 24.0876 69.7934H25.6175C27.1194 69.7934 27.5937 70.6671 27.5937 72.1199C27.5937 73.6994 27.4815 74.2345 27.1194 74.798V74.8109ZM39.3308 74.6015C38.6678 74.6951 37.9983 74.7331 37.3291 74.7153C35.687 74.7153 34.9654 74.0664 34.9654 73.079C34.9654 72.4224 35.1209 71.8433 36.2403 69.7805H37.0435C38.6296 69.7805 39.4353 71.104 39.4353 72.6007C39.4353 73.7847 39.4073 74.1776 39.3231 74.6015" fill="#00AAA5"/>
<path d="M72.3251 66.3061C72.2687 65.7043 72.2687 65.0984 72.3251 64.4966H70.2852C70.3132 65.0601 70.3132 65.9054 70.2852 66.3061H72.3251Z" fill="#004C6A"/>
<path d="M80.0674 62.9689C78.6317 64.1366 77.1371 65.2281 75.5898 66.2389V67.5082C77.5635 66.2157 78.563 65.5048 80.3173 64.1812C80.1937 63.7865 80.1083 63.3804 80.0623 62.9689" fill="#004C6A"/>
<path d="M27.2609 66.3061C27.2045 65.7043 27.2045 65.0984 27.2609 64.4966H25.2031C25.2598 65.0984 25.2598 65.7043 25.2031 66.3061H27.2609Z" fill="#00AAA5"/>
<path d="M92.2306 68.8058C92.5085 70.4396 92.7865 73.6838 92.8706 75.4597C92.4269 76.6178 90.6165 77.6312 89.3926 78.1973C89.9572 78.6784 90.4623 79.2269 90.897 79.831C91.4605 79.4987 91.9908 79.1117 92.4805 78.6755C93.7554 77.4631 94.319 75.7699 94.319 73.5701C94.319 71.851 94.2068 69.4831 94.1787 68.2423C93.5613 68.5294 92.9044 68.7194 92.2306 68.8058" fill="#004C6A"/>
<path d="M110.938 68.9454H103.579C105.971 67.7899 107.697 66.7456 109.587 65.6185C109.311 65.0499 109.133 64.438 109.059 63.809C107.975 64.6827 104.497 67.0248 101.409 68.9403C101.412 69.556 101.357 70.1707 101.243 70.7756H110.354C112.078 70.7756 113.414 71.8743 113.414 73.6192C113.414 73.9578 113.386 74.3533 113.358 74.6532C112.896 74.7011 112.432 74.7201 111.968 74.7101H99.851C99.1014 74.7101 98.7112 74.3999 98.7112 73.6761V63.2506C98.0978 63.6125 97.4138 63.834 96.707 63.8995C96.9034 65.3652 97.0691 68.6921 97.1813 74.6713C97.2094 76.1654 97.9055 76.9849 99.2391 76.9849C109.727 76.9849 108.796 76.928 111.884 76.928C112.31 76.9188 112.736 76.9378 113.159 76.9849C113.967 75.545 114.995 74.6997 114.995 72.6679C114.995 70.5533 113.243 68.9454 110.933 68.9454" fill="#004C6A"/>
<path d="M85.1072 68.9454H77.7482C80.2522 67.6788 81.8663 66.7456 83.7583 65.6185C83.482 65.05 83.3027 64.4382 83.2279 63.809C82.1442 64.6827 78.6662 67.0247 75.5783 68.9403C75.5817 69.5562 75.5254 70.1709 75.41 70.7756H84.5207C86.247 70.7756 87.5806 71.8743 87.5806 73.6192C87.5806 73.9578 87.5525 74.3533 87.5245 74.6532C87.0629 74.7011 86.5987 74.7201 86.1348 74.71H76.1341C73.6301 74.71 72.6025 74.2292 72.4904 72.3137C72.4062 71.0729 72.3527 69.6046 72.3246 68.2242C71.708 68.5109 71.052 68.701 70.379 68.7877C70.6544 70.4215 70.9349 73.6657 71.0165 75.4416C70.5703 76.5997 68.7624 77.613 67.541 78.1792C68.104 78.6604 68.6074 79.209 69.0404 79.8129C69.605 79.4812 70.1362 79.0941 70.6264 78.6574C71.4615 77.8546 72.03 76.8085 72.2532 75.6639C72.7453 76.5583 73.8265 76.9564 75.6624 76.9564C83.896 76.9564 82.9653 76.8996 86.0532 76.8996C86.479 76.8903 86.9049 76.9093 87.3282 76.9564C88.1339 75.5166 89.1641 74.6713 89.1641 72.6394C89.1641 70.5249 87.4123 68.917 85.1021 68.917" fill="#004C6A"/>
<path d="M54.7161 69.6796H56.3021C56.4021 69.0249 56.619 68.3942 56.9422 67.8184H55.1904C54.4382 67.8184 53.2142 67.8468 52.1841 67.9295C51.2406 69.2014 49.5424 70.7239 49.5424 72.8669C49.5424 74.586 50.6286 75.5166 52.7144 75.5166H55.1623C54.966 77.1245 53.4386 77.6622 51.2406 77.6622H49.6826C47.3877 77.6622 46.5106 76.5609 46.5106 74.9246C46.5337 74.0439 46.6267 73.1664 46.7885 72.3008C46.3565 72.4949 45.8969 72.6188 45.4269 72.6679C45.3988 73.6011 45.1719 74.7359 45.1719 75.969C45.1719 78.3653 46.4468 79.8026 49.1778 79.8026H50.9627C54.9686 79.8026 56.6107 77.3494 56.6107 74.9246C56.6107 73.9087 56.2766 73.4305 55.2771 73.4305H53.4412C51.9367 73.4305 51.1871 73.0634 51.1871 71.9363C51.2394 71.1655 51.4785 70.4196 51.8832 69.7649C52.2708 69.708 52.8827 69.6796 54.7187 69.6796" fill="#004C6A"/>
<path d="M65.6488 76.9823C66.1262 76.7429 66.6305 76.5632 67.1507 76.4472C67.1788 65.5901 67.2042 63.7289 67.2348 63.2635C66.5865 63.6143 65.8774 63.8346 65.1465 63.9124C65.3428 65.3781 65.5927 69.4392 65.6565 76.9953" fill="#004C6A"/>
<path d="M60.3908 68.8058C60.6687 70.4396 60.9466 73.6838 61.0308 75.4597C60.5846 76.6178 58.7767 77.6312 57.5527 78.1973C58.1165 78.6785 58.6208 79.227 59.0546 79.831C59.6192 79.4993 60.1504 79.1122 60.6407 78.6755C61.9156 77.4631 62.4766 75.7699 62.4766 73.5701C62.4766 71.851 62.3644 69.4831 62.3363 68.2423C61.72 68.5297 61.0638 68.7197 60.3908 68.8058" fill="#004C6A"/>
<path d="M9.32812 78.7142C9.38483 79.316 9.38483 79.922 9.32812 80.5238H11.3859C11.3295 79.9219 11.3295 79.3161 11.3859 78.7142H9.32812Z" fill="#00AAA5"/>
<path d="M11.9121 78.7142C11.9688 79.316 11.9688 79.922 11.9121 80.5238H13.9699C13.9135 79.9219 13.9135 79.3161 13.9699 78.7142H11.9121Z" fill="#00AAA5"/>
</svg>
