<svg width="115" height="115" viewBox="0 0 115 115" fill="none" xmlns="http://www.w3.org/2000/svg">
<path d="M68.6111 26.6062C70.4577 29.0683 71.6887 31.8382 72.3043 34.6081C72.612 35.2237 72.612 35.8392 72.612 36.4547C73.2276 39.5324 72.9198 42.9179 71.9965 46.3033L69.2266 45.38C70.1499 42.6101 70.1499 39.8402 69.8421 36.7625C69.8421 36.147 69.5344 35.5314 69.5344 35.2237C68.9188 33.0693 67.9955 30.9149 66.7644 29.0683C67.38 28.145 67.9955 27.2217 68.6111 26.6062ZM37.5265 21.9897C41.5275 18.912 46.4518 17.6809 51.0683 17.6809C56.3003 17.6809 61.8402 19.8353 65.8411 23.5285C65.2256 24.144 64.6101 25.0673 63.9945 25.6829C60.3013 22.2974 55.6848 20.4508 51.0683 20.4508C46.144 20.4508 41.2197 21.9897 37.2188 25.6829L37.5265 21.9897Z" fill="#004A69"/>
<path d="M56.6081 38.3014C52.9149 41.379 49.5295 42.3023 45.8362 38.6091L45.2207 37.9936L44.9129 37.6858L44.2974 37.0703L37.2188 29.9916V25.9906L46.4518 35.5314C48.6062 37.9936 51.0683 37.0703 53.5304 34.6081C55.377 33.0693 57.2236 30.6072 59.378 28.145C65.5334 20.4508 73.2276 12.7566 83.9994 13.6799C67.9955 18.912 65.5334 28.7606 56.6081 38.3014Z" fill="#004A69"/>
<path d="M67.6905 48.4577C68.6138 47.5344 69.8449 47.5344 70.7682 48.4577C71.6915 49.381 71.6915 50.6121 70.7682 51.5354C69.8449 52.4587 68.6138 52.4587 67.6905 51.5354C66.7672 50.6121 66.7672 49.381 67.6905 48.4577Z" fill="#004A69"/>
<path d="M63.9988 53.9977C64.6143 53.3821 65.5376 53.3821 66.4609 53.9977C67.0764 54.6132 67.0764 55.5365 66.4609 56.4598C65.8454 57.0753 64.9221 57.0753 63.9988 56.4598C63.3832 55.8443 63.3832 54.6132 63.9988 53.9977Z" fill="#004A69"/>
<path d="M59.3796 57.6905C59.9952 57.075 60.6107 57.075 61.2262 57.6905C61.8418 58.3061 61.8418 58.9216 61.2262 59.5371C60.6107 60.1527 59.9952 60.1527 59.3796 59.5371C58.7641 58.9216 58.7641 58.3061 59.3796 57.6905Z" fill="#004A69"/>
<path d="M37.2188 32.7614L45.5285 41.6867C49.8372 45.6876 53.8382 43.841 57.5314 40.4556C59.6858 38.3012 62.1479 35.5313 64.3023 32.7614C64.9178 32.1459 65.2256 31.5303 65.8411 30.9148C66.7644 32.1459 67.38 33.6847 67.6877 35.2235C67.6877 35.5313 67.6877 35.8391 67.9955 36.1468C65.8411 38.9168 63.379 41.6867 61.2246 44.1488C56.3003 49.0731 50.7605 50.9197 44.6052 44.4566L37.2188 37.0701V32.7614Z" fill="#009A9B"/>
<path d="M54.4535 59.5374C54.7612 59.2296 55.6846 58.9219 55.9923 59.5374C56.3001 59.8452 56.6079 60.7685 55.9923 61.0762C55.6846 61.384 54.7612 61.6918 54.4535 61.0762C54.1457 60.4607 54.1457 59.8452 54.4535 59.5374Z" fill="#004A69"/>
<path d="M49.5281 59.8451C49.8358 59.5373 50.4514 59.5373 51.0669 59.8451C51.3747 60.1529 51.3747 60.7684 51.0669 61.3839C50.7591 61.6917 50.1436 61.6917 49.5281 61.3839C48.9125 61.0762 48.9125 60.4606 49.5281 59.8451Z" fill="#004A69"/>
<path d="M36.6036 92.1606C35.3725 92.1606 34.4492 93.0839 34.4492 94.315C34.4492 95.5461 35.3725 96.4694 36.6036 96.4694C38.1424 96.4694 38.758 95.5461 38.758 94.315C38.758 93.0839 37.8347 92.1606 36.6036 92.1606Z" fill="#004A69"/>
<path d="M41.2208 92.1606C39.9897 92.1606 39.0664 93.0839 39.0664 94.315C39.0664 95.5461 39.9897 96.4694 41.2208 96.4694C42.7596 96.4694 43.3752 95.5461 43.3752 94.315C43.3752 93.0839 42.7596 92.1606 41.2208 92.1606Z" fill="#004A69"/>
<path d="M66.7696 92.1606C65.5385 92.1606 64.6152 93.0839 64.6152 94.315C64.6152 95.5461 65.5385 96.4694 66.7696 96.4694C68.3084 96.4694 68.924 95.5461 68.924 94.315C69.2318 93.0839 68.3084 92.1606 66.7696 92.1606Z" fill="#004A69"/>
<path d="M71.6934 92.1606C70.4624 92.1606 69.5391 93.0839 69.5391 94.315C69.5391 95.5461 70.4624 96.4694 71.6934 96.4694C73.2323 96.4694 73.8478 95.5461 73.8478 94.315C73.8478 93.0839 73.2323 92.1606 71.6934 92.1606Z" fill="#004A69"/>
<path d="M69.2344 96.1614C68.0034 96.1614 67.0801 97.0847 67.0801 98.3158C67.0801 99.5468 68.0034 100.47 69.2344 100.47C70.7733 100.47 71.3888 99.5468 71.3888 98.3158C71.3888 97.0847 70.7733 96.1614 69.2344 96.1614Z" fill="#004A69"/>
<path d="M59.6901 87.2363H57.2279C55.3813 87.2363 54.458 86.0052 54.458 83.8508C54.458 81.3887 55.6891 80.7732 57.2279 80.7732H59.6901V87.2363ZM76.0017 85.3897V77.08H72.0008V84.7741C72.0008 86.313 71.693 87.2363 70.4619 87.2363H63.9988V77.3877H56.6124C53.2269 77.3877 50.457 79.8499 50.457 84.1586C50.457 87.8518 52.9192 90.9295 55.9968 90.9295H59.6901C59.3823 92.7761 57.8435 93.3916 56.3046 93.3916C54.7658 93.3916 53.2269 92.7761 52.3036 92.4683L51.3803 95.546C52.6114 96.1615 54.458 96.4693 56.3046 96.4693C58.1512 96.4693 60.3056 96.1615 61.8444 94.9305C63.0755 94.0072 63.691 92.4683 63.691 90.9295H71.693C72.9241 90.9295 74.1551 90.314 74.7707 89.6984C75.694 88.7751 76.0017 87.2363 76.0017 85.3897Z" fill="#004A69"/>
<path d="M47.0714 85.3896V77.0799H43.0705V84.7741C43.0705 86.3129 42.7627 87.2362 41.5316 87.2362H36.9151C35.3763 87.2362 34.7607 86.0052 34.7607 84.1585V72.4634H30.7598V85.0818C30.7598 89.0828 32.6064 90.9294 35.3763 90.9294H42.7627C43.9938 90.9294 45.2248 90.3139 45.8404 89.6984C46.7637 88.7751 47.0714 87.2362 47.0714 85.3896Z" fill="#004A69"/>
</svg>
